<svg width="20" height="20" viewBox="0 0 20 20" fill="none" xmlns="http://www.w3.org/2000/svg">
<g clip-path="url(#clip0_434_150)">
<path d="M17.5 20.0006H15.8333V15.7981C15.8327 15.1447 15.5728 14.5183 15.1109 14.0564C14.6489 13.5944 14.0225 13.3346 13.3692 13.3339H6.63083C5.9775 13.3346 5.35111 13.5944 4.88914 14.0564C4.42716 14.5183 4.16733 15.1447 4.16667 15.7981V20.0006H2.5V15.7981C2.50132 14.7029 2.93696 13.653 3.71135 12.8786C4.48575 12.1042 5.53567 11.6686 6.63083 11.6672H13.3692C14.4643 11.6686 15.5143 12.1042 16.2886 12.8786C17.063 13.653 17.4987 14.7029 17.5 15.7981V20.0006Z" fill="#1070B0"/>
<path d="M9.99994 10C9.01103 10 8.04434 9.70676 7.22209 9.15735C6.39984 8.60794 5.75898 7.82705 5.38054 6.91342C5.00211 5.99979 4.90309 4.99446 5.09601 4.02455C5.28894 3.05465 5.76514 2.16373 6.46441 1.46447C7.16367 0.765206 8.05458 0.289002 9.02449 0.0960758C9.9944 -0.0968503 10.9997 0.00216643 11.9134 0.380605C12.827 0.759043 13.6079 1.39991 14.1573 2.22215C14.7067 3.0444 14.9999 4.0111 14.9999 5C14.9986 6.32568 14.4714 7.59668 13.534 8.53407C12.5966 9.47147 11.3256 9.99868 9.99994 10ZM9.99994 1.66667C9.34067 1.66667 8.6962 1.86217 8.14804 2.22844C7.59988 2.59471 7.17263 3.1153 6.92034 3.72439C6.66805 4.33348 6.60204 5.0037 6.73066 5.6503C6.85927 6.29691 7.17674 6.89085 7.64292 7.35703C8.10909 7.8232 8.70304 8.14067 9.34964 8.26929C9.99624 8.3979 10.6665 8.33189 11.2756 8.0796C11.8846 7.82731 12.4052 7.40007 12.7715 6.8519C13.1378 6.30374 13.3333 5.65927 13.3333 5C13.3333 4.11595 12.9821 3.2681 12.357 2.64298C11.7318 2.01786 10.884 1.66667 9.99994 1.66667Z" fill="#1070B0"/>
</g>
<defs>
<clipPath id="clip0_434_150">
<rect width="20" height="20" fill="white"/>
</clipPath>
</defs>
</svg>
