<svg width="20" height="20" viewBox="0 0 20 20" fill="none" xmlns="http://www.w3.org/2000/svg">
<g clip-path="url(#clip0_434_149)">
<path d="M1.56513 4.26764L0.244293 2.94681L1.42263 1.76847L2.74429 3.08931C2.90293 3.241 3.11397 3.32566 3.33346 3.32566C3.55295 3.32566 3.76399 3.241 3.92263 3.08931L6.91096 0.101807L8.08929 1.28014L5.10096 4.26764C4.86881 4.49983 4.59319 4.68402 4.28985 4.80968C3.98651 4.93534 3.66138 5.00002 3.33304 5.00002C3.0047 5.00002 2.67958 4.93534 2.37624 4.80968C2.0729 4.68402 1.79728 4.49983 1.56513 4.26764ZM10.0001 4.16681H20.0001V2.50014H10.0001V4.16681ZM3.33346 11.6668C3.66189 11.6677 3.98723 11.6035 4.29064 11.4777C4.59404 11.352 4.86947 11.1673 5.10096 10.9343L8.08929 7.94681L6.91096 6.76847L3.92263 9.75597C3.76399 9.90767 3.55295 9.99233 3.33346 9.99233C3.11397 9.99233 2.90293 9.90767 2.74429 9.75597L1.42263 8.43514L0.244293 9.61347L1.56513 10.9343C1.79682 11.1672 2.07241 11.3519 2.37594 11.4776C2.67947 11.6034 3.00492 11.6677 3.33346 11.6668ZM10.0001 10.8335H20.0001V9.16681H10.0001V10.8335ZM3.33346 18.3335C3.66189 18.3344 3.98723 18.2701 4.29064 18.1444C4.59404 18.0187 4.86947 17.834 5.10096 17.601L8.08929 14.6135L6.91096 13.4351L3.92263 16.4226C3.76399 16.5743 3.55295 16.659 3.33346 16.659C3.11397 16.659 2.90293 16.5743 2.74429 16.4226L1.42263 15.1018L0.244293 16.2801L1.56513 17.601C1.79682 17.8339 2.07241 18.0186 2.37594 18.1443C2.67947 18.27 3.00492 18.3343 3.33346 18.3335ZM10.0001 17.5001H20.0001V15.8335H10.0001V17.5001Z" fill="#1070B0"/>
</g>
<defs>
<clipPath id="clip0_434_149">
<rect width="20" height="20" fill="white"/>
</clipPath>
</defs>
</svg>
