<svg width="1422" height="878" viewBox="0 0 1422 878" fill="none" xmlns="http://www.w3.org/2000/svg">
<g filter="url(#filter0_d_607_14)">
<path fill-rule="evenodd" clip-rule="evenodd" d="M1504.85 423.031V867.687C1504.85 873.21 1500.37 877.687 1494.85 877.687H612.745L432.088 697.03C424.278 689.22 424.278 676.557 432.088 668.746L1077.18 23.6503C1084.99 15.8399 1097.66 15.8399 1105.47 23.6504L1504.85 423.031Z" fill="#EAF4FA"/>
</g>
<g filter="url(#filter1_d_607_14)">
<path fill-rule="evenodd" clip-rule="evenodd" d="M963.574 878H121.977L20.1098 776.133C12.2993 768.323 12.2993 755.659 20.1098 747.849L528.633 239.325C536.444 231.515 549.107 231.515 556.918 239.325L1065.44 747.849C1073.25 755.659 1073.25 768.323 1065.44 776.133L963.574 878Z" fill="#F7FAFB"/>
</g>
<defs>
<filter id="filter0_d_607_14" x="412.23" y="0.79248" width="1102.62" height="883.895" filterUnits="userSpaceOnUse" color-interpolation-filters="sRGB">
<feFlood flood-opacity="0" result="BackgroundImageFix"/>
<feColorMatrix in="SourceAlpha" type="matrix" values="0 0 0 0 0 0 0 0 0 0 0 0 0 0 0 0 0 0 127 0" result="hardAlpha"/>
<feOffset dx="-2" dy="-5"/>
<feGaussianBlur stdDeviation="6"/>
<feComposite in2="hardAlpha" operator="out"/>
<feColorMatrix type="matrix" values="0 0 0 0 0.461667 0 0 0 0 0.461667 0 0 0 0 0.461667 0 0 0 0.02 0"/>
<feBlend mode="normal" in2="BackgroundImageFix" result="effect1_dropShadow_607_14"/>
<feBlend mode="normal" in="SourceGraphic" in2="effect1_dropShadow_607_14" result="shape"/>
</filter>
<filter id="filter1_d_607_14" x="0.251953" y="216.467" width="1081.05" height="668.533" filterUnits="userSpaceOnUse" color-interpolation-filters="sRGB">
<feFlood flood-opacity="0" result="BackgroundImageFix"/>
<feColorMatrix in="SourceAlpha" type="matrix" values="0 0 0 0 0 0 0 0 0 0 0 0 0 0 0 0 0 0 127 0" result="hardAlpha"/>
<feOffset dx="-2" dy="-5"/>
<feGaussianBlur stdDeviation="6"/>
<feComposite in2="hardAlpha" operator="out"/>
<feColorMatrix type="matrix" values="0 0 0 0 0.461667 0 0 0 0 0.461667 0 0 0 0 0.461667 0 0 0 0.02 0"/>
<feBlend mode="normal" in2="BackgroundImageFix" result="effect1_dropShadow_607_14"/>
<feBlend mode="normal" in="SourceGraphic" in2="effect1_dropShadow_607_14" result="shape"/>
</filter>
</defs>
</svg>
