<svg width="60" height="60" viewBox="0 0 60 60" fill="none" xmlns="http://www.w3.org/2000/svg">
<g clip-path="url(#clip0_1015_9730)">
<path d="M26.25 0.175781C21.0469 0.820312 16.2656 2.75391 11.9531 5.95312C10.1953 7.26562 7.26562 10.1953 5.95312 11.9531C2.71875 16.3125 0.808594 21.082 0.164062 26.3672C-0.0351562 28.1016 -0.0351562 31.8984 0.164062 33.6328C0.808594 38.918 2.71875 43.6875 5.95312 48.0469C7.26562 49.8047 10.1953 52.7344 11.9531 54.0469C16.3125 57.2812 21.082 59.1914 26.3672 59.8359C28.1016 60.0352 31.8984 60.0352 33.6328 59.8359C38.918 59.1914 43.6875 57.2812 48.0469 54.0469C49.8047 52.7344 52.7344 49.8047 54.0469 48.0469C57.2812 43.6875 59.1914 38.918 59.8359 33.6328C60.0352 31.8984 60.0352 28.1016 59.8359 26.3672C59.1914 21.082 57.2812 16.3125 54.0469 11.9531C52.7344 10.1953 49.8047 7.26562 48.0469 5.95312C43.6875 2.71875 38.918 0.808594 33.6328 0.164062C31.957 -0.0351562 27.9141 -0.0234375 26.25 0.175781ZM33.4688 2.03906C38.5078 2.70703 42.8203 4.45312 46.875 7.45312C48.457 8.625 51.375 11.543 52.5469 13.125C56.2969 18.1758 58.125 23.7188 58.125 30C58.125 36.2812 56.2969 41.8242 52.5469 46.875C51.375 48.457 48.457 51.375 46.875 52.5469C41.8242 56.2969 36.2812 58.125 30 58.125C23.7188 58.125 18.1758 56.2969 13.125 52.5469C11.543 51.375 8.625 48.457 7.45312 46.875C3.70312 41.8242 1.875 36.2812 1.875 30C1.875 23.7188 3.70312 18.1758 7.45312 13.125C8.625 11.543 11.543 8.625 13.125 7.45312C17.2031 4.42969 21.4688 2.71875 26.7773 2.00391C27.9961 1.82812 32.0742 1.86328 33.4688 2.03906Z" fill="#1362A2"/>
<path d="M26.3675 5.8598C23.2386 6.35199 20.6253 7.25433 17.9534 8.75433C12.0355 12.0942 7.6761 17.9535 6.21125 24.516C5.78938 26.3793 5.60188 27.9965 5.77766 28.3364C5.97688 28.77 6.38703 28.9457 6.84407 28.8168C7.35969 28.6645 7.46516 28.477 7.6175 27.3285C8.19172 22.9926 9.94953 18.891 12.598 15.7035C16.9925 10.4301 23.2152 7.50042 30.0003 7.50042C33.6097 7.50042 36.6917 8.21527 39.9144 9.7973C42.1175 10.8754 43.7698 12.0356 45.5745 13.77C49.3363 17.4028 51.598 21.8207 52.3363 27.0004C52.43 27.7153 52.5589 28.3715 52.6175 28.4887C52.7933 28.8051 53.4144 28.9692 53.7777 28.7934C54.3284 28.5356 54.3988 28.1957 54.1995 26.7895C54.1058 26.1098 53.9183 25.0785 53.7894 24.516C52.3245 17.9535 47.9652 12.0942 42.0472 8.75433C39.3167 7.20745 36.4456 6.24652 33.305 5.81292C31.4886 5.55511 28.137 5.57855 26.3675 5.8598Z" fill="#1362A2"/>
<path d="M28.8864 13.4067C26.2848 14.0512 25.1013 16.8989 26.5778 18.9965C28.3356 21.4926 32.3317 21.2465 33.6911 18.5629C33.9841 17.977 34.0427 17.7426 34.0427 16.9926C34.0427 16.2426 33.9841 16.0083 33.6911 15.4223C32.8356 13.7348 30.8786 12.9145 28.8864 13.4067ZM31.0895 15.4106C32.5544 16.102 32.5192 17.895 31.0192 18.6215C29.32 19.4418 27.2223 17.895 27.9489 16.3598C28.4645 15.27 29.8942 14.8364 31.0895 15.4106Z" fill="#1362A2"/>
<path d="M28.6523 23.7771C27.6094 24.0584 26.8477 24.5974 26.4844 25.324C26.2617 25.7576 26.25 26.074 26.25 35.1912V44.6248L26.6367 45.1873C28.1133 47.3904 32.5781 47.1677 33.6445 44.824C33.8438 44.3787 33.8672 43.8045 33.8672 35.2263C33.8672 28.6287 33.832 25.9802 33.7266 25.6521C33.5508 25.0427 32.918 24.4099 32.1211 24.0466C31.5703 23.8005 31.2656 23.742 30.2344 23.7185C29.5547 23.6951 28.8516 23.7185 28.6523 23.7771ZM31.207 25.7107C32.0625 26.0623 31.9922 25.2771 31.9922 35.1443V44.0271L31.7227 44.2732C31.3008 44.6716 30.4219 44.9177 29.7656 44.8474C29.0273 44.7537 28.2656 44.367 28.1836 44.0271C28.1484 43.8865 28.1367 39.7849 28.1484 34.9216L28.1836 26.074L28.7109 25.8045C29.3203 25.4998 30.5859 25.4529 31.207 25.7107Z" fill="#1362A2"/>
<path d="M6.19879 31.2188C5.67144 31.4766 5.61285 31.8281 5.80035 33.2109C6.24566 36.3984 7.13629 39.1055 8.58941 41.7656C11.0738 46.3008 15.2691 50.1797 19.9214 52.2539C23.2261 53.7188 26.3316 54.375 29.9996 54.375C34.4175 54.375 38.2847 53.3672 42.0464 51.2461C47.9644 47.9062 52.3238 42.0469 53.7886 35.4844C54.2105 33.6211 54.398 32.0039 54.2222 31.6641C54.023 31.2305 53.6129 31.0547 53.1558 31.1836C52.6402 31.3359 52.5347 31.5234 52.3824 32.6719C51.48 39.4688 47.8589 45.2461 42.1402 48.9609C37.148 52.2188 30.7027 53.3086 24.7261 51.9023C21.855 51.2344 18.7027 49.7227 16.23 47.8242C15.2691 47.0859 13.4879 45.3516 12.5972 44.2969C9.94879 41.1094 8.19098 37.0078 7.61676 32.6719C7.53473 32.1094 7.41754 31.5703 7.34723 31.4766C7.13629 31.1953 6.51519 31.0547 6.19879 31.2188Z" fill="#1362A2"/>
</g>
<defs>
<clipPath id="clip0_1015_9730">
<rect width="60" height="60" fill="white"/>
</clipPath>
</defs>
</svg>
