<svg width="60" height="60" viewBox="0 0 60 60" fill="none" xmlns="http://www.w3.org/2000/svg">
<path d="M3.30469 2.35532C2.08594 2.56625 0.9375 3.41 0.339844 4.57016L0.0585938 5.0975V29.9998V54.9022L0.339844 55.4295C0.972656 56.66 2.08594 57.4452 3.48047 57.6561C4.01953 57.7381 10.5469 57.7733 23.4727 57.7498L42.6797 57.7147L42.9609 57.3866C43.3008 56.9881 43.3242 56.6131 42.9961 56.203L42.7617 55.8983L23.1094 55.8748C5.05078 55.8397 3.43359 55.828 3.10547 55.6405C2.70703 55.4178 2.21484 54.9256 1.98047 54.492C1.83984 54.2459 1.81641 50.6366 1.78125 32.6014L1.75781 11.0155H30H58.2422L58.2188 32.6014C58.1836 52.4764 58.1719 54.2225 57.9844 54.5506C57.7617 54.9491 57.2695 55.4412 56.8359 55.6756C56.6016 55.8045 55.3594 55.8514 50.8242 55.8983C45.3281 55.9569 45.0938 55.9686 44.9297 56.1795C44.7422 56.4491 44.7188 56.9881 44.8828 57.3045C44.9414 57.4217 45.1641 57.5741 45.3633 57.6444C45.8555 57.8084 55.5469 57.8202 56.5898 57.6561C57.9258 57.4334 59.0391 56.6366 59.6602 55.4295L59.9414 54.9022V29.9998V5.0975L59.625 4.51157C59.25 3.80844 58.4883 3.04672 57.8086 2.70688C57.5391 2.57797 56.9648 2.41391 56.5195 2.3436C55.9805 2.26157 48.9844 2.22641 34.957 2.24985L14.1914 2.285L13.9219 2.54282C13.5938 2.87094 13.582 3.52719 13.875 3.85532C14.0977 4.10141 14.1328 4.10141 35.3203 4.12485C58.3008 4.16 56.7305 4.11313 57.457 4.79282C58.0781 5.35532 58.1602 5.67172 58.2188 7.46469L58.2773 9.14047H30H1.72266L1.78125 7.46469C1.83984 5.7186 1.89844 5.4725 2.44922 4.88657C3.11719 4.16 3.08203 4.16 7.59375 4.10141C11.5195 4.04282 11.7422 4.0311 11.9062 3.82016C12.1406 3.49203 12.1055 2.88266 11.8477 2.56625L11.625 2.285L7.76953 2.26157C5.66016 2.26157 3.64453 2.29672 3.30469 2.35532Z" fill="#1362A2"/>
<path d="M4.92176 5.97656C4.64051 6.25781 4.61707 6.87891 4.87488 7.24219C5.02723 7.47656 5.15613 7.5 5.96473 7.5C7.03113 7.5 7.28894 7.32422 7.28894 6.62109C7.28894 5.92969 7.01941 5.74219 6.0116 5.74219C5.30848 5.74219 5.10926 5.78906 4.92176 5.97656Z" fill="#1362A2"/>
<path d="M8.90625 6C8.77734 6.14062 8.67188 6.41016 8.67188 6.62109C8.67188 6.83203 8.77734 7.10156 8.90625 7.24219C9.11719 7.46484 9.28125 7.5 10.0195 7.5C10.8164 7.5 10.8984 7.47656 11.1211 7.19531C11.2617 7.01953 11.3672 6.76172 11.3672 6.62109C11.3672 6.48047 11.2617 6.22266 11.1211 6.04688C10.8984 5.76562 10.8164 5.74219 10.0195 5.74219C9.28125 5.74219 9.11719 5.77734 8.90625 6Z" fill="#1362A2"/>
<path d="M12.9023 6.04688C12.7617 6.22266 12.6562 6.48047 12.6562 6.62109C12.6562 6.76172 12.7617 7.01953 12.9023 7.19531C13.125 7.47656 13.207 7.5 14.0156 7.5C15.0469 7.5 15.3516 7.30078 15.3516 6.62109C15.3516 5.94141 15.0469 5.74219 14.0156 5.74219C13.207 5.74219 13.125 5.76562 12.9023 6.04688Z" fill="#1362A2"/>
<path d="M52.6408 12.1289C52.4416 12.2227 52.09 12.4336 51.8791 12.5859L51.4807 12.8906L29.0861 12.9141L6.69159 12.9492L6.37519 13.1953C6.19941 13.3242 5.94159 13.582 5.81269 13.7578C5.57831 14.0625 5.56659 14.2266 5.56659 18.0469C5.56659 21.8906 5.57831 22.0195 5.81269 22.3477C5.94159 22.5234 6.23456 22.793 6.4455 22.9336L6.83222 23.2031H23.6603L40.4885 23.2148L39.3752 24.2578L38.2619 25.3125H22.676H7.07831L6.56269 25.5703C6.17597 25.7695 5.96503 25.9805 5.76581 26.3672C5.51972 26.8594 5.49628 27.0117 5.53144 28.6875C5.56659 30.4219 5.57831 30.5039 5.84784 30.7148C6.19941 31.0078 6.69159 30.9961 7.07831 30.6914C7.383 30.457 7.383 30.4453 7.383 28.8164V27.1875H21.8205H36.2463L35.9885 27.4688C35.7307 27.7383 35.6955 27.7383 35.3205 27.5859C34.9807 27.4453 34.8635 27.4453 34.5119 27.5859C34.0666 27.7734 33.9143 28.1367 34.0314 28.7109C34.0666 28.9102 34.0432 29.0625 33.9846 29.0625C33.8205 29.0625 31.9455 30.8789 31.4299 31.5469C30.3049 33.0117 29.426 35.1797 29.1682 37.125C28.9924 38.3672 29.0744 38.7305 29.5314 38.9648C29.8244 39.1172 30.0353 39.1289 30.8557 39.0234C33.7736 38.6602 36.5744 37.1953 38.3908 35.0625C38.801 34.582 39.1408 34.1367 39.1408 34.0781C39.1408 34.0195 39.2463 34.0312 39.3869 34.1016C39.7033 34.2773 40.2775 34.1367 40.4885 33.832C40.6994 33.5391 40.7228 32.918 40.5353 32.7305C40.3596 32.5547 40.3596 32.5664 43.1838 29.5547L45.3869 27.1875H49.008H52.6174V33.457V39.7266H30.0002H7.383V36.3398V32.9414L7.07831 32.707C6.69159 32.4023 6.19941 32.3906 5.84784 32.6836L5.56659 32.9062L5.53144 36.4453C5.49628 39.8438 5.508 40.0078 5.74238 40.5C5.883 40.7812 6.16425 41.1094 6.37519 41.25C6.76191 41.4844 6.83222 41.4844 30.0002 41.4844C53.1682 41.4844 53.2385 41.4844 53.6252 41.25C53.8361 41.1094 54.1174 40.7812 54.2463 40.5C54.4807 40.0195 54.4924 39.8438 54.4924 33.4453V26.8828L54.2346 26.3672C53.7541 25.418 53.5783 25.3828 50.1799 25.3125L47.2033 25.2539L48.1643 24.2227L49.1252 23.2031H51.1408C53.051 23.2031 53.1916 23.1914 53.5549 22.9336C54.3986 22.3711 54.4221 22.2656 54.4924 19.6875L54.551 17.3555L55.1486 16.7344C55.8166 16.0547 56.0744 15.6211 56.1916 14.9648C56.3908 13.9336 55.676 12.6328 54.6799 12.1758C54.1057 11.918 53.1799 11.8945 52.6408 12.1289ZM54.1643 14.1797C54.3166 14.3906 54.3518 14.5547 54.2932 14.7305C54.2463 14.8711 50.9299 18.4688 46.9338 22.7344C42.9377 27 39.5393 30.6445 39.3752 30.832L39.0822 31.1836L38.051 30.1406L37.0197 29.0977L45.1877 21.457C53.9768 13.2305 53.6486 13.4883 54.1643 14.1797ZM48.9846 15.2812C48.6916 15.5625 47.1213 17.0391 45.4924 18.5625L42.5275 21.3281H24.9611H7.383V18.0469V14.7656H28.4416H49.5119L48.9846 15.2812ZM52.5822 21.293C52.5471 21.3164 52.1603 21.3281 51.7268 21.3047L50.9182 21.2695L51.7385 20.4141L52.5588 19.5469L52.5939 20.3906C52.6174 20.8594 52.6057 21.2578 52.5822 21.293ZM37.7346 32.7305C37.7346 32.7891 37.4768 33.1641 37.1603 33.5625C35.8478 35.2031 33.8205 36.4805 31.7463 36.9727L31.0432 37.125L31.1252 36.7031C31.2658 35.9414 31.8635 34.4297 32.3439 33.6094C32.8947 32.6953 33.8791 31.582 34.8049 30.8555L35.4494 30.3516L36.5861 31.4883C37.2189 32.1211 37.7346 32.6836 37.7346 32.7305Z" fill="#1362A2"/>
<path d="M6.76172 43.5234C6.17578 43.7344 5.97656 43.9219 5.73047 44.4727C5.53125 44.8945 5.50781 45.3164 5.50781 48.5742C5.50781 52.125 5.51953 52.2305 5.77734 52.7344C5.92969 53.0391 6.19922 53.3555 6.44531 53.4961C6.84375 53.7187 7.04297 53.7305 12.4805 53.7305C17.918 53.7305 18.1172 53.7187 18.5156 53.4961C18.7617 53.3555 19.0312 53.0391 19.1953 52.7344C19.4414 52.2305 19.4531 52.1133 19.4531 48.5742C19.4531 45.0352 19.4414 44.918 19.1953 44.4141C19.0312 44.1094 18.7617 43.793 18.5156 43.6523C18.1172 43.4297 17.8828 43.418 12.6562 43.3945C8.29688 43.3711 7.11328 43.3945 6.76172 43.5234ZM17.5781 48.5742V51.9141H12.4805H7.38281V48.5742V45.2344H12.4805H17.5781V48.5742Z" fill="#1362A2"/>
<path d="M24.4336 43.4414C24.3047 43.4766 24.0234 43.6289 23.8125 43.793C23.0859 44.332 23.0859 44.3672 23.0859 48.6094C23.0859 52.418 23.0859 52.4648 23.3555 52.8516C23.4961 53.0625 23.7656 53.3555 23.9414 53.4844C24.2695 53.7305 24.375 53.7305 29.9883 53.7305H35.707L36.1289 53.4023C36.9141 52.8047 36.9141 52.8164 36.9141 48.5742C36.9141 44.332 36.9141 44.3438 36.1289 43.7461L35.707 43.418L30.1875 43.3945C27.1523 43.3945 24.5625 43.4062 24.4336 43.4414ZM35.0391 48.5742V51.9141H30H24.9609V48.5742V45.2344H30H35.0391V48.5742Z" fill="#1362A2"/>
<path d="M41.8008 43.5234C41.2148 43.7344 41.0156 43.9219 40.7695 44.4727C40.5703 44.8945 40.5469 45.3164 40.5469 48.5742C40.5469 52.125 40.5586 52.2305 40.8164 52.7344C40.9688 53.0391 41.2383 53.3555 41.4844 53.4961C41.8828 53.7187 42.082 53.7305 47.5195 53.7305C52.957 53.7305 53.1562 53.7187 53.5547 53.4961C53.8008 53.3555 54.0703 53.0391 54.2344 52.7344C54.4805 52.2305 54.4922 52.1133 54.4922 48.5742C54.4922 45.0352 54.4805 44.918 54.2344 44.4141C54.0703 44.1094 53.8008 43.793 53.5547 43.6523C53.1562 43.4297 52.9219 43.418 47.6953 43.3945C43.3359 43.3711 42.1523 43.3945 41.8008 43.5234ZM52.6172 48.5742V51.9141H47.5195H42.4219V48.5742V45.2344H47.5195H52.6172V48.5742Z" fill="#1362A2"/>
</svg>
