<svg width="60" height="60" viewBox="0 0 60 60" fill="none" xmlns="http://www.w3.org/2000/svg">
<path d="M7.60547 0.28125C6.42188 0.761719 5.58984 1.54688 5.05078 2.68359L4.74609 3.33984V30V56.6602L5.0625 57.3281C5.49609 58.2656 6.31641 59.1094 7.25391 59.5664L8.02734 59.9414H30.1172H52.207L52.9805 59.5664C53.918 59.1094 54.7383 58.2656 55.1719 57.3281C55.4766 56.6836 55.4883 56.5898 55.5234 54.1289L55.5586 51.5977L55.2422 51.3398C54.8555 51.0352 54.375 51.0234 54.0117 51.3164C53.7422 51.5391 53.7305 51.5977 53.6719 53.8125C53.6133 55.8281 53.5781 56.1211 53.3555 56.543C53.0625 57.0938 52.6055 57.5391 52.0312 57.8438C51.6328 58.0547 50.8477 58.0664 30.3516 58.1016C13.8047 58.125 8.96484 58.1016 8.55469 57.9844C7.875 57.7969 6.90234 56.8594 6.70312 56.1797C6.49219 55.4766 6.49219 4.52344 6.70312 3.82031C6.89062 3.17578 7.86328 2.20312 8.50781 2.01562C8.77734 1.93359 9.51562 1.875 10.1602 1.875C11.168 1.875 11.3789 1.83984 11.6484 1.62891C12.0352 1.32422 12.082 0.597656 11.7188 0.234375C11.5078 0.0234375 11.332 0 9.87891 0C8.46094 0 8.17969 0.0351562 7.60547 0.28125Z" fill="#1362A2"/>
<path d="M14.2731 0.199512C13.8395 0.703419 13.9215 1.46514 14.4488 1.74639C14.6363 1.84014 19.6051 1.88701 33.1637 1.91045L51.6207 1.93389L52.0895 2.1917C52.6403 2.48467 53.0856 2.9417 53.3903 3.51592C53.6012 3.91436 53.6129 4.75811 53.6715 26.344L53.7301 48.7737L54.0113 48.9964C54.3629 49.2894 54.8551 49.2776 55.2418 48.973L55.5465 48.7269L55.5231 26.0276L55.4879 3.34014L55.1129 2.5667C54.6559 1.6292 53.8121 0.808887 52.8746 0.375294L52.2067 0.0588875L33.3278 0.0237312C15.4449 0.000293732 14.4371 0.0120125 14.2731 0.199512Z" fill="#1362A2"/>
<path d="M15.5974 6.09375C11.9177 7.06641 9.7146 10.8633 10.6638 14.5781C11.1677 16.5703 12.5037 18.2227 14.3084 19.0781C15.4685 19.6289 16.2068 19.8047 17.4373 19.8047C19.406 19.8047 20.906 19.1719 22.324 17.7539C23.7537 16.3242 24.3748 14.8359 24.3748 12.832C24.3748 10.875 23.7068 9.28125 22.3123 7.88672C20.531 6.11719 18.0466 5.46094 15.5974 6.09375ZM19.6287 8.36719C21.0818 9.08203 22.0662 10.3945 22.3943 12.0469C23.0154 15.2344 19.8982 18.375 16.6873 17.8242C14.988 17.5195 13.6755 16.5469 12.9255 15.0234C12.4919 14.1562 12.4802 14.0977 12.4802 12.8438C12.4802 11.625 12.5037 11.4961 12.8552 10.7461C14.074 8.16797 17.0857 7.11328 19.6287 8.36719Z" fill="#1362A2"/>
<path d="M28.3595 7.58203C27.6447 7.85156 27.4337 8.69531 27.9494 9.19922L28.2306 9.49219H38.5431H48.8556L49.172 9.21094C49.5939 8.85938 49.6291 8.20312 49.2423 7.81641L48.9728 7.55859L38.7541 7.53516C33.1408 7.52344 28.4533 7.54688 28.3595 7.58203Z" fill="#1362A2"/>
<path d="M28.1832 11.9648C27.6207 12.2812 27.4801 12.9961 27.8785 13.4883L28.1012 13.7695L35.7184 13.8047L43.3356 13.8281L43.6637 13.5586C44.0856 13.1953 44.1207 12.5391 43.734 12.1523L43.4645 11.8945L35.941 11.8711C30.6207 11.8477 28.3473 11.8828 28.1832 11.9648Z" fill="#1362A2"/>
<path d="M28.1605 16.2891C27.7269 16.4648 27.5277 17.0977 27.7269 17.6367C27.9378 18.1641 27.9378 18.1641 37.3246 18.1641C46.4417 18.1641 46.4886 18.1641 46.8402 17.707C47.0628 17.4258 47.016 16.8164 46.7699 16.5117L46.5472 16.2305L37.4769 16.207C32.4027 16.1953 28.3011 16.2305 28.1605 16.2891Z" fill="#1362A2"/>
<path d="M25.3714 22.6989C25.2425 22.7341 24.5746 23.3083 23.8832 23.988L22.641 25.2302L21.9613 24.6794C20.6136 23.5779 19.1722 23.0505 17.4613 23.0505C15.4691 23.0388 13.9222 23.6716 12.5042 25.0779C11.7777 25.8044 11.5082 26.1911 11.1449 26.9646C9.17612 31.1599 11.5433 35.9177 16.055 36.8669C18.3753 37.3591 21.0941 36.445 22.6878 34.6404C23.3089 33.9489 24.0589 32.4372 24.2464 31.5466C24.3167 31.2068 24.3753 30.6208 24.3753 30.2458C24.3753 29.4255 24.0824 29.0622 23.4144 29.0622C22.805 29.0622 22.5824 29.3786 22.43 30.4685C22.1253 32.613 20.8246 34.2068 18.8792 34.8044C16.7816 35.4607 14.4847 34.6404 13.266 32.8122C12.5863 31.7927 12.3871 31.0427 12.4457 29.7185C12.4808 28.8044 12.5511 28.5466 12.8792 27.8669C13.3128 26.988 14.2972 25.9685 15.0941 25.5583C16.9691 24.5974 19.0316 24.8435 20.7191 26.2263L21.223 26.6364L19.4886 28.3825L17.7542 30.1169L16.8753 29.2497C16.3949 28.7693 15.8792 28.3474 15.7269 28.3005C15.3519 28.195 14.8246 28.4294 14.6605 28.781C14.3675 29.4489 14.4613 29.6247 15.9144 31.0779C17.9417 33.1052 17.2972 33.3864 22.4066 28.2654C26.1683 24.5154 26.6019 24.0349 26.6019 23.7068C26.6019 23.0739 25.9691 22.5583 25.3714 22.6989Z" fill="#1362A2"/>
<path d="M27.9487 25.0195C27.5503 25.4062 27.5503 25.9922 27.9605 26.3789L28.2652 26.6602H38.6128C48.4566 26.6602 48.9722 26.6484 49.1948 26.4492C49.6402 26.0391 49.605 25.2539 49.1245 24.8906C48.9605 24.7617 46.8862 24.7383 38.5777 24.7266H28.23L27.9487 25.0195Z" fill="#1362A2"/>
<path d="M27.9492 29.3554C27.5859 29.7069 27.5742 30.2108 27.9023 30.6327L28.1367 30.9374H35.789C44.1679 30.9374 43.8398 30.9608 44.0039 30.246C44.0859 29.8593 43.8281 29.2499 43.5351 29.1327C43.4297 29.0976 39.9375 29.0624 35.789 29.0624H28.2304L27.9492 29.3554Z" fill="#1362A2"/>
<path d="M27.9023 33.7031C27.7617 33.8789 27.6562 34.1602 27.6562 34.3359C27.6562 34.5117 27.7617 34.793 27.9023 34.9688L28.1367 35.2734H37.2773H46.418L46.6992 34.9805C47.0625 34.6289 47.0742 34.125 46.7461 33.7031L46.5117 33.3984H37.3242H28.1367L27.9023 33.7031Z" fill="#1362A2"/>
<path d="M15.5972 40.4295C11.1441 41.6013 9.06989 46.7693 11.4254 50.8123C11.941 51.6912 13.1832 52.8513 14.1324 53.3552C16.148 54.3982 18.5269 54.4217 20.6246 53.4021C21.6675 52.8982 23.1324 51.4334 23.6363 50.3904C24.3746 48.8787 24.5738 47.0857 24.1988 45.4802C23.7886 43.7341 22.3472 41.8709 20.7769 41.0388C19.23 40.2185 17.2847 39.9959 15.5972 40.4295ZM19.605 42.6912C21.6089 43.6873 22.7574 45.8552 22.3824 47.9412C22.1832 49.0779 21.691 49.992 20.8589 50.7888C20.0386 51.5623 19.2418 51.9724 18.105 52.1599C15.9957 52.5232 13.8394 51.3162 12.8433 49.2302C12.5035 48.5037 12.48 48.3748 12.48 47.1677C12.48 45.9607 12.5035 45.8318 12.855 45.0818C13.2886 44.1795 14.2144 43.1716 15.0113 42.7615C15.9371 42.2927 16.4058 42.1873 17.5894 42.2224C18.6207 42.2459 18.7964 42.2927 19.605 42.6912Z" fill="#1362A2"/>
<path d="M27.9143 42.2227C27.5628 42.5977 27.5745 43.1719 27.9495 43.5352L28.2308 43.8281H38.5784C46.887 43.8164 48.9612 43.793 49.1253 43.6641C49.5823 43.3242 49.6409 42.6094 49.2425 42.1523C49.0784 41.9648 48.4222 41.9531 38.6136 41.9531H28.1604L27.9143 42.2227Z" fill="#1362A2"/>
<path d="M28.1835 46.3125C27.5859 46.6641 27.4687 47.4023 27.9492 47.8711L28.2304 48.1641H35.8007H43.3828L43.7343 47.8125C44.0273 47.5078 44.0742 47.3906 44.0156 47.0742C43.9687 46.8633 43.8398 46.5938 43.6992 46.4648C43.4765 46.2305 43.3007 46.2305 35.9413 46.207C30.4101 46.1836 28.3593 46.207 28.1835 46.3125Z" fill="#1362A2"/>
<path d="M28.1832 50.6479C27.6207 50.9526 27.4801 51.6675 27.8785 52.1597L28.1012 52.4409L37.0543 52.4761C41.9645 52.4878 46.1129 52.4761 46.2653 52.4409C46.8512 52.3003 47.1559 51.644 46.9215 51.0347C46.7106 50.5073 46.7106 50.5073 37.3004 50.5073C31.1012 50.519 28.3473 50.5542 28.1832 50.6479Z" fill="#1362A2"/>
</svg>
