<svg width="60" height="60" viewBox="0 0 60 60" fill="none" xmlns="http://www.w3.org/2000/svg">
<path d="M11.7303 2.77734C11.5194 2.88281 11.2029 3.17578 11.0272 3.43359L10.7225 3.91406L10.6873 10.2656L10.6639 16.6289L6.99591 16.6641C3.40998 16.6992 3.32795 16.6992 2.96466 16.9688C2.76545 17.1094 2.4842 17.4609 2.35529 17.7305C2.1092 18.2344 2.1092 18.2578 2.1092 34.4297V50.625H1.71076C1.24201 50.625 0.632634 51.0117 0.257634 51.5625C-0.000178926 51.9375 -0.0118977 52.0664 0.0232586 53.1445C0.0584148 54.0117 0.128727 54.457 0.316227 54.8789C0.66779 55.6406 1.66388 56.6484 2.44904 57.0352L3.10529 57.3633H29.9998H56.8944L57.5506 57.0352C58.3358 56.6484 59.3319 55.6406 59.6834 54.8789C59.8709 54.457 59.9412 54.0117 59.9764 53.1445C60.0115 52.0664 59.9998 51.9375 59.742 51.5625C59.367 51.0117 58.7576 50.625 58.2889 50.625H57.8904V45.832C57.8904 41.3086 57.8787 41.0273 57.6678 40.7695C57.3514 40.3828 56.5545 40.3828 56.2381 40.7695C56.0272 41.0273 56.0154 41.3086 56.0154 45.832V50.625H29.9998H3.9842V36.2695V21.9141H7.32404H10.6639V24.2461C10.6639 26.4141 10.6756 26.5898 10.91 26.8828C11.2498 27.3164 11.9529 27.3164 12.2928 26.8828C12.5389 26.5781 12.5389 26.4844 12.5389 18.9727V11.3672H23.8358H35.1444L35.3787 11.0625C35.6951 10.6641 35.6951 10.3125 35.3787 9.91406L35.1444 9.60938H23.8358H12.5389V7.04297C12.5389 4.81641 12.5623 4.46484 12.7264 4.40625C12.8319 4.37109 20.6248 4.33594 30.0467 4.33594C43.2186 4.33594 47.2147 4.37109 47.3201 4.47656C47.4256 4.58203 47.4608 5.33203 47.4608 7.11328V9.60938H42.8904C38.4725 9.60938 38.3084 9.62109 38.0858 9.84375C37.7694 10.1602 37.7694 10.8164 38.0858 11.1328C38.3084 11.3555 38.4725 11.3672 42.8904 11.3672H47.4608V29.0977C47.4608 42.7266 47.4256 46.8633 47.3201 46.9688C47.2147 47.0742 43.2186 47.1094 30.0467 47.1094C20.6248 47.1094 12.8319 47.0742 12.7264 47.0391C12.5623 46.9688 12.5389 46.1133 12.5389 38.4961C12.5389 30.3633 12.5272 30.0117 12.3162 29.7539C11.9998 29.3672 11.2029 29.3672 10.8865 29.7539C10.6756 30.0117 10.6639 30.3633 10.6639 38.6719V47.3086L10.9334 47.8242C11.1092 48.1406 11.3787 48.4336 11.6717 48.5977L12.1287 48.8672H29.9998H47.8709L48.3279 48.5977C48.6209 48.4336 48.8904 48.1406 49.0662 47.8242L49.3358 47.3086V34.6055V21.9141H52.6756H56.0154V29.7539C56.0154 37.5 56.0154 37.5938 56.2615 37.8984C56.6014 38.332 57.3045 38.332 57.6444 37.8984C57.8904 37.582 57.8904 37.5234 57.8904 27.9141C57.8904 18.3398 57.8904 18.2344 57.6444 17.7305C57.5154 17.4609 57.2342 17.1094 57.035 16.9688C56.6717 16.6992 56.5897 16.6992 53.0037 16.6641L49.3358 16.6289L49.3123 10.2656L49.2772 3.91406L48.9608 3.43359C48.3514 2.50781 49.9803 2.57812 29.9764 2.57812C13.6287 2.57812 12.0936 2.60156 11.7303 2.77734ZM10.6639 19.2773V20.1562H7.32404H3.9842V19.3477C3.9842 18.8086 4.03107 18.5156 4.13654 18.4805C4.20685 18.4453 5.71857 18.4102 7.47638 18.4102L10.6639 18.3984V19.2773ZM55.8748 18.5391C55.9569 18.6211 56.0154 18.9961 56.0154 19.418V20.1562H52.6756H49.3358V19.2773V18.3984H52.535C54.867 18.3984 55.7694 18.4336 55.8748 18.5391ZM58.0428 52.5586C58.1717 52.6758 58.2069 52.875 58.16 53.2266C58.0428 54.1523 57.5154 54.8906 56.66 55.3477L56.1912 55.6055H29.9998C4.66388 55.6055 3.7967 55.5938 3.39826 55.3828C2.50763 54.9141 1.95685 54.1641 1.83966 53.2266C1.79279 52.875 1.82795 52.6758 1.95685 52.5586C2.1092 52.4062 5.55451 52.3828 29.9998 52.3828C54.4451 52.3828 57.8904 52.4062 58.0428 52.5586Z" fill="#1362A2"/>
<path d="M14.4258 6.39844C14.2852 6.57422 14.1797 6.83203 14.1797 6.97266C14.1797 7.11328 14.2852 7.37109 14.4258 7.54688C14.6133 7.78125 14.7656 7.85156 15.1289 7.85156C15.7148 7.85156 16.0547 7.53516 16.0547 6.97266C16.0547 6.41016 15.7148 6.09375 15.1289 6.09375C14.7656 6.09375 14.6133 6.16406 14.4258 6.39844Z" fill="#1362A2"/>
<path d="M17.9414 6.39844C17.8008 6.57422 17.6953 6.83203 17.6953 6.97266C17.6953 7.11328 17.8008 7.37109 17.9414 7.54688C18.1289 7.78125 18.2812 7.85156 18.6445 7.85156C19.2305 7.85156 19.5703 7.53516 19.5703 6.97266C19.5703 6.41016 19.2305 6.09375 18.6445 6.09375C18.2812 6.09375 18.1289 6.16406 17.9414 6.39844Z" fill="#1362A2"/>
<path d="M21.457 6.39844C21.3164 6.57422 21.2109 6.83203 21.2109 6.97266C21.2109 7.11328 21.3164 7.37109 21.457 7.54688C21.6445 7.78125 21.7969 7.85156 22.1602 7.85156C22.7461 7.85156 23.0859 7.53516 23.0859 6.97266C23.0859 6.41016 22.7461 6.09375 22.1602 6.09375C21.7969 6.09375 21.6445 6.16406 21.457 6.39844Z" fill="#1362A2"/>
<path d="M37.1484 6.35156C37.0195 6.49219 36.9141 6.76172 36.9141 6.97266C36.9141 7.18359 37.0195 7.45312 37.1484 7.59375C37.3945 7.85156 37.4297 7.85156 41.3672 7.85156C45.3047 7.85156 45.3398 7.85156 45.5859 7.59375C45.8906 7.26562 45.8906 6.67969 45.5859 6.35156C45.3398 6.09375 45.3047 6.09375 41.3672 6.09375C37.4297 6.09375 37.3945 6.09375 37.1484 6.35156Z" fill="#1362A2"/>
<path d="M20.7773 17.1445C18.6094 19.3125 18.5156 19.418 18.5156 19.8633C18.5156 20.3086 18.6094 20.4141 20.7773 22.582C22.9805 24.7969 23.0508 24.8438 23.5195 24.8438C23.9062 24.8438 24.0586 24.7852 24.2461 24.5391C24.7266 23.9297 24.6328 23.7773 22.6172 21.75L20.7539 19.8633L22.6172 17.9766C24.6328 15.9609 24.7266 15.7969 24.2461 15.1875C24.0586 14.9414 23.9062 14.8828 23.5195 14.8828C23.0508 14.8828 22.9805 14.9297 20.7773 17.1445Z" fill="#1362A2"/>
<path d="M31.9688 15.0234C31.6406 15.2812 26.4844 23.6953 26.4844 23.9648C26.4844 24.4336 26.918 24.8438 27.4102 24.8438C27.6445 24.8438 27.9258 24.7734 28.0312 24.6914C28.3594 24.4453 33.5156 16.0312 33.5156 15.7617C33.5156 15.293 33.082 14.8828 32.5898 14.8828C32.3555 14.8828 32.0742 14.9531 31.9688 15.0234Z" fill="#1362A2"/>
<path d="M35.7539 15.1875C35.2734 15.7969 35.3671 15.9609 37.3828 17.9766L39.246 19.8633L37.3828 21.75C35.3671 23.7773 35.2734 23.9297 35.7539 24.5391C35.9414 24.7852 36.0937 24.8438 36.4804 24.8438C36.9492 24.8438 37.0195 24.7969 39.2226 22.582C41.3906 20.4141 41.4843 20.3086 41.4843 19.8633C41.4843 19.418 41.3906 19.3125 39.2226 17.1445C37.0195 14.9297 36.9492 14.8828 36.4804 14.8828C36.0937 14.8828 35.9414 14.9414 35.7539 15.1875Z" fill="#1362A2"/>
<path d="M15.8196 28.0312C15.5032 28.3828 15.515 28.957 15.8548 29.2734L16.1243 29.5312H30.0228H43.9329L44.1673 29.2266C44.4954 28.8164 44.4837 28.3477 44.1439 28.0312L43.8743 27.7734H29.9642H16.0657L15.8196 28.0312Z" fill="#1362A2"/>
<path d="M15.8196 32.7188C15.5032 33.0703 15.515 33.6445 15.8548 33.9609L16.1243 34.2188H30.0228H43.9329L44.1673 33.9141C44.4954 33.5039 44.4837 33.0352 44.1439 32.7188L43.8743 32.4609H29.9642H16.0657L15.8196 32.7188Z" fill="#1362A2"/>
<path d="M15.8196 37.4062C15.5032 37.7578 15.515 38.332 15.8548 38.6484C16.1243 38.9062 16.1829 38.9062 20.0618 38.9062H24.0111L24.2454 38.6016C24.5618 38.2031 24.5618 37.8516 24.2454 37.4531L24.0111 37.1484H20.0384C16.1009 37.1484 16.0657 37.1484 15.8196 37.4062Z" fill="#1362A2"/>
<path d="M26.9531 37.3828C26.8125 37.5234 26.7188 37.7695 26.7188 38.0273C26.7188 38.2852 26.8125 38.5312 26.9531 38.6719C27.1875 38.9062 27.3398 38.9062 35.5547 38.9062H43.9336L44.168 38.6016C44.4961 38.1914 44.4844 37.7227 44.1445 37.4062L43.875 37.1484H35.5312C27.3398 37.1484 27.1875 37.1484 26.9531 37.3828Z" fill="#1362A2"/>
<path d="M15.8196 42.0938C15.5032 42.4453 15.515 43.0195 15.8548 43.3359L16.1243 43.5938H30.0228H43.9329L44.1673 43.2891C44.4954 42.8789 44.4837 42.4102 44.1439 42.0938L43.8743 41.8359H29.9642H16.0657L15.8196 42.0938Z" fill="#1362A2"/>
</svg>
