<svg width="60" height="60" viewBox="0 0 60 60" fill="none" xmlns="http://www.w3.org/2000/svg">
<g clip-path="url(#clip0_1015_9853)">
<path d="M1.54727 6.80833C0.949614 7.11302 0.269926 7.86302 0.105864 8.43724C0.0355513 8.70677 0.000395056 12.6911 0.0238326 20.238L0.0589888 31.6169L0.410551 32.1208C0.60977 32.4021 0.996489 32.7888 1.27774 32.988C1.74649 33.3161 1.84024 33.3396 3.11758 33.3747L4.45352 33.4216V35.8708C4.45352 38.3318 4.45352 38.3318 4.74649 38.613C4.96914 38.8474 5.14493 38.906 5.59024 38.906C6.22305 38.906 5.90665 39.199 9.29336 35.4841L11.1918 33.3982H14.5551H17.9301L17.9535 39.7732L17.9887 46.1482L18.3402 46.6521C18.5395 46.9333 18.9262 47.32 19.2074 47.5193L19.7113 47.8708L33.9848 47.9294L48.2582 47.988L50.5082 50.449C51.7387 51.8083 52.8754 53.0271 53.0395 53.1794C53.4613 53.5544 54.2816 53.5427 54.6684 53.1443C54.9613 52.863 54.9613 52.863 54.9613 50.4021V47.9529L56.5902 47.906C58.1957 47.8708 58.2309 47.8591 58.7231 47.5193C59.0043 47.32 59.391 46.9333 59.5902 46.6521L59.9418 46.1482L59.977 43.4763C60.0121 40.8396 60.0121 40.7927 59.7543 40.5583C59.4145 40.2419 58.8285 40.2419 58.5004 40.5466C58.2543 40.781 58.2426 40.8865 58.2426 42.8083C58.2426 46.0779 58.2309 46.0896 55.641 46.1482L53.9066 46.195L53.5551 46.5349L53.2152 46.8865L53.1801 48.6911L53.1449 50.4958L51.2699 48.445C50.2387 47.3083 49.3012 46.3357 49.1957 46.2771C49.0785 46.2185 43.2895 46.1716 35.016 46.1716C25.6645 46.1716 20.8949 46.1247 20.5902 46.0427C19.7231 45.8083 19.7465 46.031 19.7113 39.3513L19.6762 33.3982L29.9887 33.3747L40.2895 33.3396L40.7934 32.988C41.0746 32.7888 41.4613 32.4021 41.6605 32.1208L42.0121 31.6169L42.0473 27.2341L42.0824 22.8513H49.4887C54.2699 22.8513 57.0473 22.8982 57.3402 22.9802C58.2191 23.2263 58.184 22.8513 58.2191 30.8435L58.2543 37.9568L58.559 38.2029C58.9457 38.5075 59.2973 38.4958 59.6957 38.1911L60.0004 37.945L59.977 30.4099L59.9418 22.8747L59.5902 22.3708C59.391 22.0896 59.0043 21.7029 58.7231 21.5036L58.2191 21.1521L50.1449 21.1169L42.0707 21.0935L42.0473 14.7185L42.0121 8.34349L41.6605 7.83958C41.4613 7.55833 41.0746 7.17161 40.7934 6.97239L40.2895 6.62083L28.5941 6.58567L16.8871 6.56224L16.6527 6.82005C16.3246 7.17161 16.3363 7.74583 16.6762 8.06224L16.9457 8.32005H27.9613C35.2387 8.32005 39.1176 8.36692 39.4105 8.44896C40.3129 8.69505 40.2543 7.87474 40.2543 19.9802C40.2543 32.0857 40.3129 31.2654 39.4105 31.5115C39.1059 31.5935 34.2426 31.6404 24.6918 31.6404C16.2309 31.6404 10.3363 31.6872 10.2191 31.7458C10.1137 31.8044 9.17618 32.7771 8.14493 33.9138L6.26993 35.9646L6.23477 34.1599L6.19961 32.3552L5.85977 32.0154C5.51993 31.6755 5.48477 31.6638 4.0668 31.6286C2.40274 31.57 2.07461 31.4411 1.88711 30.738C1.71133 30.1286 1.71133 9.83177 1.88711 9.22239C2.09805 8.42552 2.27383 8.39036 5.36758 8.32005C7.91055 8.26146 8.12149 8.24974 8.27383 8.0388C8.51993 7.69896 8.48477 7.07786 8.20352 6.79661C7.98086 6.57396 7.8168 6.56224 5.01602 6.56224C2.23868 6.56224 2.01602 6.57396 1.54727 6.80833Z" fill="#1362A2"/>
<path d="M10.6055 6.79688C10.4766 6.9375 10.3828 7.21875 10.3828 7.44141C10.3828 7.66406 10.4766 7.94531 10.6055 8.08594C10.8047 8.29688 10.957 8.32031 12.4336 8.32031C13.9453 8.32031 14.0742 8.30859 14.2969 8.0625C14.4258 7.92188 14.5312 7.65234 14.5312 7.44141C14.5312 7.23047 14.4258 6.96094 14.2969 6.82031C14.0742 6.57422 13.9453 6.5625 12.4336 6.5625C10.957 6.5625 10.8047 6.58594 10.6055 6.79688Z" fill="#1362A2"/>
<path d="M9.79688 15.5977C9.5625 15.7852 9.49219 15.9375 9.49219 16.2891C9.49219 16.6406 9.5625 16.793 9.79688 16.9805C10.1016 17.2266 10.207 17.2266 16.3945 17.2266C21.3633 17.2148 22.7227 17.1914 22.875 17.0625C23.3555 16.6992 23.3555 15.8789 22.875 15.5156C22.7227 15.3867 21.3633 15.3633 16.3945 15.3516C10.207 15.3516 10.1016 15.3516 9.79688 15.5977Z" fill="#1362A2"/>
<path d="M24.4336 15.6445C24.2461 15.8203 24.1406 16.0664 24.1406 16.2891C24.1406 16.5117 24.2461 16.7578 24.4336 16.9336C24.6914 17.2031 24.7969 17.2266 25.8984 17.2266C27 17.2266 27.1055 17.2031 27.3633 16.9336C27.75 16.5586 27.75 16.0195 27.3633 15.6445C27.1055 15.375 27 15.3516 25.8984 15.3516C24.7969 15.3516 24.6914 15.375 24.4336 15.6445Z" fill="#1362A2"/>
<path d="M29.4727 15.6445C29.2852 15.8203 29.1797 16.0664 29.1797 16.2891C29.1797 16.5117 29.2852 16.7578 29.4727 16.9336C29.7305 17.2031 29.8359 17.2266 30.9375 17.2266C32.0391 17.2266 32.1445 17.2031 32.4023 16.9336C32.5898 16.7578 32.6953 16.5117 32.6953 16.2891C32.6953 16.0664 32.5898 15.8203 32.4023 15.6445C32.1445 15.375 32.0391 15.3516 30.9375 15.3516C29.8359 15.3516 29.7305 15.375 29.4727 15.6445Z" fill="#1362A2"/>
<path d="M19.8633 19.2773C19.6758 19.4531 19.5703 19.6992 19.5703 19.9219C19.5703 20.1445 19.6758 20.3906 19.8633 20.5664L20.1445 20.8594H23.6133H27.082L27.3633 20.5664C27.5508 20.3906 27.6562 20.1445 27.6562 19.9219C27.6562 19.6992 27.5508 19.4531 27.3633 19.2773L27.082 18.9844H23.6133H20.1445L19.8633 19.2773Z" fill="#1362A2"/>
<path d="M29.4727 19.2773C29.2852 19.4531 29.1797 19.6992 29.1797 19.9219C29.1797 20.1445 29.2852 20.3906 29.4727 20.5664C29.7305 20.8359 29.8359 20.8594 30.9375 20.8594C32.0391 20.8594 32.1445 20.8359 32.4023 20.5664C32.5898 20.3906 32.6953 20.1445 32.6953 19.9219C32.6953 19.6992 32.5898 19.4531 32.4023 19.2773C32.1445 19.0078 32.0391 18.9844 30.9375 18.9844C29.8359 18.9844 29.7305 19.0078 29.4727 19.2773Z" fill="#1362A2"/>
<path d="M9.67969 19.3594C9.57422 19.5 9.49219 19.7812 9.49219 19.9805C9.49219 20.1797 9.57422 20.4609 9.67969 20.6016L9.85547 20.8594H14.0508C18.0469 20.8594 18.2578 20.8477 18.4453 20.6367C18.7148 20.332 18.7148 19.6289 18.4453 19.3242C18.2578 19.1133 18.0469 19.1016 14.0508 19.1016H9.85547L9.67969 19.3594Z" fill="#1362A2"/>
<path d="M9.78516 23.0273C9.59766 23.2031 9.49219 23.4492 9.49219 23.6719C9.49219 23.8945 9.59766 24.1406 9.78516 24.3164L10.0664 24.6094H14.1211H18.1758L18.457 24.3164C18.6445 24.1406 18.75 23.8945 18.75 23.6719C18.75 23.4492 18.6445 23.2031 18.457 23.0273L18.1758 22.7344H14.1211H10.0664L9.78516 23.0273Z" fill="#1362A2"/>
<path d="M42.504 31.8515C42.2345 32.1562 42.2462 32.953 42.5157 33.1991C42.8438 33.5038 45.2345 33.4921 45.504 33.1874C45.7735 32.8827 45.7618 32.0859 45.4923 31.8398C45.1642 31.5351 42.7735 31.5468 42.504 31.8515Z" fill="#1362A2"/>
<path d="M47.5431 31.8515C47.2735 32.1562 47.2853 32.953 47.5548 33.1991C47.8829 33.5038 50.2735 33.4921 50.5431 33.1874C50.8126 32.8827 50.8009 32.0859 50.5313 31.8398C50.2032 31.5351 47.8126 31.5468 47.5431 31.8515Z" fill="#1362A2"/>
<path d="M27.832 35.5664C27.6445 35.7422 27.5391 35.9883 27.5391 36.2109C27.5391 36.4336 27.6445 36.6797 27.832 36.8555L28.1133 37.1484H32.168H36.2227L36.5039 36.8555C36.6914 36.6797 36.7969 36.4336 36.7969 36.2109C36.7969 35.9883 36.6914 35.7422 36.5039 35.5664L36.2227 35.2734H32.168H28.1133L27.832 35.5664Z" fill="#1362A2"/>
<path d="M37.9337 35.4843C37.6642 35.789 37.6759 36.5859 37.9454 36.832C38.1329 37.0078 38.5782 37.0312 41.7423 37.0312C45.7853 37.0312 45.7032 37.0546 45.7032 36.1289C45.7032 35.2617 45.7501 35.2734 41.6954 35.2734C38.379 35.2734 38.1095 35.2851 37.9337 35.4843Z" fill="#1362A2"/>
<path d="M47.5431 35.4843C47.2735 35.789 47.2853 36.5859 47.5548 36.8319C47.8829 37.1366 50.2735 37.1249 50.5431 36.8202C50.8126 36.5155 50.8009 35.7187 50.5313 35.4726C50.2032 35.1679 47.8126 35.1796 47.5431 35.4843Z" fill="#1362A2"/>
<path d="M27.8556 39.2342C27.586 39.5389 27.5978 40.3358 27.8673 40.5819C28.0665 40.7576 28.5353 40.7811 32.2501 40.7811C36.9493 40.7811 36.797 40.8162 36.797 39.8787C36.797 38.9998 36.9142 39.0233 32.2032 39.0233C28.3243 39.0233 28.0313 39.035 27.8556 39.2342Z" fill="#1362A2"/>
</g>
<defs>
<clipPath id="clip0_1015_9853">
<rect width="60" height="60" fill="white"/>
</clipPath>
</defs>
</svg>
