<svg width="60" height="60" viewBox="0 0 60 60" fill="none" xmlns="http://www.w3.org/2000/svg">
<g clip-path="url(#clip0_1015_9931)">
<path d="M52.4408 1.74606C51.972 2.02731 51.7259 2.40231 51.6204 3.0234L51.5384 3.51559H49.4525C48.1283 3.51559 47.2493 3.56246 47.0618 3.64449C46.6868 3.82028 46.4876 4.34762 46.6517 4.76949C46.8743 5.35543 47.0033 5.37887 49.3587 5.39059H51.5501L51.6322 5.94137C51.7493 6.76168 52.3704 7.3359 53.2611 7.44137C54.3392 7.58199 56.2493 7.45309 56.6947 7.23043C57.4329 6.83199 57.5384 6.49215 57.5384 4.45309C57.5384 2.85934 57.515 2.58981 57.304 2.26168C56.9173 1.60543 56.5892 1.5234 54.5853 1.5234C53.0501 1.5234 52.7454 1.55856 52.4408 1.74606ZM55.6634 4.51168V5.62496H54.5501H53.4368V4.51168V3.3984H54.5501H55.6634V4.51168Z" fill="#1362A2"/>
<path d="M42.5742 3.65625C42.1874 3.84375 42.0117 4.37109 42.1874 4.80469C42.3984 5.30859 42.621 5.39062 43.746 5.39062C44.9765 5.39062 45.3515 5.16797 45.3515 4.45312C45.3515 3.73828 44.9765 3.51562 43.7812 3.52734C43.2656 3.52734 42.7148 3.58594 42.5742 3.65625Z" fill="#1362A2"/>
<path d="M20.4488 6.60912C14.1676 7.92162 8.92927 12.0466 6.23396 17.8122C5.30818 19.7927 4.73396 21.7263 4.45271 23.8591C4.26521 25.2654 4.35896 28.781 4.61677 30.1169C5.16755 32.8591 6.21052 35.4138 7.67536 37.6052C8.30818 38.5427 8.31989 38.449 7.40583 39.4802L6.9488 40.0076L6.37458 39.7146C5.8824 39.4802 5.6363 39.4333 4.5699 39.4333C3.43318 39.4333 3.28083 39.4568 2.57771 39.7966C1.35896 40.3708 0.480052 41.4138 0.128489 42.6794C-0.117605 43.5466 -0.000417098 45.0349 0.374583 45.8435C1.20661 47.6365 3.33943 48.7497 5.24958 48.3982C6.1988 48.2341 7.26521 47.6716 7.85115 47.0388C9.09333 45.6912 9.42146 43.5349 8.62458 41.9177L8.33161 41.3318L8.87068 40.699C9.16364 40.3591 9.43318 40.0779 9.48005 40.0779C9.52693 40.0779 9.79646 40.324 10.0777 40.6169C10.8043 41.3552 12.5504 42.7497 13.5699 43.406C15.8433 44.8591 18.4332 45.8669 21.2222 46.3591C22.5816 46.6052 25.8511 46.6404 27.3511 46.4294C30.398 45.9841 33.2574 44.8826 35.8121 43.1716C37.0308 42.3513 37.1949 42.1638 37.1832 41.6365C37.1715 41.2497 36.984 41.0271 35.0504 39.0935C32.6246 36.6677 32.6597 36.6794 31.4644 37.4412C31.0894 37.6872 30.3863 38.0622 29.9058 38.2849C25.8277 40.1365 21.1636 39.7849 17.3902 37.324C16.359 36.656 14.4722 34.9333 14.3551 34.5701C14.2965 34.406 15.3511 33.0935 18.5738 29.3201L22.8629 24.281L23.2965 24.3982C23.5308 24.4685 24.1636 24.4919 24.691 24.4685C25.4644 24.4216 25.7808 24.3513 26.3902 24.0466L27.1285 23.6833L27.8902 24.1755C28.3121 24.4568 30.5269 25.9099 32.8355 27.4099L37.0074 30.1404L36.7965 30.738C36.4449 31.7458 36.2457 32.156 35.566 33.3044C35.0386 34.1833 34.9215 34.4646 34.9801 34.7458C35.0269 35.0037 35.6011 35.6482 37.1246 37.1833C39.0582 39.1052 39.2457 39.2576 39.6324 39.2576C40.1246 39.2576 40.5113 38.8591 41.4371 37.4646C41.9058 36.7615 43.0191 34.699 43.148 34.3122C43.1832 34.2185 43.3121 34.2419 43.5465 34.4177C43.8746 34.6521 43.8863 34.7107 43.898 35.6013C43.9097 36.6443 44.1441 37.2537 44.7886 37.9333C45.5972 38.7771 47.2027 39.0701 48.3043 38.5896C49.4293 38.0857 50.0621 37.113 50.1324 35.8005C50.1676 35.074 50.1324 34.8982 49.8277 34.3005L49.4879 33.6326L52.7808 27.4333L56.0738 21.2341L56.9527 21.1872C57.9605 21.1404 58.4996 20.9177 59.1207 20.2966C59.7418 19.6755 59.9176 19.2771 59.9761 18.3044C60.0816 16.5818 59.1793 15.3513 57.5269 15.0115C55.523 14.5896 53.7535 16.0427 53.7652 18.1052C53.7652 18.8435 53.9996 19.5701 54.3277 19.9333C54.5035 20.1208 54.2457 20.6482 51.1988 26.3552L47.8824 32.5779H47.0504C46.3941 32.5779 46.0894 32.6365 45.6441 32.8591L45.0933 33.1521L44.4605 32.7302C44.1207 32.4958 43.8511 32.2849 43.8746 32.238C44.0621 31.9451 44.5426 29.1912 44.6363 27.9138C45.1168 21.6208 42.7144 15.6326 38.0035 11.3552C36.9019 10.3591 36.7613 10.2771 36.2691 10.3591C35.8004 10.4529 35.5074 10.8044 35.5074 11.2732C35.5074 11.5427 35.8121 11.906 37.1246 13.2185C38.7418 14.8122 39.5972 15.9138 40.5347 17.5662C43.0074 21.949 43.4996 27.3396 41.8707 32.2146C41.4371 33.5271 40.7222 35.0388 39.9957 36.199L39.5386 36.9021L38.3433 35.7068L37.148 34.4997L37.7926 33.2341C38.941 30.9607 39.4097 29.0271 39.398 26.4841C39.398 23.8357 38.8824 21.6794 37.7222 19.4529C35.859 15.8787 32.4488 13.113 28.6285 12.0466L27.6558 11.7771V10.0662V8.3435L28.441 8.50756C29.5191 8.74194 31.1597 9.30444 32.3785 9.85522C33.5152 10.3826 33.8316 10.3826 34.2535 9.80834C34.441 9.56225 34.4644 9.43334 34.3824 9.11694C34.2886 8.80053 34.1246 8.6599 33.4566 8.29662C31.9683 7.51147 29.941 6.8435 27.9488 6.49194C26.648 6.26928 26.4019 6.281 26.0738 6.62084L25.7808 6.90209V9.87865C25.7808 12.5622 25.8043 12.8904 25.9918 13.1247C26.1324 13.3005 26.5777 13.4763 27.5386 13.7224C33.0465 15.1287 36.9605 19.6638 37.4879 25.2302C37.6051 26.3787 37.5347 28.1599 37.3824 28.1013C37.3355 28.0779 35.2965 26.7537 32.8472 25.1482L28.3941 22.2302L28.6168 21.6443C29.4488 19.4529 28.4996 16.9333 26.4371 15.8904C24.1636 14.7419 21.3277 15.7146 20.2496 18.0115C19.4879 19.6404 19.7691 21.7029 20.941 22.9802L21.2105 23.2732L17.2261 27.9607C15.023 30.5271 13.1949 32.6482 13.148 32.6716C13.0426 32.7068 12.6324 31.8865 12.2222 30.8318C11.8941 29.9412 11.484 27.9958 11.484 27.2576C11.484 26.238 11.1676 25.781 10.441 25.781C9.81989 25.781 9.60896 26.1208 9.60896 27.1169C9.60896 28.9333 10.1715 31.1482 11.1558 33.1287C11.6715 34.1833 11.7301 34.3591 11.5894 34.5349C11.4957 34.6521 11.0035 35.238 10.4879 35.8357L9.56208 36.9372L9.30427 36.6091C8.87068 36.0818 7.89802 34.2302 7.46443 33.1052C6.5738 30.8669 6.21052 28.8747 6.21052 26.2966C6.21052 18.8435 10.8511 12.1052 17.8824 9.32787C18.8551 8.94115 20.5777 8.44897 20.9527 8.43725C21.0582 8.43725 21.0933 8.8474 21.0933 10.1247V11.824L20.0972 12.1287C15.691 13.4646 12.2105 16.7224 10.5465 21.0583C9.71443 23.2146 9.80818 24.0232 10.9097 24.0466C11.4254 24.0583 11.6597 23.7537 12.0113 22.6404C13.1246 19.0779 15.398 16.3943 18.691 14.7537C19.6051 14.3083 20.5074 13.9568 21.2691 13.7693C23.0504 13.324 22.9683 13.4997 22.9683 10.0896C22.9683 8.44897 22.9215 7.1599 22.8511 6.94897C22.7222 6.5974 22.3121 6.31615 21.9371 6.33959C21.8316 6.33959 21.1636 6.4685 20.4488 6.60912ZM57.8551 17.3083C58.2769 17.824 58.2183 18.4451 57.7261 18.9372C57.2691 19.3943 56.7301 19.4646 56.2496 19.1365C55.7926 18.8201 55.6754 18.6091 55.6636 18.0935C55.6636 16.8982 57.1051 16.3826 57.8551 17.3083ZM25.5582 17.5896C26.4254 18.0232 27.0699 19.0779 27.0699 20.0505C27.0699 20.9529 26.2613 22.0779 25.3472 22.4646C24.8082 22.6872 23.8121 22.6521 23.2496 22.3943C22.0308 21.8435 21.3511 20.2263 21.8551 19.031C22.4879 17.5076 24.1402 16.863 25.5582 17.5896ZM47.8824 34.8513C48.4683 35.4372 48.398 36.2224 47.6949 36.7615C47.4136 36.9958 46.5933 36.949 46.2535 36.6794C45.609 36.1755 45.609 35.3318 46.2418 34.7458C46.7222 34.3005 47.3668 34.3357 47.8824 34.8513ZM16.1832 38.824C20.7535 41.8591 26.5426 42.1755 31.4058 39.656L32.4019 39.1404L33.6207 40.3591L34.8277 41.5662L34.1246 41.9997C32.191 43.1716 29.7769 44.0857 27.5972 44.4841C25.0074 44.9412 21.4918 44.6833 18.8551 43.8279C16.0777 42.9255 12.7261 40.7927 11.2261 38.9763L10.7808 38.449L11.8472 37.2068L12.9136 35.9646L14.0504 37.0544C14.6715 37.6638 15.6324 38.449 16.1832 38.824ZM5.71833 41.5544C7.40583 42.3982 7.68708 44.6716 6.26911 45.9138C5.65974 46.4529 4.72224 46.699 3.97224 46.5232C2.73005 46.2185 1.87458 45.1755 1.87458 43.9568C1.8863 41.906 3.90193 40.6521 5.71833 41.5544Z" fill="#1362A2"/>
<path d="M51.5742 9.22232C51.3633 9.38638 51.1055 9.70279 51.0234 9.92544L50.8594 10.3122H49.4414C47.625 10.3122 47.2266 10.4879 47.2266 11.32C47.2266 11.484 47.3555 11.7418 47.5195 11.8942C47.7891 12.1754 47.8594 12.1872 49.3242 12.1872H50.8359L50.9531 12.5036C51.1055 12.9606 51.6211 13.4411 52.1133 13.6051C52.7344 13.8043 54.3516 13.6872 54.8203 13.4176C55.4062 13.0661 55.6641 12.4098 55.6641 11.2379C55.6641 10.0895 55.4648 9.57388 54.8555 9.17544C54.5039 8.94107 54.3164 8.90591 53.2148 8.90591C52.043 8.90591 51.9492 8.92935 51.5742 9.22232ZM53.7891 11.3083V11.8356H53.2617H52.7344V11.3083V10.7809H53.2617H53.7891V11.3083Z" fill="#1362A2"/>
<path d="M44.5655 10.4297C44.0147 10.6641 43.8858 11.5078 44.3312 11.9297C44.5655 12.1523 44.7413 12.1875 45.4796 12.1875C46.253 12.1875 46.3937 12.1523 46.6163 11.918C46.9562 11.5547 46.9562 10.8984 46.628 10.5938C46.3585 10.3477 45.0108 10.2305 44.5655 10.4297Z" fill="#1362A2"/>
<path d="M9.5625 48.6328C8.70703 48.8906 8.32031 49.6289 8.32031 51C8.32031 52.1367 8.51953 52.6523 9.12891 53.0508C9.48047 53.2852 9.66797 53.3203 10.7812 53.3203H12.0234L12.5039 52.9102C12.7617 52.6875 13.0078 52.3711 13.0547 52.2188C13.125 51.9375 13.1367 51.9375 14.7188 51.8906C16.2305 51.8555 16.3242 51.8438 16.5352 51.5742C16.8281 51.2227 16.8164 50.7305 16.5117 50.3438C16.2773 50.0391 16.2539 50.0391 14.7305 50.0391H13.1836L12.9492 49.5352C12.6094 48.8203 11.9531 48.5156 10.7812 48.5273C10.3008 48.5273 9.75 48.5859 9.5625 48.6328ZM11.25 50.918V51.4453H10.7227H10.1953V50.918V50.3906H10.7227H11.25V50.918Z" fill="#1362A2"/>
<path d="M18.187 50.3085C17.8472 50.6718 17.8472 51.328 18.1753 51.6327C18.3745 51.8085 18.6441 51.8671 19.5933 51.8905C20.3081 51.9257 20.8823 51.8788 21.0933 51.7968C21.4917 51.6327 21.7261 51.1405 21.6089 50.6952C21.48 50.1444 21.1753 50.039 19.7456 50.039C18.5269 50.039 18.4214 50.0624 18.187 50.3085Z" fill="#1362A2"/>
<path d="M3.45703 53.9179C2.60156 54.164 2.22656 54.8789 2.22656 56.2499C2.22656 57.3046 2.39062 57.7968 2.85938 58.2421C3.16406 58.5117 3.28125 58.5351 4.52344 58.5703C5.83594 58.6171 5.88281 58.6054 6.28125 58.3007C6.51562 58.1249 6.77344 57.8085 6.86719 57.5859L7.03125 57.2109L8.625 57.164C10.1367 57.1289 10.2305 57.1171 10.4414 56.8476C10.7461 56.4726 10.7227 55.9453 10.3711 55.6054C10.1016 55.3242 10.0312 55.3124 8.56641 55.3124H7.05469L6.9375 54.9843C6.77344 54.5273 6.24609 54.0468 5.75391 53.9062C5.25 53.7656 3.94922 53.7656 3.45703 53.9179ZM5.15625 56.1914V56.7187H4.62891H4.10156V56.1914V55.664H4.62891H5.15625V56.1914Z" fill="#1362A2"/>
<path d="M11.859 55.582C11.484 55.9805 11.5074 56.625 11.9059 56.9414C12.2106 57.1758 12.3629 57.1875 15.4801 57.1875C17.6481 57.1875 18.8317 57.1406 19.0309 57.0586C19.4527 56.8594 19.6402 56.3438 19.4527 55.8984C19.3707 55.6992 19.2067 55.4883 19.0895 55.4297C18.9723 55.3594 17.4371 55.3125 15.4918 55.3125H12.1051L11.859 55.582Z" fill="#1362A2"/>
</g>
<defs>
<clipPath id="clip0_1015_9931">
<rect width="60" height="60" fill="white"/>
</clipPath>
</defs>
</svg>
