<svg width="52" height="61" viewBox="0 0 52 61" fill="none" xmlns="http://www.w3.org/2000/svg">
<path d="M24.1187 0.480469C21.2124 2.0625 18.1069 3.32812 14.7319 4.27734C13.9116 4.51172 13.5249 4.91016 13.6304 5.44922C13.7241 5.88281 14.0991 6.21094 14.521 6.21094C15.0132 6.21094 17.5327 5.44922 19.4429 4.73438C20.3804 4.37109 22.1499 3.58594 23.3804 2.97656C24.5991 2.36719 25.7007 1.875 25.8062 1.875C25.9234 1.875 26.7085 2.23828 27.564 2.68359C33.0132 5.55469 39.4937 7.30078 46.2319 7.74609C48.8218 7.91016 48.939 7.93359 49.1499 8.25C49.478 8.74219 49.6187 11.0039 49.6069 15.8203C49.6069 20.6367 49.5015 22.2656 48.9624 25.957C46.8882 40.3711 40.3843 50.8359 30.1069 56.2852C28.4429 57.1758 26.1929 58.125 25.771 58.125C25.5835 58.125 24.8569 57.8789 24.1655 57.5859C11.3569 52.1133 3.93898 40.3008 2.15773 22.5C1.78273 18.7852 1.81789 10.5469 2.21632 8.74219C2.38038 7.98047 2.49757 7.93359 4.29054 7.82812C6.16554 7.72266 8.77882 7.44141 10.1265 7.20703C10.8179 7.08984 11.1226 6.97266 11.2749 6.78516C11.5679 6.41016 11.5327 5.83594 11.1812 5.50781C10.8882 5.22656 10.8648 5.22656 9.79835 5.36719C7.17335 5.71875 5.79054 5.85938 4.05617 5.96484C2.31007 6.05859 2.16945 6.09375 1.65382 6.41016C0.868666 6.89062 0.493666 7.5 0.341322 8.49609C-0.115709 11.707 -0.115709 18.6328 0.353041 23.2617C2.16945 41.3672 10.3374 53.9883 23.7437 59.4609C25.5249 60.1992 26.0171 60.1992 27.7984 59.4609C40.6304 54.2227 48.6343 42.5039 50.896 25.6406C51.3999 21.9258 51.4937 20.3438 51.4937 15.6445C51.4937 11.2852 51.3413 8.67188 51.0601 7.82812C50.8609 7.24219 50.4273 6.71484 49.8413 6.375C49.3726 6.09375 49.1499 6.05859 47.5327 5.96484C39.8921 5.53125 33.4351 3.76172 27.4234 0.480469C26.6499 0.0585938 26.4624 0 25.771 0C25.0796 0 24.8921 0.0585938 24.1187 0.480469Z" fill="#1362A2"/>
<path d="M23.5328 6.25781C20.5328 7.80469 17.7906 8.74219 14.3453 9.43359C12.3531 9.83203 9.37657 10.1953 8.09923 10.1953C6.42345 10.1953 5.5211 10.957 5.3336 12.5391C5.00548 15.3281 5.05235 21.3516 5.43907 24.9961C6.72814 37.2422 11.5094 46.3945 19.3492 51.5977C21.6461 53.1328 24.7984 54.6094 25.7711 54.6094C27.2008 54.6094 31.9234 52.0664 34.5367 49.8867C39.4 45.832 42.9391 39.7852 44.8141 32.3555C46.0563 27.4219 46.6305 21.293 46.3961 15.668C46.232 11.8477 46.1266 11.4023 45.3414 10.7461C44.8727 10.3359 44.3922 10.2305 42.7516 10.1484C37.5484 9.87891 32.4274 8.53125 28.0094 6.25781C26.6149 5.53125 26.2399 5.39062 25.7711 5.39062C25.3024 5.39062 24.9274 5.53125 23.5328 6.25781ZM27.8102 8.26172C28.9117 8.80078 30.3297 9.43359 30.9625 9.66797C34.4781 10.9453 38.6149 11.7891 42.5875 12.0234C43.3609 12.0586 44.0524 12.1523 44.1227 12.2109C44.3336 12.375 44.3922 12.8672 44.5211 15.6445C44.7438 20.7305 44.275 26.3086 43.2203 30.8789C41.2516 39.4922 37.15 46.0078 31.232 49.9688C30.0719 50.7422 27.6813 52.0078 26.4508 52.5L25.7711 52.7578L25.1031 52.5C23.8609 52.0078 21.4703 50.7422 20.3102 49.9688C13.0797 45.1406 8.66173 36.6211 7.32579 24.9609C7.0211 22.2773 6.8922 18.4219 7.0211 15.6094C7.15001 12.8555 7.2086 12.375 7.41954 12.2109C7.48985 12.1523 8.18126 12.0586 8.9547 12.0234C12.9625 11.7891 17.0406 10.957 20.6149 9.65625C21.2945 9.39844 22.6891 8.77734 23.7203 8.25C24.7516 7.72266 25.6422 7.28906 25.7008 7.27734C25.7477 7.27734 26.6969 7.71094 27.8102 8.26172Z" fill="#1362A2"/>
<path d="M23.8373 16.5819C21.9505 16.8749 20.4505 17.4726 18.8099 18.5624C17.7201 19.289 16.1966 20.8124 15.4583 21.9023C13.0677 25.453 12.7044 30.1874 14.5091 34.0546C15.1302 35.3788 15.8099 36.3398 16.9115 37.4765C20.3099 40.9804 25.3607 42.1405 29.9896 40.4765C31.8177 39.8202 33.1888 38.9413 34.5833 37.5351C35.638 36.4569 36.0833 35.8241 36.0833 35.3905C36.0833 34.6171 34.9232 34.2655 34.4076 34.8866C32.556 37.1483 30.5755 38.4608 28.1146 39.0937C26.7904 39.4218 24.5169 39.3983 23.1927 39.0233C21.2591 38.4843 19.8998 37.7108 18.4818 36.3515C16.3724 34.3241 15.2943 31.7812 15.2826 28.828C15.2826 27.1874 15.4818 26.203 16.1029 24.7148C17.0638 22.4413 19.2083 20.2382 21.4701 19.2304C22.9115 18.5858 24.0482 18.3515 25.7123 18.3398C27.4232 18.3398 28.3724 18.5273 29.8841 19.1601C34.1146 20.9296 36.8919 25.7577 36.2005 30.1171C35.9076 32.039 35.9076 32.1562 36.2591 32.4374C36.7748 32.8476 37.4544 32.7069 37.7123 32.1327C37.9115 31.7226 38.1927 29.7421 38.1927 28.828C38.1927 27.0819 37.6654 24.8202 36.8919 23.2851C35.7318 20.9882 33.6224 18.8788 31.3138 17.7069C29.1107 16.6054 26.3451 16.1835 23.8373 16.5819Z" fill="#1362A2"/>
<path d="M29.4973 22.7812C28.8997 22.9922 28.6653 23.2031 26.2278 25.8515L24.0364 28.2187L23.4739 27.6328C22.6653 26.8125 21.9739 26.4843 21.0598 26.4843C20.134 26.4843 19.5012 26.7656 18.9504 27.4101C18.2356 28.2422 18.0715 29.4843 18.552 30.5039C18.7981 30.9961 22.3137 34.4765 22.8762 34.7695C23.509 35.0859 24.5754 35.1093 25.2786 34.8047C25.8294 34.5703 26.3098 34.0898 29.3567 30.7968C31.2551 28.7461 32.884 26.8945 32.9895 26.6953C33.47 25.7695 33.2825 24.3633 32.5911 23.5312C31.9348 22.7461 30.5403 22.4062 29.4973 22.7812ZM31.0325 24.7968C31.7356 25.3828 31.7356 25.3945 28.0325 29.4023C26.1926 31.4062 24.5754 33.0703 24.4583 33.1172C23.9895 33.2578 23.6262 33 21.9036 31.3125C19.9934 29.4492 19.8997 29.2851 20.3919 28.664C20.5676 28.4414 20.7434 28.3593 21.0481 28.3593C21.3997 28.3593 21.5989 28.4883 22.5481 29.414C23.6497 30.4804 23.9426 30.6211 24.5169 30.3984C24.6223 30.3633 25.5247 29.4258 26.5442 28.3242C30.3997 24.1406 30.3176 24.1992 31.0325 24.7968Z" fill="#1362A2"/>
</svg>
