<svg width="60" height="60" viewBox="0 0 60 60" fill="none" xmlns="http://www.w3.org/2000/svg">
<path d="M1.03125 5.27344C0.796875 5.40234 0.480469 5.67188 0.328125 5.88281L0.0585938 6.26953V30V53.7305L0.328125 54.1172C0.480469 54.3281 0.808594 54.5977 1.05469 54.7266C1.51172 54.9609 1.85156 54.9609 30 54.9609C58.1484 54.9609 58.4883 54.9609 58.9453 54.7266C59.1914 54.5977 59.5195 54.3281 59.6719 54.1172L59.9414 53.7305L59.9766 42.9609L60 32.1914L59.7422 31.9102C59.4258 31.5703 58.8516 31.5586 58.5 31.875L58.2422 32.1211V42.4219C58.2422 48.082 58.207 52.793 58.1719 52.8984C58.1016 53.0742 55.5117 53.0859 30 53.0859C4.48828 53.0859 1.89844 53.0742 1.82812 52.8984C1.79297 52.793 1.75781 43.9688 1.75781 33.2695V13.8281H30H58.2422V21.375V28.9336L58.5469 29.168C58.9453 29.4844 59.2969 29.4844 59.6953 29.168L60 28.9219L59.9766 17.6016L59.9414 6.26953L59.6719 5.88281C59.5195 5.67188 59.1914 5.40234 58.9453 5.27344C58.4883 5.03906 58.1836 5.03906 38.7422 5.03906H18.9961L18.7617 5.34375C18.457 5.73047 18.4453 6.22266 18.7383 6.57422L18.9609 6.85547L38.5078 6.89062C53.918 6.91406 58.0781 6.94922 58.1484 7.06641C58.1953 7.13672 58.2422 8.25 58.2422 9.51562V11.8359H30H1.75781V9.51562C1.75781 8.25 1.80469 7.13672 1.85156 7.06641C1.92188 6.94922 3.5625 6.91406 8.89453 6.89062L15.8438 6.85547L16.0664 6.57422C16.3594 6.22266 16.3477 5.73047 16.043 5.34375L15.8086 5.03906H8.63672C1.76953 5.05078 1.44141 5.0625 1.03125 5.27344Z" fill="#1362A2"/>
<path d="M3.70312 8.56641C3.46875 8.75391 3.39844 8.90625 3.39844 9.26953C3.39844 9.85547 3.71484 10.1953 4.27734 10.1953C4.83984 10.1953 5.15625 9.85547 5.15625 9.26953C5.15625 8.90625 5.08594 8.75391 4.85156 8.56641C4.67578 8.42578 4.41797 8.32031 4.27734 8.32031C4.13672 8.32031 3.87891 8.42578 3.70312 8.56641Z" fill="#1362A2"/>
<path d="M6.75 8.56641C6.51562 8.75391 6.44531 8.90625 6.44531 9.26953C6.44531 9.85547 6.76172 10.1953 7.32422 10.1953C7.88672 10.1953 8.20312 9.85547 8.20312 9.26953C8.20312 8.90625 8.13281 8.75391 7.89844 8.56641C7.72266 8.42578 7.46484 8.32031 7.32422 8.32031C7.18359 8.32031 6.92578 8.42578 6.75 8.56641Z" fill="#1362A2"/>
<path d="M9.79688 8.56641C9.5625 8.75391 9.49219 8.90625 9.49219 9.26953C9.49219 9.85547 9.80859 10.1953 10.3711 10.1953C10.9336 10.1953 11.25 9.85547 11.25 9.26953C11.25 8.90625 11.1797 8.75391 10.9453 8.56641C10.7695 8.42578 10.5117 8.32031 10.3711 8.32031C10.2305 8.32031 9.97266 8.42578 9.79688 8.56641Z" fill="#1362A2"/>
<path d="M18.2227 16.418C17.8594 16.6172 13.7109 20.7656 13.5234 21.1172C13.3945 21.3633 13.3594 21.9609 13.3594 23.7305V26.0156H12.6445C11.4727 26.0156 11.0391 26.4023 10.9336 27.5273C10.8398 28.5703 10.8398 28.582 10.1953 27.9492C9.67969 27.4453 9.5625 27.3867 9.10547 27.3867C8.48438 27.3867 8.15625 27.5977 7.18359 28.6289C6.14062 29.7422 6.11719 30.293 7.05469 31.2539C7.59375 31.8047 7.58203 31.8164 6.55078 31.9102C5.27344 32.0273 5.03906 32.3906 5.03906 34.2188C5.03906 36.0469 5.27344 36.4102 6.55078 36.5273C7.59375 36.6211 7.60547 36.6211 6.97266 37.2656C6.46875 37.7812 6.41016 37.8984 6.41016 38.3555C6.41016 38.9766 6.62109 39.3047 7.65234 40.2773C8.76562 41.3203 9.29297 41.3555 10.2188 40.4531C10.8281 39.8555 10.8398 39.8672 10.9336 40.9102C11.0508 42.1875 11.4141 42.4219 13.2422 42.4219C15.0703 42.4219 15.4336 42.1875 15.5508 40.9102C15.6445 39.8672 15.6562 39.8555 16.2656 40.4531C17.1914 41.3438 17.7188 41.3086 18.8086 40.3008L19.5469 39.6094H25.4531C30.8203 39.6094 31.3828 39.5859 31.6406 39.4102C32.2266 39.0117 32.2148 39.0469 32.2266 35.4492V32.0508L34.5117 30.1875C35.7773 29.168 36.9375 28.1719 37.0898 27.9844C37.4648 27.5391 37.4883 26.7656 37.1484 26.3438C37.0195 26.1797 35.8594 25.1836 34.5703 24.1289L32.2266 22.2188V19.5938V16.9688L31.8867 16.6289L31.5469 16.2891H24.9961C20.5078 16.3008 18.3867 16.3359 18.2227 16.418ZM30.3516 19.5117V20.8594H30.0586C29.5664 20.8594 29.0625 21.1992 28.875 21.6211C28.7812 21.8438 28.7109 22.3711 28.7109 22.793V23.5547H25.0547C21.6328 23.5547 21.3633 23.5664 21.0117 23.7891C20.4727 24.1055 20.3906 24.5742 20.3906 27.1289C20.3906 29.6836 20.4727 30.1523 21.0117 30.4688C21.3633 30.6914 21.6328 30.7031 25.0547 30.7031H28.7109V31.4648C28.7109 31.8867 28.7812 32.4141 28.875 32.6367C29.0625 33.0586 29.5664 33.3984 30.0586 33.3984H30.3516V35.5664V37.7344H25.1602H19.9688L19.4531 37.207C18.8906 36.6328 18.8906 36.6211 19.9336 36.5273C21.2109 36.4102 21.4453 36.0469 21.4453 34.2188C21.4453 32.3906 21.2109 32.0273 19.9336 31.9102C18.9023 31.8164 18.8906 31.8047 19.4297 31.2539C20.3672 30.293 20.3438 29.7422 19.3008 28.6289C18.3281 27.5977 18 27.3867 17.3789 27.3867C16.9219 27.3867 16.8047 27.4453 16.2891 27.9492C15.6445 28.582 15.6445 28.582 15.5391 27.4922C15.5156 27.1172 15.4219 26.7422 15.3633 26.6836C15.2812 26.6016 15.2344 25.8164 15.2344 24.5859V22.6172H16.7344C18.4453 22.6172 18.9961 22.5 19.3359 22.0664C19.5469 21.7969 19.5703 21.5977 19.5703 19.9688V18.1641H24.9609H30.3516V19.5117ZM17.6953 20.1562V20.7422H17.0859H16.4766L17.0508 20.1562C17.3672 19.8281 17.6484 19.5703 17.6602 19.5703C17.6836 19.5703 17.6953 19.8281 17.6953 20.1562ZM32.9648 25.2891L35.2266 27.1406L33.0117 28.9453C31.793 29.9414 30.75 30.7734 30.6914 30.7969C30.6328 30.8203 30.5859 30.6094 30.5859 30.3281C30.5859 29.6602 30.375 29.2852 29.8828 29.0391C29.5195 28.8516 29.0625 28.8281 25.875 28.8281H22.2656V27.1289V25.4297H25.8984C29.8008 25.4297 29.9883 25.4062 30.3984 24.8203C30.5039 24.668 30.5859 24.3164 30.5859 24C30.5859 23.6836 30.6094 23.4375 30.6445 23.4375C30.668 23.4375 31.7227 24.2695 32.9648 25.2891ZM13.7109 28.582C13.7109 29.4727 13.9453 29.7656 14.9648 30.1758C15.9258 30.5508 16.3008 30.5039 16.9805 29.918L17.4844 29.4961L17.7188 29.7422L17.9648 29.9766L17.543 30.4805C16.957 31.1602 16.9102 31.5352 17.2852 32.4961C17.6953 33.5156 17.9883 33.75 18.8789 33.75H19.5703V34.2188V34.6875H18.8789C17.9883 34.6875 17.6953 34.9219 17.2852 35.9414C16.9102 36.9023 16.957 37.2773 17.543 37.957L17.9648 38.4609L17.7188 38.6953L17.4844 38.9414L16.9805 38.5195C16.3008 37.9336 15.9258 37.8867 14.9648 38.2617C13.9453 38.6719 13.7109 38.9648 13.7109 39.8555V40.5469H13.2422H12.7734V39.8555C12.7734 38.9648 12.5391 38.6719 11.5195 38.2617C10.5586 37.8867 10.1836 37.9336 9.50391 38.5195L9 38.9414L8.76562 38.6953L8.51953 38.4609L8.94141 37.957C9.52734 37.2773 9.57422 36.9023 9.19922 35.9414C8.78906 34.9219 8.49609 34.6875 7.60547 34.6875H6.91406V34.2188V33.75H7.60547C8.49609 33.75 8.78906 33.5156 9.19922 32.4961C9.57422 31.5352 9.52734 31.1602 8.94141 30.4805L8.51953 29.9766L8.76562 29.7422L9 29.4961L9.50391 29.918C10.1836 30.5039 10.5586 30.5508 11.5195 30.1758C12.5391 29.7656 12.7734 29.4727 12.7734 28.582V27.8906H13.2422H13.7109V28.582Z" fill="#1362A2"/>
<path d="M12.246 31.3125C11.871 31.4414 11.1796 31.9219 10.9217 32.2266C10.8397 32.3203 10.6405 32.6602 10.4882 32.9883C9.53893 34.9219 11.0507 37.2656 13.2421 37.2656C14.3671 37.2656 15.5038 36.5508 16.0194 35.5195C16.3124 34.9336 16.3124 33.5039 16.0194 32.918C15.3514 31.5703 13.6171 30.832 12.246 31.3125ZM14.0155 33.4453C14.3085 33.7266 14.4139 33.9492 14.4139 34.2188C14.4139 34.7344 13.7577 35.3906 13.2421 35.3906C12.7264 35.3906 12.0702 34.7344 12.0702 34.2188C12.0702 33.7031 12.7264 33.0469 13.2421 33.0469C13.5116 33.0469 13.7342 33.1523 14.0155 33.4453Z" fill="#1362A2"/>
<path d="M39.1756 18.6328C38.6483 18.8438 38.5194 19.5703 38.9178 20.0859L39.1522 20.3906H42.8319C46.91 20.3906 46.91 20.3906 47.0624 19.6055C47.121 19.2891 47.0741 19.1719 46.7811 18.8672L46.4296 18.5156L42.9256 18.5273C41.0038 18.5273 39.3163 18.5742 39.1756 18.6328Z" fill="#1362A2"/>
<path d="M39.1996 22.5234C38.6254 22.8281 38.5082 23.4258 38.9184 23.9531L39.1527 24.2578H46.5238H53.8949L54.1293 23.9531C54.5395 23.4258 54.434 22.8398 53.8949 22.5586C53.6137 22.4062 52.477 22.3828 46.5004 22.3828C41.6137 22.3945 39.3637 22.4297 39.1996 22.5234Z" fill="#1362A2"/>
<path d="M39.27 26.3789C38.6606 26.625 38.4966 27.2812 38.9184 27.8203L39.1528 28.125H46.5239H53.895L54.1294 27.8203C54.563 27.2695 54.3872 26.6133 53.7427 26.3672C53.3208 26.2148 39.6684 26.2148 39.27 26.3789Z" fill="#1362A2"/>
<path d="M38.9178 30.5391C38.4842 31.0898 38.66 31.7461 39.3046 31.9922C39.7499 32.1562 53.2967 32.1562 53.7421 31.9922C54.3866 31.7461 54.5624 31.0898 54.1288 30.5391L53.8944 30.2344H46.5233H39.1522L38.9178 30.5391Z" fill="#1362A2"/>
<path d="M38.9181 34.4062C38.5079 34.9336 38.6134 35.5195 39.1525 35.8008C39.6446 36.0586 53.4025 36.0586 53.8946 35.8008C54.4337 35.5195 54.5392 34.9336 54.129 34.4062L53.8946 34.1016H46.5236H39.1525L38.9181 34.4062Z" fill="#1362A2"/>
<path d="M38.9177 38.2734C38.613 38.6602 38.6013 39.1523 38.8942 39.5039L39.1169 39.7852H46.5231H53.9294L54.1521 39.5039C54.445 39.1523 54.4333 38.6602 54.1286 38.2734L53.8942 37.9688H46.5231H39.152L38.9177 38.2734Z" fill="#1362A2"/>
<path d="M7.50008 43.793C4.96883 44.6719 4.21883 47.9062 6.11727 49.793C6.3868 50.0508 6.84383 50.3906 7.1368 50.5312L7.67587 50.8008L23.7657 50.8359L39.8556 50.8594L40.1368 50.5781C40.4884 50.2266 40.5235 49.7109 40.2071 49.3242L39.9845 49.043L24.047 48.9844C8.16805 48.9258 8.09774 48.9258 7.78133 48.6797C7.1954 48.2461 6.97274 47.8359 6.97274 47.2266C6.97274 46.582 7.21883 46.1602 7.85165 45.7266L8.23837 45.4688H30.0001H51.7618L52.1485 45.7266C52.7813 46.1602 53.0274 46.582 53.0274 47.2266C53.0274 47.8359 52.8048 48.2461 52.2188 48.6797C51.9141 48.9141 51.7149 48.9258 47.4962 48.9844L43.1016 49.043L42.879 49.3242C42.5743 49.6992 42.5977 50.2266 42.9493 50.5664L43.2306 50.8594H47.5548C52.7345 50.8594 52.7462 50.8594 53.8595 49.7461C54.422 49.1836 54.6095 48.9023 54.7735 48.3516C55.3243 46.6055 54.5274 44.7422 52.8751 43.9336L52.3243 43.6523L30.1759 43.6289C10.3126 43.6055 7.96883 43.6172 7.50008 43.793Z" fill="#1362A2"/>
<path d="M8.14453 46.582C7.95703 46.7578 7.85156 47.0039 7.85156 47.2266C7.85156 47.4492 7.95703 47.6953 8.14453 47.8711L8.42578 48.1641H24.1406H39.8555L40.1367 47.8711C40.3242 47.6953 40.4297 47.4492 40.4297 47.2266C40.4297 47.0039 40.3242 46.7578 40.1367 46.582L39.8555 46.2891H24.1406H8.42578L8.14453 46.582Z" fill="#1362A2"/>
</svg>
