<svg width="60" height="60" viewBox="0 0 60 60" fill="none" xmlns="http://www.w3.org/2000/svg">
<g clip-path="url(#clip0_1015_9765)">
<path d="M29.707 0.292908C29.4492 0.386658 29.2266 0.468689 29.2266 0.468689C29.2148 0.468689 29.1094 0.609314 28.9922 0.785095C28.8164 1.04291 28.7578 1.40619 28.7109 2.56635L28.6523 4.00775L28.0195 4.24213L27.3984 4.4765L26.4961 3.5976C25.4883 2.61322 25.2539 2.46088 24.7031 2.46088C24.1406 2.46088 23.4258 2.96478 22.3477 4.08978C21.375 5.10931 21.2109 5.40228 21.2109 6.04681C21.2109 6.62103 21.3516 6.85541 22.3359 7.8515L23.2031 8.74213L22.9453 9.3515L22.6875 9.96088H21.3516C20.2031 9.96088 19.9453 9.99603 19.6289 10.1953C19.2305 10.4413 18.8672 11.1328 18.8672 11.6601V11.9531H12.4219C7.04297 11.9531 5.91797 11.9765 5.64844 12.1171C5.27344 12.3281 0.316406 17.2968 0.128906 17.6601C0.0351563 17.8359 0 21.7382 0 31.2656V44.6132L0.257813 44.9999C0.410156 45.2109 0.679688 45.5038 0.855469 45.6327C1.18359 45.8788 1.30078 45.8788 8.03906 45.914L14.8828 45.9374V46.5117C14.8828 47.2851 15.1992 47.6952 15.8086 47.6952C16.4531 47.6952 16.7578 47.3202 16.7578 46.5468V45.9374H17.9063H19.0547L19.2539 46.5702C19.7578 48.1523 21.3633 49.9335 23.0273 50.7538C24.3047 51.3749 25.1484 51.5742 26.5664 51.5742C29.625 51.5859 32.2383 49.9921 33.5742 47.2851C34.1836 46.0429 34.3711 45.082 34.3008 43.4765C34.2188 41.2499 33.5742 39.7851 32.0273 38.2382C31.043 37.2538 29.5781 36.457 28.3242 36.2109L27.5391 36.0468V33.9023C27.5391 31.7695 27.5391 31.746 27.2461 31.4648C27.0703 31.2773 26.8242 31.1718 26.6016 31.1718C26.3789 31.1718 26.1328 31.2773 25.957 31.4648C25.6641 31.746 25.6641 31.7695 25.6641 33.9257V36.0937H25.3828C24.8672 36.0937 23.2852 36.6562 22.5234 37.1132C21.4219 37.7695 20.168 39.1288 19.582 40.3242C19.1016 41.3085 18.75 42.6796 18.75 43.6054V44.0624H10.3242C2.75391 44.0624 1.89844 44.039 1.82813 43.8749C1.79297 43.7695 1.75781 38.039 1.75781 31.1367V18.5859L4.125 16.207L6.49219 13.8281H12.668H18.832L18.9023 14.3554C19.0664 15.5507 19.5234 15.8203 21.3633 15.8203H22.6875L22.9688 16.4765L23.2383 17.1328L22.2656 18.1054C21.3516 19.0312 21.293 19.1132 21.2344 19.6757C21.1641 20.3906 21.375 20.7656 22.4766 21.8788C23.5664 22.9921 24.082 23.3202 24.6914 23.3202C24.9727 23.3202 25.3125 23.2617 25.4414 23.2031C25.6641 23.0859 25.6641 23.1445 25.6641 25.7226V28.371L25.957 28.6523C26.332 29.039 26.8711 29.039 27.2461 28.6523L27.5391 28.371V24.9023C27.5391 23.0038 27.5742 21.4452 27.6211 21.4452C27.668 21.4452 27.9375 21.5273 28.207 21.6327L28.7109 21.832V23.1913C28.7109 25.4296 29.0039 25.6757 31.6523 25.6757C34.2656 25.6757 34.5703 25.4179 34.5703 23.1913V21.8437L35.1797 21.5859L35.7891 21.3281L36.6797 22.1952C37.7109 23.2148 37.8984 23.3202 38.5898 23.3202C39.2109 23.3202 39.6445 23.0273 40.8398 21.8085C41.7773 20.8593 42.0703 20.3788 42.0703 19.8281C42.0703 19.2773 41.918 19.0429 40.9336 18.0234L40.043 17.1328L40.3125 16.4765L40.5938 15.8203H41.918C42.9023 15.8203 43.3477 15.7734 43.6055 15.6328C43.9922 15.4335 44.4023 14.6718 44.4141 14.1445C44.4141 13.8515 44.4492 13.8281 44.8711 13.8281C46.0781 13.8281 46.6641 13.0429 46.043 12.2578C45.832 11.9882 45.7148 11.9531 45.1055 11.9531C44.4492 11.9531 44.4141 11.9413 44.4141 11.6601C44.4141 11.2265 44.1445 10.6523 43.7813 10.3124C43.4766 10.0429 43.3594 10.0195 42.0117 9.98431L40.5703 9.93744L40.3242 9.3515L40.0781 8.75385L40.957 7.8515C42.1992 6.56244 42.3633 5.9765 41.7188 5.01556C41.25 4.31244 39.6914 2.83588 39.1875 2.62494C38.332 2.26166 38.0039 2.39056 36.7852 3.5976L35.8828 4.4765L35.2617 4.24213L34.6289 4.00775L34.5703 2.54291C34.5117 1.1015 34.5 1.05463 34.1719 0.714783C33.9727 0.515564 33.6328 0.292908 33.4102 0.234314C32.7656 0.0585327 30.2578 0.093689 29.707 0.292908ZM32.707 3.38666C32.7656 5.15619 32.8359 5.26166 34.3477 5.94135C36.0469 6.70306 36.3867 6.64447 37.7227 5.33197L38.625 4.45306L39.375 5.21478L40.125 5.9765L39.1758 6.94916C38.6484 7.48822 38.1797 8.06244 38.1445 8.23822C38.0273 8.68353 38.1445 9.164 38.6484 10.3007C39.2578 11.6835 39.3984 11.7656 41.1445 11.8124L42.5391 11.8593V12.9609V14.0624H41.168C39.3164 14.0624 39.2227 14.121 38.5781 15.6913C37.8516 17.4374 37.8984 17.6367 39.1992 18.9726L40.0781 19.8749L39.3164 20.6249L38.5547 21.3749L37.6406 20.4843C36.3516 19.207 36.0938 19.1249 34.7695 19.6874C32.8125 20.5195 32.707 20.6718 32.6953 22.5702V23.7538L32.1328 23.8242C31.8164 23.8593 31.3477 23.8593 31.0781 23.8242L30.5859 23.7538V22.6874C30.5859 20.5898 30.4453 20.4257 27.9492 19.4882C27.1641 19.1953 26.7891 19.3593 25.6992 20.414L24.7383 21.3632L24.3164 20.9999C24.0938 20.789 23.7422 20.4492 23.5547 20.2382L23.2148 19.8398L23.9766 19.0898C24.75 18.3281 25.1953 17.6015 25.1953 17.121C25.1953 16.9804 25.0313 16.4765 24.8438 16.0195C24.0234 14.0742 24 14.0624 22.1016 14.0624H20.7422V12.9492V11.8359H21.9844C23.3203 11.8359 23.8945 11.6718 24.1992 11.2031C24.2813 11.0624 24.5508 10.4765 24.7852 9.89056C25.3945 8.40228 25.3477 8.21478 24.1055 6.94916L23.1563 5.9765L23.9063 5.21478L24.6563 4.45306L25.5586 5.33197C26.8945 6.64447 27.2227 6.70306 28.9336 5.94135C30.3984 5.29681 30.5156 5.12103 30.5742 3.30463L30.6094 1.99213H31.6406H32.6719L32.707 3.38666ZM27.8789 38.0273C29.9297 38.5195 31.6875 40.1718 32.2734 42.1757C32.3789 42.539 32.4609 43.2421 32.4609 43.7812C32.4609 46.1015 31.2188 48.082 29.1211 49.1132C25.5352 50.8827 21.2813 48.5976 20.707 44.5898C20.1211 40.5702 23.9297 37.1015 27.8789 38.0273Z" fill="#1362A2"/>
<path d="M30.0352 6.85522C28.5938 7.24194 27.1289 8.29663 26.3672 9.49194C25.7109 10.5115 25.418 11.5779 25.418 12.8669C25.418 15.1755 26.4609 17.0505 28.418 18.2693C29.7891 19.1365 31.9102 19.3826 33.5273 18.8787C35.5078 18.2576 37.1367 16.5466 37.6758 14.5193C37.9336 13.5701 37.8984 12.0115 37.6055 11.074C37.3242 10.1365 37.0547 9.84351 36.5039 9.84351C35.6836 9.84351 35.4258 10.5115 35.8125 11.6482C36.1055 12.5037 36 13.9333 35.5781 14.7537C34.125 17.5779 30.6211 18.1404 28.4883 15.8787C27.5625 14.8943 27.3633 14.3787 27.3633 12.8904C27.3633 11.7185 27.375 11.6248 27.7617 10.9216C28.7812 9.04663 30.8672 8.14429 32.8711 8.73022C33.4219 8.88257 33.6094 8.89429 33.8906 8.7771C34.5 8.53101 34.6641 7.73413 34.1836 7.28882C33.5977 6.73804 31.3594 6.50366 30.0352 6.85522Z" fill="#1362A2"/>
<path d="M30.9956 10.1839C28.898 10.6996 28.1362 13.348 29.648 14.8597C30.7026 15.9027 32.2964 15.973 33.398 15.0238C34.0894 14.4378 34.3823 13.8168 34.3823 12.891C34.3823 11.6019 33.6558 10.6175 32.437 10.2543C31.7925 10.0668 31.5464 10.055 30.9956 10.1839ZM32.2495 12.2933C32.355 12.3988 32.4839 12.6214 32.5191 12.7972C32.5894 13.055 32.5308 13.1839 32.2495 13.4769C31.8042 13.9222 31.4761 13.9222 31.0425 13.4886C30.6558 13.1019 30.6206 12.8324 30.8901 12.4457C31.2417 11.9418 31.8276 11.8714 32.2495 12.2933Z" fill="#1362A2"/>
<path d="M29.238 41.3908C29.1091 41.4494 28.3591 42.1525 27.5739 42.926L26.1442 44.3439L25.0427 43.2658C24.0114 42.258 23.9059 42.1877 23.4606 42.1877C23.0856 42.1877 22.9333 42.258 22.7458 42.4924C22.277 43.09 22.3708 43.2775 24.1052 45.0236C26.2731 47.2033 25.9567 47.2385 28.57 44.6135C30.363 42.8205 30.5856 42.551 30.5856 42.2111C30.5856 41.4963 29.8591 41.051 29.238 41.3908Z" fill="#1362A2"/>
<path d="M47.5433 12.6792C47.1565 12.9838 47.0862 13.4526 47.344 14.0268C47.473 14.3198 47.5784 14.6831 47.5784 14.8471C47.5784 14.9995 47.7073 15.2573 47.8714 15.4096C48.4808 16.0307 49.4534 15.5854 49.4534 14.6831C49.4534 13.5698 48.8089 12.5385 48.1175 12.5385C47.9065 12.5385 47.6487 12.6088 47.5433 12.6792Z" fill="#1362A2"/>
<path d="M47.8711 17.0508C47.6016 17.3086 47.5781 17.4258 47.5781 18.3984C47.5781 19.3711 47.6016 19.4883 47.8711 19.7461C48.0469 19.9336 48.293 20.0391 48.5156 20.0391C48.7383 20.0391 48.9844 19.9336 49.1602 19.7461C49.4297 19.4883 49.4531 19.3711 49.4531 18.3984C49.4531 17.4258 49.4297 17.3086 49.1602 17.0508C48.9844 16.8633 48.7383 16.7578 48.5156 16.7578C48.293 16.7578 48.0469 16.8633 47.8711 17.0508Z" fill="#1362A2"/>
<path d="M6.97271 20.4489C6.51568 20.906 6.65631 21.6677 7.25396 21.9138C7.4649 21.9958 9.51568 22.031 13.9337 22.0075L20.2969 21.9724L20.5196 21.6911C20.8243 21.3161 20.8126 20.7302 20.4727 20.4138L20.2032 20.156H13.7227H7.25396L6.97271 20.4489Z" fill="#1362A2"/>
<path d="M47.8711 21.3867C47.6016 21.6445 47.5781 21.7617 47.5781 22.7344C47.5781 23.707 47.6016 23.8242 47.8711 24.082C48.0469 24.2695 48.293 24.375 48.5156 24.375C48.7383 24.375 48.9844 24.2695 49.1602 24.082C49.4297 23.8242 49.4531 23.707 49.4531 22.7344C49.4531 21.7617 49.4297 21.6445 49.1602 21.3867C48.9844 21.1992 48.7383 21.0938 48.5156 21.0938C48.293 21.0938 48.0469 21.1992 47.8711 21.3867Z" fill="#1362A2"/>
<path d="M7.01953 24.5977C6.80859 24.7617 6.73828 24.9375 6.73828 25.3125C6.73828 25.6875 6.80859 25.8633 7.01953 26.0273C7.27734 26.2383 7.58203 26.25 13.7109 26.25C20.0273 26.25 20.1328 26.25 20.4375 26.0039C20.6719 25.8164 20.7422 25.6641 20.7422 25.3125C20.7422 24.9609 20.6719 24.8086 20.4375 24.6211C20.1328 24.375 20.0273 24.375 13.7109 24.375C7.58203 24.375 7.27734 24.3867 7.01953 24.5977Z" fill="#1362A2"/>
<path d="M47.8594 25.7226C47.5781 26.0038 47.5664 26.0741 47.6016 27.1288L47.6367 28.2421H42.9141C37.7461 28.2421 37.6406 28.2538 37.1836 28.9218C36.9961 29.2147 36.9727 29.5663 36.9727 32.953C36.9727 38.1679 36.4219 37.7343 42.9258 37.7343H47.5781V38.5546V39.3749H42.7852H38.0039L37.6055 39.6444C37.3828 39.7968 37.1484 40.0897 37.0664 40.3124C36.8906 40.8397 36.8672 47.0976 37.0312 47.7186C37.1016 47.953 37.3125 48.2811 37.5117 48.4452L37.875 48.7499H42.7266H47.5781V49.6288V50.5077H42.7266H37.875L37.5117 50.8124C37.0547 51.1991 36.9141 51.7147 36.9141 53.0624C36.9141 54.1288 36.9023 54.1757 36.5625 54.4921C36.082 54.9374 36.082 55.453 36.5625 55.8983C36.9023 56.2147 36.9141 56.2499 36.9258 57.3866C36.9258 58.7811 37.0781 59.2616 37.6055 59.6132L38.0039 59.8827H48.4805C59.8477 59.8827 59.3789 59.9061 59.8125 59.2499C59.9766 58.9921 60 58.4882 60 55.1249V51.3046L59.6016 50.9061L59.2031 50.5077H54.3281H49.4531V49.6288V48.7499H50.7773C52.0195 48.7499 52.125 48.7265 52.3594 48.4804C52.6992 48.1171 52.6992 47.578 52.3477 47.2499L52.0781 46.9921H45.4336H38.7891V44.121V41.2499H48.5156H58.2422V44.121V46.9921H56.8008C55.4414 46.9921 55.3359 47.0038 55.1016 47.2616C54.7734 47.6015 54.7734 48.1522 55.0781 48.4921C55.3125 48.7382 55.418 48.7499 57.2578 48.7499H59.2031L59.6016 48.3515L60 47.953V44.1913C60 41.0507 59.9648 40.3593 59.8242 40.078C59.4609 39.3749 59.4141 39.3749 54.1992 39.3749H49.4531V38.5546V37.7343H54.082C59.1094 37.7343 59.25 37.7226 59.7422 37.0897C60 36.7733 60 36.6913 60 32.9765V29.1796L59.6016 28.7343L59.2031 28.3007L54.293 28.2655L49.3945 28.2304L49.4297 27.1288C49.4648 26.0741 49.4531 26.0038 49.1719 25.7226C48.9844 25.5351 48.75 25.4296 48.5156 25.4296C48.2812 25.4296 48.0469 25.5351 47.8594 25.7226ZM58.2422 32.9882V35.8593H48.5156H38.7891V32.9882V30.1171H48.5156H58.2422V32.9882ZM58.2422 55.1952V58.0077H48.5156H38.7891V55.1952V52.3827H48.5156H58.2422V55.1952Z" fill="#1362A2"/>
<path d="M41.6481 32.1562C41.0622 32.4141 40.9333 33.1758 41.4021 33.6094L41.6716 33.8672H48.5388H55.4177L55.6521 33.5625C56.0739 33.0352 55.8864 32.332 55.2771 32.1094C54.7028 31.9219 42.1169 31.957 41.6481 32.1562Z" fill="#1362A2"/>
<path d="M41.4258 54.5508C41.2383 54.7266 41.1328 54.9727 41.1328 55.1953C41.1328 55.418 41.2383 55.6641 41.4258 55.8398L41.707 56.1328H48.5156H55.3242L55.6055 55.8398C55.793 55.6641 55.8984 55.418 55.8984 55.1953C55.8984 54.9727 55.793 54.7266 55.6055 54.5508L55.3242 54.2578H48.5156H41.707L41.4258 54.5508Z" fill="#1362A2"/>
<path d="M7.19575 28.7344C6.64497 28.9922 6.5395 29.7422 6.97309 30.1758L7.25434 30.4688H13.7465H20.2387L20.4848 30.1992C20.8012 29.8594 20.8129 29.2969 20.52 28.9336L20.2973 28.6523L13.8637 28.6289C9.58637 28.6172 7.35981 28.6523 7.19575 28.7344Z" fill="#1362A2"/>
<path d="M6.97271 33.2224C6.51568 33.6794 6.65631 34.4411 7.25396 34.6872C7.4649 34.7692 9.51568 34.8044 13.9337 34.781L20.2969 34.7458L20.5196 34.4646C20.8243 34.0896 20.8126 33.5036 20.4727 33.1872L20.2032 32.9294H13.7227H7.25396L6.97271 33.2224Z" fill="#1362A2"/>
<path d="M7.01953 37.3711C6.80859 37.5352 6.73828 37.7109 6.73828 38.0859C6.73828 38.4609 6.80859 38.6367 7.01953 38.8008C7.26562 39.0117 7.52344 39.0234 10.3945 39.0234H13.4883L13.793 38.7188C14.0391 38.4727 14.0742 38.3438 14.0156 37.9922C13.8867 37.1602 13.8281 37.1484 10.3711 37.1484C7.52344 37.1484 7.26562 37.1602 7.01953 37.3711Z" fill="#1362A2"/>
<path d="M41.4258 43.4062C41.0625 43.7695 41.0508 44.2734 41.3789 44.6953L41.6133 45H48.4687H55.3242L55.6054 44.707C55.957 44.3672 55.9804 43.8398 55.6758 43.4648L55.4531 43.1836L48.5859 43.1484L41.7187 43.125L41.4258 43.4062Z" fill="#1362A2"/>
<path d="M15.457 48.8786C15.0234 49.0427 14.8828 49.4411 14.8828 50.4958C14.8828 51.2458 14.9297 51.4685 15.1289 51.7263C15.4453 52.1365 16.1367 52.1482 16.5 51.7615C16.7227 51.5271 16.7578 51.3513 16.7578 50.4138C16.7578 49.488 16.7227 49.3005 16.5234 49.1013C16.3945 48.9724 16.2422 48.8669 16.1836 48.8669C16.125 48.8669 16.0078 48.8435 15.9141 48.8201C15.832 48.7849 15.6211 48.8201 15.457 48.8786Z" fill="#1362A2"/>
<path d="M15.4455 53.2613C14.8595 53.5894 14.8713 54.3746 15.4806 55.1129C16.4416 56.2848 17.8127 56.2144 17.8127 54.9957C17.8127 54.7027 17.7189 54.5387 17.3439 54.2457C17.0861 54.0348 16.8517 53.7769 16.8049 53.648C16.7345 53.4254 16.1838 53.0855 15.9142 53.0855C15.8322 53.0973 15.6213 53.1676 15.4455 53.2613Z" fill="#1362A2"/>
<path d="M19.1602 54.5508C18.9727 54.7266 18.8672 54.9727 18.8672 55.1953C18.8672 55.418 18.9727 55.6641 19.1602 55.8398C19.418 56.1094 19.5352 56.1328 20.5078 56.1328C21.4805 56.1328 21.5977 56.1094 21.8555 55.8398C22.043 55.6641 22.1484 55.418 22.1484 55.1953C22.1484 54.9727 22.043 54.7266 21.8555 54.5508C21.5977 54.2812 21.4805 54.2578 20.5078 54.2578C19.5352 54.2578 19.418 54.2812 19.1602 54.5508Z" fill="#1362A2"/>
<path d="M23.4961 54.5508C23.3086 54.7266 23.2031 54.9727 23.2031 55.1953C23.2031 55.418 23.3086 55.6641 23.4961 55.8398C23.7539 56.1094 23.8711 56.1328 24.8438 56.1328C25.8164 56.1328 25.9336 56.1094 26.1914 55.8398C26.3789 55.6641 26.4844 55.418 26.4844 55.1953C26.4844 54.9727 26.3789 54.7266 26.1914 54.5508C25.9336 54.2812 25.8164 54.2578 24.8438 54.2578C23.8711 54.2578 23.7539 54.2812 23.4961 54.5508Z" fill="#1362A2"/>
<path d="M27.832 54.5508C27.6445 54.7266 27.5391 54.9727 27.5391 55.1953C27.5391 55.418 27.6445 55.6641 27.832 55.8398C28.0898 56.1094 28.207 56.1328 29.1797 56.1328C30.1523 56.1328 30.2695 56.1094 30.5273 55.8398C30.7148 55.6641 30.8203 55.418 30.8203 55.1953C30.8203 54.9727 30.7148 54.7266 30.5273 54.5508C30.2695 54.2812 30.1523 54.2578 29.1797 54.2578C28.207 54.2578 28.0898 54.2812 27.832 54.5508Z" fill="#1362A2"/>
<path d="M32.168 54.5508C31.9805 54.7266 31.875 54.9727 31.875 55.1953C31.875 55.418 31.9805 55.6641 32.168 55.8398C32.4258 56.1094 32.543 56.1328 33.5156 56.1328C34.4883 56.1328 34.6055 56.1094 34.8633 55.8398C35.0508 55.6641 35.1562 55.418 35.1562 55.1953C35.1562 54.9727 35.0508 54.7266 34.8633 54.5508C34.6055 54.2812 34.4883 54.2578 33.5156 54.2578C32.543 54.2578 32.4258 54.2812 32.168 54.5508Z" fill="#1362A2"/>
</g>
<defs>
<clipPath id="clip0_1015_9765">
<rect width="60" height="60" fill="white"/>
</clipPath>
</defs>
</svg>
