<svg width="60" height="60" viewBox="0 0 60 60" fill="none" xmlns="http://www.w3.org/2000/svg">
<path d="M10.5469 0.105484C9.62109 0.398453 8.73047 1.2422 8.36719 2.1797C8.15625 2.71877 8.14453 3.12892 8.14453 8.15627C8.14453 13.3125 8.15625 13.582 8.36719 13.8164C8.67188 14.1445 9.39844 14.1563 9.72656 13.8281C9.9375 13.6172 9.96094 13.4414 9.96094 12.1289V10.6641H30H50.0391L50.0156 31.6758C49.9805 55.2891 50.0742 52.9688 49.0781 53.6367C48.6328 53.9297 48.5742 54.0352 48.5391 54.457C48.4922 55.1602 48.8203 55.4766 49.5352 55.3945C50.4844 55.2891 51.5391 54.1289 51.7852 52.9336C51.8789 52.5 51.9141 44.9883 51.8906 27.4805L51.8555 2.63673L51.5859 2.0508C51.2695 1.34767 50.625 0.667984 49.9805 0.316422L49.5117 0.058609L30.1758 0.0351715C19.5469 0.0234528 10.7109 0.058609 10.5469 0.105484ZM49.3945 2.22658C49.9922 2.77736 50.0391 3.04689 50.0391 6.03517V8.78908H30H9.96094V6.03517C9.96094 2.9883 10.0078 2.7422 10.6641 2.19142L11.0391 1.87502L30.0586 1.89845L49.0781 1.93361L49.3945 2.22658Z" fill="#1362A2"/>
<path d="M13.8047 2.70692C13.2422 2.87099 12.4688 3.53895 12.1641 4.13661C11.8359 4.78114 11.8359 5.87099 12.1641 6.51552C12.6328 7.42958 13.3359 7.93349 14.2969 8.05067C15.457 8.1913 16.6641 7.52333 17.1211 6.51552C17.3906 5.91786 17.4141 4.83974 17.1562 4.24208C16.6523 3.02333 15.1406 2.33192 13.8047 2.70692ZM15.1758 4.74599C15.5742 5.1327 15.5625 5.64833 15.1641 5.96474C14.9883 6.10536 14.7539 6.21083 14.6367 6.21083C14.2852 6.21083 13.8047 5.70692 13.8047 5.33192C13.8047 4.9452 14.2852 4.45302 14.6602 4.45302C14.7891 4.45302 15.0234 4.58192 15.1758 4.74599Z" fill="#1362A2"/>
<path d="M20.8364 2.70707C20.2739 2.87113 19.5122 3.5391 19.2075 4.12503C18.8794 4.76957 18.8794 5.88285 19.1958 6.51566C20.0396 8.168 22.0669 8.58988 23.4497 7.39457C24.0825 6.86722 24.3755 6.22269 24.3755 5.3555C24.3755 4.2305 23.8833 3.39847 22.9224 2.90628C22.3833 2.63675 21.4341 2.543 20.8364 2.70707ZM22.2075 4.74613C22.606 5.13285 22.5943 5.64847 22.1958 5.96488C22.02 6.1055 21.7857 6.21097 21.6685 6.21097C21.3169 6.21097 20.8364 5.70707 20.8364 5.33207C20.8364 4.94535 21.3169 4.45316 21.6919 4.45316C21.8208 4.45316 22.0552 4.58207 22.2075 4.74613Z" fill="#1362A2"/>
<path d="M27.8677 2.70707C27.3052 2.87113 26.5435 3.5391 26.2388 4.12503C25.9107 4.76957 25.9107 5.88285 26.2271 6.51566C27.0708 8.168 29.0982 8.58988 30.481 7.39457C31.1138 6.86722 31.4068 6.22269 31.4068 5.3555C31.4068 4.2305 30.9146 3.39847 29.9536 2.90628C29.4146 2.63675 28.4654 2.543 27.8677 2.70707ZM29.2271 4.69925C29.4497 4.87503 29.5318 5.05082 29.5318 5.33207C29.5318 5.75394 29.0982 6.21097 28.6997 6.21097C28.3482 6.21097 27.8677 5.70707 27.8677 5.33207C27.8677 4.95707 28.3482 4.45316 28.6997 4.45316C28.8169 4.45316 29.0513 4.55863 29.2271 4.69925Z" fill="#1362A2"/>
<path d="M21.2576 14.1094C20.6834 14.3555 20.5428 15.0937 20.9764 15.5625L21.2225 15.8203H29.9998H38.7771L39.0232 15.5625C39.4685 15.0703 39.281 14.2969 38.66 14.0742C38.0623 13.8633 21.7381 13.8984 21.2576 14.1094Z" fill="#1362A2"/>
<path d="M8.70713 15.8201C8.03916 16.0896 8.07432 14.8475 8.10947 34.7576L8.14463 53.0271L8.39072 53.5662C8.74228 54.3045 9.3165 54.9256 10.0079 55.2889L10.6056 55.6053L22.4415 55.6404C30.9024 55.6639 34.3595 55.6287 34.5938 55.535C35.0274 55.3592 35.2267 54.8318 35.0392 54.3748C34.9571 54.1756 34.7931 53.9646 34.6759 53.9061C34.547 53.8357 30.0821 53.7889 22.8868 53.7889C12.0938 53.7889 11.2853 53.7771 10.9103 53.5779C10.6876 53.4725 10.3946 53.2264 10.2657 53.0506C10.0196 52.7225 10.0196 52.699 9.96103 34.4529C9.91416 18.41 9.879 16.16 9.72666 16.0193C9.49228 15.785 9.02353 15.7029 8.70713 15.8201Z" fill="#1362A2"/>
<path d="M16.9922 21.7145C16.6406 21.902 16.3945 22.1481 16.207 22.4997C15.9609 22.9567 15.9375 23.1677 15.9375 24.5622C15.9375 26.238 16.0195 26.5895 16.5 27.1169C17.1445 27.8083 16.4766 27.7731 30 27.7731C43.5234 27.7731 42.8555 27.8083 43.5 27.1169C43.9805 26.5895 44.0625 26.238 44.0625 24.5622C44.0625 23.1677 44.0391 22.9567 43.793 22.4997C43.6055 22.1481 43.3594 21.902 43.0078 21.7145L42.5039 21.445H30H17.4961L16.9922 21.7145ZM42.1641 24.5739L42.1289 25.8395H30H17.8711L17.8359 24.5739L17.8008 23.32H30H42.1992L42.1641 24.5739Z" fill="#1362A2"/>
<path d="M16.9336 31.6758C16.1367 32.1211 15.9375 32.6836 15.9375 34.5352C15.9375 35.6016 15.9844 36.2227 16.1016 36.4805C16.3008 36.9609 16.8281 37.4297 17.332 37.6055C17.8945 37.793 42.1055 37.793 42.668 37.6055C43.1719 37.4297 43.6992 36.9609 43.8984 36.4805C44.0156 36.2227 44.0625 35.6016 44.0625 34.5352C44.0625 33.1172 44.0391 32.918 43.793 32.4492C43.6172 32.1328 43.3477 31.8398 43.0547 31.6758L42.5977 31.4062H30H17.4023L16.9336 31.6758ZM42.1641 34.5352L42.1289 35.8008H30H17.8711L17.8359 34.5352L17.8008 33.2812H30H42.1992L42.1641 34.5352Z" fill="#1362A2"/>
<path d="M26.9529 42.1289C26.238 42.3516 25.6638 42.8555 25.2537 43.6055C24.6091 44.7891 24.8435 46.3828 25.7927 47.332C26.613 48.1641 26.9177 48.2227 29.9997 48.2227C32.5427 48.2227 32.7888 48.1992 33.281 47.9766C34.4529 47.4375 35.0857 46.418 35.0857 45.0586C35.0857 44.3672 35.0388 44.1328 34.7458 43.6055C34.324 42.832 33.7497 42.3516 32.9997 42.1289C32.2029 41.8945 27.7263 41.8945 26.9529 42.1289ZM32.6599 44.0625C33.1872 44.3789 33.3865 45.0469 33.1169 45.6094C32.7888 46.3008 32.5779 46.3477 29.9997 46.3477C27.4216 46.3477 27.2107 46.3008 26.8826 45.6094C26.613 45.0469 26.8122 44.3789 27.3396 44.0625C27.6794 43.8516 27.9372 43.8281 29.9997 43.8281C32.0622 43.8281 32.3201 43.8516 32.6599 44.0625Z" fill="#1362A2"/>
<path d="M37.5234 44.4141C36.7969 44.8594 36.7969 44.8711 36.7969 51.0703V56.6836L37.0664 57.082C37.6875 58.0195 38.4141 58.0078 40.0781 57.0703L41.2969 56.3789L41.5547 56.8125C41.6953 57.0469 42.1055 57.7617 42.4688 58.3828C43.2773 59.7773 43.5352 60 44.3438 60C44.8594 60 45.1055 59.9063 46.2188 59.2617C47.7422 58.3945 47.9648 58.125 47.8945 57.1875C47.8594 56.6367 47.7188 56.3203 47.0156 55.1133C46.5469 54.3281 46.1719 53.6602 46.1719 53.625C46.1719 53.5898 46.7227 53.2383 47.4023 52.8398C48.2227 52.3711 48.7031 52.0078 48.8086 51.7852C49.0195 51.3867 49.0312 50.6367 48.8438 50.2148C48.6797 49.8516 48.5977 49.793 43.2305 46.7109C38.4492 43.957 38.3438 43.9219 37.5234 44.4141ZM43.2773 48.9258C45.1875 50.0156 46.7461 50.9414 46.7578 50.9766C46.7578 51.0117 46.3242 51.2813 45.7852 51.5859C44.4961 52.3125 44.2734 52.5703 44.2031 53.3672C44.1562 53.9883 44.1797 54.0469 45.0469 55.5469C45.5391 56.3906 45.9375 57.1172 45.9375 57.1641C45.9375 57.2461 44.6367 58.0078 44.5078 58.0078C44.4727 58.0078 44.0273 57.293 43.5234 56.4258C42.7266 55.043 42.5508 54.8086 42.1289 54.6094C41.332 54.2227 41.0391 54.3047 39.2227 55.3594L38.6719 55.6875V50.9883V46.2891L39.2344 46.6055C39.5508 46.793 41.3672 47.8242 43.2773 48.9258Z" fill="#1362A2"/>
</svg>
