<svg width="60" height="60" viewBox="0 0 60 60" fill="none" xmlns="http://www.w3.org/2000/svg">
<g clip-path="url(#clip0_1015_9975)">
<path d="M5.88234 0.304852C5.5425 0.468914 5.08547 0.820477 4.86281 1.09001C4.05422 2.02751 4.10109 0.832199 4.10109 20.7072C4.10109 31.9924 4.14797 38.7658 4.21828 38.8947C4.40578 39.258 4.98 39.4338 5.39015 39.258C5.58937 39.1759 5.80031 39.0119 5.8589 38.8947C5.92922 38.7658 5.97609 33.4806 5.97609 24.8556V11.0158H32.1089H58.2417L58.2183 28.9103C58.1948 43.4416 58.1597 46.8634 58.0308 47.0861C57.9487 47.2384 57.7027 47.4611 57.5034 47.5783C57.1402 47.8009 56.7886 47.8127 43.3823 47.8127H29.6362L29.355 48.1056C28.9683 48.4806 28.9683 49.0197 29.355 49.3947L29.6362 49.6877H43.5112C58.98 49.6877 57.9839 49.7463 58.98 48.8674C59.2847 48.5978 59.6011 48.1642 59.7534 47.8244L59.9995 47.2384L59.9761 24.7033C59.9409 3.19939 59.9292 2.1447 59.73 1.74626C59.4605 1.19548 58.8042 0.539227 58.2534 0.269695C57.855 0.0704765 56.6948 0.0587578 32.1675 0.0236015L6.49172 0.000164032L5.88234 0.304852ZM57.4566 2.02751C58.1597 2.48454 58.1831 2.56657 58.2183 6.00017L58.2534 9.14079H32.1206H5.97609V6.03532C5.97609 3.55095 6.01125 2.84782 6.14015 2.59001C6.36281 2.16814 6.59719 1.98064 7.06594 1.87517C7.26515 1.81657 18.6206 1.79314 32.2847 1.79314C55.8159 1.81657 57.1519 1.82829 57.4566 2.02751Z" fill="#1362A2"/>
<path d="M44.6724 4.84033C43.9341 5.62549 44.8364 6.77393 45.7974 6.28174C46.3481 5.98877 46.4536 5.40283 46.0434 4.87549C45.727 4.46533 45.0356 4.45361 44.6724 4.84033Z" fill="#1362A2"/>
<path d="M48.5157 4.80544C48.0469 5.27419 48.3047 6.22341 48.9375 6.37575C49.8633 6.61013 50.5313 5.52028 49.8633 4.86403C49.5 4.48903 48.8555 4.46559 48.5157 4.80544Z" fill="#1362A2"/>
<path d="M52.3832 4.80469C51.8324 5.35547 52.2543 6.44531 53.0277 6.44531C53.3676 6.44531 53.8832 6 53.9183 5.68359C53.9769 4.95703 53.6605 4.57031 53.0277 4.57031C52.7699 4.57031 52.5238 4.66406 52.3832 4.80469Z" fill="#1362A2"/>
<path d="M10.8279 4.85156C10.2537 5.09766 10.1131 5.83594 10.5467 6.30469L10.7928 6.5625H24.492H38.1912L38.4256 6.25781C38.8475 5.73047 38.66 5.02734 38.0506 4.80469C37.8162 4.72266 33.41 4.6875 24.4451 4.6875C13.5818 4.69922 11.1209 4.72266 10.8279 4.85156Z" fill="#1362A2"/>
<path d="M30.5859 15.3052C29.7773 15.3755 29.5781 15.4458 29.1797 15.7739C28.7344 16.1606 28.4531 16.6763 28.3711 17.2739C28.3008 17.7309 28.2773 17.7544 27.375 18.1411C26.6484 18.4575 26.4023 18.5161 26.2617 18.4106C25.3594 17.7661 24.3633 17.6372 23.5781 18.0356C23.0391 18.3169 20.8477 20.5317 20.5664 21.0942C20.2266 21.7505 20.2852 22.6294 20.7187 23.3208L21.082 23.9067L20.7539 24.7622C20.4141 25.6059 20.1328 25.8989 19.6406 25.8989C19.2305 25.8989 18.457 26.4497 18.1875 26.9302C17.9531 27.3638 17.9297 27.5395 17.9297 29.4497C17.9297 30.6216 17.9883 31.6528 18.0586 31.8403C18.2109 32.2622 18.8086 32.8833 19.207 33.0356C19.3711 33.0942 19.6992 33.1763 19.9336 33.2231C20.3437 33.2817 20.3789 33.3286 20.7422 34.2192L21.1172 35.1567L20.8125 35.6255C20.6484 35.8833 20.5078 36.1411 20.5078 36.2114C20.5078 36.4223 20.3555 36.3286 19.9453 35.8598C19.3242 35.1216 18.7383 34.8755 17.6719 34.8638C16.8633 34.8638 16.7578 34.8403 16.7109 34.6177C16.582 34.1255 15.9375 33.3989 15.3281 33.0825C14.5195 32.6723 13.418 32.6489 12.6328 33.0239C12.293 33.1997 11.1562 34.2544 9.12891 36.2934C5.68359 39.7622 5.64844 39.8208 4.33594 43.0669L3.49219 45.1763L3 45.188C2.40234 45.2114 1.88672 45.4575 1.19531 46.0903C0.328125 46.8872 0 47.5083 0 48.3052C0 48.7036 0.0820312 49.1606 0.1875 49.3716C0.433594 49.8638 9.73828 59.2153 10.418 59.6606C11.168 60.1411 12.1523 60.1411 12.9023 59.6723C13.8633 59.0513 14.5312 58.1723 14.8477 57.1294C14.9414 56.7778 14.9531 56.7778 16.3477 56.5669C18.3633 56.2739 19.6523 55.8169 20.9766 54.9263C21.2695 54.7388 22.6875 53.4145 24.1289 51.9848C27.0937 49.0552 27.3047 48.7505 27.3047 47.4614C27.3047 46.6294 27.082 46.0083 26.5664 45.3989L26.2617 45.0356L27.4687 43.8403L28.6641 42.645L29.0977 43.0552C29.3437 43.2778 29.7305 43.5239 29.9766 43.5942C30.5508 43.7466 33.6797 43.7466 34.2773 43.5825C34.9687 43.395 35.5547 42.7153 35.7656 41.8833L35.9297 41.2036L36.8203 40.8169L37.7227 40.4302L38.2734 40.7817C38.7422 41.0747 38.9531 41.1333 39.5508 41.1333C40.4766 41.1333 40.8047 40.9106 42.3984 39.2466C43.6641 37.9341 43.8281 37.6528 43.8281 36.8794C43.8281 36.3755 43.4883 35.4848 43.2539 35.3442C43.0547 35.2153 43.1016 34.9809 43.4883 34.0434C43.7344 33.4692 43.9219 33.1645 44.0508 33.1645C44.4844 33.1645 45.1523 32.895 45.5273 32.5669C46.207 31.9692 46.3125 31.477 46.2656 29.227C46.2305 27.3989 46.207 27.2114 45.9609 26.813C45.6328 26.2856 44.9883 25.8755 44.3555 25.7817C43.9219 25.7231 43.8633 25.6763 43.5703 25.0786C42.9961 23.9302 42.9961 23.8833 43.3594 23.3442C43.7461 22.7583 43.875 22.0669 43.6992 21.4106C43.5937 21.0122 43.2891 20.6372 42.0937 19.4302C40.8633 18.2114 40.5117 17.9302 40.0898 17.813C39.4219 17.6372 38.8008 17.7544 38.168 18.1763L37.6641 18.5161L36.7266 18.1177C35.8242 17.7427 35.8008 17.7192 35.7187 17.2505C35.5781 16.4302 35.168 15.8325 34.4531 15.4575C34.1602 15.3052 31.7227 15.2114 30.5859 15.3052ZM33.6445 17.227C33.7734 17.3091 33.8672 17.4731 33.8672 17.6723C33.8672 18.0708 34.2305 18.8677 34.5352 19.1372C34.8398 19.4067 36.8555 20.2622 37.3945 20.3442C37.9219 20.4263 38.5898 20.227 39.1172 19.8286L39.5039 19.5356L40.6758 20.6958C41.3086 21.3286 41.8359 21.9145 41.8359 22.0083C41.8359 22.0903 41.707 22.3481 41.543 22.5942C41.0273 23.3794 41.0391 23.9302 41.5898 25.3013C41.8594 25.9692 42.1641 26.6372 42.2812 26.7778C42.5508 27.1411 43.1953 27.5044 43.7695 27.6098C44.0273 27.6567 44.2734 27.7505 44.3203 27.8208C44.3672 27.8911 44.4141 28.6411 44.4141 29.4848C44.4141 31.1841 44.4023 31.2192 43.6641 31.3247C43.0547 31.4184 42.4102 31.8638 42.1641 32.3559C41.4492 33.7856 41.2266 34.4888 41.2734 35.2153C41.3086 35.7895 41.3906 36.0473 41.6367 36.3638C41.8125 36.5981 41.9531 36.8208 41.9531 36.8794C41.9531 36.9263 41.4375 37.4888 40.8164 38.1098C39.7266 39.1997 39.375 39.4223 39.1875 39.1294C39.0586 38.9184 38.168 38.5552 37.7578 38.5552C37.2187 38.5552 35.0625 39.4341 34.6406 39.8208C34.2656 40.1723 33.9844 40.7466 33.9844 41.1802C33.9844 41.7544 33.75 41.8364 32.1328 41.8364C31.3125 41.8364 30.5859 41.7895 30.5156 41.7427C30.4453 41.6958 30.3516 41.5317 30.3164 41.3677C30.2461 41.0981 30.4336 40.8638 31.9453 39.3755C33.6562 37.6763 34.0195 37.1958 34.1602 36.4458C34.2305 36.0708 34.3242 36.0005 35.1797 35.5903C36.9023 34.7583 38.2852 33.0239 38.7422 31.102C39 30.0122 38.9062 28.2309 38.5547 27.1997C37.9687 25.5591 36.6445 24.0708 35.0625 23.3091C31.0898 21.3872 26.2734 23.7544 25.3711 28.0669C24.9023 30.2934 25.5469 32.5317 27.1055 34.1723L27.8789 34.9809L26.3437 36.5278L24.8086 38.063L24.4453 37.5239C24.1992 37.1489 23.8711 36.8794 23.4375 36.645C22.9922 36.4106 22.8047 36.2466 22.8281 36.1177C23.0391 35.0278 22.9922 34.6294 22.5234 33.5161C21.9727 32.1919 21.4453 31.5708 20.7773 31.4653C19.7578 31.3013 19.8047 31.3833 19.8047 29.4848V27.7856L20.25 27.7153C21.3398 27.5278 21.8437 27.0708 22.3828 25.7817C23.0859 24.1294 23.1211 23.5083 22.5586 22.688C22.3945 22.4536 22.2656 22.1723 22.2656 22.0552C22.2656 21.7973 24.375 19.688 24.6328 19.688C24.7383 19.688 24.8672 19.7466 24.9141 19.8169C25.0547 20.0513 25.9453 20.3911 26.4258 20.3911C26.9531 20.3911 28.7812 19.688 29.3906 19.2544C29.8242 18.9263 30.0703 18.5161 30.1758 17.8716C30.2227 17.6138 30.3398 17.3325 30.4453 17.2505C30.6797 17.0747 33.3047 17.0513 33.6445 17.227ZM33.0703 24.6216C35.5078 25.1489 37.1602 27.3286 36.9961 29.813C36.9023 31.3481 36.2344 32.5669 35.0156 33.4692C34.0078 34.2075 33.8672 34.2192 33.2109 33.6567C32.918 33.3872 32.4961 33.1177 32.2617 33.0356C31.6289 32.8364 30.3867 32.9536 29.7305 33.2817L29.1797 33.563L28.582 32.977C26.2383 30.6802 26.7773 26.8481 29.6719 25.1489C30.6797 24.563 31.8984 24.3755 33.0703 24.6216ZM14.3555 34.7348C15.0586 35.0278 15.1992 35.7075 14.707 36.5044C14.3437 37.102 14.3437 37.4302 14.707 37.7934C15.1172 38.2153 15.6797 38.1919 16.125 37.7231C16.6875 37.1138 17.3555 36.6802 17.7187 36.6802C17.9414 36.6802 18.1875 36.7973 18.4102 37.02C18.8437 37.4653 18.8672 38.0044 18.457 38.5552C18.293 38.7778 18.1641 39.0473 18.1641 39.1528C18.1641 39.7153 18.6562 40.1958 19.2305 40.1958C19.3711 40.1958 19.8984 39.7856 20.5078 39.1997C21.4453 38.2973 21.5859 38.2036 22.0078 38.2036C22.6406 38.2036 23.0859 38.6489 23.0859 39.2817C23.0859 39.6919 22.9922 39.8325 21.9023 40.9692C20.8008 42.1177 20.7187 42.2231 20.7891 42.563C20.9062 43.1255 21.1758 43.3598 21.7266 43.3598C22.1953 43.3598 22.2539 43.3013 26.4844 39.0825C30.6094 34.9692 30.7852 34.8052 31.2187 34.8052C31.8047 34.8052 32.3437 35.3208 32.3437 35.8716C32.3437 36.2348 31.793 36.8091 25.7344 42.8911C22.1016 46.5356 19.0898 49.6294 19.043 49.7817C18.8672 50.3677 19.3945 50.977 20.0625 50.977C20.2383 50.977 21.0469 50.2505 22.5586 48.7505C23.7891 47.52 24.832 46.5239 24.8672 46.5239C25.1133 46.5239 25.4297 47.0747 25.4297 47.5083C25.4297 47.9653 25.3477 48.0591 23.0039 50.4263C19.5937 53.8364 18.9023 54.27 15.9961 54.727C15.2227 54.8442 14.4609 54.9731 14.2969 55.0083C14.0391 55.0786 13.5469 54.6216 9.5625 50.6372L5.12109 46.1958L5.97656 44.1098C7.32422 40.7817 7.19531 40.9575 10.3008 37.8052C12.7969 35.2856 13.582 34.5708 13.8633 34.5708C13.9102 34.5708 14.1328 34.6411 14.3555 34.7348ZM8.26172 52.02L13.0547 56.8364L12.4219 57.4809C12.0703 57.8325 11.7305 58.1255 11.6602 58.1255C11.4609 58.1255 1.875 48.4692 1.875 48.27C1.875 48.1645 2.13281 47.8364 2.46094 47.5317C2.92969 47.0981 3.08203 47.0044 3.24609 47.0981C3.36328 47.1567 5.61328 49.3716 8.26172 52.02Z" fill="#1362A2"/>
</g>
<defs>
<clipPath id="clip0_1015_9975">
<rect width="60" height="60" fill="white"/>
</clipPath>
</defs>
</svg>
