<svg width="60" height="60" viewBox="0 0 60 60" fill="none" xmlns="http://www.w3.org/2000/svg">
<g clip-path="url(#clip0_1015_9721)">
<path d="M0.738281 0.234077C0 0.67939 0 0.667671 0 5.88251C0 10.3591 0.0117188 10.6286 0.234375 10.9802C0.679688 11.7185 0.65625 11.7185 6.03516 11.7185C11.4141 11.7185 11.3906 11.7185 11.8359 10.9802C12.0469 10.652 12.0703 10.3825 12.0703 8.69501V6.79658H13.1836H14.2969L14.3203 16.3708L14.3555 25.9567L14.625 26.3435C15.0938 26.988 15.3867 27.07 17.2852 27.07H18.9844V28.0661V29.0622H14.6602H10.3242L10.1484 28.4411C9.92578 27.656 9.19922 26.531 8.60156 26.0388C5.96484 23.8356 1.94531 24.6911 0.433594 27.7614C0.0703125 28.5114 0.0585938 28.5817 0.0585938 29.9997C0.0585938 31.4177 0.0703125 31.488 0.433594 32.238C1.94531 35.3083 5.96484 36.1638 8.60156 33.9606C9.19922 33.4685 9.92578 32.3435 10.1484 31.5583L10.3242 30.9372H14.6602H18.9844V31.9333V32.9294H17.2852C15.3867 32.9294 15.0938 33.0114 14.625 33.656L14.3555 34.0427L14.3203 43.6169L14.2969 53.2028H13.1836H12.0703V51.2927C12.0703 49.6169 12.0469 49.3474 11.8359 49.0192C11.4727 48.4216 11.0742 48.281 9.66797 48.281C8.25 48.281 7.96875 48.4216 7.96875 49.1599C7.96875 49.8513 8.27344 50.0388 9.375 50.0388H10.3125V54.1403V58.2419H6.03516H1.75781V54.1403V50.0388H3.50391H5.26172L5.49609 49.7341C5.8125 49.3356 5.8125 48.9841 5.49609 48.5856L5.26172 48.281H3.21094C0.925781 48.281 0.632812 48.3513 0.234375 49.0192C0.0117188 49.3708 0 49.6403 0 54.1403C0 58.6403 0.0117188 58.9099 0.234375 59.2614C0.679688 59.9997 0.65625 59.9997 6.03516 59.9997C11.4141 59.9997 11.3906 59.9997 11.8359 59.2614C12.0469 58.9333 12.0703 58.6638 12.0703 56.9763V55.0778H13.4531C15.0234 55.0778 15.4688 54.9372 15.9023 54.2692L16.1719 53.8708V44.3435V34.8044H17.5781H18.9844V35.6247C18.9844 36.8669 19.1719 37.57 19.6758 38.1208C20.3789 38.906 20.3789 38.906 24.9609 38.906H29.0625V44.2849V49.6755L28.4414 49.8513C25.043 50.8356 23.6719 55.1481 25.8633 58.0192C27.5508 60.2341 30.9375 60.6911 33.1406 59.0036C35.5195 57.1989 35.8945 53.7185 33.9609 51.3981C33.4688 50.8005 32.3438 50.0739 31.5586 49.8513L30.9375 49.6755V44.2849V38.906H35.0391C39.5625 38.906 39.5977 38.8942 40.2773 38.1911C40.793 37.6403 40.9102 37.2653 40.9805 35.9411L41.0508 34.8044H42.4336H43.8281V44.3435V53.8708L44.0977 54.2692C44.5312 54.9372 44.9766 55.0778 46.5586 55.0778H47.9297V56.9763C47.9297 58.6638 47.9531 58.9333 48.1641 59.2614C48.6094 59.9997 48.5859 59.9997 53.9883 59.9997C58.6406 59.9997 58.9102 59.988 59.2617 59.7653C60 59.32 60 59.3317 60 54.1169C60 49.6403 59.9883 49.3708 59.7656 49.0192C59.3203 48.281 59.3438 48.281 53.9414 48.281C49.2891 48.281 49.0195 48.2927 48.668 48.5153C48.0117 48.9138 47.9297 49.2185 47.9297 51.3278V53.2028H46.8164H45.7031L45.6797 43.6169L45.6445 34.0427L45.375 33.656C44.9062 33.0114 44.6133 32.9294 42.7148 32.9294H41.0156V31.9333V30.9372H45.3398H49.6758L49.8516 31.5583C50.0742 32.3435 50.8008 33.4685 51.3984 33.9606C54.0352 36.1638 58.0547 35.3083 59.5664 32.238C59.9297 31.488 59.9414 31.4177 59.9414 29.9997C59.9414 28.5817 59.9297 28.5114 59.5664 27.7614C58.0547 24.6911 54.0352 23.8356 51.3984 26.0388C50.8008 26.531 50.0742 27.656 49.8516 28.4411L49.6758 29.0622H45.3398H41.0156V28.0661V27.07H42.7148C44.6133 27.07 44.9062 26.988 45.375 26.3435C45.6445 25.9567 45.6445 25.9099 45.6797 22.488L45.7148 19.0075L45.4336 18.6794C45.2109 18.4216 45.0586 18.3513 44.6953 18.363C43.8398 18.3864 43.8281 18.4567 43.8281 22.0427V25.195H42.2109H40.5938L40.2422 24.8317C39.5625 24.1052 39.457 24.0935 35.3086 24.0466C32.6016 24.0114 31.5117 23.9645 31.4297 23.8708C31.3711 23.7888 31.2422 23.3786 31.125 22.945C30.9609 22.2653 30.9375 21.3395 30.9375 16.2419V10.3239L31.5586 10.1481C32.3438 9.92548 33.4688 9.19892 33.9609 8.60126C36.1641 5.96455 35.3086 1.94501 32.2383 0.433296C31.4883 0.070015 31.418 0.0582962 30 0.0582962C28.582 0.0582962 28.5117 0.070015 27.7617 0.433296C24.6914 1.94501 23.8359 5.96455 26.0391 8.60126C26.5312 9.19892 27.6562 9.92548 28.4414 10.1481L29.0625 10.3239V15.7145V21.0935H24.9609C20.3789 21.0935 20.3789 21.0935 19.6758 21.8786C19.1719 22.4294 18.9844 23.1325 18.9844 24.3747V25.195H17.5781H16.1719V15.656V6.12861L15.9023 5.73017C15.4688 5.0622 15.0234 4.92158 13.4531 4.92158H12.0703V3.04658C12.0703 0.937202 11.9883 0.632515 11.332 0.234077C10.9805 0.0114212 10.7109 -0.000297546 6.03516 -0.000297546C1.35938 -0.000297546 1.08984 0.0114212 0.738281 0.234077ZM10.3125 5.85908V9.96064H6.03516H1.75781V5.85908V1.75751H6.03516H10.3125V5.85908ZM31.3477 2.15595C32.3906 2.65986 32.9414 3.32783 33.2109 4.38251C33.4219 5.17939 33.3633 5.78876 33 6.5622C32.0391 8.64814 29.3086 9.15205 27.6914 7.53486C26.0156 5.85908 26.4961 3.15205 28.6523 2.15595C29.4727 1.76923 30.5508 1.76923 31.3477 2.15595ZM28.9102 22.9216C29.168 22.9919 29.2617 23.1911 29.5312 24.2341C29.6836 24.8317 30.2578 25.5231 30.7852 25.7341C31.0781 25.863 32.0273 25.8981 34.8633 25.8981H38.5664L38.8477 26.1911L39.1406 26.4724V31.4997C39.1406 36.281 39.1289 36.5505 38.918 36.8083L38.6953 37.0895H30H21.3047L21.082 36.8083C20.8711 36.5505 20.8594 36.2575 20.8594 30.0349C20.8594 25.6638 20.8945 23.4606 20.9883 23.3083C21.0586 23.1794 21.2227 23.027 21.3633 22.9685C21.6445 22.8513 28.5 22.8161 28.9102 22.9216ZM6.55078 26.988C8.64844 27.9606 9.15234 30.6911 7.53516 32.3083C5.42578 34.4177 1.875 32.9763 1.875 29.9997C1.875 28.4645 2.85938 27.1872 4.34766 26.7888C5.09766 26.5778 5.83594 26.6481 6.55078 26.988ZM56.1914 26.9997C58.2891 27.9372 58.793 30.7145 57.1758 32.3317C56.2148 33.2927 54.6328 33.5974 53.4844 33.0466C51.3398 32.0036 50.8359 29.32 52.4766 27.6794C53.543 26.613 54.8086 26.3786 56.1914 26.9997ZM58.2422 54.1403V58.2419H53.9648H49.6875V54.1403V50.0388H53.9648H58.2422V54.1403ZM31.3594 51.7966C31.6289 51.9138 32.0742 52.2302 32.3438 52.4997C34.418 54.5739 32.9531 58.1247 30 58.1247C27.3516 58.1247 25.7812 55.2185 27.2344 53.027C28.1602 51.6325 29.8477 51.1286 31.3594 51.7966Z" fill="#1362A2"/>
<path d="M48.668 0.234297C48.0117 0.632734 47.9297 0.937422 47.9297 3.0468V4.9218H46.5586C44.9766 4.9218 44.5312 5.06242 44.0977 5.73039C43.8281 6.12883 43.8281 6.14055 43.8281 10.8515C43.8281 15.4335 43.8398 15.5976 44.0625 15.8202C44.3906 16.1484 45.1172 16.1366 45.4219 15.8085C45.6328 15.5741 45.6445 15.2929 45.6797 11.1796L45.7148 6.7968H46.8164H47.9297V8.69523C47.9297 10.3827 47.9531 10.6523 48.1641 10.9804C48.6094 11.7187 48.5859 11.7187 53.9648 11.7187C59.3438 11.7187 59.3203 11.7187 59.7656 10.9804C59.9883 10.6288 60 10.3593 60 5.88273C60 0.667891 60 0.679609 59.2617 0.234297C58.9102 0.0116405 58.6406 -7.82013e-05 53.9648 -7.82013e-05C49.2891 -7.82013e-05 49.0195 0.0116405 48.668 0.234297ZM58.2422 5.8593V9.96086H53.9648H49.6875V5.8593V1.75773H53.9648H58.2422V5.8593Z" fill="#1362A2"/>
</g>
<defs>
<clipPath id="clip0_1015_9721">
<rect width="60" height="60" fill="white"/>
</clipPath>
</defs>
</svg>
