<svg width="60" height="60" viewBox="0 0 60 60" fill="none" xmlns="http://www.w3.org/2000/svg">
<g clip-path="url(#clip0_1015_9794)">
<path d="M6.14062 0.480049C5.53125 0.65583 4.65234 1.3238 4.25391 1.92146C3.49219 3.04646 3.51562 2.53083 3.51562 14.8472V26.0152H2.41406C1.18359 26.0152 0.773438 26.191 0.269531 26.941L0 27.3394V42.8316V58.3238L0.269531 58.7222C0.410156 58.9332 0.714844 59.2379 0.925781 59.3785L1.32422 59.648H11.2148C22.3125 59.648 21.6445 59.6949 22.2422 58.7926L22.5586 58.3238L22.5938 55.2301L22.6289 52.148H34.957C46.6758 52.148 47.3086 52.1363 47.6836 51.9371C48.4219 51.5386 48.5273 51.1519 48.4922 49.2183C48.457 47.5894 48.4453 47.4957 48.1055 46.8863C47.6719 46.1129 46.9102 45.4215 46.207 45.1871C45.8555 45.0582 45.2461 44.9996 44.4727 44.9996H43.2891L43.0078 44.2144C42.8555 43.7691 42.7148 43.359 42.6797 43.2769C42.6445 43.1597 44.2734 43.1246 49.9453 43.1011L57.2461 43.066L57.8672 42.7379C58.6289 42.3394 59.2969 41.6597 59.6602 40.9215L59.9414 40.3707L59.9766 21.8902L60 3.40974L59.7422 2.73005C59.5664 2.24958 59.3086 1.86286 58.8398 1.40583C57.6562 0.233955 60.5156 0.351143 31.7578 0.362862C16.9688 0.362862 6.35156 0.421455 6.14062 0.480049ZM57.0117 2.36677C57.457 2.61286 57.832 3.0113 58.0312 3.45661C58.1484 3.73786 58.1953 7.0074 58.2188 20.5308L58.2422 37.2652H40.4297H22.6172V36.4449V35.6246H38.918C56.9883 35.6246 55.7461 35.6832 56.25 34.8629C56.4844 34.4879 56.4844 34.3238 56.4844 19.7926C56.4844 5.6949 56.4727 5.08552 56.2617 4.76911C55.7578 3.99567 56.6016 4.04255 44.707 4.00739C38.7773 3.98396 33.75 4.00739 33.5391 4.04255C32.7422 4.18317 32.4492 4.93317 32.9414 5.55427L33.1758 5.85896H43.8984H54.6094V19.8043V33.7496H38.625H22.6289L22.5938 30.5504C22.5586 27.4332 22.5469 27.3511 22.2773 26.9176C22.1367 26.6715 21.8086 26.3785 21.5508 26.2496C21.1172 26.0269 20.8359 26.0152 15 26.0152H8.90625V15.9371V5.85896H19.6758H30.457L30.6914 5.55427C30.9961 5.16755 31.0078 4.67536 30.7148 4.3238L30.4922 4.04255H19.3125H8.14453L7.74609 4.3238C6.99609 4.86286 7.03125 4.35896 7.03125 15.7027V26.0152H6.21094H5.39062V14.9176C5.39062 3.91365 5.39062 3.81989 5.63672 3.31599C5.90625 2.76521 6.39844 2.35505 6.96094 2.21442C7.16016 2.16755 18.4219 2.14411 31.9922 2.14411C54.7031 2.16755 56.6836 2.17927 57.0117 2.36677ZM20.7188 28.734L20.7539 29.5308H16.6992C12.8086 29.5308 12.6445 29.5426 12.4219 29.7652C12.1055 30.0816 12.1055 30.7379 12.4219 31.0543C12.6445 31.2769 12.8086 31.2886 16.6992 31.2886H20.7422V42.8316V54.3746H11.25H1.75781V42.8316V31.2886H5.68359C9.5625 31.2886 9.59766 31.2886 9.84375 31.0308C10.1484 30.7027 10.1484 30.234 9.83203 29.8355L9.59766 29.5308H5.67188H1.75781V28.898C1.75781 28.5465 1.79297 28.1715 1.82812 28.0777C1.89844 27.9019 2.80078 27.8902 11.2969 27.9136L20.6836 27.9488L20.7188 28.734ZM58.125 39.4566C58.125 39.984 57.5977 40.734 57.0352 41.0035L56.5312 41.2496H39.5742H22.6172V40.1949V39.1402H40.3711H58.125V39.4566ZM40.8867 43.9097C41.0391 44.3551 41.1914 44.7769 41.2266 44.8472C41.2617 44.9644 39.3633 44.9996 31.9453 44.9996H22.6172V44.0621V43.1246H31.6172H40.6055L40.8867 43.9097ZM45.832 47.1441C46.4531 47.5543 46.6406 48.0582 46.6406 49.2418V50.273H34.6289H22.6172V48.5738V46.8746H34.0312H45.4336L45.832 47.1441ZM20.7422 56.9293C20.7422 57.3043 20.6836 57.6676 20.6016 57.7496C20.4023 57.9488 2.09766 57.9488 1.89844 57.7496C1.81641 57.6676 1.75781 57.3043 1.75781 56.9293V56.2496H11.25H20.7422V56.9293Z" fill="#1362A2"/>
<path d="M30.5503 9.96094C26.5308 10.4531 23.1909 13.3945 22.1362 17.4023C21.7847 18.7266 21.7847 20.7891 22.1245 22.1484C23.0034 25.6992 25.4878 28.3008 29.0269 29.3672C29.9292 29.6484 30.2691 29.6836 31.6987 29.6953C33.6323 29.6953 34.4292 29.5312 36.0347 28.7695C39.3745 27.1992 41.4605 24.1172 41.6831 20.4258C41.9292 16.2305 39.6206 12.4219 35.7769 10.7227C34.3589 10.0781 32.1558 9.76172 30.5503 9.96094ZM33.5737 11.9766C34.2886 12.1289 35.648 12.7383 36.3862 13.2422C38.9409 15 40.2886 18.293 39.6792 21.3281C39.0933 24.2461 37.0308 26.5547 34.1597 27.5039C33.3511 27.7734 33.023 27.8203 31.7573 27.8203C30.4566 27.8203 30.187 27.7852 29.355 27.4922C27.105 26.707 25.5816 25.3711 24.5503 23.2617C23.0269 20.168 23.6128 16.7109 26.0737 14.2266C28.1245 12.1406 30.6909 11.3789 33.5737 11.9766Z" fill="#1362A2"/>
<path d="M32.9766 18.3047C31.9688 19.2305 31.1016 19.9922 31.0547 20.0156C30.9961 20.0391 30.7734 19.8867 30.5625 19.6992C29.9883 19.1953 29.5664 19.0547 29.1562 19.2305C28.7578 19.3945 28.5938 19.6641 28.5938 20.1328C28.5938 20.4141 28.7344 20.6133 29.2148 21.0469C30.2109 21.9492 30.7031 22.2656 31.1133 22.2656C31.4414 22.2656 31.793 21.9844 33.7266 20.2148C34.9453 19.0898 35.9883 18.082 36.0234 17.9766C36.2695 17.3438 35.8125 16.6406 35.1562 16.6406C34.8633 16.6406 34.4883 16.9219 32.9766 18.3047Z" fill="#1362A2"/>
<path d="M9.84384 36.0584C8.60165 36.2693 7.23056 36.9607 6.24619 37.8982C4.7579 39.3045 4.07822 40.8631 4.0665 42.8904C4.05478 45.4099 5.16806 47.4959 7.254 48.8435C8.29697 49.5232 9.22275 49.8162 10.5704 49.8865C12.0235 49.9685 12.9142 49.8045 14.1212 49.2185C15.8087 48.3982 17.0392 46.992 17.6368 45.199C19.1602 40.6052 15.7618 35.9177 10.9571 35.9998C10.5118 35.9998 10.0079 36.0349 9.84384 36.0584ZM12.4337 38.0857C14.9063 38.8474 16.5001 41.3084 16.0782 43.7107C15.3282 47.9529 10.3126 49.5232 7.31259 46.4529C6.26962 45.3748 5.71884 43.617 5.97665 42.1756C6.52744 39.1287 9.57431 37.1951 12.4337 38.0857Z" fill="#1362A2"/>
<path d="M11.5543 41.7773C10.3707 42.8555 10.3355 42.8789 10.1363 42.6562C9.64413 42.1172 8.64803 42.293 8.48397 42.9492C8.35507 43.4648 8.54257 43.8047 9.26913 44.4141C9.84335 44.8945 10.0543 45 10.4176 45C10.8277 45 11.0035 44.8828 12.4683 43.5234C13.9683 42.1406 14.0621 42.0234 14.0621 41.6133C14.0621 41.0625 13.6754 40.6641 13.148 40.6641C12.8316 40.6641 12.5621 40.8516 11.5543 41.7773Z" fill="#1362A2"/>
</g>
<defs>
<clipPath id="clip0_1015_9794">
<rect width="60" height="60" fill="white"/>
</clipPath>
</defs>
</svg>
