<svg width="60" height="60" viewBox="0 0 60 60" fill="none" xmlns="http://www.w3.org/2000/svg">
<path d="M3.03516 3.28109C1.93359 3.46859 0.960938 4.17172 0.398438 5.17953L0.0585938 5.80062V27.1873V48.5741L0.328125 49.0897C0.738281 49.8397 1.54688 50.578 2.29688 50.8475C2.92969 51.0936 3.08203 51.0936 16.9922 51.0936C25.0312 51.0936 31.0547 51.1405 31.0547 51.1991C31.0547 51.2577 30.7383 52.1248 30.3516 53.1209C29.5547 55.2069 29.4844 55.6873 29.9531 56.2381C30.3047 56.66 30.9727 56.8827 31.4766 56.7303C32.4844 56.4256 36.5977 54.785 37.1484 54.4569C37.5 54.2459 38.4727 53.4139 39.3281 52.5819L40.8633 51.0936H46.8516C52.6406 51.0936 52.8633 51.0819 53.4961 50.8475C54.3633 50.5194 55.207 49.6756 55.5352 48.8084C55.7695 48.1873 55.7812 47.9295 55.7812 43.9452C55.7812 39.8788 55.7695 39.7147 55.5469 39.492C55.2422 39.1873 54.6094 39.1873 54.2461 39.4803L53.9648 39.703L53.9062 43.91C53.8477 48.5155 53.8711 48.3397 53.0977 48.9373C52.8047 49.1483 52.5352 49.16 47.7539 49.1952L42.7148 49.2303L51.0469 40.8748C57.6562 34.2538 59.4375 32.4022 59.6602 31.9334C59.8945 31.4295 59.9414 31.1717 59.9414 30.1756C59.9414 29.1795 59.8945 28.9217 59.6719 28.4998C59.2617 27.7264 58.6406 27.1053 57.9141 26.7537C57.3281 26.4725 57.1055 26.4256 56.1914 26.4256C54.7148 26.4256 54.3398 26.6248 52.6172 28.3123L51.2227 29.6834L51.1875 25.8748L51.1523 22.0662L50.8359 21.5858C50.6602 21.328 50.2617 20.953 49.957 20.7772L49.3945 20.4491H27.8906H6.38672L5.85938 20.742C5.57812 20.9061 5.17969 21.2694 4.98047 21.5389L4.62891 22.0545L4.59375 25.6639C4.55859 29.1795 4.57031 29.2967 4.80469 29.5311C5.10938 29.8358 5.74219 29.8358 6.10547 29.5428C6.38672 29.3202 6.38672 29.3202 6.44531 25.9569C6.50391 22.8045 6.51562 22.5819 6.72656 22.4295C6.92578 22.2889 10.0078 22.2655 27.9141 22.2655C48.7148 22.2655 48.8672 22.2655 49.1016 22.4998C49.3242 22.7225 49.3359 22.8866 49.3359 27.1639V31.5819L45.0234 35.8944L40.7227 40.1952H23.8359C9.45703 40.1952 6.92578 40.1717 6.72656 40.0311C6.51562 39.867 6.50391 39.6561 6.44531 36.2108L6.38672 32.5545L6.04688 32.2616C5.66016 31.9334 5.16797 31.9569 4.78125 32.3084C4.57031 32.4959 4.55859 32.7303 4.59375 36.4569L4.62891 40.4061L4.98047 40.9217C5.17969 41.1913 5.57812 41.5545 5.85938 41.7186L6.38672 42.0116L22.6055 42.0467L38.8359 42.0702L35.543 45.3866C33.7383 47.203 32.1914 48.8084 32.1211 48.9608L31.9805 49.2186L17.4844 49.1952L2.98828 49.16L2.625 48.9022C2.42578 48.7498 2.15625 48.4334 2.03906 48.1991C1.82812 47.7655 1.81641 47.0975 1.78125 30.8436L1.75781 13.9452H27.832H53.8945L53.9297 18.8787L53.9648 23.8123L54.293 24.0936C54.7031 24.4452 55.0664 24.4569 55.4766 24.1287L55.7812 23.8827L55.7578 14.8475L55.7227 5.80062L55.3828 5.17953C54.9609 4.41781 54.4219 3.92562 53.5547 3.52719L52.9102 3.2225L28.2422 3.21078C14.6719 3.19906 3.32812 3.23422 3.03516 3.28109ZM53.0508 5.41391C53.8594 5.94125 53.9062 6.16391 53.9062 9.30453V12.0702H27.8203H1.73438L1.78125 9.28109C1.81641 6.63266 1.82812 6.48031 2.08594 6.08187C2.36719 5.62484 2.77734 5.29672 3.26953 5.15609C3.43359 5.0975 14.6016 5.06234 28.0781 5.07406L52.5703 5.0975L53.0508 5.41391ZM57.3516 28.6405C57.9023 29.0506 58.125 29.5077 58.125 30.2108C58.125 30.9842 57.7617 31.4998 56.1094 33.1288L54.7852 34.453L53.3789 33.0467L51.9727 31.6405L53.4375 30.1639C54.2461 29.3553 55.0898 28.5936 55.3125 28.4647C55.8984 28.1366 56.8008 28.2186 57.3516 28.6405ZM52.0664 34.4295L53.4375 35.8006L45.6094 43.6288L37.793 51.4452L36.3867 50.0389L34.9805 48.6327L42.7734 40.8397C47.0625 36.5506 50.5898 33.0467 50.625 33.0467C50.6602 33.0467 51.3047 33.6678 52.0664 34.4295ZM36.2109 52.7459C36.2109 52.8983 32.0391 54.5858 31.9336 54.4686C31.875 54.41 33.1406 51.117 33.4453 50.5194L33.6562 50.1209L34.9336 51.3983C35.6367 52.1014 36.2109 52.7108 36.2109 52.7459Z" fill="#1362A2"/>
<path d="M7.14844 8.20312C6.99609 8.35547 6.91406 8.58984 6.91406 8.90625C6.91406 9.52734 7.23047 9.84375 7.82812 9.84375C8.69531 9.84375 9.14062 8.80078 8.51953 8.22656C8.16797 7.88672 7.47656 7.875 7.14844 8.20312Z" fill="#1362A2"/>
<path d="M11.7424 8.23828C11.1682 8.84766 11.59 9.84375 12.4103 9.84375C12.926 9.84375 13.1955 9.67969 13.3361 9.25781C13.4885 8.83594 13.3244 8.25 13.008 8.08594C12.6096 7.875 12.0119 7.94531 11.7424 8.23828Z" fill="#1362A2"/>
<path d="M16.3477 8.26172C15.7149 8.88281 16.172 9.84375 17.0977 9.84375C17.9532 9.84375 18.3634 8.85938 17.754 8.26172C17.3673 7.86328 16.7345 7.86328 16.3477 8.26172Z" fill="#1362A2"/>
<path d="M15.7031 25.7695C13.8984 26.3554 12.9141 27.9843 13.4062 29.5663C13.7578 30.7265 14.2383 31.1015 16.5469 31.9921C18.1172 32.6132 18.6797 32.9531 18.9141 33.4452C19.0898 33.8085 19.0898 33.9023 18.9492 34.2538C18.3516 35.6601 16.0664 35.7187 14.5078 34.3476C13.7227 33.6679 12.7734 33.9609 12.7734 34.8867C12.7734 35.2499 12.8555 35.4023 13.3242 35.8242C14.3672 36.7968 16.1484 37.3827 17.5664 37.2187C20.9062 36.8202 22.1367 33.0937 19.5117 31.289C19.207 31.0781 18.2695 30.6327 17.4023 30.2929C15.4453 29.5077 15.4102 29.496 15.2344 29.0742C15.1289 28.7929 15.1289 28.664 15.2578 28.4062C15.75 27.3984 17.3203 27.246 18.6914 28.0663C19.0664 28.289 19.5234 28.4765 19.7109 28.4765C20.168 28.4765 20.625 28.0077 20.625 27.539C20.625 27.0468 20.2266 26.6835 19.1367 26.1562C18.3047 25.7695 18.1172 25.7226 17.1094 25.6992C16.5 25.6874 15.8672 25.7109 15.7031 25.7695Z" fill="#1362A2"/>
<path d="M24.2109 25.9102L23.9062 26.1445V31.418C23.9062 36.5273 23.918 36.6914 24.1406 36.9141C24.3633 37.1367 24.5273 37.1484 26.8711 37.1484C29.7188 37.1484 29.7656 37.1367 29.7656 36.2461C29.7656 35.4258 29.5547 35.3438 27.5273 35.2969L25.7812 35.25V33.7969V32.3438H27.4102C29.0391 32.3438 29.0508 32.3438 29.2852 32.0391C29.4258 31.8633 29.5312 31.6055 29.5312 31.4531C29.5312 30.6445 29.1328 30.4688 27.2461 30.4688H25.7812V29.0039V27.5391H27.5156C29.0977 27.5391 29.2734 27.5156 29.5078 27.3047C29.8945 26.9414 29.8594 26.2266 29.4609 25.9102C29.168 25.6758 28.9922 25.6641 26.8359 25.6641C24.6797 25.6641 24.5039 25.6758 24.2109 25.9102Z" fill="#1362A2"/>
<path d="M35.637 25.8517C33.4807 26.426 31.8166 28.3596 31.4885 30.6447C30.9377 34.465 34.4065 37.84 38.1916 37.1603C42.1057 36.4572 44.1565 32.2619 42.3518 28.6877C41.9534 27.9142 40.7698 26.7189 40.0198 26.3322C38.6838 25.6642 37.0198 25.4767 35.637 25.8517ZM38.637 27.7971C39.5745 28.1369 40.5354 29.1096 40.887 30.0588C41.7776 32.4142 40.137 35.051 37.6057 35.3439C36.0237 35.5197 34.301 34.4885 33.6096 32.9533C33.258 32.1682 33.258 30.7385 33.5979 29.9767C34.512 27.9494 36.6213 27.0353 38.637 27.7971Z" fill="#1362A2"/>
</svg>
