<svg width="60" height="60" viewBox="0 0 60 60" fill="none" xmlns="http://www.w3.org/2000/svg">
<path d="M5.9768 0.257172C5.7893 0.45639 5.74242 0.667328 5.74242 1.28842V2.05014L5.14477 2.2728C4.33617 2.55405 3.49242 3.3978 3.23461 4.18295C3.05883 4.69858 3.04711 5.28452 3.07055 8.80014C3.10571 13.3001 3.10571 13.3001 3.98461 14.179C4.74633 14.9408 5.12133 15.058 7.06664 15.0931L8.7893 15.1283V16.4994C8.7893 18.1165 8.98852 18.6908 9.76196 19.1947L10.2424 19.5111L32.6252 19.5462C48.3049 19.5697 55.1487 19.5462 55.4534 19.4525C56.0159 19.2884 56.5901 18.808 56.7893 18.3158C57.0002 17.8353 57.0237 7.95639 56.8245 7.41733C56.6487 6.92514 56.0276 6.3392 55.5471 6.2103C55.3127 6.13998 53.4377 6.09311 51.2346 6.09311H47.3323L47.051 6.38608C46.6995 6.72592 46.676 7.25327 46.9807 7.62827L47.2034 7.90952L51.1174 7.96811L55.0198 8.0267V12.8314V17.6361H32.8713H10.7229L10.6877 16.3822L10.6526 15.1283L14.8479 15.0931C18.9026 15.058 19.0549 15.0462 19.5237 14.8001C19.7815 14.6595 20.1916 14.3314 20.4377 14.0619C21.2112 13.2064 21.258 12.9837 21.3049 10.3353L21.3518 7.96811H32.6487H43.9573L44.2385 7.67514C44.6252 7.30014 44.6252 6.76108 44.2385 6.38608L43.9573 6.09311H32.6604H21.3635L21.3049 5.29623C21.1995 3.86655 20.4963 2.8353 19.2776 2.33139L18.6565 2.07358L18.6096 1.2767C18.5627 0.304047 18.3401 -0.000640869 17.6721 -0.000640869C16.969 -0.000640869 16.758 0.292328 16.758 1.28842V2.10873H12.1877H7.61742V1.35873C7.61742 0.386078 7.34789 -0.000640869 6.67992 -0.000640869C6.36352 -0.000640869 6.15258 0.0813904 5.9768 0.257172ZM18.7971 4.22983C19.4299 4.73373 19.4534 4.86264 19.4534 8.55405C19.4534 12.2572 19.4182 12.5033 18.8088 12.9837C18.4807 13.2415 18.469 13.2415 12.2229 13.2415C5.35571 13.2415 5.47289 13.2533 5.09789 12.5384C4.95727 12.2572 4.92211 11.5892 4.92211 8.61264C4.92211 6.24545 4.96899 4.93295 5.05102 4.76889C5.12133 4.62827 5.32055 4.39389 5.48461 4.25327L5.80102 3.98373H12.1409C18.3987 3.98373 18.4924 3.98373 18.7971 4.22983Z" fill="#1362A2"/>
<path d="M9.14082 7.65234C8.7541 7.85156 8.53144 8.29688 8.60176 8.77734C8.68379 9.33984 8.97676 9.60938 9.51582 9.60938C10.1369 9.60938 10.4299 9.29297 10.4299 8.625C10.4299 7.80469 9.79707 7.32422 9.14082 7.65234Z" fill="#1362A2"/>
<path d="M14.4606 7.61719C13.8395 7.86328 13.6403 8.75391 14.0739 9.30469C14.2614 9.53906 14.4138 9.60938 14.777 9.60938C15.4099 9.60938 15.7028 9.29297 15.7028 8.61328C15.7028 8.10938 15.4216 7.61719 15.1286 7.61719C15.07 7.61719 14.9528 7.59375 14.8591 7.57031C14.777 7.53516 14.5895 7.55859 14.4606 7.61719Z" fill="#1362A2"/>
<path d="M24.5512 10.1016C23.977 10.4297 23.8598 11.0156 24.2699 11.5312L24.5043 11.8359H26.8949H29.2856L29.5199 11.5312C29.9301 11.0039 29.8246 10.418 29.2856 10.1367C28.8637 9.91406 24.9262 9.89062 24.5512 10.1016Z" fill="#1362A2"/>
<path d="M31.6996 10.0898C31.1254 10.418 31.0082 11.0039 31.4184 11.5312L31.6527 11.8359H41.7309C51.6449 11.8359 51.7973 11.8359 52.0317 11.6016C52.3598 11.2734 52.3481 10.5469 52.0199 10.2422C51.7856 10.0312 51.4223 10.0195 41.8481 9.99609C34.7934 9.97266 31.8637 10.0078 31.6996 10.0898Z" fill="#1362A2"/>
<path d="M24.2695 14.1328C23.9414 14.543 23.9648 14.918 24.3047 15.3164L24.5859 15.6445H38.1797C51.3867 15.6445 51.7851 15.6328 52.0195 15.4219C52.1953 15.2578 52.2656 15.0586 52.2656 14.707C52.2656 13.7461 53.5312 13.8281 38.168 13.8281H24.5039L24.2695 14.1328Z" fill="#1362A2"/>
<path d="M46.9336 22.6055C45.5625 22.8281 44.1562 23.3906 43.0078 24.1875L42.4805 24.5508L29.5547 24.6094L16.6172 24.668L16.3945 24.9492C16.1016 25.3008 16.1133 25.793 16.418 26.1797L16.6523 26.4844H28.6992H40.7344L40.2422 27.4805C39.5508 28.8867 39.3281 30.082 39.4102 31.8398C39.4805 33.3633 39.7031 34.2188 40.3711 35.4844L40.7578 36.2109L22.8633 36.1875L4.98047 36.1523V31.3477V26.543L9.22266 26.5078L13.4648 26.4844L13.6992 26.1797C14.0039 25.793 14.0156 25.3008 13.7227 24.9492L13.5 24.668L9.23438 24.6328C4.6875 24.5977 4.38281 24.6211 3.73828 25.1602C3.04688 25.7461 3.04688 25.7578 3.04688 31.3359C3.04688 34.6406 3.09375 36.5508 3.17578 36.7617C3.35156 37.2539 3.97266 37.8398 4.45312 37.9688C4.71094 38.0391 11.6836 38.0859 23.6602 38.0859H42.4453L42.8789 38.4258C43.5703 38.9648 44.5195 39.4453 45.5859 39.7969C46.4531 40.0781 46.7812 40.1133 48.0469 40.125C49.7461 40.125 50.6602 39.9375 51.9375 39.3164C54.2227 38.2266 55.8398 36.3281 56.625 33.8672C56.8594 33.1055 56.8945 32.7539 56.8945 31.2891C56.8828 29.7422 56.8594 29.5078 56.5547 28.6523C56.0391 27.1406 55.5 26.2969 54.3281 25.125C53.1328 23.9414 52.0312 23.2852 50.5312 22.8633C49.5586 22.5938 47.8008 22.4766 46.9336 22.6055ZM50.3086 24.7852C53.1445 25.7695 55.0781 28.4297 55.0781 31.3477C55.0781 32.8008 54.4922 34.5469 53.6836 35.5078L53.3672 35.8945L52.6289 35.1445C51.8906 34.4062 51.8906 34.4062 52.0781 34.1133C53.1797 32.4258 53.2031 30.3164 52.1367 28.7227C51.5859 27.9023 51.0234 27.4219 50.0742 26.9766C49.4648 26.6953 49.2539 26.6602 48.1641 26.6602C47.0273 26.6602 46.875 26.6836 46.1484 27.0352C43.6055 28.2305 42.6445 31.2422 44.0039 33.7148L44.4023 34.4414L43.6758 35.168L42.9609 35.8945L42.6211 35.4961C42.1641 34.9453 41.6484 33.8438 41.4141 32.9297C41.1562 31.9102 41.2383 30.1055 41.6016 29.0977C42.4102 26.7891 44.6016 24.9258 47.0273 24.4922C47.9297 24.3398 49.3828 24.457 50.3086 24.7852ZM49.6406 28.8984C50.0156 29.1211 50.3438 29.4609 50.5781 29.8594C51.2109 30.9023 51.2109 31.793 50.5781 32.8359C49.3359 34.9219 46.207 34.5586 45.4219 32.25C45.1875 31.582 45.1875 31.2539 45.4102 30.5156C45.6328 29.7539 46.1484 29.1562 46.8984 28.7695C47.7656 28.3359 48.8203 28.3828 49.6406 28.8984ZM46.6992 35.918C47.3438 36.1406 48.9258 36.1406 49.6055 35.9062C50.1445 35.7188 50.168 35.7305 50.6836 36.0234C51.1523 36.3047 51.7969 36.9844 51.7969 37.1953C51.7969 37.3594 50.2852 37.9805 49.4414 38.1562C48 38.4609 46.4414 38.2383 45.0234 37.5117C44.7539 37.3711 44.5312 37.2305 44.5312 37.1953C44.5312 36.9844 45.1055 36.375 45.5625 36.082C46.1836 35.6836 46.1016 35.6953 46.6992 35.918Z" fill="#1362A2"/>
<path d="M7.93367 28.8047C7.65242 29.1094 7.67585 29.8242 7.96882 30.1172C8.2032 30.3516 8.35554 30.3516 21.9493 30.3516H35.7071L35.9532 30.082C36.2813 29.7422 36.2813 29.1914 35.9766 28.8516L35.7305 28.5938H21.9259C8.7071 28.5938 8.10945 28.6055 7.93367 28.8047Z" fill="#1362A2"/>
<path d="M7.96883 32.5776C7.6407 32.9058 7.65242 33.6323 7.98055 33.937C8.21492 34.1479 8.58992 34.1597 18.9727 34.1948C24.879 34.2065 29.8243 34.1948 29.9766 34.1597C30.668 33.9956 30.9141 33.2222 30.4571 32.6479L30.2227 32.3433H19.2071C8.35555 32.3433 8.2032 32.3433 7.96883 32.5776Z" fill="#1362A2"/>
<path d="M32.2383 32.6484C32.0977 32.8242 31.9922 33.082 31.9922 33.2344C31.9922 34.0195 32.4141 34.2188 34.1016 34.2188C35.7891 34.2188 36.2109 34.0195 36.2109 33.2344C36.2109 33.082 36.1055 32.8242 35.9648 32.6484C35.7305 32.3438 35.7188 32.3438 34.1016 32.3438C32.4844 32.3438 32.4727 32.3438 32.2383 32.6484Z" fill="#1362A2"/>
<path d="M6.24609 40.5464C5.87109 40.6987 5.74219 41.0269 5.74219 41.8589V42.6089L5.21484 42.7612C4.57031 42.9487 3.71484 43.687 3.375 44.3433C3.17578 44.7183 3.10547 45.0815 3.07031 46.0659C3.02344 47.3081 3.02344 47.3081 3.33984 47.5542C3.73828 47.8706 4.21875 47.8823 4.58203 47.6011C4.80469 47.4136 4.85156 47.2261 4.92188 46.312C4.98047 45.4917 5.05078 45.1753 5.22656 44.9878C5.73047 44.4253 5.8125 44.4136 12.2109 44.4136C17.8125 44.4136 18.2578 44.4253 18.6211 44.6245C19.418 45.0581 19.4531 45.2222 19.4531 49.1011C19.4531 52.9917 19.418 53.1909 18.6328 53.5776C18.2578 53.7651 17.6953 53.7886 12.1523 53.7886C5.66016 53.7886 5.75391 53.8003 5.21484 53.2026C5.02734 52.9917 4.96875 52.7222 4.92188 51.7144C4.86328 50.6011 4.82812 50.4604 4.58203 50.2612C4.21875 49.9683 3.73828 49.98 3.33984 50.2964L3.02344 50.5425L3.07031 51.9604C3.11719 53.6011 3.28125 54.0112 4.13672 54.8081C4.86328 55.4878 5.54297 55.6636 7.34766 55.6636H8.78906V56.9175C8.78906 57.6206 8.84766 58.3706 8.90625 58.6167C9.03516 59.0737 9.78516 59.8354 10.2188 59.9409C10.3711 59.9761 20.6602 59.9878 33.1055 59.9761L55.7227 59.9409L56.1094 59.6714C56.3203 59.519 56.5898 59.1909 56.7188 58.9448C56.9414 58.5112 56.9531 58.23 56.9531 53.3081V48.1284L56.6719 47.6479C56.5195 47.3784 56.1797 47.0503 55.9219 46.8979L55.4531 46.6401H38.4023H21.3633L21.3047 45.8198C21.1992 44.3433 20.4258 43.2417 19.207 42.8081L18.6562 42.6089L18.6094 41.8003C18.5742 41.0854 18.5273 40.9565 18.2461 40.7104C17.8477 40.3706 17.4727 40.3589 17.0625 40.6753C16.7812 40.8979 16.7578 40.9917 16.7578 41.73V42.5386H12.1875H7.61719V41.7886C7.61719 41.2495 7.55859 40.9683 7.41797 40.7925C7.17188 40.5112 6.62109 40.3823 6.24609 40.5464ZM55.0781 53.3081C55.0781 57.5737 55.0547 58.1128 54.8906 58.1714C54.7852 58.2065 44.8594 58.2417 32.8242 58.2417C15.9609 58.2417 10.9102 58.2065 10.8047 58.1011C10.7109 58.0073 10.6641 57.5503 10.6641 56.812V55.6753L14.8008 55.6401L18.9258 55.605L19.5234 55.2886C20.1797 54.9487 20.6133 54.4917 21.0117 53.7417C21.2461 53.3081 21.2695 53.062 21.3047 50.8823L21.3516 48.5151H38.2148H55.0781V53.3081Z" fill="#1362A2"/>
<path d="M24.3164 50.7998C24.1289 50.9756 24.0234 51.2217 24.0234 51.4443C24.0234 51.667 24.1289 51.9131 24.3164 52.0889C24.5859 52.3701 24.6797 52.3818 25.8984 52.3818C27.1172 52.3818 27.2109 52.3701 27.4805 52.0889C27.668 51.9131 27.7734 51.667 27.7734 51.4443C27.7734 51.2217 27.668 50.9756 27.4805 50.7998C27.2109 50.5186 27.1172 50.5068 25.8984 50.5068C24.6797 50.5068 24.5859 50.5186 24.3164 50.7998Z" fill="#1362A2"/>
<path d="M29.3672 50.7529C29.1328 50.9404 29.0625 51.0928 29.0625 51.4443C29.0625 51.7959 29.1328 51.9482 29.3672 52.1357C29.6367 52.3467 29.8477 52.3818 30.9375 52.3818C32.4727 52.3818 32.7539 52.2412 32.7539 51.4443C32.7539 50.6475 32.4727 50.5068 30.9375 50.5068C29.8477 50.5068 29.6367 50.542 29.3672 50.7529Z" fill="#1362A2"/>
<path d="M34.3945 50.7998C34.207 50.9756 34.1016 51.2217 34.1016 51.4443C34.1016 51.667 34.207 51.9131 34.3945 52.0889L34.6758 52.3818H43.2188C51.6445 52.3818 51.7617 52.3818 52.0078 52.1475C52.3945 51.7842 52.3594 51.0693 51.9609 50.7529C51.6562 50.5068 51.5742 50.5068 43.1602 50.5068H34.6758L34.3945 50.7998Z" fill="#1362A2"/>
<path d="M24.5272 54.374C23.9999 54.585 23.871 55.3115 24.2694 55.8271L24.5038 56.1318H38.1561C51.6444 56.1318 51.7967 56.1318 52.0311 55.8975C52.3944 55.5342 52.3475 54.8076 51.9608 54.5029C51.6444 54.2568 51.6327 54.2568 38.2147 54.2686C30.7733 54.2686 24.6678 54.3154 24.5272 54.374Z" fill="#1362A2"/>
<path d="M9.05839 48.1874C8.48417 48.457 8.46073 49.746 9.02323 50.039C9.73808 50.4257 10.4295 49.957 10.4295 49.0781C10.4295 48.6328 10.3709 48.4921 10.1248 48.2929C9.78495 48.0234 9.45683 47.9882 9.05839 48.1874Z" fill="#1362A2"/>
<path d="M14.1797 48.2574C14.0039 48.398 13.8985 48.6441 13.8633 49.0074C13.8047 49.4762 13.8399 49.5934 14.0977 49.8512C14.4727 50.2262 14.9649 50.2496 15.3985 49.9098C15.6445 49.7105 15.7031 49.5699 15.7031 49.148C15.7031 48.2223 14.836 47.7184 14.1797 48.2574Z" fill="#1362A2"/>
</svg>
