<svg width="60" height="60" viewBox="0 0 60 60" fill="none" xmlns="http://www.w3.org/2000/svg">
<g clip-path="url(#clip0_1015_9825)">
<path d="M0.199219 0.210537C0.0117188 0.409756 0 1.60507 0 15.0816C0 29.1207 0.0117188 29.7418 0.210938 29.9176C0.398438 30.0934 0.808594 30.1168 3.49219 30.1168H6.5625L8.21484 33.4215C9.12891 35.2496 9.94922 36.8316 10.0547 36.9371C10.2422 37.1598 10.8984 37.2184 11.2266 37.0426C11.332 36.984 12.1875 35.4019 13.125 33.5269L14.8242 30.1168H20.3555H25.8984L27.5508 33.4215C28.4648 35.2496 29.2852 36.8316 29.3906 36.9371C29.5781 37.1598 30.2344 37.2184 30.5625 37.0426C30.668 36.984 31.5234 35.4019 32.4609 33.5269L34.1602 30.1168H39.6914H45.2344L46.8867 33.4215C47.8008 35.2496 48.6211 36.8316 48.7266 36.9371C48.9141 37.1598 49.5703 37.2184 49.8984 37.0426C50.0039 36.984 50.8594 35.4019 51.7969 33.5269L53.4961 30.1168H56.5547C59.3672 30.1168 59.625 30.1051 59.8008 29.9059C59.9883 29.7066 60 28.5113 60 15.0348C60 0.995693 59.9883 0.374599 59.7891 0.198818C59.5898 0.0113182 57.3516 -0.000400543 29.9766 -0.000400543C1.46484 -0.000400543 0.375 0.0113182 0.199219 0.210537ZM47.6953 6.15194V10.5465H24.7266H1.75781V6.15194V1.75741H24.7266H47.6953V6.15194ZM58.2422 6.15194V10.5465H53.8477H49.4531V6.15194V1.75741H53.8477H58.2422V6.15194ZM58.2422 20.3316V28.359H55.3359C52.6992 28.359 52.4062 28.3824 52.2422 28.5582C52.1367 28.6754 51.4453 29.9762 50.707 31.4644L49.3594 34.1598L47.9531 31.3355C47.1797 29.7769 46.4531 28.4762 46.3477 28.4293C46.2422 28.3941 43.207 28.359 39.6211 28.359C33.5391 28.359 33.0703 28.3707 32.9062 28.5582C32.8008 28.6754 32.1094 29.9762 31.3711 31.4644L30.0234 34.1598L28.6172 31.3355C27.8438 29.7769 27.1172 28.4762 27.0117 28.4293C26.9062 28.3941 23.8711 28.359 20.2852 28.359C14.2031 28.359 13.7344 28.3707 13.5703 28.5582C13.4648 28.6754 12.7734 29.9762 12.0352 31.4644L10.6875 34.1598L9.28125 31.3355C8.50781 29.7769 7.78125 28.4762 7.67578 28.4293C7.57031 28.3941 6.1875 28.359 4.61719 28.359H1.75781V20.3316V12.3043H30H58.2422V20.3316Z" fill="#1362A2"/>
<path d="M3.71484 3.72656C3.53906 3.91406 3.51562 4.26562 3.51562 6.17578C3.51562 8.17969 3.53906 8.42578 3.72656 8.58984C3.92578 8.77734 5.55469 8.78906 24.75 8.78906C44.7539 8.78906 45.5625 8.77734 45.7383 8.57812C45.9141 8.39062 45.9375 8.03906 45.9375 6.12891C45.9375 4.125 45.9141 3.87891 45.7266 3.71484C45.5273 3.52734 43.8984 3.51562 24.7031 3.51562C4.69922 3.51562 3.89062 3.52734 3.71484 3.72656ZM44.1797 6.15234V7.03125H24.7266H5.27344V6.15234V5.27344H24.7266H44.1797V6.15234Z" fill="#1362A2"/>
<path d="M3.71484 14.2734C3.53906 14.4609 3.51562 14.8125 3.51562 16.7812C3.51562 19.3828 3.53906 19.4531 4.41797 19.4531C5.20312 19.4531 5.27344 19.2773 5.27344 17.4258V15.8203H30H54.7266V20.332V24.8438H30H5.27344V23.2266C5.27344 21.3633 5.20312 21.2109 4.37109 21.2109C3.55078 21.2109 3.51562 21.3164 3.51562 23.9297C3.51562 25.9922 3.53906 26.2266 3.72656 26.4023C3.92578 26.5898 5.91797 26.6016 30.0234 26.6016C55.1367 26.6016 56.1094 26.5898 56.2852 26.3906C56.4609 26.1914 56.4844 25.6055 56.4844 20.3086C56.4844 14.7773 56.4727 14.4375 56.2734 14.2617C56.0742 14.0742 54.082 14.0625 29.9766 14.0625C4.86328 14.0625 3.89062 14.0742 3.71484 14.2734Z" fill="#1362A2"/>
<path d="M8.78906 39.1759C6.71484 39.8791 5.25 41.4142 4.6875 43.4767C4.5 44.1564 4.5 45.9611 4.6875 46.6408C5.26172 48.7384 6.91406 50.4025 9.01172 51.0236C9.92578 51.2931 11.6133 51.2697 12.5625 50.9767C13.5352 50.672 14.5547 50.0158 15.3164 49.1837C16.3594 48.0353 16.875 46.6877 16.875 45.0587C16.875 43.2892 16.3242 41.9767 15.0703 40.7111C13.7578 39.3986 12.5625 38.9064 10.6758 38.9064C9.82031 38.9064 9.36328 38.9767 8.78906 39.1759ZM12.5039 41.133C13.2188 41.4494 14.1445 42.3634 14.5781 43.1837C14.918 43.84 14.9414 43.9689 14.9414 45.0587C14.9414 46.1486 14.918 46.2775 14.5781 46.9337C14.1445 47.7541 13.2188 48.6681 12.5039 48.9845C11.8359 49.2775 10.8633 49.4181 10.125 49.3244C7.76953 49.0197 6 46.6291 6.44531 44.3673C7.00781 41.5314 9.90234 39.9845 12.5039 41.133Z" fill="#1362A2"/>
<path d="M28.125 39.1759C26.0508 39.8791 24.5859 41.4142 24.0234 43.4767C23.8359 44.1564 23.8359 45.9611 24.0234 46.6408C24.5977 48.7384 26.25 50.4025 28.3477 51.0236C29.2617 51.2931 30.9492 51.2697 31.8984 50.9767C32.8711 50.672 33.8906 50.0158 34.6523 49.1837C35.6953 48.0353 36.2109 46.6877 36.2109 45.0587C36.2109 43.2892 35.6602 41.9767 34.4062 40.7111C33.0938 39.3986 31.8984 38.9064 30.0117 38.9064C29.1562 38.9064 28.6992 38.9767 28.125 39.1759ZM31.8398 41.133C32.5547 41.4494 33.4805 42.3634 33.9141 43.1837C34.2539 43.84 34.2773 43.9689 34.2773 45.0587C34.2773 46.1486 34.2539 46.2775 33.9141 46.9337C33.4805 47.7541 32.5547 48.6681 31.8398 48.9845C31.1719 49.2775 30.1992 49.4181 29.4609 49.3244C27.1055 49.0197 25.3359 46.6291 25.7812 44.3673C26.3438 41.5314 29.2383 39.9845 31.8398 41.133Z" fill="#1362A2"/>
<path d="M47.4609 39.1759C45.3867 39.8791 43.9219 41.4142 43.3594 43.4767C43.1719 44.1564 43.1719 45.9611 43.3594 46.6408C43.9336 48.7384 45.5859 50.4025 47.6836 51.0236C48.5977 51.2931 50.2852 51.2697 51.2344 50.9767C52.207 50.672 53.2266 50.0158 53.9883 49.1837C55.0312 48.0353 55.5469 46.6877 55.5469 45.0587C55.5469 43.2892 54.9961 41.9767 53.7422 40.7111C52.4297 39.3986 51.2344 38.9064 49.3477 38.9064C48.4922 38.9064 48.0352 38.9767 47.4609 39.1759ZM51.1758 41.133C51.8906 41.4494 52.8164 42.3634 53.25 43.1837C53.5898 43.84 53.6133 43.9689 53.6133 45.0587C53.6133 46.1486 53.5898 46.2775 53.25 46.9337C52.8164 47.7541 51.8906 48.6681 51.1758 48.9845C50.5078 49.2775 49.5352 49.4181 48.7969 49.3244C46.4414 49.0197 44.6719 46.6291 45.1172 44.3673C45.6797 41.5314 48.5742 39.9845 51.1758 41.133Z" fill="#1362A2"/>
<path d="M3.14017 53.1328C1.94485 53.5664 1.00735 54.4102 0.48001 55.5352C0.210479 56.1328 0.175323 56.3555 0.140167 57.8555C0.0932916 59.4023 0.10501 59.5195 0.339385 59.7539L0.585479 60H30.0464H59.5191L59.7652 59.6719C60.0113 59.3789 60.023 59.25 59.9761 57.832C59.9409 56.4141 59.9058 56.25 59.5659 55.5234C59.1089 54.5625 58.3355 53.7539 57.4449 53.3438L56.7769 53.0273H49.3941H42.0113L41.2495 53.4023C40.8277 53.6016 40.312 53.9531 40.1011 54.1758L39.7261 54.5625L39.2339 54.1055C38.9644 53.8477 38.4488 53.4961 38.0972 53.332L37.4409 53.0273H30.0581H22.6753L21.9136 53.4023C21.4917 53.6016 20.9761 53.9531 20.7652 54.1758L20.3902 54.5625L19.898 54.1055C19.6284 53.8477 19.1128 53.4961 18.7613 53.332L18.105 53.0273L10.8394 53.0039C5.07376 52.9805 3.48001 53.0039 3.14017 53.1328ZM17.2378 54.8438C18.562 55.1016 19.3238 56.0039 19.4292 57.4336L19.4878 58.2422H10.7339H1.99173V57.6211C1.99173 56.7891 2.15579 56.2734 2.58939 55.7461C2.99954 55.2422 3.44485 54.9844 4.13626 54.8438C4.86282 54.7031 16.4878 54.7031 17.2378 54.8438ZM36.5738 54.8438C37.898 55.1016 38.6597 56.0039 38.7652 57.4336L38.8238 58.2422H30.0699H21.3277V57.6211C21.3277 56.7891 21.4917 56.2734 21.9253 55.7461C22.3355 55.2422 22.7808 54.9844 23.4722 54.8438C24.1988 54.7031 35.8238 54.7031 36.5738 54.8438ZM55.9097 54.8438C57.2339 55.1016 57.9956 56.0039 58.1011 57.4336L58.1597 58.2422H49.4058H40.6636V57.6211C40.6636 56.7891 40.8277 56.2734 41.2613 55.7461C41.6714 55.2422 42.1167 54.9844 42.8081 54.8438C43.5347 54.7031 55.1597 54.7031 55.9097 54.8438Z" fill="#1362A2"/>
</g>
<defs>
<clipPath id="clip0_1015_9825">
<rect width="60" height="60" fill="white"/>
</clipPath>
</defs>
</svg>
