<svg width="60" height="60" viewBox="0 0 60 60" fill="none" xmlns="http://www.w3.org/2000/svg">
<g clip-path="url(#clip0_1015_9652)">
<path d="M15.7734 0.246094C15.2227 0.679688 15.1172 1.04297 15.1172 2.49609V3.83203L13.9336 4.20703C13.2773 4.41797 12.2578 4.83984 11.6602 5.14453L10.5586 5.70703L9.64453 4.78125C8.64844 3.77344 8.17969 3.55078 7.41797 3.69141C7.05469 3.76172 6.70312 4.03125 5.41406 5.30859C3.73828 6.96094 3.52734 7.32422 3.69141 8.15625C3.75 8.50781 3.98438 8.83594 4.73438 9.60938L5.70703 10.6055L5.20312 11.543C4.92188 12.0586 4.5 13.0781 4.26562 13.793L3.83203 15.1172H2.49609C1.04297 15.1172 0.679688 15.2227 0.246094 15.7734C0.0117188 16.0664 0 16.2305 0 18.4805C0 20.4961 0.0351562 20.9297 0.1875 21.2109C0.550781 21.8086 0.890625 21.9141 2.44922 21.9141H3.85547L3.98438 22.4062C4.21875 23.3555 4.59375 24.3164 5.14453 25.3945L5.69531 26.4727L4.83984 27.3281C3.92578 28.2422 3.63281 28.7109 3.63281 29.2969C3.63281 29.8594 3.78516 30.0586 5.32031 31.6172C6.85547 33.1875 7.16016 33.3984 7.79297 33.3984C8.39062 33.3984 8.73047 33.1875 9.71484 32.1914L10.5703 31.3125L11.25 31.7109C12.0469 32.1797 13.3477 32.707 14.3906 33C15.2344 33.2344 15.2812 33.375 14.8242 34.0664L14.5195 34.5L14.5547 37.4062L14.5898 40.3125L15.0352 40.7461L15.4688 41.1914L17.3906 41.2266L19.3125 41.2617L19.4648 41.8711C19.7227 43.0078 20.2969 44.4727 20.9883 45.8203L21.6797 47.1562L20.5195 48.3398C19.8867 48.9844 19.3008 49.6289 19.2305 49.7695C19.0664 50.0977 19.0664 50.8594 19.2305 51.293C19.3711 51.6562 22.4766 54.8555 23.0273 55.1953C23.2266 55.3125 23.543 55.418 23.7305 55.4414C24.6562 55.5117 24.7148 55.4766 26.0859 54.1289L27.4102 52.8164L27.7969 53.0625C29.0508 53.8359 31.6992 54.9258 32.8594 55.1367L33.2812 55.2188V56.9766C33.2812 58.5469 33.3047 58.7812 33.5273 59.1797C33.9727 59.9766 34.0781 60 37.2891 60C39.8672 60 40.1719 59.9766 40.5 59.7773C41.1328 59.3906 41.25 58.9453 41.25 56.9883V55.2422L42.1055 55.0312C43.2773 54.7383 45.1172 54 46.2188 53.3672L47.1562 52.8398L48.3281 54.0117C48.9844 54.6445 49.6406 55.2305 49.7812 55.3125C50.168 55.5 51 55.4883 51.3984 55.2773C51.8086 55.0547 55.1133 51.7383 55.3125 51.3516C55.4883 50.9883 55.4883 50.1328 55.3125 49.7812C55.2305 49.6406 54.6445 48.9844 54.0117 48.3281L52.8398 47.1562L53.3672 46.2188C54 45.1172 54.7383 43.2773 55.0312 42.0938L55.2422 41.25H56.9883C58.9453 41.25 59.3906 41.1328 59.7773 40.5C59.9766 40.1719 60 39.8672 60 37.2422V34.3594L59.6953 33.9844C59.1562 33.3516 58.8984 33.2812 56.9531 33.2812C55.3594 33.2812 55.1953 33.2578 55.1953 33.0703C55.1953 32.6016 54.1992 29.9648 53.5547 28.7227L52.8516 27.375L54.1406 26.0742C55.4766 24.7148 55.5117 24.6562 55.4414 23.7305C55.418 23.5312 55.3125 23.2148 55.1953 23.0273C54.8555 22.4766 51.6562 19.3711 51.293 19.2305C50.8594 19.0664 50.0977 19.0664 49.7695 19.2305C49.6289 19.3008 48.9844 19.8867 48.3398 20.5195L47.1562 21.6797L45.8203 20.9883C44.4727 20.2969 43.0078 19.7227 41.8711 19.4648L41.2617 19.3125L41.2266 17.3906L41.1914 15.4688L40.7461 15.0352L40.3125 14.5898L37.4062 14.5547L34.5 14.5195L34.0664 14.8242C33.375 15.2812 33.2344 15.2344 33 14.3789C32.707 13.3359 32.1562 12 31.7109 11.2383L31.3125 10.5703L32.1914 9.71484C32.6719 9.23438 33.1406 8.70703 33.2344 8.53125C33.4336 8.15625 33.4453 7.46484 33.2695 7.11328C33.082 6.75 30.3516 3.99609 29.9766 3.79688C29.1914 3.38672 28.5 3.65625 27.3281 4.83984L26.4727 5.69531L25.3945 5.14453C24.3164 4.59375 23.3555 4.21875 22.418 3.98438L21.9141 3.85547V2.44922C21.9141 0.890625 21.8086 0.550781 21.2109 0.1875C20.9297 0.0351562 20.4961 0 18.4805 0C16.2305 0 16.0664 0.0117188 15.7734 0.246094ZM20.0391 3.04688C20.0391 5.07422 20.2383 5.35547 21.9258 5.8125C23.0859 6.12891 24.3867 6.67969 25.3242 7.25391C26.0039 7.67578 26.543 7.79297 27.0117 7.61719C27.2109 7.54688 27.7852 7.06641 28.3008 6.55078L29.2383 5.625L30.3281 6.71484L31.4062 7.79297L30.5742 8.61328C29.1211 10.0547 29.0977 10.3125 30.1758 12.4805C30.5977 13.3125 31.0664 14.4727 31.2305 15.0586C31.3945 15.6328 31.6172 16.2305 31.7109 16.3828C31.9102 16.6992 32.543 16.9922 32.9883 16.9922H33.2812V18.1406V19.3008L32.3203 19.5586C31.0195 19.9219 29.8008 20.4141 28.4883 21.1055L27.3867 21.6914L26.3086 20.625L25.2188 19.5469L25.1719 18.2344C25.125 17.2031 25.043 16.7695 24.7969 16.125C23.7891 13.5 21.3516 11.8477 18.5156 11.8359C17.5195 11.8359 16.3711 12.0938 15.9375 12.4102C15.5156 12.7148 15.4805 13.3828 15.8672 13.7695C16.207 14.1094 16.4297 14.1328 17.3203 13.875C17.7891 13.7344 18.2344 13.6992 18.8789 13.7461C21.2461 13.9102 23.168 15.8203 23.2969 18.1406L23.3438 19.043L21.1875 21.1875L19.043 23.3438L18.1641 23.2969C16.1953 23.1797 14.543 21.8672 13.9336 19.9336C13.6289 18.9141 13.6523 17.9414 14.0156 16.9336C14.4727 15.6797 14.4961 15.4219 14.1328 15.0703C13.5469 14.4727 12.8555 14.7305 12.4453 15.6914C11.8594 17.0508 11.6836 18.5859 11.9648 19.9453C12.1992 21.0586 12.9492 22.4531 13.7695 23.25C15.0703 24.5391 16.6758 25.1953 18.5156 25.1953H19.5117L20.6016 26.2852L21.6914 27.3867L21.1055 28.4883C20.4141 29.8008 19.9219 31.0195 19.5586 32.3203L19.3008 33.2812H18.1406H16.9922V32.9883C16.9922 32.5312 16.6875 31.9102 16.3711 31.6992C16.207 31.5938 15.5859 31.3711 14.9883 31.207C14.3789 31.0312 13.2305 30.5625 12.4336 30.1523C10.3477 29.0859 10.0547 29.1211 8.61328 30.5742L7.79297 31.4062L6.71484 30.3281L5.625 29.2383L6.55078 28.3008C7.92188 26.918 7.99219 26.5664 7.13672 25.1133C6.62109 24.2109 6.10547 22.9453 5.75391 21.6797C5.35547 20.2617 4.99219 20.0391 3.10547 20.0391H1.875V18.5156V16.9922H3.19922C5.05078 16.9922 5.41406 16.7461 5.78906 15.2578C6.04688 14.2148 6.60938 12.8555 7.14844 11.9531C7.66406 11.0625 7.80469 10.5117 7.61719 10.0195C7.54688 9.82031 7.06641 9.24609 6.55078 8.73047L5.625 7.79297L6.71484 6.70312L7.79297 5.625L8.73047 6.5625C10.1016 7.93359 10.4766 7.99219 12.0703 7.07812C12.9844 6.55078 14.4961 5.94141 15.4453 5.73047C16.1367 5.57812 16.4766 5.36719 16.7578 4.88672C16.957 4.57031 16.9922 4.28906 16.9922 3.12891V1.75781H18.5156H20.0391V3.04688ZM39.375 18.0469C39.375 20.5078 39.5508 20.7773 41.4961 21.3164C43.0547 21.7617 44.2148 22.2422 45.4922 22.9805C47.2852 24.0117 47.6016 23.9414 49.3359 22.207L50.5664 20.9766L52.0547 22.4648L53.5547 23.9531L52.3359 25.1953C50.6016 26.9414 50.543 27.2461 51.5742 29.0508C52.3008 30.3164 52.7461 31.4062 53.2031 33C53.7891 35.0039 54.0234 35.1562 56.4844 35.1562H58.125V37.2656V39.375H56.5781C55.7227 39.375 54.8203 39.4336 54.5859 39.4922C54.0586 39.6445 53.6016 40.1602 53.4258 40.8164C52.8984 42.7969 52.1016 44.7422 51.2695 46.0547C50.5664 47.168 50.7422 47.7188 52.3359 49.3359L53.5547 50.5781L52.0547 52.0664L50.5664 53.5547L49.4531 52.4297C47.8477 50.8125 47.168 50.5781 46.043 51.2812C44.7422 52.1016 42.5625 52.9922 40.8164 53.4375C40.1602 53.6016 39.6445 54.0586 39.4922 54.5859C39.4336 54.8203 39.375 55.7461 39.375 56.625V58.2422H37.2656H35.1562V56.543C35.1562 54.0117 35.0039 53.7891 33 53.2031C31.4062 52.7461 30.3164 52.3008 29.0508 51.5742C27.2461 50.543 26.9414 50.6016 25.1953 52.3359L23.9531 53.5547L22.4648 52.0547L20.9766 50.5664L22.207 49.3359C23.9414 47.6016 24.0117 47.2852 22.9805 45.4922C22.2422 44.2148 21.7617 43.0547 21.3164 41.4844C20.7773 39.5508 20.4961 39.375 17.9648 39.375H16.4062V37.2656V35.1562H18.0703C20.543 35.1562 20.8359 34.957 21.3281 33.0469C21.6562 31.7812 22.2539 30.3281 22.9688 29.0625C24.0117 27.2227 23.9766 26.9883 22.2891 25.2773L21.0469 24.0117L22.5352 22.5352L24.0117 21.0469L25.2773 22.2891C26.9883 23.9766 27.2227 24.0117 29.0625 22.9688C30.3281 22.2539 31.7812 21.6562 33.0469 21.3281C34.957 20.8359 35.1562 20.543 35.1562 18.0703V16.4062H37.2656H39.375V18.0469Z" fill="#1362A2"/>
<path d="M36.1521 26.0276C30.0466 26.5432 25.324 32.262 26.0036 38.3206C26.3552 41.4847 27.2224 42.9026 28.2888 42.0589C28.6755 41.7542 28.6872 41.3675 28.3005 40.1839C27.8669 38.8128 27.7263 37.4651 27.8904 36.2346C28.5232 31.3714 32.449 27.8675 37.2654 27.8675C40.0427 27.8675 42.2458 28.8401 44.2029 30.9261C46.1716 33.012 47.074 35.9886 46.5935 38.7776C45.4802 45.1643 38.6482 48.6097 32.9529 45.6448C32.3904 45.3518 31.5935 44.8245 31.1716 44.4729C30.5505 43.9456 30.3396 43.8284 29.988 43.8284C29.6482 43.8284 29.4841 43.8987 29.3083 44.1331C28.7458 44.8479 29.1208 45.4339 31.0076 46.6995C32.1911 47.4964 33.0349 47.8831 34.4411 48.2347C40.5349 49.7932 46.6404 46.2073 48.2341 40.137C48.656 38.5432 48.6794 36.1995 48.3044 34.6526C47.7888 32.5667 46.7576 30.7268 45.2693 29.262C42.7849 26.8128 39.738 25.7346 36.1521 26.0276Z" fill="#1362A2"/>
<path d="M35.848 30.5274C31.3011 31.5586 29.0394 36.4688 31.2073 40.6055C31.6995 41.5313 33.0237 42.8555 33.9495 43.336C35.9769 44.4024 38.2034 44.4493 40.2894 43.4649C42.6448 42.3751 44.18 39.9024 44.18 37.2071C44.18 36.2579 43.8167 34.8516 43.3362 33.9493C42.5745 32.5079 40.8519 31.1133 39.2581 30.6563C38.3089 30.3751 36.7737 30.3165 35.848 30.5274ZM38.2269 32.3555C39.2112 32.5665 40.0784 33.0352 40.7933 33.7383C43.6878 36.6446 42.1175 41.5196 38.0394 42.2227C36.4925 42.4805 34.9105 41.9532 33.7386 40.793C32.6136 39.6563 32.0511 37.9922 32.3206 36.5508C32.7073 34.4649 34.1019 32.9532 36.1292 32.4024C36.8909 32.2032 37.43 32.1915 38.2269 32.3555Z" fill="#1362A2"/>
</g>
<defs>
<clipPath id="clip0_1015_9652">
<rect width="60" height="60" fill="white"/>
</clipPath>
</defs>
</svg>
