<svg width="60" height="60" viewBox="0 0 60 60" fill="none" xmlns="http://www.w3.org/2000/svg">
<g clip-path="url(#clip0_1015_9569)">
<path d="M2.96484 0.164478C2.69531 0.258228 2.29688 0.43401 2.07422 0.574635C1.47656 0.937916 0.609375 1.92229 0.316406 2.5551L0.0585938 3.10588V30.0004V56.8949L0.316406 57.4574C0.679688 58.2309 1.66406 59.2387 2.44922 59.6137L3.10547 59.9418H21.2695H39.4336L39.9727 59.6957C40.2656 59.5551 40.6992 59.2739 40.9336 59.0746L41.3555 58.6879L42.1406 59.0043C48.8438 61.6879 56.3906 58.5473 59.0742 51.9496C60.2578 49.0668 60.3281 45.3637 59.2617 42.5395C58.875 41.5199 58.3945 40.5473 58.0898 40.2192C57.7617 39.8559 57.1523 39.8676 56.7773 40.2543C56.3789 40.641 56.4141 40.9574 56.9297 41.9887C57.4102 42.9262 57.8203 44.0981 58.0078 45.1059C58.1836 46.0199 58.1484 48.2582 57.9492 49.184C57.0469 53.4262 53.9648 56.6489 49.6992 57.7973C48.5156 58.1137 45.9023 58.1489 44.7422 57.8559C42.6328 57.3285 40.9102 56.3793 39.3984 54.9145C36.9492 52.5473 35.707 49.1254 36.0938 45.8559C36.3516 43.7582 37.043 42.0238 38.3203 40.3246C41.5312 36.0707 47.4023 34.7465 52.1367 37.2074C52.6875 37.5004 53.4609 37.9692 53.8477 38.2621C54.6562 38.8715 55.0664 38.9301 55.4883 38.4965C56.1797 37.8168 55.7227 37.1137 53.8828 35.9887C51.9609 34.7934 50.0156 34.2309 47.6367 34.1371C45.8789 34.0668 44.5195 34.2309 43.2188 34.6645L42.5391 34.8871L42.5156 18.9965L42.4805 3.10588L42.2227 2.54338C41.8594 1.76995 40.875 0.762135 40.0898 0.387135L39.4336 0.0590096L21.4453 0.0355721C6.87891 0.0238533 3.36328 0.0472908 2.96484 0.164478ZM39.1992 2.07463C39.75 2.3676 40.1953 2.82463 40.5 3.39885C40.7109 3.79729 40.7227 4.45354 40.7578 19.7465L40.7812 35.684L39.8438 36.3051C39.3164 36.6567 38.5312 37.2895 38.0742 37.7231L37.2656 38.4965V37.1137C37.2656 35.5551 37.1484 35.1801 36.5273 34.8051C36.1758 34.5942 35.918 34.5707 33.1289 34.5707C29.7773 34.5707 29.6016 34.6059 29.1797 35.309C28.957 35.6723 28.9453 35.9653 28.9453 44.6489C28.9453 53.3324 28.957 53.6254 29.1797 53.9887C29.6016 54.6918 29.7773 54.727 33.1289 54.727C34.793 54.727 36.2227 54.6801 36.3164 54.6215C36.4336 54.5512 36.6328 54.7035 37.0312 55.184C37.6523 55.9223 39.3398 57.5395 39.5039 57.5395C39.7617 57.5395 39.5625 57.7621 39.1172 57.9614C38.6367 58.1723 38.0742 58.184 21.2109 58.184C4.45312 58.184 3.79688 58.1723 3.39844 57.9614C2.82422 57.6567 2.36719 57.2114 2.07422 56.6606L1.81641 56.1918V30.0004C1.81641 4.66447 1.82812 3.79729 2.03906 3.39885C2.48438 2.56682 3.15234 2.03948 3.98438 1.8637C4.20703 1.81682 12.1172 1.79338 21.5625 1.8051L38.7305 1.81682L39.1992 2.07463ZM35.5078 38.7778C35.5078 41.1215 35.4961 41.2504 35.2266 41.8481C34.3828 43.6879 33.9844 46.2778 34.2188 48.2817C34.418 50.016 34.6523 50.8949 35.4727 52.8168C35.5195 52.934 35.0039 52.9692 33.1172 52.9692H30.7031V44.6489V36.3285H33.1055H35.5078V38.7778Z" fill="#1362A2"/>
<path d="M6.01172 5.50826C5.29688 5.94185 5.27344 6.09419 5.27344 9.63326C5.27344 12.5981 5.28516 12.8559 5.50781 13.2075C5.98828 13.9926 4.88672 13.9458 21.293 13.9458C35.8242 13.9458 36.1641 13.934 36.5273 13.7114C37.2422 13.2895 37.2656 13.1254 37.2656 9.60982C37.2656 6.09419 37.2422 5.93013 36.5273 5.50826C36.1641 5.2856 35.8711 5.27388 26.7539 5.27388H17.3555L17.1211 5.57857C16.9805 5.75435 16.875 6.01216 16.875 6.15279C16.875 6.29341 16.9805 6.55122 17.1211 6.72701L17.3555 7.03169H26.4375H35.5078V9.60982V12.1879H21.2695H7.03125V9.60982V7.03169H10.6055C14.0273 7.03169 14.1914 7.01997 14.4141 6.79732C14.5547 6.65669 14.6484 6.4106 14.6484 6.15279C14.6484 5.89497 14.5547 5.64888 14.4141 5.50826C14.1914 5.2856 14.0273 5.27388 10.2891 5.27388C6.62109 5.27388 6.36328 5.2856 6.01172 5.50826Z" fill="#1362A2"/>
<path d="M25.2656 8.91859C25.0312 9.10609 24.9609 9.25843 24.9609 9.60999C24.9609 9.96156 25.0312 10.1139 25.2656 10.3014C25.8047 10.7233 26.5312 10.5241 26.707 9.91468C26.9648 8.95374 26.0391 8.30921 25.2656 8.91859Z" fill="#1362A2"/>
<path d="M28.7812 8.91859C28.5469 9.10609 28.4766 9.25843 28.4766 9.60999C28.4766 9.96156 28.5469 10.1139 28.7812 10.3014C29.3203 10.7233 30.0469 10.5241 30.2227 9.91468C30.4805 8.95374 29.5547 8.30921 28.7812 8.91859Z" fill="#1362A2"/>
<path d="M32.2969 8.91859C31.8633 9.25843 31.8633 9.96156 32.2969 10.3014C32.8359 10.7233 33.5625 10.5241 33.7383 9.91468C33.9961 8.95374 33.0703 8.30921 32.2969 8.91859Z" fill="#1362A2"/>
<path d="M5.47275 17.6718C5.20322 17.9765 5.21494 18.7734 5.48447 19.0195C5.68369 19.1953 6.129 19.2187 9.45713 19.2187C13.6993 19.2187 13.5938 19.2421 13.5938 18.3164C13.5938 17.4492 13.6524 17.4609 9.41025 17.4609C5.92978 17.4609 5.64853 17.4726 5.47275 17.6718Z" fill="#1362A2"/>
<path d="M17.3087 17.6718C17.0392 17.9765 17.0509 18.7734 17.3204 19.0195C17.5196 19.1953 17.9649 19.2187 21.2931 19.2187C25.5353 19.2187 25.4298 19.2421 25.4298 18.3164C25.4298 17.4492 25.4884 17.4609 21.2462 17.4609C17.7657 17.4609 17.4845 17.4726 17.3087 17.6718Z" fill="#1362A2"/>
<path d="M29.1446 17.6718C28.8751 17.9765 28.8868 18.7734 29.1563 19.0195C29.3556 19.1953 29.8009 19.2187 33.129 19.2187C37.3712 19.2187 37.2657 19.2421 37.2657 18.3164C37.2657 17.4492 37.3243 17.4609 33.0821 17.4609C29.6017 17.4609 29.3204 17.4726 29.1446 17.6718Z" fill="#1362A2"/>
<path d="M6.01166 22.9688C5.30853 23.3907 5.27338 23.5664 5.27338 26.918C5.27338 31.2774 5.05072 31.0547 9.43353 31.0547C12.7499 31.0547 12.9374 31.0196 13.3593 30.3164C13.5703 29.9649 13.5937 29.7071 13.5937 26.8946C13.5937 22.5118 13.8163 22.7344 9.4101 22.7344C6.62103 22.7344 6.36322 22.7579 6.01166 22.9688ZM11.8359 26.8946V29.2969H9.43353H7.03119V26.8946V24.4922H9.43353H11.8359V26.8946Z" fill="#1362A2"/>
<path d="M17.8476 22.9688C17.1445 23.3907 17.1093 23.5664 17.1093 26.918C17.1093 31.2774 16.8867 31.0547 21.2695 31.0547C24.5859 31.0547 24.7734 31.0196 25.1953 30.3164C25.4062 29.9649 25.4296 29.7071 25.4296 26.8946C25.4296 22.5118 25.6523 22.7344 21.246 22.7344C18.457 22.7344 18.1992 22.7579 17.8476 22.9688ZM23.6718 26.8946V29.2969H21.2695H18.8671V26.8946V24.4922H21.2695H23.6718V26.8946Z" fill="#1362A2"/>
<path d="M29.6835 22.9688C28.9804 23.3907 28.9453 23.5664 28.9453 26.918C28.9453 31.2774 28.7226 31.0547 33.1054 31.0547C36.4218 31.0547 36.6093 31.0196 37.0312 30.3164C37.2421 29.9649 37.2656 29.7071 37.2656 26.8946C37.2656 22.5118 37.4882 22.7344 33.082 22.7344C30.2929 22.7344 30.0351 22.7579 29.6835 22.9688ZM35.5078 26.8946V29.2969H33.1054H30.7031V26.8946V24.4922H33.1054H35.5078V26.8946Z" fill="#1362A2"/>
<path d="M6.01166 34.8047C5.30853 35.2266 5.27338 35.4024 5.27338 38.7539C5.27338 43.1133 5.05072 42.8907 9.43353 42.8907C12.7499 42.8907 12.9374 42.8555 13.3593 42.1524C13.5703 41.8008 13.5937 41.543 13.5937 38.7305C13.5937 34.3477 13.8163 34.5704 9.4101 34.5704C6.62103 34.5704 6.36322 34.5938 6.01166 34.8047ZM11.8359 38.7305V41.1329H9.43353H7.03119V38.7305V36.3282H9.43353H11.8359V38.7305Z" fill="#1362A2"/>
<path d="M17.8476 34.8047C17.1445 35.2266 17.1093 35.4024 17.1093 38.7539C17.1093 43.1133 16.8867 42.8907 21.2695 42.8907C24.5859 42.8907 24.7734 42.8555 25.1953 42.1524C25.4062 41.8008 25.4296 41.543 25.4296 38.7305C25.4296 34.3477 25.6523 34.5704 21.246 34.5704C18.457 34.5704 18.1992 34.5938 17.8476 34.8047ZM23.6718 38.7305V41.1329H21.2695H18.8671V38.7305V36.3282H21.2695H23.6718V38.7305Z" fill="#1362A2"/>
<path d="M6.01166 46.6407C5.30853 47.0625 5.27338 47.2383 5.27338 50.5899C5.27338 54.9493 5.05072 54.7266 9.43353 54.7266C12.7499 54.7266 12.9374 54.6914 13.3593 53.9883C13.5703 53.6368 13.5937 53.3789 13.5937 50.5664C13.5937 46.1836 13.8163 46.4063 9.4101 46.4063C6.62103 46.4063 6.36322 46.4297 6.01166 46.6407ZM11.8359 50.5664V52.9688H9.43353H7.03119V50.5664V48.1641H9.43353H11.8359V50.5664Z" fill="#1362A2"/>
<path d="M17.8476 46.6407C17.1445 47.0625 17.1093 47.2383 17.1093 50.5899C17.1093 54.9493 16.8867 54.7266 21.2695 54.7266C24.5859 54.7266 24.7734 54.6914 25.1953 53.9883C25.4062 53.6368 25.4296 53.3789 25.4296 50.5664C25.4296 46.1836 25.6523 46.4063 21.246 46.4063C18.457 46.4063 18.1992 46.4297 17.8476 46.6407ZM23.6718 50.5664V52.9688H21.2695H18.8671V50.5664V48.1641H21.2695H23.6718V50.5664Z" fill="#1362A2"/>
<path d="M41.9533 40.3835C40.1134 41.1804 39.6681 43.6062 41.1095 45.0007C42.5041 46.3484 44.7189 45.9734 45.6095 44.2507C45.9611 43.5827 45.9611 42.4226 45.6212 41.778C45.3048 41.1804 44.7072 40.6062 44.1564 40.3835C43.6056 40.1491 42.4923 40.1491 41.9533 40.3835ZM43.7697 42.446C44.133 42.8796 44.0978 43.278 43.6408 43.6765C43.2658 44.0163 42.8673 44.0163 42.4689 43.6765C42.0587 43.3132 42.0353 42.7741 42.422 42.364C42.8205 41.9304 43.3712 41.9655 43.7697 42.446Z" fill="#1362A2"/>
<path d="M45.8555 46.9102C41.2383 51.5156 40.6641 52.1367 40.6641 52.4531C40.6641 53.0156 41.0625 53.4375 41.5781 53.4375C41.9883 53.4375 42.2344 53.2148 47.2031 48.2461C52.1484 43.3008 52.3828 43.043 52.3828 42.6328C52.3828 42.1172 51.9609 41.7188 51.3984 41.7188C51.082 41.7188 50.4609 42.293 45.8555 46.9102Z" fill="#1362A2"/>
<path d="M49.7925 48.5514C48.7964 49.0787 48.187 50.2389 48.316 51.3521C48.6441 54.0709 52.2066 54.8209 53.5659 52.442C54.3863 51.024 53.7417 49.0904 52.2417 48.4693C51.562 48.1881 50.4136 48.2232 49.7925 48.5514ZM51.7613 50.4146C52.5113 51.1178 51.5503 52.4303 50.6831 51.8678C50.2847 51.61 50.1324 51.2584 50.2144 50.8482C50.3667 50.1803 51.2456 49.9225 51.7613 50.4146Z" fill="#1362A2"/>
</g>
<defs>
<clipPath id="clip0_1015_9569">
<rect width="60" height="60" fill="white"/>
</clipPath>
</defs>
</svg>
