<svg width="60" height="60" viewBox="0 0 60 60" fill="none" xmlns="http://www.w3.org/2000/svg">
<path d="M26.1211 0.187225C20.7305 1.15988 16.2188 5.05051 14.4727 10.2419C13.7812 12.3161 13.793 12.0818 13.7461 20.2966L13.6992 27.8786L12.9844 28.113C11.1562 28.7341 9.43359 30.2575 8.56641 32.0036C7.76953 33.6208 7.73438 33.9255 7.73438 39.9724V45.3161L8.00391 45.5622C8.40234 45.9372 9.04688 45.9138 9.36328 45.5154C9.60938 45.2107 9.60938 45.0818 9.60938 40.0661C9.60938 36.7732 9.65625 34.7107 9.73828 34.3122C10.1484 32.3552 11.6836 30.6091 13.6641 29.8591L14.3555 29.5896L28.4414 29.5544C44.0156 29.5193 43.3477 29.4958 44.8125 30.2575C46.3477 31.0661 47.6133 32.8005 47.918 34.4997C48 34.9568 48.0469 38.2146 48.0469 43.945C48.0469 52.3357 48.0352 52.7341 47.8125 53.6247C47.1797 56.0857 45.1289 57.8552 42.5859 58.1364C41.918 58.2068 36.5391 58.2419 28.0547 58.2185L14.5898 58.1833L13.8164 57.9138C12.3047 57.4099 10.9805 56.2849 10.3008 54.9372C9.71484 53.7771 9.60938 53.1325 9.60938 50.7185C9.60938 49.3357 9.5625 48.4216 9.48047 48.2341C9.19922 47.6364 8.25 47.5661 7.88672 48.1169C7.73438 48.3513 7.72266 48.8083 7.75781 51.1169C7.80469 53.695 7.82812 53.8943 8.12109 54.7029C8.56641 55.9568 9.08203 56.7771 10.0898 57.7849C10.7695 58.4763 11.2031 58.7927 11.9648 59.1677C13.793 60.0583 12.6562 60.0114 29.0742 59.9763L43.7695 59.9411L44.625 59.6247C45.8438 59.1794 46.6758 58.6521 47.5664 57.7614C48.4805 56.8591 49.1016 55.8396 49.5469 54.5505L49.8633 53.613V43.945C49.8633 34.9099 49.8516 34.2302 49.6523 33.5154C48.9023 30.8904 47.0859 28.9685 44.4727 28.0427L43.5352 27.7146L32.25 27.6794L20.9648 27.6443L21 20.5896C21.0352 13.5583 21.0469 13.5349 21.3164 12.7732C21.7266 11.6247 22.3242 10.6169 23.1211 9.77316C24.7031 8.08566 26.5781 7.24191 28.7695 7.24191C30.9023 7.23019 32.7656 8.01535 34.2891 9.53879C35.332 10.5818 35.918 11.531 36.3398 12.8318C36.5742 13.57 36.6094 13.9685 36.668 17.0505C36.75 20.7771 36.75 20.8005 37.5117 21.5388C38.2148 22.2302 38.5664 22.3239 40.3125 22.3239C42.0469 22.3239 42.4805 22.195 43.1367 21.4802C43.8867 20.6833 43.8867 20.6716 43.8867 16.7575C43.875 13.4997 43.8516 13.0779 43.6055 11.9646C43.3125 10.5935 42.7266 8.98801 42.1172 7.85129C41.6133 6.93723 41.4609 6.7966 40.8867 6.7966C40.5469 6.7966 40.3945 6.86691 40.207 7.10129C40.0664 7.27707 39.9609 7.51144 39.9609 7.62863C39.9609 7.74582 40.2188 8.36691 40.5352 8.98801C41.7539 11.4255 41.9648 12.4802 42.0352 16.5466L42.0938 19.7927L41.7422 20.156C41.4023 20.4958 41.3438 20.5075 40.3359 20.5075C39.375 20.5075 39.2461 20.4841 38.9297 20.2146L38.5781 19.9216L38.5195 16.6638C38.4727 13.2185 38.4258 12.8904 37.8047 11.3435C36.9258 9.17551 34.9102 7.10129 32.7422 6.14035C30.6094 5.20285 27.6211 5.1091 25.4414 5.92941C22.9922 6.85519 20.8477 8.94113 19.8281 11.3904C19.125 13.0896 19.1016 13.3708 19.1016 20.8591V27.656H17.3438H15.5742L15.6094 20.2966L15.6562 12.9489L15.9727 11.7771C17.3789 6.72629 21.3516 3.02316 26.4141 2.05051C27.6211 1.81613 30.0117 1.80441 31.1836 2.03879C33.5156 2.4841 35.6836 3.53879 37.4766 5.08566C37.9922 5.51926 38.1914 5.62473 38.5547 5.62473C38.9062 5.62473 39.0586 5.55441 39.2461 5.32004C39.6562 4.80441 39.5625 4.47629 38.8242 3.74973C37.0664 2.06223 34.1602 0.644257 31.4414 0.175507C30.1992 -0.0471497 27.3398 -0.0354309 26.1211 0.187225Z" fill="#1362A2"/>
<path d="M50.0977 14.9297C49.9102 15.0234 49.2891 15.5625 48.7266 16.1367C47.8711 17.0156 47.6953 17.2617 47.6953 17.5664C47.6953 18.0703 48.1406 18.5156 48.668 18.5156C49.0078 18.5156 49.207 18.3633 50.25 17.2969C51.5508 15.9844 51.668 15.7266 51.1875 15.1875C50.8359 14.8125 50.5312 14.7422 50.0977 14.9297Z" fill="#1362A2"/>
<path d="M48.305 20.6602C47.9886 21 47.9769 21.5625 48.2699 21.9258C48.4925 22.1953 48.5511 22.207 50.1566 22.207C51.7621 22.207 51.8207 22.1953 52.0433 21.9258C52.348 21.5508 52.3363 20.9648 51.9964 20.6484C51.7386 20.4141 51.6097 20.3906 50.1449 20.3906C48.6332 20.3906 48.5394 20.4023 48.305 20.6602Z" fill="#1362A2"/>
<path d="M48.1991 24.1641C47.8827 24.3164 47.6483 24.8672 47.7304 25.2305C47.7772 25.3711 48.328 26.0039 48.9608 26.6367C49.9452 27.5977 50.1796 27.7734 50.496 27.7734C50.7421 27.7734 50.9765 27.668 51.1757 27.4688C51.6913 26.9531 51.5155 26.4961 50.3671 25.3359C49.1015 24.0586 48.7733 23.8828 48.1991 24.1641Z" fill="#1362A2"/>
<path d="M14.4728 31.5704C13.2541 31.9571 12.2932 32.7774 11.801 33.8438C11.5666 34.336 11.5432 34.6407 11.508 36.504C11.4728 38.5196 11.4846 38.6251 11.7189 38.8712C12.0822 39.2696 12.7971 39.2462 13.1135 38.836C13.3361 38.5548 13.3596 38.3673 13.3596 36.7735C13.3596 34.8868 13.465 34.4767 14.0861 33.9024C14.6838 33.3399 15.0588 33.2813 17.7775 33.2813C20.59 33.2813 20.7775 33.2462 20.9182 32.5899C21.0119 32.1446 20.7307 31.5821 20.3674 31.4767C19.84 31.336 14.965 31.4181 14.4728 31.5704Z" fill="#1362A2"/>
<path d="M36.9728 31.6869C36.6212 32.0384 36.586 32.554 36.9024 32.9408C37.1251 33.222 37.1603 33.222 39.9376 33.2806L42.7501 33.3392L43.254 33.6908C44.0978 34.2884 44.2384 34.6986 44.2735 36.808C44.3087 38.4486 44.3438 38.6712 44.5431 38.8939C44.8946 39.2689 45.6095 39.2337 45.9376 38.8119C46.1837 38.5072 46.1954 38.4017 46.1485 36.5033C46.1134 34.64 46.0899 34.4642 45.8087 33.8665C45.3517 32.9173 44.754 32.2962 43.8517 31.8509L43.0782 31.4642L40.172 31.429L37.2774 31.3822L36.9728 31.6869Z" fill="#1362A2"/>
<path d="M27.0231 36.4453C24.9957 37.1719 23.6246 38.8125 23.2965 40.9219C23.0387 42.6328 23.6363 44.4492 24.8316 45.6445C25.1598 45.9609 25.4293 46.3008 25.4293 46.3945C25.4293 46.4883 25.2301 47.4727 24.9957 48.5859C24.6207 50.3672 24.5856 50.6719 24.7027 51.0703C24.8551 51.5742 25.3356 52.1133 25.7574 52.2773C25.9098 52.3359 27.3043 52.3828 28.8629 52.3828C31.4879 52.3828 31.7223 52.3594 32.0856 52.1484C32.6363 51.8086 32.9293 51.2578 32.9293 50.5664C32.9293 50.2383 32.7418 49.1602 32.5309 48.1641L32.1324 46.3477L32.7418 45.7031C33.902 44.4844 34.3356 43.3828 34.3356 41.7187C34.3356 40.1367 34.1129 39.7266 33.234 39.7266C32.941 39.7266 32.7652 39.8086 32.6012 40.0195C32.3902 40.2891 32.3668 40.4414 32.4254 41.4141C32.484 42.4102 32.4723 42.5625 32.191 43.1602C32.027 43.5352 31.5582 44.1797 31.1363 44.625C30.1168 45.7148 30.0934 45.8789 30.6324 48.375C30.8668 49.4297 31.0543 50.3672 31.0543 50.4609C31.0543 50.6016 30.691 50.625 28.8395 50.625C27.609 50.625 26.5895 50.5898 26.566 50.5312C26.5426 50.4844 26.6949 49.6523 26.9059 48.6914C27.316 46.8516 27.3981 45.8555 27.1754 45.4336C27.0934 45.293 26.7301 44.8477 26.3434 44.4492C25.4293 43.4766 25.1481 42.8437 25.1481 41.7187C25.1481 41.0039 25.2066 40.7227 25.4645 40.1719C26.3082 38.4375 28.3356 37.6289 30.1402 38.3203C30.9254 38.6133 31.3473 38.6133 31.6402 38.3203C31.9449 38.0156 31.9566 37.2656 31.6637 36.9961C31.1363 36.5156 30.3277 36.293 29.0035 36.2461C27.9254 36.2109 27.5973 36.2461 27.0231 36.4453Z" fill="#1362A2"/>
<path d="M11.9887 48.6328C11.5199 48.8203 11.4731 49.1133 11.5082 51.2461C11.5434 53.2617 11.5434 53.2734 11.9301 54.0469C12.352 54.9023 12.9496 55.5 13.8168 55.9219C14.3324 56.1797 14.5199 56.1914 17.4145 56.2266L20.4848 56.2617L20.7309 55.9453C21.0356 55.5469 21.0473 55.1953 20.7426 54.8086L20.5082 54.5156L17.7777 54.4688C15.2231 54.4336 15.0356 54.4219 14.5668 54.1641C14.2856 54.0234 13.9223 53.6836 13.7465 53.4141C13.4301 52.9453 13.4184 52.8516 13.3598 51.0469C13.3246 50.0039 13.2543 49.0781 13.2074 48.9727C13.1137 48.7734 12.6332 48.5156 12.3871 48.5273C12.3051 48.5273 12.1293 48.5742 11.9887 48.6328Z" fill="#1362A2"/>
<path d="M44.8005 48.6325C44.3669 48.8083 44.2966 49.1247 44.2966 50.8591C44.2966 52.6638 44.1911 53.1091 43.6169 53.7067C42.9606 54.3981 42.8317 54.4216 39.82 54.4919C37.2184 54.5505 37.0309 54.5622 36.8669 54.7849C36.6091 55.1247 36.6325 55.7341 36.9255 56.0271C37.1598 56.2614 37.2653 56.2614 40.2301 56.2263C43.3005 56.1911 43.3005 56.1911 43.8864 55.8747C44.9762 55.3005 45.6911 54.3981 45.9958 53.2614C46.2067 52.4294 46.2419 49.4997 46.0426 49.0661C45.9137 48.7849 45.4801 48.5036 45.1989 48.5271C45.1169 48.5271 44.9411 48.5739 44.8005 48.6325Z" fill="#1362A2"/>
</svg>
