<svg width="60" height="60" viewBox="0 0 60 60" fill="none" xmlns="http://www.w3.org/2000/svg">
<path d="M15.6094 0.363281C15.2109 0.5625 14.7305 0.914062 14.5312 1.14844C14.0508 1.73438 13.7109 2.68359 13.7109 3.45703V4.10156H12.9844C11.4258 4.11328 10.0898 5.15625 9.70312 6.64453L9.58594 7.14844H8.95312C7.57031 7.14844 6.22266 8.07422 5.74219 9.33984C5.50781 9.96094 5.50781 10.2422 5.50781 25.2656V40.5586L5.80078 40.8398C6.21094 41.2617 6.98438 41.1797 7.21875 40.6992C7.27734 40.582 7.34766 33.7266 7.38281 25.2305L7.44141 9.98438L7.73438 9.66797C8.14453 9.22266 8.58984 9.02344 9.14062 9.02344H9.60938V31.582C9.60938 53.8594 9.60938 54.1406 9.84375 54.7617C10.1484 55.5938 10.9688 56.4141 11.8008 56.7188C12.4102 56.9531 12.7031 56.9531 24.0938 56.9531C31.4766 56.9531 35.8359 56.9062 35.9766 56.8359C36.2695 56.6836 36.457 56.0742 36.3281 55.7344C36.0703 55.043 36.75 55.0781 24.1992 55.0781C12.9492 55.0781 12.7031 55.0781 12.3281 54.8438C12.1172 54.7148 11.8477 54.4453 11.7188 54.2344C11.4844 53.8477 11.4844 53.5898 11.4844 30.5508C11.4844 9.38672 11.4961 7.20703 11.6719 6.84375C11.9297 6.30469 12.4922 5.97656 13.1719 5.97656H13.7109V8.49609C13.7109 11.0273 13.7109 11.0273 14.0039 11.3086C14.1797 11.4961 14.4258 11.6016 14.6484 11.6016C14.8711 11.6016 15.1172 11.4961 15.293 11.3086L15.5859 11.0273V7.07812C15.5859 2.67188 15.5977 2.56641 16.3945 2.08594L16.8164 1.81641L29.5078 1.78125L42.1875 1.75781V5.19141C42.1875 8.60156 42.2812 9.69141 42.6094 10.3359C42.9258 10.957 43.5352 11.5195 44.2383 11.8594L44.9414 12.1875H48.7852H52.6172V30.9609C52.6172 49.5 52.6172 49.7461 52.3828 50.1328C52.2539 50.3438 51.9844 50.6133 51.7734 50.7422C51.3867 50.9766 51.1406 50.9766 34.1016 50.9766C17.0625 50.9766 16.8164 50.9766 16.4297 50.7422C16.2188 50.6133 15.9492 50.3438 15.8203 50.1328C15.5859 49.7461 15.5859 49.5 15.5859 31.9805V14.2148L15.3398 13.8984C15.0234 13.4883 14.332 13.4766 13.9688 13.8633L13.7109 14.1328V32.0039C13.7109 52.418 13.6172 50.6719 14.7422 51.7969C15.9023 52.9453 14.2969 52.8516 32.543 52.8516H48.5156V53.3438C48.5156 53.9531 48.1875 54.5273 47.6719 54.8438C47.3086 55.0664 47.0742 55.0781 43.2188 55.0781C40.4414 55.0781 39.0586 55.125 38.8594 55.207C38.2734 55.4766 38.1914 56.4141 38.707 56.7773C38.9062 56.918 39.4688 56.9531 41.625 56.9531C43.8633 56.9531 44.2969 56.9766 44.2969 57.1172C44.2969 57.3633 43.6289 57.9961 43.2656 58.1016C43.0898 58.1484 35.2266 58.1836 25.7812 58.1836C8.73047 58.1836 8.61328 58.1836 8.20312 57.9492C7.35938 57.457 7.38281 57.668 7.38281 50.3203C7.38281 43.8398 7.38281 43.7344 7.13672 43.4297C6.83203 43.043 6.10547 42.9961 5.74219 43.3594C5.50781 43.5938 5.49609 43.6992 5.53125 50.6016L5.56641 57.5977L5.92969 58.2422C6.32812 58.957 7.16016 59.6602 7.85156 59.8711C8.16797 59.9648 13.1719 60 25.9805 60H43.6758L44.4023 59.6367C45.2578 59.2148 45.8438 58.5117 46.1367 57.5859L46.3359 56.9531H46.9453C48.832 56.9531 50.3906 55.3828 50.3906 53.4961V52.8516H51.0352C52.4297 52.8516 53.7773 51.9375 54.2578 50.6602C54.4922 50.0391 54.4922 49.7578 54.4922 30.4336V10.8516L49.0781 5.42578L43.6523 0H29.9883H16.3242L15.6094 0.363281ZM48.2695 10.2891C44.9648 10.3242 44.8359 10.2891 44.3555 9.49219C44.1445 9.11719 44.1211 8.84766 44.0859 6.09375L44.0508 3.10547L47.6367 6.67969L51.2109 10.2539L48.2695 10.2891Z" fill="#1362A2"/>
<path d="M21.6911 19.2891C21.3864 19.6758 21.3747 20.168 21.6677 20.5195L21.8903 20.8008H34.1013H46.3122L46.5349 20.5195C46.8396 20.1445 46.8278 19.5586 46.488 19.2422L46.2185 18.9844H34.0778H21.9255L21.6911 19.2891Z" fill="#1362A2"/>
<path d="M21.9731 25.5586C21.3988 25.8867 21.2816 26.4727 21.6918 27L21.9262 27.3047H34.0902H46.2543L46.5004 27.0352C46.8168 26.6953 46.8285 26.1328 46.5356 25.7695L46.3129 25.4883L34.2543 25.4648C25.6527 25.4414 22.1371 25.4766 21.9731 25.5586Z" fill="#1362A2"/>
<path d="M21.7383 32.2852C21.5508 32.4609 21.4453 32.707 21.4453 32.9297C21.4453 33.1523 21.5508 33.3984 21.7383 33.5742L22.0195 33.8672H34.1016H46.1836L46.4648 33.5742C46.875 33.1758 46.8633 32.5664 46.4531 32.2383C46.1367 31.9922 46.1016 31.9922 34.0781 31.9922H22.0195L21.7383 32.2852Z" fill="#1362A2"/>
</svg>
