<svg width="60" height="60" viewBox="0 0 60 60" fill="none" xmlns="http://www.w3.org/2000/svg">
<path d="M10.3242 0.17569C9.66797 0.386627 8.70703 1.04288 8.28516 1.58194C8.09766 1.81631 7.81641 2.29678 7.64062 2.67178L7.32422 3.33975V23.6952C7.32422 42.9843 7.33594 44.0624 7.53516 44.2616C7.85156 44.578 8.63672 44.5429 8.91797 44.1913C9.12891 43.9218 9.14062 43.371 9.14062 24.0351C9.14062 11.4491 9.1875 4.00772 9.25781 3.76163C9.44531 3.10538 9.92578 2.51944 10.582 2.15616L11.1914 1.81631H30H48.8086L49.2773 2.06241C49.8398 2.3671 50.332 2.84756 50.6016 3.33975C50.7773 3.64444 50.8125 4.27725 50.8594 7.88663C50.918 11.871 50.9297 12.0937 51.1406 12.2577C51.2695 12.3515 51.5742 12.4218 51.8086 12.4218C52.1484 12.4218 52.3008 12.3515 52.5 12.1054C52.7461 11.789 52.7461 11.7187 52.7109 7.5585L52.6758 3.33975L52.3125 2.57803C51.8672 1.64053 51.082 0.83194 50.1797 0.386627L49.5117 0.0585022L30.1758 0.0350647C14.0273 0.0233459 10.7578 0.0350647 10.3242 0.17569Z" fill="#1362A2"/>
<path d="M13.3008 3.89062C12.3516 4.23047 11.5547 5.02734 11.2266 5.95312C11.1211 6.26953 11.0742 7.23047 11.0742 9.43359C11.0742 12.3867 11.0859 12.5039 11.3555 13.0898C11.6953 13.8516 12.4219 14.543 13.1953 14.8359C13.6758 15.0234 14.0859 15.0586 15.6562 15.0586C17.3555 15.0586 17.5781 15.0352 17.8008 14.8359C18.1289 14.543 18.1406 13.8047 17.8125 13.4766C17.6016 13.2656 17.4258 13.2422 15.9141 13.2422C14.0625 13.2422 13.6523 13.125 13.1953 12.5039C12.9609 12.1875 12.9492 12.0117 12.9492 9.39844C12.9492 6.86719 12.9727 6.59766 13.1719 6.29297C13.6523 5.57812 12.5859 5.625 30 5.625C47.4141 5.625 46.3477 5.57812 46.8281 6.29297C47.0273 6.59766 47.0508 6.86719 47.0508 9.39844C47.0508 12.0117 47.0391 12.1875 46.8047 12.5039C46.6758 12.6797 46.3828 12.9258 46.1602 13.0312C45.7852 13.2305 44.9297 13.2422 33.3281 13.2422C21.3398 13.2422 20.8711 13.2539 20.6133 13.4648C20.25 13.7578 20.2383 14.4375 20.6016 14.8008L20.8711 15.0586H33.5508C45.7383 15.0586 46.2539 15.0469 46.8047 14.8359C47.5781 14.543 48.3047 13.8516 48.6445 13.0898C48.9141 12.5039 48.9258 12.3867 48.9258 9.36328V6.25781L48.5742 5.56641C48.1758 4.79297 47.3906 4.10156 46.6406 3.87891C46.0312 3.70312 13.8164 3.71484 13.3008 3.89062Z" fill="#1362A2"/>
<path d="M51.1406 14.9297C50.918 15.0938 50.918 15.4805 50.8594 35.707C50.8008 54.5977 50.7891 56.3438 50.6016 56.6602C50.332 57.1523 49.8398 57.6328 49.2773 57.9375L48.8086 58.1836H30H11.1914L10.7227 57.9375C10.1602 57.6328 9.66797 57.1523 9.39844 56.6602C9.22266 56.3555 9.19922 55.7344 9.16406 51.7969C9.12891 47.3789 9.12891 47.2852 8.88281 47.0273C8.53125 46.6523 7.93359 46.6641 7.54688 47.0508L7.25391 47.3438L7.28906 52.0078L7.32422 56.6602L7.6875 57.4219C8.13281 58.3594 8.91797 59.168 9.82031 59.6133L10.4883 59.9414H30H49.5117L50.1797 59.6133C50.9648 59.2266 51.8203 58.418 52.1719 57.7266C52.7578 56.5898 52.7344 57.4336 52.7344 35.7305V15.3867L52.4883 15.0703C52.207 14.7188 51.5391 14.6484 51.1406 14.9297Z" fill="#1362A2"/>
<path d="M11.4023 18.9144L11.0742 19.1957V22.5473C11.0742 25.8754 11.0742 25.8988 11.3438 26.1566C11.6016 26.4262 11.6602 26.4262 14.6836 26.4613C18.0352 26.5082 18.5039 26.4379 18.7266 25.9574C18.8203 25.7465 18.8672 24.6332 18.8672 22.4301V19.2074L18.5742 18.9262L18.293 18.6332H15.0117H11.7305L11.4023 18.9144ZM16.9922 22.559V24.6098H14.9414H12.8906V22.559V20.5082H14.9414H16.9922V22.559Z" fill="#1362A2"/>
<path d="M21.4922 18.7617C21.0234 18.9961 20.9766 19.3242 20.9766 22.6172V25.7695L21.2578 26.0977L21.5391 26.4258H24.9023H28.2656L28.5469 26.0859L28.8398 25.7578L28.8047 22.4297C28.7695 19.4297 28.7461 19.0898 28.5586 18.9023C28.3711 18.7148 28.043 18.6914 25.043 18.668C22.9102 18.6562 21.6445 18.6914 21.4922 18.7617ZM26.9531 22.5586V24.6094H24.9023H22.8516V22.5586V20.5078H24.9023H26.9531V22.5586Z" fill="#1362A2"/>
<path d="M31.6641 18.75C31.5234 18.8086 31.3477 18.9961 31.2891 19.1602C31.2188 19.3359 31.1719 20.8359 31.1719 22.6172V25.7695L31.4531 26.0977L31.7344 26.4258H35.0977H38.4609L38.7422 26.0977L39.0234 25.7695V22.6172C39.0234 19.2773 38.9883 18.9961 38.4727 18.7617C38.1328 18.5977 32.0625 18.5977 31.6641 18.75ZM37.1484 22.5586V24.6094H35.0977H33.0469V22.5586V20.5078H35.0977H37.1484V22.5586Z" fill="#1362A2"/>
<path d="M41.4258 18.9261L41.1328 19.2074V22.5355C41.1328 25.6878 41.1445 25.8636 41.3672 26.1097C41.4961 26.2386 41.7773 26.391 41.9766 26.4261C42.1875 26.4613 43.7227 26.4847 45.375 26.4613C48.3398 26.4261 48.3984 26.4261 48.6562 26.1566C48.9258 25.8988 48.9258 25.8753 48.9258 22.5472V19.1956L48.5977 18.9144L48.2695 18.6331H44.9883H41.707L41.4258 18.9261ZM47.1094 22.5589V24.6097H45.0586H43.0078V22.5589V20.5081H45.0586H47.1094V22.5589Z" fill="#1362A2"/>
<path d="M11.3906 28.8281C11.2617 28.957 11.1094 29.2383 11.0742 29.4375C11.0273 29.6484 11.0156 31.1719 11.0391 32.8242C11.0742 35.5898 11.0977 35.8594 11.2969 36.082C11.5195 36.3164 11.6133 36.3281 14.9531 36.3281H18.3867L18.6211 36.0234C18.8555 35.7188 18.8672 35.5664 18.8672 32.4375V29.168L18.5742 28.8867L18.293 28.5938H14.9648C11.8125 28.5938 11.6367 28.6055 11.3906 28.8281ZM16.9922 32.5195V34.5703H14.9414H12.8906V32.5195V30.4688H14.9414H16.9922V32.5195Z" fill="#1362A2"/>
<path d="M21.3278 28.8281C21.1989 28.957 21.07 29.1797 21.0348 29.3203C20.9997 29.4727 20.9762 30.9961 20.9997 32.7188C21.0348 35.5898 21.0465 35.8594 21.2575 36.082C21.4801 36.3164 21.5739 36.3281 24.9137 36.3281H28.3473L28.5934 36.0117C28.8278 35.707 28.8395 35.6133 28.8044 32.3672L28.7692 29.0391L28.4879 28.8164C28.2301 28.6055 27.984 28.5938 24.8903 28.5938C21.7379 28.5938 21.5504 28.6055 21.3278 28.8281ZM26.9528 32.5195V34.5703H24.902H22.8512V32.5195V30.4688H24.902H26.9528V32.5195Z" fill="#1362A2"/>
<path d="M31.5119 28.8164L31.2307 29.0391L31.1955 32.3672C31.1603 35.6133 31.1721 35.707 31.4064 36.0117L31.6525 36.3281H35.0861C38.426 36.3281 38.5197 36.3164 38.7424 36.082C38.9533 35.8594 38.965 35.5898 39.0002 32.7188C39.0236 30.9961 39.0002 29.4727 38.965 29.3203C38.9299 29.1797 38.801 28.957 38.6721 28.8281C38.4494 28.6055 38.2619 28.5938 35.1096 28.5938C32.0158 28.5938 31.7697 28.6055 31.5119 28.8164ZM37.1486 32.5195V34.5703H35.0978H33.0471V32.5195V30.4688H35.0978H37.1486V32.5195Z" fill="#1362A2"/>
<path d="M41.4258 28.8867L41.1328 29.168V32.4375C41.1328 35.5664 41.1445 35.7188 41.3789 36.0234L41.6133 36.3281H45.0469C48.3867 36.3281 48.4805 36.3164 48.7031 36.082C48.9023 35.8594 48.9258 35.5898 48.9609 32.8242C48.9844 31.1719 48.9727 29.6484 48.9258 29.4375C48.8906 29.2383 48.7383 28.957 48.6094 28.8281C48.3633 28.6055 48.1875 28.5938 45.0352 28.5938H41.707L41.4258 28.8867ZM47.1094 32.5195V34.5703H45.0586H43.0078V32.5195V30.4688H45.0586H47.1094V32.5195Z" fill="#1362A2"/>
<path d="M11.3788 38.7773C11.0273 39.1289 10.9921 39.5273 11.039 42.8086C11.0741 45.832 11.0741 45.8438 11.3554 46.0664C11.6132 46.2773 11.8593 46.2891 14.9999 46.2891H18.3866L18.621 45.9844C18.8554 45.6797 18.8671 45.5273 18.8671 42.3984V39.1289L18.5741 38.8477L18.2929 38.5547H14.9413C11.789 38.5547 11.5898 38.5664 11.3788 38.7773ZM16.9921 42.4219V44.4141H14.9413H12.8906V42.4219V40.4297H14.9413H16.9921V42.4219Z" fill="#1362A2"/>
<path d="M21.3164 38.7773L21.0352 39V42.4219V45.8438L21.3164 46.0664C21.5742 46.2773 21.8203 46.2891 24.9609 46.2891H28.3477L28.582 45.9844C28.8164 45.6797 28.8281 45.5273 28.8281 42.3984V39.1289L28.5352 38.8477L28.2539 38.5547H24.9258C21.8086 38.5547 21.5742 38.5664 21.3164 38.7773ZM26.9531 42.4219V44.4141H24.9023H22.8516V42.4219V40.4297H24.9023H26.9531V42.4219Z" fill="#1362A2"/>
<path d="M31.4648 38.8477L31.1719 39.1289V42.3984C31.1719 45.5273 31.1836 45.6797 31.418 45.9844L31.6523 46.2891H35.0391C38.1797 46.2891 38.4258 46.2773 38.6836 46.0664L38.9648 45.8438V42.4219V39L38.6836 38.7773C38.4258 38.5664 38.1914 38.5547 35.0742 38.5547H31.7461L31.4648 38.8477ZM37.1484 42.4219V44.4141H35.0977H33.0469V42.4219V40.4297H35.0977H37.1484V42.4219Z" fill="#1362A2"/>
<path d="M41.4258 38.8477L41.1328 39.1289V47.4023V55.6758L41.4258 55.957L41.707 56.25H45C46.9219 56.25 48.3867 56.2031 48.5156 56.1328C48.9609 55.8867 48.9844 55.5234 48.9844 47.4023C48.9844 39.2812 48.9609 38.918 48.5156 38.6719C48.3867 38.6016 46.9219 38.5547 45 38.5547H41.707L41.4258 38.8477ZM47.1094 47.4023V54.375H45.0586H43.0078V47.4023V40.4297H45.0586H47.1094V47.4023Z" fill="#1362A2"/>
<path d="M11.3554 48.7383C11.0741 48.9609 11.0741 48.9727 11.039 51.9961C10.9921 55.2773 11.0273 55.6758 11.3788 56.0273C11.5898 56.2383 11.789 56.25 14.9413 56.25H18.2929L18.5741 55.957L18.8671 55.6758V52.4062C18.8671 49.2773 18.8554 49.125 18.621 48.8203L18.3866 48.5156H14.9999C11.8593 48.5156 11.6132 48.5273 11.3554 48.7383ZM16.9921 52.3828V54.375H14.9413H12.8906V52.3828V50.3906H14.9413H16.9921V52.3828Z" fill="#1362A2"/>
<path d="M21.3164 48.7383L21.0352 48.9609V52.3828V55.8047L21.3164 56.0273C21.5742 56.2383 21.8086 56.25 24.9258 56.25H28.2539L28.5352 55.957L28.8281 55.6758V52.4062C28.8281 49.2773 28.8164 49.125 28.582 48.8203L28.3477 48.5156H24.9609C21.8203 48.5156 21.5742 48.5273 21.3164 48.7383ZM26.9531 52.3828V54.375H24.9023H22.8516V52.3828V50.3906H24.9023H26.9531V52.3828Z" fill="#1362A2"/>
<path d="M31.418 48.8203C31.1836 49.125 31.1719 49.2773 31.1719 52.4062V55.6758L31.4648 55.957L31.7461 56.25H35.0742C38.1914 56.25 38.4258 56.2383 38.6836 56.0273L38.9648 55.8047V52.3828V48.9609L38.6836 48.7383C38.4258 48.5273 38.1797 48.5156 35.0391 48.5156H31.6523L31.418 48.8203ZM37.1484 52.3828V54.375H35.0977H33.0469V52.3828V50.3906H35.0977H37.1484V52.3828Z" fill="#1362A2"/>
</svg>
