<svg width="60" height="60" viewBox="0 0 60 60" fill="none" xmlns="http://www.w3.org/2000/svg">
<g clip-path="url(#clip0_1015_9703)">
<path d="M43.5936 0.222267C39.3046 1.17149 35.9882 3.77305 34.0897 7.67539C33.7733 8.31992 33.5155 8.91758 33.5155 8.98789C33.5155 9.16367 33.5741 9.16367 32.8124 9.02305C32.4725 8.95274 31.4647 8.84727 30.5741 8.78867C21.703 8.1207 13.1483 12.691 8.68348 20.4957C7.17176 23.1324 6.3866 25.4996 5.78895 29.1793L5.71863 29.5777L5.10926 28.9098C4.58191 28.3473 4.42957 28.2418 4.07801 28.2418C3.55066 28.2418 3.16395 28.6402 3.16395 29.191C3.16395 29.5309 3.36316 29.8121 4.62879 31.2652C6.5741 33.4684 6.41004 33.4566 8.56629 31.5465C10.3007 30.023 10.4999 29.7535 10.3007 29.191C10.0194 28.3824 9.30457 28.3824 8.37879 29.191C8.01551 29.5074 7.68738 29.7535 7.65223 29.7184C7.55848 29.6363 8.06238 27.0582 8.36707 26.0738C10.1249 20.2379 14.0507 15.5504 19.3944 12.8902C23.4608 10.8629 27.3163 10.2184 31.91 10.8043L32.953 10.9332L32.8827 11.5309C32.7186 13.0895 32.6952 13.7223 32.7889 14.6129C32.8358 15.152 32.8593 15.5855 32.8241 15.5855C32.7772 15.5855 32.3085 15.5035 31.7577 15.398C30.4335 15.1637 27.4569 15.1637 26.1327 15.398C21.4686 16.2418 17.4257 18.8668 14.8593 22.734C13.1835 25.2652 12.246 28.2301 12.1054 31.4293L12.035 32.9176L11.5546 32.9879C8.62488 33.4566 6.04676 34.8043 3.92566 36.9605C0.738164 40.2301 -0.527461 44.4488 0.30457 49.0777C1.1366 53.7184 4.72254 57.8082 9.29285 59.3316C10.9335 59.8824 12.0468 60.0348 14.121 59.9645C16.1014 59.9059 17.0155 59.7418 18.6796 59.109C19.3593 58.8395 19.4999 58.734 19.6405 58.3941C19.8514 57.902 19.6874 57.4684 19.1952 57.1871C18.8905 57.023 18.8085 57.0348 18.1405 57.2809C16.2421 57.9957 14.5194 58.2535 12.6327 58.1012C8.61316 57.7848 4.99207 55.3121 3.16395 51.6207C2.30848 49.9098 1.96863 48.4918 1.95691 46.5816C1.9452 43.9918 2.55457 41.9645 4.01941 39.7848C4.60535 38.9059 6.17566 37.3473 7.04285 36.773C11.871 33.5855 17.8944 34.1715 21.9257 38.191C24.8436 41.1207 26.0272 45.3394 25.0194 49.2769C24.5389 51.1754 23.578 52.898 22.1366 54.5152C21.2108 55.5348 21.1054 55.9215 21.621 56.4254C22.1483 56.9645 22.7225 56.7535 23.6835 55.6637L24.328 54.9371L25.8983 55.1363C28.1835 55.4293 31.4882 55.3238 33.5155 54.902C39.703 53.6129 44.9179 50.109 48.3866 44.9176C50.1796 42.234 51.4452 38.9996 51.9725 35.7418C52.0663 35.1324 52.1483 34.5816 52.1483 34.5348C52.1483 34.4879 52.371 34.6988 52.6522 35.0152C53.4022 35.8941 53.8593 36.0582 54.4218 35.6129C54.6561 35.4254 54.7264 35.273 54.7264 34.9215C54.7264 34.5113 54.5975 34.3238 53.3671 32.9059C52.0077 31.359 51.5272 30.9723 51.0702 31.1246C50.8358 31.1949 48.1991 33.4215 47.7889 33.8902C47.4608 34.2652 47.5077 34.9684 47.8827 35.2613C48.4218 35.6832 48.8085 35.566 49.7108 34.7105C49.9569 34.4762 50.1796 34.3238 50.2147 34.359C50.3554 34.4996 49.7929 37.2066 49.3241 38.6246C48.7499 40.4059 47.4725 42.9605 46.4413 44.4019C43.746 48.1637 39.6444 51.1519 35.3085 52.4996C33.246 53.1324 32.0155 53.3316 29.5897 53.4019C27.6679 53.4488 25.7694 53.3434 25.5936 53.1676C25.5702 53.1441 25.7577 52.6754 26.0038 52.1363C26.4022 51.2926 26.7421 50.2379 26.9999 49.1012L27.0585 48.8082H29.1444C31.4882 48.7965 32.4022 48.6559 34.453 47.9762C38.9647 46.4762 42.785 42.8668 44.5897 38.3785C45.0702 37.1949 45.5507 35.3316 45.6561 34.277C45.7147 33.6676 45.6913 33.5387 45.4804 33.3043C45.3046 33.1285 45.0936 33.0465 44.7655 33.0465C44.1444 33.0465 43.8983 33.3863 43.7108 34.5348C42.9139 39.5738 39.328 43.9918 34.4647 45.9488C32.6835 46.6637 31.535 46.8863 29.285 46.9566L27.328 47.0152L27.2577 45.9254C27.1054 43.8863 26.6718 42.0699 26.0272 40.816C25.8983 40.5465 25.7811 40.2535 25.7811 40.1598C25.7811 40.0777 27.703 36.398 30.0585 31.9801C32.7421 26.9527 34.3358 23.8473 34.3358 23.6363C34.3358 22.9215 33.3749 22.4762 32.8358 22.9332C32.7069 23.0504 30.785 26.5309 28.5819 30.6793L24.5741 38.2145L23.7069 37.277C21.3514 34.7223 18.3163 33.234 14.7186 32.8707L13.91 32.7887L13.9804 31.4293C14.3436 24.316 19.4413 18.5035 26.4139 17.2613C28.3358 16.9215 30.8671 17.027 32.7069 17.5309L33.3632 17.7184L33.6679 18.5035C35.1561 22.3004 38.285 25.2418 42.1639 26.4957L42.9843 26.7535L43.2304 27.527C43.3593 27.9488 43.5702 28.7691 43.6991 29.3434C43.9452 30.5152 44.0975 30.7027 44.7655 30.7027C45.2225 30.7027 45.5038 30.4918 45.6327 30.0348C45.703 29.8238 45.41 28.148 45.1757 27.3512C45.1054 27.1285 45.1405 27.1168 45.8671 27.1637C46.828 27.2223 48.6327 27.023 49.8397 26.7066C54.246 25.5816 57.9725 22.0191 59.3319 17.6363C59.7655 16.2418 59.9296 15.1051 59.9296 13.5348C59.9296 11.9645 59.7655 10.816 59.3319 9.4332C58.9921 8.35508 57.9725 6.28086 57.5741 5.88242C57.2225 5.53086 56.6718 5.54258 56.3085 5.91758C55.8983 6.31602 55.9335 6.76133 56.4843 7.68711C57.5741 9.55039 58.0429 11.3668 58.0311 13.652C58.0311 14.8941 57.9725 15.3863 57.7264 16.3473C57.1757 18.4801 56.1444 20.273 54.621 21.8082C49.9921 26.4254 42.703 26.4254 38.0741 21.8082C35.0741 18.8082 33.9257 14.484 35.0507 10.4293C36.3514 5.76524 40.5585 2.27305 45.3514 1.89805C48.1288 1.67539 50.7538 2.3668 53.0038 3.90195C53.953 4.5582 54.4569 4.62852 54.8319 4.14805C55.1366 3.76133 55.1483 3.23399 54.8554 2.94102C53.9999 2.08555 51.5624 0.843361 49.8397 0.38633C48.2577 -0.0355453 45.1171 -0.117577 43.5936 0.222267Z" fill="#1362A2"/>
<path d="M44.5312 6.51562C42.5977 7.01953 40.793 8.46094 39.9023 10.207C39.457 11.0742 39.4219 11.1094 38.9766 11.168C38.4023 11.25 38.0859 11.5898 38.0859 12.1406C38.0859 12.6211 38.4258 13.0078 38.8477 13.0078C39.1289 13.0078 39.1406 13.043 39.1406 13.7109C39.1406 14.3789 39.1289 14.4141 38.8477 14.4141C38.4375 14.4141 38.0859 14.8008 38.0859 15.2695C38.0859 15.8672 38.3555 16.1484 39.0234 16.2422C39.5625 16.3125 39.6211 16.3477 39.8555 16.8398C40.4531 18.082 41.7656 19.4062 43.0078 20.0391C44.9531 21.0234 47.7422 21.0234 49.6875 20.0391C50.4258 19.6641 51.5273 18.7617 51.668 18.4219C51.8438 18 51.7266 17.5078 51.4102 17.2852C50.9531 16.9688 50.5547 17.0742 49.6758 17.7422C48.3047 18.7734 46.7695 19.1602 45.3047 18.8203C44.1445 18.5391 43.2305 18.0117 42.3984 17.1211L41.6719 16.3477L44.6484 16.2891C46.2891 16.2539 47.7188 16.1836 47.8242 16.1367C48.0469 16.0312 48.2812 15.5625 48.2812 15.2461C48.2812 15.1289 48.1758 14.8945 48.0352 14.7188L47.8008 14.4141H44.4141H41.0391L41.0039 13.9688C40.9805 13.7344 40.9688 13.418 40.9922 13.2656L41.0273 13.0078H44.4141H47.8008L48.0352 12.7031C48.457 12.1758 48.2695 11.4727 47.6602 11.25C47.4492 11.1797 46.1484 11.1328 44.4609 11.1328C42.8906 11.1328 41.6016 11.0977 41.6016 11.0625C41.6016 10.8984 42.3281 9.97266 42.75 9.58594C44.8008 7.73438 47.7305 7.72266 49.9102 9.55078C50.5547 10.0781 51.1875 10.125 51.5508 9.65625C51.9492 9.14062 51.8672 8.8125 51.1758 8.13281C50.4727 7.46484 49.1953 6.78516 48.1055 6.50391C47.2383 6.28125 45.3867 6.28125 44.5312 6.51562Z" fill="#1362A2"/>
<path d="M22.2306 22.898C20.5783 23.3551 19.4533 25.0074 19.5939 26.7652C19.7931 29.2262 22.2072 30.7496 24.6095 29.941C25.465 29.6598 26.4728 28.6637 26.754 27.8434C27.0001 27.1051 27.0118 25.8746 26.7658 25.148C26.5079 24.3863 25.5939 23.4137 24.8204 23.0855C24.0587 22.7574 22.9806 22.6871 22.2306 22.898ZM24.2462 24.9371C25.3947 25.7808 25.3478 27.3512 24.1525 28.0543C22.5353 28.9918 20.7072 26.9527 21.797 25.4176C22.3478 24.6558 23.5431 24.4098 24.2462 24.9371Z" fill="#1362A2"/>
<path d="M33.5742 34.0194C32.7773 34.2889 32.3906 34.535 31.8398 35.1561C31.1953 35.871 30.9375 36.5858 30.9375 37.6639C30.9375 38.3319 31.0078 38.6366 31.2773 39.1991C31.9102 40.5585 33.1172 41.285 34.7227 41.2733C37.875 41.2616 39.4688 37.4295 37.3242 35.0624C36.4688 34.1014 34.7461 33.6327 33.5742 34.0194ZM35.3906 35.9764C36.6797 36.6327 36.7734 38.3905 35.5547 39.1522C34.3828 39.867 32.8125 39.0116 32.8125 37.6522C32.8125 36.2342 34.1719 35.3553 35.3906 35.9764Z" fill="#1362A2"/>
<path d="M13.1602 37.9922C12.832 38.1445 12.6562 38.6602 12.6562 39.4336V40.043L11.8125 40.1016C11.2617 40.1367 10.7812 40.2539 10.4766 40.4062C9.79688 40.7578 9.05859 41.6367 8.84766 42.3398C8.625 43.1016 8.625 44.3203 8.84766 45.082C9.07031 45.8438 9.84375 46.7109 10.6055 47.0625C11.1562 47.3203 11.332 47.3438 13.3008 47.3438C15.668 47.3438 16.0078 47.4258 16.4883 48.1523C16.8281 48.6562 16.8516 49.5703 16.5469 50.1562C16.1719 50.8711 15.7852 50.9766 13.6758 50.9766C11.2148 50.9766 10.7578 50.7773 10.582 49.6172C10.4883 48.9727 10.1367 48.6328 9.59766 48.6328C9.25781 48.6328 9.10547 48.7031 8.90625 48.9492C8.68359 49.2305 8.66016 49.3711 8.71875 49.8984C8.90625 51.5391 10.1602 52.6992 11.8359 52.8281L12.6211 52.8867L12.6797 53.6953C12.75 54.668 12.9961 55.0078 13.6406 55.0078C14.332 55.0078 14.5312 54.7148 14.5312 53.7305V52.8867L15.3984 52.8281C17.4844 52.6875 18.7383 51.1523 18.6094 48.8789C18.5156 47.4141 17.8828 46.3945 16.6523 45.7969C16.1602 45.5508 15.9023 45.5273 13.7578 45.4688C11.6016 45.4102 11.3672 45.3867 11.1328 45.1758C10.7227 44.8125 10.5469 44.3555 10.5469 43.7109C10.5469 43.0312 10.7578 42.5508 11.2031 42.1992C11.4961 41.9648 11.6602 41.9531 13.582 41.9531C14.9883 41.9531 15.7383 42 15.9258 42.1055C16.3477 42.3164 16.6523 42.7852 16.7227 43.3477C16.8398 44.1914 17.6719 44.5781 18.293 44.0742C18.5391 43.875 18.5742 43.7461 18.5625 43.1602C18.5508 42.3867 18.2344 41.6484 17.6484 41.0391C17.0742 40.418 16.4648 40.1602 15.4453 40.1016L14.5312 40.043V39.1875C14.5312 38.4141 14.5078 38.3203 14.2266 38.0977C13.8867 37.8281 13.5586 37.793 13.1602 37.9922Z" fill="#1362A2"/>
</g>
<defs>
<clipPath id="clip0_1015_9703">
<rect width="60" height="60" fill="white"/>
</clipPath>
</defs>
</svg>
