<svg width="60" height="60" viewBox="0 0 60 60" fill="none" xmlns="http://www.w3.org/2000/svg">
<g clip-path="url(#clip0_1015_9562)">
<path d="M27.0704 0.175781C22.8633 0.890625 19.4297 2.68359 16.4766 5.68359C13.6993 8.49609 11.9649 11.9766 11.2383 16.1719C11.0391 17.3438 11.0274 20.8945 11.2383 22.1484C11.9883 26.8125 14.1446 31.8164 17.3555 36.293L18.0469 37.2656H13.6055C9.55082 37.2656 9.14067 37.2773 8.92973 37.4648C8.67192 37.6992 2.69536 52.0781 2.69536 52.4766C2.69536 52.8867 3.19926 53.3555 3.62114 53.3555C4.14848 53.3555 4.46489 52.9805 4.92192 51.8203L5.29692 50.8594H8.21489H11.1211L10.2422 52.9922C9.75004 54.1758 9.08207 55.8047 8.75395 56.625L8.14457 58.125H5.25004C3.64457 58.125 2.34379 58.1016 2.34379 58.0781C2.34379 58.043 2.53129 57.5859 2.75395 57.0586C2.97661 56.5195 3.1641 55.9102 3.1641 55.6992C3.1641 55.2188 2.81254 54.8438 2.35551 54.8438C1.61723 54.8438 1.60551 54.8555 0.621136 57.2344C-0.0351136 58.8164 -0.117145 59.3086 0.187543 59.7422L0.363324 60H30H59.6368L59.8125 59.7422C59.918 59.6016 60 59.3203 60 59.1211C60 58.6289 51.3868 37.7461 51.0704 37.4648C50.8594 37.2891 50.461 37.2656 46.4532 37.2656C44.0391 37.2656 42.0704 37.2422 42.0704 37.2188C42.0704 37.1836 42.5391 36.457 43.1133 35.6016C46.1836 31.0078 47.9766 26.8008 48.7149 22.4648C48.961 21 48.9961 17.4844 48.7618 16.1719C48.0352 11.9648 46.3008 8.49609 43.5235 5.68359C40.5352 2.64844 37.0899 0.867188 32.8125 0.164062C31.5821 -0.0351562 28.2891 -0.0234375 27.0704 0.175781ZM32.6133 2.05078C36.2227 2.63672 39.4454 4.28906 42.0118 6.86719C45.8555 10.6992 47.6485 16.0078 46.9454 21.3984C46.043 28.1602 41.9414 35.3789 34.8868 42.6094C32.6602 44.9062 30.293 47.0508 30 47.0508C29.7188 47.0508 27.1641 44.7188 25.0079 42.5156C18.0469 35.3555 13.9454 28.1133 13.0547 21.3984C11.9649 13.1016 16.9102 5.23828 24.8438 2.66016C25.711 2.37891 26.4258 2.20312 27.5977 2.00391C28.5469 1.83984 31.4883 1.86328 32.6133 2.05078ZM15.9375 39.1758C15.9375 39.1992 15.4688 40.3477 14.8946 41.7305L13.8633 44.2383L10.9688 44.2734C8.61332 44.2969 8.07426 44.2734 8.10942 44.1445C8.13286 44.0625 8.58989 42.9023 9.14067 41.5664L10.1368 39.1406H13.043C14.6368 39.1406 15.9375 39.1641 15.9375 39.1758ZM20.7539 40.6875C22.3711 42.5977 26.4258 46.6641 28.2305 48.1992C29.9649 49.6758 30.0352 49.6875 31.418 48.4922C31.9571 48.0352 32.7657 47.3203 33.2227 46.9102L34.0313 46.1719H39.0469C42.4688 46.1719 44.1446 46.125 44.3321 46.043C44.9063 45.7852 45.0469 45.0352 44.5899 44.5898L44.3086 44.2969H40.125H35.9414L36.9258 43.2656C37.4649 42.7031 38.5079 41.543 39.2461 40.6875L40.5704 39.1406H45.2227H49.8633L50.8594 41.5664C51.4102 42.9023 51.8672 44.0625 51.8907 44.1445C51.9258 44.2617 51.4336 44.2969 49.5 44.2969C47.168 44.2969 47.0508 44.3086 46.793 44.5547C46.4532 44.8711 46.4414 45.457 46.7461 45.832C46.9688 46.1133 46.9922 46.1133 49.875 46.1719L52.7696 46.2305L53.3321 47.5781L53.8829 48.9258L44.625 48.9844C35.6368 49.043 35.3672 49.0547 35.2032 49.2656C34.9336 49.6406 35.0039 50.2266 35.3672 50.6133C35.543 50.8008 37.5118 52.5469 39.7618 54.4922C42 56.4375 43.8282 58.0547 43.8282 58.0781C43.8282 58.1016 42.7383 58.125 41.4024 58.1133H38.9649L29.8946 50.3789C21.3516 43.1133 20.7891 42.6562 20.3789 42.6562C20.086 42.6562 19.8516 42.7383 19.7227 42.8906C19.6055 43.0078 18.1055 46.4883 16.4063 50.625L13.3125 58.125H11.7422C10.5352 58.125 10.1836 58.0898 10.2305 57.9844C10.2657 57.9023 11.0039 56.0977 11.8829 53.9766C12.7618 51.8555 13.4766 50.0039 13.4766 49.8633C13.4766 49.7227 13.3711 49.4648 13.2305 49.2891L12.9961 48.9844L9.55082 48.9609L6.11723 48.9258L6.66801 47.5781L7.23051 46.2305L11.0508 46.1719C14.6836 46.1133 14.8829 46.1016 15.1055 45.8789C15.2344 45.75 15.9258 44.2266 16.6289 42.5039C17.3438 40.7695 17.9532 39.3047 18 39.2461C18.0352 39.1875 18.3633 39.1406 18.75 39.1406H19.4297L20.7539 40.6875ZM29.5079 52.5586L35.9883 58.0664L30.8204 58.1016C27.9844 58.1133 23.3555 58.1133 20.5196 58.1016L15.375 58.0664L17.9414 51.8555C19.3477 48.4336 20.5547 45.5273 20.625 45.375C20.7422 45.1055 20.7774 45.1289 21.8907 46.0781C22.5235 46.6172 25.9454 49.5234 29.5079 52.5586ZM56.1329 54.3516C56.918 56.2617 57.5977 57.9023 57.6211 57.9844C57.668 58.0898 56.543 58.125 52.2539 58.125H46.8164L43.125 54.8906C41.0977 53.1094 39.2227 51.4805 38.9766 51.2578L38.5079 50.8594H46.6055H54.6914L56.1329 54.3516Z" fill="#1362A2"/>
<path d="M28.3008 11.0742C27.4805 11.25 26.6367 11.5781 25.875 12C25.2188 12.375 25.1016 12.5156 25.0078 12.9844C24.9492 13.2891 24.9961 13.4062 25.3008 13.7227C25.7344 14.1562 26.0625 14.1328 26.8242 13.6641C27.961 12.9492 29.8594 12.6094 31.1953 12.8789C32.3672 13.125 33.4688 13.7578 34.3828 14.6836C35.6836 16.0078 36.211 17.2852 36.211 19.1133C36.211 20.8008 35.6485 22.1953 34.4532 23.4258C33.1875 24.7266 31.7578 25.3359 30 25.3359C28.2422 25.3359 26.8125 24.7266 25.5469 23.4258C24.3516 22.1953 23.7891 20.8008 23.7891 19.1133C23.7891 18.1055 23.9414 17.3203 24.3047 16.5C24.7032 15.5859 24.4805 14.9648 23.6953 14.8125C23.3907 14.7539 23.2735 14.8008 22.9922 15.0703C22.125 15.9492 21.6446 18.9609 22.0782 20.9062C22.4649 22.6055 23.6016 24.4453 24.9375 25.4883C26.4258 26.6602 28.0547 27.2109 30 27.2109C33.211 27.2109 35.8008 25.6055 37.2657 22.7109C37.9219 21.3984 38.1328 20.3203 38.0508 18.6445C37.9453 16.3477 37.2891 14.8828 35.6367 13.2422C34.4883 12.0938 33.4571 11.5078 31.9453 11.1328C30.8672 10.8633 29.3672 10.8398 28.3008 11.0742Z" fill="#1362A2"/>
</g>
<defs>
<clipPath id="clip0_1015_9562">
<rect width="60" height="60" fill="white"/>
</clipPath>
</defs>
</svg>
