<svg width="60" height="60" viewBox="0 0 60 60" fill="none" xmlns="http://www.w3.org/2000/svg">
<g clip-path="url(#clip0_1015_9642)">
<path d="M12.7969 3.28125C12.5859 3.41016 12.3164 3.67969 12.1875 3.89062C11.9648 4.26562 11.9531 4.5 11.9531 9.39844V14.5195L9.29297 14.5547C6.72656 14.5898 6.59766 14.6016 6.03516 14.8711C5.29688 15.2461 4.58203 15.9609 4.20703 16.6992L3.92578 17.2852L3.89062 32.6719L3.86719 48.0469H3.01172C0.925781 48.0469 0 48.8555 0 50.6602C0 53.5078 1.98047 56.0273 4.80469 56.7773C5.35547 56.9297 8.91797 56.9531 29.9883 56.9531C51.9961 56.9531 54.5859 56.9297 55.2422 56.7656C57.3867 56.2148 59.2617 54.3516 59.8242 52.207C60.082 51.1992 60.0586 49.9102 59.7656 49.3359C59.3086 48.4336 58.4648 48.0469 56.9883 48.0469H56.1328V45C56.1328 42.1055 56.1211 41.9414 55.8984 41.7188C55.5938 41.4141 54.9609 41.4141 54.5977 41.707C54.3164 41.9297 54.3164 41.9414 54.2812 44.9883L54.2461 48.0469H30H5.74219V32.9766V17.9062L6 17.4375C6.16406 17.1562 6.48047 16.8398 6.79688 16.6641C7.3125 16.3594 7.38281 16.3477 9.64453 16.3125L11.9531 16.2656V17.4375V18.6094L10.4414 18.6562C9.01172 18.6914 8.90625 18.7031 8.61328 18.9844C7.93359 19.6172 7.96875 18.8555 7.96875 32.2617V44.6133L8.23828 45.0117C8.37891 45.2344 8.68359 45.5039 8.90625 45.6094C9.29297 45.8086 10.5469 45.8203 30 45.8203C49.4531 45.8203 50.707 45.8086 51.0938 45.6094C51.3164 45.5039 51.6211 45.2344 51.7617 45.0117L52.0312 44.6133L52.0078 32.0859L51.9727 19.5703L51.5273 19.1367L51.0938 18.6914L49.5703 18.6562L48.0469 18.6094V17.4375V16.2656L50.3672 16.3125C52.5703 16.3477 52.6992 16.3594 53.1797 16.6406C53.4609 16.793 53.8008 17.1094 53.9414 17.3438L54.1992 17.7539L54.2578 28.207L54.3164 38.6602L54.5625 38.918C54.9141 39.2578 55.6406 39.2578 55.9219 38.9062C56.1328 38.6484 56.1328 38.1211 56.1094 27.9609L56.0742 17.2852L55.793 16.6992C55.418 15.9609 54.7031 15.2461 53.9648 14.8711C53.4023 14.6016 53.2734 14.5898 50.7188 14.5547L48.0469 14.5195V9.39844C48.0469 4.5 48.0352 4.26562 47.8125 3.89062C47.6836 3.67969 47.4141 3.41016 47.2031 3.28125C46.8164 3.04688 46.5703 3.04688 30 3.04688C13.4297 3.04688 13.1836 3.04688 12.7969 3.28125ZM46.1719 7.5V10.0781H33.2227H20.2617L19.9805 10.3711C19.6055 10.7344 19.5938 11.3086 19.9453 11.6836L20.1914 11.9531H33.1875H46.1719V27.9492V43.9453H30H13.8281V27.9492V11.9531H15.3281C16.4531 11.9531 16.8867 11.9062 17.0742 11.7773C17.5898 11.4141 17.5078 10.4766 16.9219 10.207C16.7578 10.1367 16.0195 10.0781 15.2344 10.0781H13.8281V7.5V4.92188H30H46.1719V7.5ZM11.9531 32.2266V43.9453H10.8984H9.84375V32.2266V20.5078H10.8984H11.9531V32.2266ZM50.1562 32.2266V43.9453H49.1016H48.0469V32.2266V20.5078H49.1016H50.1562V32.2266ZM19.6875 50.4609C19.6875 51.3047 19.9102 51.9727 20.3672 52.5117C21.1992 53.4844 20.6719 53.4375 30 53.4375C39.3281 53.4375 38.8008 53.4844 39.6328 52.5117C40.0898 51.9727 40.3125 51.3047 40.3125 50.4609V49.9219H49.0195C56.1328 49.9219 57.7734 49.9453 57.9492 50.0742C58.125 50.2148 58.1484 50.3555 58.1016 50.9883C57.9844 52.4883 56.9297 53.9648 55.4883 54.6797L54.7852 55.0195H30H5.21484L4.51172 54.6797C3.07031 53.9648 2.01562 52.4883 1.89844 50.9883C1.85156 50.3555 1.875 50.2148 2.05078 50.0742C2.22656 49.9453 3.86719 49.9219 10.9805 49.9219H19.6875V50.4609ZM38.4375 50.4375C38.4375 50.7773 38.3555 51.0469 38.1914 51.2578L37.957 51.5625H30H22.043L21.8086 51.2578C21.6445 51.0469 21.5625 50.7773 21.5625 50.4375V49.9219H30H38.4375V50.4375Z" fill="#1362A2"/>
<path d="M15.9606 6.83203C15.5856 7.23047 15.609 7.875 16.0074 8.19141C16.3121 8.4375 16.4059 8.4375 24.4918 8.4375C32.5777 8.4375 32.6715 8.4375 32.9762 8.19141C33.3629 7.88672 33.4098 7.16016 33.0465 6.79688C32.8121 6.5625 32.6598 6.5625 24.5152 6.5625H16.2067L15.9606 6.83203Z" fill="#1362A2"/>
<path d="M38.109 6.83171C37.734 7.23014 37.7574 7.87468 38.1559 8.19108C38.941 8.80046 39.984 8.05046 39.609 7.14811C39.3395 6.50358 38.566 6.35124 38.109 6.83171Z" fill="#1362A2"/>
<path d="M41.859 6.83182C41.4957 7.20682 41.5192 7.78104 41.9059 8.16775C42.152 8.41385 42.2809 8.449 42.6325 8.40213C43.1598 8.30838 43.3473 8.12088 43.441 7.59354C43.4879 7.24197 43.4528 7.11307 43.2067 6.86697C42.8082 6.46854 42.2106 6.45682 41.859 6.83182Z" fill="#1362A2"/>
<path d="M35.2966 15.0112C34.3591 15.48 33.8318 16.4292 33.8787 17.5542C33.9372 18.8198 32.3201 21.2339 30.4802 22.6401C29.0037 23.7534 27.9841 24.1401 23.5076 25.3003C20.4841 26.0855 19.324 26.437 19.0544 26.648C18.7263 26.8941 18.4333 27.3862 18.2458 28.0073C18.2224 28.1011 17.9646 28.2417 17.6833 28.3237C16.324 28.687 15.4451 29.9409 15.6326 31.2417C15.7732 32.3315 16.3122 33.9605 16.6638 34.3823C17.3201 35.1792 18.3044 35.4956 19.4529 35.2612C20.0622 35.1441 20.1912 35.1441 20.3669 35.3081C20.6365 35.5542 21.3747 35.8589 21.7029 35.8589C21.9255 35.8589 22.2654 36.3042 23.531 38.2612C24.3982 39.5855 25.2302 40.7691 25.3943 40.898C25.8513 41.2612 26.4255 41.3081 27.3982 41.0737C28.0427 40.9214 28.3826 40.7691 28.6872 40.4878C29.3435 39.8901 29.3318 39.2573 28.6169 36.5269C28.3005 35.3198 28.0662 34.312 28.113 34.2886C28.1482 34.2651 28.6872 34.1245 29.2966 33.9722C30.8552 33.5972 32.9412 33.5972 34.324 33.9722C36.3162 34.4995 38.3904 35.7066 38.7419 36.5386C39.1404 37.5112 40.031 38.0855 41.1208 38.0855C41.9763 38.0855 42.2693 37.98 42.8318 37.4761C43.3943 36.9956 43.699 36.3159 43.7107 35.5894C43.7107 34.9917 39.0466 16.6519 38.7419 16.0776C38.1326 14.9175 36.5037 14.4136 35.2966 15.0112ZM36.949 16.8394C37.113 17.0386 41.8357 35.0972 41.8357 35.5659C41.8357 36.1284 41.0037 36.4331 40.6404 35.9995C40.488 35.8237 35.7302 17.6362 35.7419 17.2495C35.7419 17.0151 36.199 16.6401 36.4802 16.6401C36.6326 16.6401 36.8435 16.7339 36.949 16.8394ZM36.2693 27.0698C37.1365 30.4448 37.8279 33.2222 37.8044 33.2456C37.7927 33.269 37.3826 33.105 36.8904 32.8823C34.9568 31.98 32.6482 31.6167 30.5154 31.8745C29.8122 31.9565 29.1091 32.0269 28.9451 32.0386C28.6755 32.0503 28.6404 31.9565 27.9255 29.2378C27.5271 27.6909 27.1872 26.4019 27.1872 26.3667C27.1872 26.3316 27.5154 26.2144 27.9138 26.0972C28.8044 25.8394 30.2224 25.1362 31.2068 24.48C32.0857 23.8823 33.7966 22.1831 34.2771 21.4214C34.4646 21.1167 34.6404 20.8823 34.6521 20.9058C34.6755 20.9292 35.4021 23.6948 36.2693 27.0698ZM26.1091 29.7183C26.5076 31.312 26.824 32.6245 26.8122 32.6362C26.7888 32.6597 25.6404 32.9644 24.2576 33.3276C22.2771 33.8315 21.7146 33.9487 21.5974 33.8315C21.4451 33.6792 20.156 28.8042 20.156 28.3823C20.156 28.1011 19.9568 28.1714 23.0857 27.3628C24.1521 27.0816 25.1013 26.8472 25.1951 26.8472C25.324 26.8355 25.5466 27.5386 26.1091 29.7183ZM18.9958 31.687C19.2068 32.5542 19.3474 33.3042 19.3122 33.3394C19.2654 33.3862 19.0427 33.4214 18.7966 33.4331C18.2107 33.4448 18.0115 33.1753 17.6951 31.8862C17.4958 31.0776 17.4724 30.7847 17.5662 30.5972C17.7302 30.3042 18.0232 30.1284 18.3513 30.1167C18.5622 30.1167 18.6443 30.2925 18.9958 31.687ZM26.7654 36.937C27.0583 38.1089 27.2693 39.105 27.2224 39.1519C27.1638 39.187 26.9997 39.2573 26.8357 39.2925C26.5662 39.3511 26.449 39.2105 25.2888 37.4644C24.5974 36.4214 24.0115 35.5191 23.9997 35.4605C23.9646 35.3667 25.6287 34.8511 26.0857 34.8159C26.156 34.8042 26.4607 35.7651 26.7654 36.937Z" fill="#1362A2"/>
</g>
<defs>
<clipPath id="clip0_1015_9642">
<rect width="60" height="60" fill="white"/>
</clipPath>
</defs>
</svg>
