<svg width="60" height="60" viewBox="0 0 60 60" fill="none" xmlns="http://www.w3.org/2000/svg">
<path d="M7.73438 5.85938C7.51172 6.08203 7.5 6.24609 7.5 9.60938V13.125H3.98438C0.621094 13.125 0.457031 13.1367 0.234375 13.3594C0 13.5938 0 13.7461 0 33.75C0 53.7539 0 53.9062 0.234375 54.1406C0.46875 54.375 0.621094 54.375 26.25 54.375C51.8789 54.375 52.0312 54.375 52.2656 54.1406C52.4883 53.918 52.5 53.7539 52.5 50.3906V46.875H55.9922C59.3438 46.875 59.4961 46.8633 59.7422 46.6406L60 46.3945V26.25C60 6.24609 60 6.09375 59.7656 5.85938C59.5312 5.625 59.3789 5.625 33.75 5.625C8.12109 5.625 7.96875 5.625 7.73438 5.85938ZM58.125 26.25V45H55.3125H52.5V29.2969C52.5 13.7461 52.5 13.5938 52.2656 13.3594C52.043 13.1367 51.8789 13.125 46.4883 13.125C41.0391 13.125 40.9336 13.125 40.7227 13.3594C40.418 13.6992 40.4297 14.3555 40.7578 14.6836C41.0156 14.9414 41.0391 14.9414 45.8203 14.9766L50.625 15.0117V21.832V28.6523L48.0117 26.0391C45.6211 23.6484 45.375 23.4375 45 23.4375C44.6133 23.4375 44.0508 23.9766 35.4258 32.6016L26.25 41.7773L19.9453 35.4844C16.4883 32.0273 13.5117 29.1328 13.3242 29.0742C13.125 28.9922 12.9023 28.9922 12.7266 29.0625C12.5625 29.1211 10.0898 31.6992 7.20703 34.793C4.33594 37.8984 1.95703 40.4297 1.93359 40.4297C1.89844 40.4297 1.875 34.7109 1.875 27.7148V15H19.5469C33.5508 15 37.2656 14.9648 37.5 14.8477C38.1211 14.5312 38.1797 13.5469 37.6172 13.2422C37.4766 13.1719 32.2969 13.125 23.3906 13.125H9.375V10.3125V7.5H33.75H58.125V26.25ZM47.8359 28.5586L50.625 31.3477V41.918V52.5H26.25H1.875V47.9297V43.3477L7.47656 37.3242L13.0664 31.2891L19.4531 37.6758C25.4414 43.6523 25.875 44.0625 26.25 44.0625C26.6367 44.0625 27.2109 43.5117 35.8008 34.9219C40.8281 29.8945 44.9648 25.7812 45 25.7812C45.0352 25.7812 46.3125 27.0352 47.8359 28.5586Z" fill="#1362A2"/>
<path d="M24.7382 17.9997C21.8437 18.7731 20.0507 21.8786 20.8007 24.7848C21.7265 28.3356 25.6406 30.0466 28.957 28.3591C29.7538 27.9489 30.8906 26.7419 31.3007 25.863C33.082 22.0544 30.3632 17.777 26.1913 17.8239C25.746 17.8239 25.0898 17.9059 24.7382 17.9997ZM27.8203 20.0505C28.6054 20.4372 29.2617 21.1052 29.6249 21.8903C30.0468 22.7927 30.0585 24.0348 29.6718 24.902C29.1679 26.0036 28.1367 26.8122 26.9296 27.07C24.3163 27.5973 21.914 25.0192 22.6288 22.4411C22.9218 21.3864 23.9648 20.2731 25.0429 19.863C25.7226 19.6052 27.1171 19.6989 27.8203 20.0505Z" fill="#1362A2"/>
</svg>
