<svg width="60" height="60" viewBox="0 0 60 60" fill="none" xmlns="http://www.w3.org/2000/svg">
<g clip-path="url(#clip0_1015_9696)">
<path d="M19.7461 0.23423C14.6836 1.05454 10.4531 3.19907 6.79689 6.80845C-0.691396 14.203 -2.17968 26.0272 3.22267 35.2147C5.5547 39.1639 8.95314 42.2811 13.1484 44.2967C17.25 46.2655 21.4922 46.9803 25.957 46.4647C29.332 46.078 32.4141 45.0233 35.5899 43.1717L35.9649 42.9491L44.1445 51.1053C53.625 60.5506 52.8633 59.9413 55.1367 59.9413C56.3438 59.9413 56.4727 59.9178 57.211 59.5663C59.7539 58.3709 60.7266 55.4061 59.4375 52.7928C59.2149 52.3358 57.3867 50.4374 51.082 44.1209C46.6406 39.6678 43.0078 35.9881 43.0078 35.9295C43.0078 35.8709 43.2774 35.367 43.6055 34.8045C45.8086 30.9725 46.8984 26.0506 46.5352 21.5741C46.0664 15.7616 43.8164 10.8631 39.7383 6.78501C36.1172 3.17564 31.875 1.03111 26.7774 0.222511C24.9141 -0.0704575 21.5859 -0.0704575 19.7461 0.23423ZM26.7188 2.14439C33.6211 3.32798 39.5977 7.80454 42.5508 14.0038C44.0274 17.0975 44.6719 19.9686 44.6602 23.3788C44.6602 26.6717 43.9805 29.66 42.5391 32.6366C41.5664 34.6405 40.7695 35.7538 38.5313 38.2264C37.6758 39.1639 37.5 39.4217 37.5 39.7381C37.5 40.2655 37.8867 40.6639 38.4258 40.6639C38.7774 40.6639 38.9531 40.5467 39.7852 39.703C40.3125 39.1639 40.957 38.4608 41.2266 38.1444L41.7188 37.5584L49.6406 45.4686C54.2227 50.0506 57.6563 53.578 57.8086 53.8475C58.1602 54.5038 58.1602 55.7694 57.8086 56.4256C57.2695 57.4452 56.2031 58.1249 55.1367 58.1249C53.836 58.1249 54.0117 58.2772 44.8828 49.1483C37.0899 41.367 36.4688 40.7811 36.1055 40.7811C35.8242 40.7811 35.3789 40.992 34.5703 41.4842C28.3359 45.3397 20.6484 45.7499 14.0625 42.5858C11.7539 41.4842 9.9961 40.2303 8.1797 38.4139C1.41798 31.6522 -0.0351454 21.328 4.58204 12.9256C6.2461 9.9022 9.16407 6.85532 12.1055 5.05064C14.5664 3.53892 17.5195 2.47251 20.2149 2.12095C20.7305 2.05064 21.3164 1.96861 21.5039 1.94517C22.207 1.8397 25.7461 1.98032 26.7188 2.14439Z" fill="#1362A2"/>
<path d="M20.5777 5.21435C16.6636 5.84716 13.3355 7.53466 10.5933 10.2534C8.17927 12.644 6.7027 15.0933 5.81208 18.1987C4.92145 21.2925 4.90973 25.2065 5.78864 28.2534C7.60505 34.5229 12.5504 39.3393 18.8316 40.9448C21.5035 41.6362 25.0894 41.6362 27.8082 40.9565C34.441 39.2808 39.6675 33.8901 41.1324 27.2104C42.8199 19.5229 39.4449 11.6831 32.6949 7.60497C31.3355 6.77294 30.9019 6.66747 30.4332 7.03075C30.1871 7.22997 30.1168 7.38232 30.1168 7.73388C30.1168 8.28466 30.2925 8.47216 31.3824 9.06982C34.0543 10.5347 36.7496 13.4526 38.0621 16.2886C39.1168 18.5737 39.4918 20.1206 39.5738 22.6753C39.6558 24.9253 39.4683 26.2964 38.8472 28.2183C37.5113 32.355 34.5816 35.812 30.7379 37.769C29.2965 38.5073 27.6675 39.0581 26.0972 39.3393C24.6441 39.5972 21.9722 39.5972 20.5074 39.3276C12.7496 37.9331 7.03083 31.1245 7.03083 23.2612C7.03083 18.855 8.73005 14.812 11.9058 11.6714C15.2925 8.3081 20.1441 6.562 24.7847 7.00732C26.3316 7.15966 26.8238 6.96044 26.8355 6.187C26.8472 5.26122 26.484 5.1206 23.7886 5.08544C22.3004 5.062 21.2925 5.09716 20.5777 5.21435Z" fill="#1362A2"/>
</g>
<defs>
<clipPath id="clip0_1015_9696">
<rect width="60" height="60" fill="white"/>
</clipPath>
</defs>
</svg>
