<svg width="60" height="60" viewBox="0 0 60 60" fill="none" xmlns="http://www.w3.org/2000/svg">
<g clip-path="url(#clip0_1015_9555)">
<path d="M51.6797 0.105766C50.7656 0.387016 49.9219 1.14874 49.4766 2.09795C48.9727 3.17608 49.0898 4.6292 49.7578 5.61358C50.0273 6.01202 50.0273 6.03545 49.8281 6.34014C49.7227 6.51592 48.0469 9.02374 46.1133 11.9183L42.6094 17.18L41.707 17.1331C40.6289 17.0745 39.8672 17.2855 39.1172 17.8597L38.6133 18.2464L36.1289 17.0042L33.6328 15.762V15.0355C33.6328 13.594 32.8594 12.3401 31.582 11.719C31.1016 11.473 30.8203 11.4261 30 11.4261C28.8164 11.4261 28.1719 11.6722 27.457 12.387C26.4609 13.3831 26.0977 15.0003 26.5781 16.2425L26.8008 16.8519L23.625 20.0276L20.4375 23.2151L19.9219 23.0159C19.6172 22.8987 19.043 22.8167 18.5742 22.8167C17.5547 22.8167 16.875 23.098 16.0664 23.848C15.3047 24.5628 14.9766 25.3245 14.9766 26.3909V27.1995L12.4922 28.4417L10.0078 29.6839L9.44531 29.262C7.60547 27.844 4.92188 28.4769 3.90234 30.5628C3.64453 31.1019 3.57422 31.3831 3.57422 32.1097C3.57422 32.8714 3.62109 33.094 3.96094 33.7737C4.38281 34.6292 4.89844 35.1214 5.8125 35.5198C6.53906 35.848 8.13281 35.8011 8.84766 35.4261C10.0547 34.7933 10.8047 33.5511 10.8281 32.1917V31.3831L13.3008 30.1409L15.7734 28.9105L16.3945 29.344C17.2266 29.9065 18.1289 30.1644 18.9727 30.0706C21.3164 29.8011 22.8047 27.469 22.0547 25.2542L21.8086 24.5511L24.9844 21.3636L28.1719 18.1761L28.5234 18.3753C28.793 18.5276 29.1797 18.5745 30 18.5745C31.1836 18.5745 31.6406 18.4222 32.4141 17.7659L32.7656 17.4847L35.25 18.7386L37.7461 19.9925L37.7812 20.8011C37.8281 22.219 38.5312 23.344 39.7852 24.0003C40.2891 24.2698 40.5117 24.3167 41.3672 24.3167C42.9492 24.3167 43.9688 23.7073 44.6484 22.3597C44.9414 21.762 45 21.5042 45 20.8011C45 19.8987 44.8008 19.1839 44.4141 18.6331L44.168 18.2933L47.8711 12.7503L51.5625 7.20733H52.6523C53.5898 7.20733 53.8125 7.17217 54.3984 6.8792C55.6992 6.23467 56.4141 5.09795 56.4141 3.63311C56.4141 2.13311 55.7344 0.996391 54.4688 0.363579C53.8477 0.0471725 53.6367 0.000297546 52.8633 0.0120163C52.3711 0.0120163 51.8438 0.0588913 51.6797 0.105766ZM53.8242 2.15655C54.1523 2.3792 54.6094 3.21124 54.6094 3.58624C54.5977 3.99639 54.1758 4.76983 53.8008 5.02764C53.2617 5.41436 52.7461 5.46124 52.1133 5.17999C50.9297 4.65264 50.6719 3.25811 51.6094 2.35577C52.2305 1.75811 53.0859 1.67608 53.8242 2.15655ZM30.8203 13.4886C31.6641 13.969 31.9805 15.0003 31.5352 15.8206C31.2188 16.4183 30.668 16.7581 30 16.7581C28.6641 16.7581 27.832 15.3519 28.4883 14.18C28.9805 13.3128 29.9766 13.0198 30.8203 13.4886ZM42.2812 19.219C43.1133 19.7347 43.3945 20.9065 42.8672 21.68C42.1406 22.7464 40.7344 22.7347 39.9375 21.6683C38.8828 20.262 40.7695 18.2933 42.2812 19.219ZM19.4766 24.9144C20.0625 25.219 20.4609 26.098 20.3438 26.7894C20.2266 27.3753 19.5 28.0784 18.8789 28.1839C17.8711 28.348 16.875 27.5159 16.875 26.4964C16.875 25.0784 18.2109 24.2698 19.4766 24.9144ZM7.93359 30.5745C9.11719 31.1136 9.31641 32.5433 8.32031 33.4456C7.42969 34.2425 6.15234 33.973 5.625 32.8597C5.21484 32.0159 5.55469 31.0433 6.44531 30.5745C6.96094 30.2933 7.3125 30.2933 7.93359 30.5745Z" fill="#1362A2"/>
<path d="M48.9727 12.9258C48.75 13.0664 48.4805 13.3711 48.375 13.5938C48.1758 13.9805 48.1641 15.293 48.1641 36.1172V58.2422H47.1094H46.0547L46.0312 44.6133C45.9961 31.7109 45.9844 30.9727 45.7852 30.668C45.4102 30.0938 44.918 29.8828 43.9336 29.8828C43.1602 29.8828 43.0195 29.918 42.7969 30.1523C42.4805 30.4922 42.457 31.0547 42.75 31.4062C42.9023 31.5938 43.125 31.6875 43.5703 31.7344L44.1797 31.793V45.0117V58.2422H41.4258H38.6719V45V31.7578H39.082C40.1367 31.7578 40.6875 30.832 40.0195 30.1758C39.7734 29.918 39.6328 29.8828 38.8359 29.8828C38.1445 29.8828 37.8516 29.9414 37.5586 30.1172C36.75 30.6211 36.7969 29.6836 36.7969 44.6953V58.2422H35.6836H34.5703V41.7422C34.5703 25.5938 34.5703 25.2422 34.3359 24.8789C33.9023 24.1641 33.7734 24.1406 30 24.1406C26.2266 24.1406 26.0977 24.1641 25.6641 24.8789C25.4297 25.2422 25.4297 25.5938 25.4297 41.7422V58.2422H24.3164H23.2031V47.543C23.2031 35.6016 23.25 36.3047 22.3828 35.8008C21.9961 35.5781 21.7734 35.5664 18.5742 35.5664C14.8008 35.5664 14.707 35.5898 14.2266 36.375C14.0156 36.7266 14.0039 37.1953 13.9688 47.4844L13.9453 58.2422H12.8906H11.8359V50.4141C11.8359 41.7773 11.8594 42.1172 11.0977 41.5547C10.7812 41.3203 10.6172 41.3086 7.20703 41.3086C3.79688 41.3086 3.63281 41.3203 3.31641 41.5547C2.55469 42.1172 2.57812 41.7773 2.57812 50.4141V58.2422H1.82812C1.14844 58.2422 1.04297 58.2773 0.832031 58.5469C0.515625 58.9453 0.515625 59.2969 0.832031 59.6953L1.06641 60H30H58.9336L59.168 59.6953C59.4844 59.2969 59.4844 58.9453 59.168 58.5469C58.957 58.2773 58.8516 58.2422 58.1719 58.2422H57.4219V48.4102C57.4219 38.9414 57.4102 38.5664 57.1992 38.3086C56.8828 37.9219 56.0859 37.9219 55.7695 38.3086C55.5586 38.5664 55.5469 38.9414 55.5469 48.4102V58.2422H52.793H50.0391V36.3867V14.5312H52.793H55.5469V24.832C55.5469 35.0625 55.5469 35.1211 55.793 35.4375C56.1211 35.8477 56.7305 35.8594 57.1289 35.4492L57.4219 35.168V24.5273C57.4219 14.1211 57.4102 13.875 57.1875 13.5C57.0586 13.2891 56.7891 13.0195 56.5781 12.8906C56.2148 12.668 55.9805 12.6562 52.7812 12.6562C49.4297 12.6562 49.3594 12.6562 48.9727 12.9258ZM32.6953 42.1289V58.2422H30H27.3047V42.1289V26.0156H30H32.6953V42.1289ZM21.3281 47.8125V58.2422H18.5742H15.8203V47.8125V37.3828H18.5742H21.3281V47.8125ZM9.96094 50.6836V58.2422H7.20703H4.45312V50.6836V43.125H7.20703H9.96094V50.6836Z" fill="#1362A2"/>
</g>
<defs>
<clipPath id="clip0_1015_9555">
<rect width="60" height="60" fill="white"/>
</clipPath>
</defs>
</svg>
