<svg width="61" height="60" viewBox="0 0 61 60" fill="none" xmlns="http://www.w3.org/2000/svg">
<g clip-path="url(#clip0_1015_9527)">
<path d="M40.5664 6.76172C39.6641 7.23047 39.2539 7.85156 39.1953 8.88281L39.1484 9.66797L33.7578 12.5625L28.3789 15.457L16.5781 15.9258C9.55859 16.207 4.58984 16.4531 4.30859 16.5352C3.47656 16.7695 2.5625 17.3086 2.01172 17.8945C1.27344 18.668 1.02734 19.0547 0.746094 19.8984C0.511719 20.5898 0.5 20.8477 0.5 26.4609C0.5 31.8984 0.511719 32.3555 0.722656 32.9531C1.36719 34.8164 2.91406 36.1289 4.83594 36.4336C5.25781 36.5039 6.125 36.5625 6.76953 36.5742C7.41406 36.5859 8.24609 36.6211 8.60938 36.668L9.28906 36.7383L10.9883 39.082L12.6758 41.4258L12.6875 43.0078C12.6992 44.707 12.7461 44.8945 13.3086 45.1055C13.7305 45.2695 14.2578 45.0703 14.4336 44.6953C14.5156 44.5195 14.5625 43.6992 14.5625 42.6094C14.5625 40.5586 14.75 41.0156 12.9688 38.5547C12.3828 37.7461 11.8672 37.0195 11.8086 36.9258C11.7266 36.7852 12.0547 36.7734 13.9297 36.8438C15.1484 36.8789 16.6836 36.9492 17.3516 36.9961L18.5469 37.0664L18.5234 44.1445L18.4883 51.2344L18.207 51.457C17.9727 51.6445 17.7383 51.6797 16.5078 51.6797C14.5273 51.6797 14.5625 51.7148 14.5625 49.4297C14.5625 47.8828 14.5391 47.6953 14.3164 47.4141C14 47.0039 13.3086 46.9922 12.9453 47.3789C12.6992 47.6367 12.6875 47.7656 12.6875 49.582C12.6875 51.7031 12.793 52.1133 13.4609 52.7812C14.1172 53.4375 14.5625 53.5547 16.4258 53.5547C17.3516 53.5547 18.3125 53.4961 18.5586 53.4258C19.1445 53.2383 19.7891 52.7109 20.1055 52.1133C20.3633 51.6328 20.3633 51.5273 20.3984 46.7461L20.4336 41.8711L21.1602 41.7891C22.4609 41.6602 23.7734 40.8633 24.5352 39.7617C24.9336 39.1875 25.3438 38.0977 25.3438 37.6055V37.2773L26.8438 37.3477L28.332 37.4062L33.7227 40.3008L39.1133 43.1836L39.1836 43.9453C39.2539 44.8359 39.4766 45.3164 40.0156 45.7617C40.6953 46.3359 41.0703 46.4297 42.6289 46.3828C43.9531 46.3477 44.082 46.3242 44.5391 46.0195C44.8086 45.8438 45.1719 45.4805 45.3477 45.2109L45.6758 44.7188L45.7344 39.8672L45.793 35.0039L46.5195 34.5703C48.0898 33.6094 49.1562 32.4609 50.0234 30.7969C50.7852 29.3086 51.0312 28.2656 51.0312 26.4844C51.043 24.7031 50.7969 23.6602 50 22.0312C49.5312 21.0938 49.2734 20.7539 48.3242 19.793C47.6094 19.0781 46.9297 18.5156 46.4727 18.2695L45.7461 17.8711L45.7109 12.9844L45.6758 8.10938L45.3242 7.60547C45.1016 7.28906 44.7383 6.97266 44.3398 6.77344C43.7656 6.46875 43.6016 6.44531 42.4648 6.44531C41.3281 6.44531 41.1406 6.48047 40.5664 6.76172ZM43.625 8.55469C43.8594 8.78906 43.8594 8.94141 43.8594 26.4258C43.8594 46.8516 44.0352 44.5312 42.4766 44.5312C41.8438 44.5312 41.4922 44.4727 41.3047 44.3438L41.0469 44.168V26.4727C41.0469 5.97656 40.8594 8.32031 42.4531 8.32031C43.2383 8.32031 43.4258 8.35547 43.625 8.55469ZM39.1367 40.9805C39.1133 40.9922 36.8281 39.7969 34.0625 38.2969C30.0547 36.1406 28.9297 35.5781 28.5078 35.543C27.793 35.4844 19.0625 35.1562 18.2539 35.1562H17.6094V29.6484C17.6094 25.8164 17.5742 24.0586 17.4805 23.8594C17.3164 23.4961 16.8125 23.2852 16.3906 23.3906C15.7227 23.5547 15.7344 23.4609 15.7344 29.4961V35.0391H15.043C14.668 35.0391 14.1875 35.0039 13.9883 34.9688L13.625 34.8867V26.4141V17.9297H13.8945C14.0352 17.9297 14.5039 17.8945 14.9375 17.8477L15.7344 17.7773V19.3594C15.7344 20.7773 15.7578 20.9531 15.9688 21.1875C16.2734 21.5156 16.8945 21.5273 17.2695 21.2227C17.5391 21.0117 17.5508 20.9062 17.6094 19.3711L17.668 17.7539L23.293 17.543L28.918 17.332L34.0156 14.5898L39.1133 11.8594L39.1484 26.3906C39.1602 34.3945 39.1602 40.957 39.1367 40.9805ZM11.75 26.4727V34.8984L10.5547 34.8398C4.68359 34.5938 5.02344 34.6172 4.35547 34.3125C3.55859 33.9375 3.00781 33.3867 2.65625 32.6367L2.375 32.0508V26.4258V20.8008L2.65625 20.2148C3.00781 19.4766 3.66406 18.8438 4.42578 18.5039C5.03516 18.2344 6.61719 18.1172 10.3203 18.0703L11.75 18.0469V26.4727ZM47.3047 21.457C48.5469 22.8281 49.1797 24.5742 49.168 26.543C49.1562 27.9258 48.8164 29.1445 48.1133 30.3281C47.668 31.0781 46.7422 32.1094 46.0977 32.5664L45.7344 32.8242V26.4258V20.0156L46.2031 20.3906C46.4609 20.5898 46.9531 21.0703 47.3047 21.457ZM23.2109 37.2188C23.5391 37.3125 23.5391 37.5234 23.1875 38.2617C22.7656 39.1758 21.9453 39.7852 20.9492 39.9258L20.4219 39.9961V38.5664V37.1484H21.6875C22.3789 37.1484 23.0586 37.1836 23.2109 37.2188Z" fill="#1362A2"/>
<path d="M55.0277 17.5433C53.0589 18.7504 52.7894 19.1254 53.3636 19.8519C53.7855 20.391 54.2308 20.2855 55.9066 19.2543C57.8284 18.0824 57.9691 17.9535 57.9691 17.4261C57.9691 16.8519 57.6527 16.5238 57.1136 16.5238C56.7855 16.5238 56.305 16.7582 55.0277 17.5433Z" fill="#1362A2"/>
<path d="M55.4027 25.7812C55.098 26.1211 55.1097 26.7773 55.4378 27.1055C55.6956 27.3516 55.7894 27.3633 57.8519 27.3633C59.8089 27.3633 60.0316 27.3398 60.2542 27.1406C60.5824 26.8359 60.5941 26.1094 60.266 25.7812C60.0433 25.5586 59.8792 25.5469 57.8285 25.5469C55.7425 25.5469 55.6019 25.5586 55.4027 25.7812Z" fill="#1362A2"/>
<path d="M53.363 32.9996C53.0817 33.3511 53.0465 33.8433 53.2692 34.1363C53.3395 34.2418 54.1481 34.7808 55.0505 35.3433C56.8317 36.4332 57.2653 36.5621 57.7223 36.105C58.0036 35.8238 58.0505 35.1675 57.8161 34.8746C57.734 34.7808 56.9255 34.2418 56.0348 33.691C54.195 32.566 53.7848 32.4605 53.363 32.9996Z" fill="#1362A2"/>
</g>
<defs>
<clipPath id="clip0_1015_9527">
<rect width="60" height="60" fill="white" transform="translate(0.5)"/>
</clipPath>
</defs>
</svg>
