<svg width="61" height="60" viewBox="0 0 61 60" fill="none" xmlns="http://www.w3.org/2000/svg">
<path d="M19.6012 0.128906C16.9879 0.28125 13.7301 0.585938 12.898 0.761719C10.3434 1.28906 8.15195 3.44531 7.54257 6.04688C7.40195 6.60938 7.36679 6.65625 6.90976 6.79688C5.55039 7.19531 4.20273 8.28516 3.61679 9.48047C3.17148 10.3828 3.04257 11.0391 3.10117 12.2695C3.13632 13.2539 3.19492 13.5234 3.51132 14.2148C4.00351 15.2344 4.99961 16.2891 5.92539 16.7578C6.31211 16.9453 6.71054 17.1094 6.80429 17.1094C6.9332 17.1094 6.95664 17.2031 6.89804 17.4727C6.86289 17.6719 6.82773 18.5391 6.82773 19.3828V20.9297L6.17148 21.2109C5.18711 21.6094 4.1207 22.6641 3.56992 23.7656C3.13632 24.6562 3.13632 24.668 3.13632 26.1328C3.13632 27.5977 3.13632 27.6094 3.56992 28.4883C3.86289 29.0742 4.22617 29.5781 4.63632 29.9648L5.26914 30.5625L4.63632 31.1953C4.23789 31.582 3.83945 32.1445 3.56992 32.6836C3.13632 33.5508 3.13632 33.5742 3.13632 35.0391C3.13632 36.5156 3.13632 36.5156 3.58164 37.4062C3.88632 38.0391 4.21445 38.4844 4.71836 38.9414C5.36289 39.5508 6.47617 40.1953 6.87461 40.1953C7.06211 40.1953 7.08554 40.4531 7.29648 44.0039C7.42539 46.3359 7.56601 47.0156 8.16367 48.2227C9.21836 50.332 11.2691 51.7031 13.859 52.0195C15.0426 52.1719 18.7926 52.4531 20.9723 52.5703L22.5191 52.6523L23.0816 53.3672C23.3863 53.7539 24.1129 54.5625 24.6988 55.1367C28.0738 58.5352 31.7418 60 36.8277 60C39.7926 60 42.3355 59.4727 45.0895 58.3008C51.1598 55.6992 56.0582 50.3906 57.5348 44.7656C57.898 43.4062 58.0269 40.6055 57.816 38.9648C57.4293 36.0703 56.234 32.8945 54.3355 29.707C52.859 27.2227 52.4371 24.7617 52.9996 21.9141C53.3277 20.2148 53.2691 19.1133 52.8121 18.7852C52.5074 18.5625 51.898 18.5977 51.5816 18.8555C51.3355 19.0547 51.3004 19.1602 51.3355 19.8633C51.3473 20.2969 51.2769 21 51.1715 21.4219C50.9137 22.5 50.8199 24.9727 51.0074 26.1094C51.2887 27.8906 51.8277 29.2734 53.0113 31.2422C54.8394 34.2891 55.8941 37.5703 56.0113 40.6289C56.1168 43.207 55.7887 44.6953 54.6168 47.0508C52.0738 52.1367 46.9996 56.1562 41.3395 57.5859C39.6988 57.9961 38.5855 58.125 36.734 58.125C33.4645 58.125 30.6988 57.3516 28.4137 55.793C27.5348 55.1953 25.8355 53.707 25.4371 53.1797L25.1207 52.7578L28.1324 52.6875C33.3355 52.5469 38.7262 52.1719 40.0504 51.8438C42.6637 51.2109 44.8082 49.0195 45.3121 46.4648C45.4059 46.0078 45.5348 44.5664 45.6051 43.2422C45.6754 41.918 45.7691 40.3359 45.8043 39.7148L45.8746 38.5898L46.3551 38.6367C46.7418 38.6836 46.9059 38.6367 47.1168 38.4375C47.527 38.0508 47.4684 37.4648 46.9176 36.75C44.7496 33.9023 43.4488 30.5391 43.027 26.6602C42.7574 24.1172 43.1441 20.1094 43.8004 18.668C44.5035 17.1328 46.3668 16.1016 47.9371 16.4062C48.6754 16.5469 48.9801 16.6641 49.6598 17.0977C50.3277 17.5195 50.6324 17.5547 51.0543 17.2148C51.2887 17.0273 51.359 16.875 51.359 16.5352C51.359 15.9961 51.2301 15.8203 50.4801 15.3516C49.3551 14.6602 47.4684 14.3086 46.2496 14.5781L45.8863 14.6602L45.8043 13.1016C45.4762 6.38672 45.4176 5.90625 44.7262 4.48828C44.4098 3.80859 44.0816 3.36328 43.402 2.70703C42.3824 1.6875 41.4684 1.14844 40.2027 0.832031C39.3238 0.609375 36.3707 0.316406 32.902 0.117188C30.5934 -0.0117188 21.9098 -0.0117188 19.6012 0.128906ZM32.6676 2.00391C35.3512 2.13281 38.6207 2.41406 39.441 2.57812C41.3863 2.97656 43.0504 4.64062 43.4957 6.62109C43.6129 7.19531 43.9762 13.1719 43.9762 14.707V15.4922L43.3316 16.1016C42.7223 16.6758 42.6871 16.6875 42.6871 16.4062C42.6871 14.8242 42.3121 9.79688 42.148 9.25781C41.7262 7.82812 40.9176 6.70312 39.7809 5.92969C38.7848 5.26172 37.8941 4.96875 36.3707 4.81641C34.0621 4.57031 33.7105 4.64062 33.4879 5.36719C33.3824 5.73047 32.8785 6.30469 32.4918 6.50391C31.8004 6.85547 27.1129 7.08984 23.9488 6.91406C20.2926 6.71484 20.0113 6.63281 19.4723 5.51953C19.2965 5.16797 19.0621 4.83984 18.9566 4.76953C18.6871 4.62891 16.2965 4.75781 15.2418 4.98047C12.9449 5.46094 10.9762 7.46484 10.5894 9.72656C10.2262 11.7891 9.94492 21.5273 10.0269 28.8867C10.1324 37.7227 10.3785 42.5156 10.8121 43.7578C11.398 45.4805 12.8043 46.875 14.5504 47.4609C15.523 47.7891 17.4215 47.9883 17.8434 47.8125C18.4644 47.5547 18.5816 46.582 18.0309 46.2305C17.9019 46.1484 17.2574 46.0195 16.6129 45.9492C14.6793 45.7266 13.5074 44.9883 12.7926 43.5352C12.4879 42.9141 12.4176 42.5859 12.3355 41.5195C11.773 34.3359 11.773 18.2344 12.3355 11.0977C12.4527 9.52734 12.8394 8.625 13.7535 7.80469C14.4801 7.14844 15.3004 6.83203 16.7066 6.67969C17.7613 6.55078 17.7848 6.55078 17.9605 6.82031C18.3238 7.40625 19.1324 8.07422 19.7418 8.29688C20.6324 8.63672 23.0582 8.8125 26.5152 8.8125C29.7144 8.8125 31.9879 8.64844 32.9605 8.35547C33.441 8.20312 33.7691 7.99219 34.2613 7.5C34.6246 7.14844 34.941 6.78516 34.9762 6.70312C35.0113 6.57422 35.234 6.5625 36.1832 6.66797C38.3043 6.91406 39.6051 7.81641 40.2379 9.50391C40.4254 9.98438 40.5074 10.6992 40.648 13.1719C41.0816 20.9414 41.0816 31.6641 40.6363 39.4453C40.4605 42.75 40.3551 43.2305 39.6871 44.2031C39.2184 44.8711 38.2457 45.5273 37.3785 45.75C35.8082 46.1484 32.5973 46.3359 26.4215 46.3594C20.1519 46.3828 20.2809 46.3711 20.0582 46.957C19.9293 47.3086 20.1402 47.8945 20.4684 48.0703C20.8316 48.2695 28.7887 48.3398 31.8004 48.1758C35.2809 47.9766 37.4723 47.7305 38.316 47.4492C40.1793 46.8281 41.7262 45.1523 42.1949 43.2305C42.3473 42.6094 42.5348 40.0664 42.6285 37.1484C42.6637 36.0234 42.7223 34.7578 42.7574 34.3359L42.8277 33.5859L43.4488 34.8047L44.0816 36.0234L43.9762 38.4258C43.777 42.9023 43.6012 45.5273 43.4957 46.043C43.2145 47.3438 42.0895 48.8672 40.9645 49.4766C40.0855 49.957 39.277 50.1328 37.1207 50.332C29.4918 51.0117 20.5035 50.9531 14.0465 50.1562C11.9137 49.8984 10.2613 48.6094 9.5582 46.6758C9.34726 46.0898 9.25351 45.5039 9.17148 44.1328C8.72617 36.9961 8.53867 28.0547 8.70273 20.7773C8.89023 11.9531 9.15976 7.08984 9.51132 6.05859C10.0738 4.41797 11.3629 3.1875 13.0269 2.69531C13.8707 2.44922 16.566 2.17969 20.1871 1.99219C24.1363 1.78125 28.2262 1.78125 32.6676 2.00391ZM7.26132 9.28125C7.21445 9.62109 7.15586 10.6875 7.1207 11.6602C7.03867 14.0273 6.94492 15.1172 6.83945 15.1172C6.62851 15.1172 5.63242 14.1211 5.33945 13.6289C4.70664 12.5391 4.85898 10.7812 5.67929 9.79688C6.03086 9.36328 6.98007 8.67188 7.21445 8.67188C7.27304 8.67188 7.29648 8.94141 7.26132 9.28125ZM6.76914 26.1328C6.76914 27.8086 6.73398 29.1797 6.69882 29.1797C6.45273 29.1797 5.60898 28.2305 5.29257 27.5977C4.96445 26.918 4.92929 26.7656 4.97617 25.9922C5.02304 24.9492 5.36289 24.2109 6.08945 23.543C6.35898 23.2969 6.62851 23.0859 6.68711 23.0859C6.73398 23.0859 6.76914 24.457 6.76914 26.1328ZM6.82773 32.7891C6.82773 33.2344 6.86289 34.6406 6.90976 35.9062L6.98007 38.2266L6.62851 38.0391C6.07773 37.7578 5.33945 36.8438 5.11679 36.1875C4.84726 35.3789 4.92929 34.2188 5.30429 33.4688C5.57382 32.9531 6.48789 31.9922 6.72226 31.9922C6.78086 31.9922 6.82773 32.3555 6.82773 32.7891Z" fill="#1362A2"/>
<path d="M22.2147 3.51562C21.6874 3.72656 21.5585 4.45312 21.9569 4.96875L22.1913 5.27344H26.41C30.4647 5.27344 30.6288 5.26172 30.8514 5.03906C31.2147 4.67578 31.1678 3.94922 30.7811 3.64453C30.4764 3.41016 30.3475 3.39844 26.4686 3.41016C24.2772 3.41016 22.3553 3.45703 22.2147 3.51562Z" fill="#1362A2"/>
<path d="M30.9094 17.2031C30.6515 17.332 30.3 17.5781 30.1242 17.7656C29.9601 17.9531 28.9055 19.9453 27.7805 22.1953L25.7297 26.2852L24.9562 24.9961C24.0305 23.4609 23.5969 23.0391 22.7414 22.8516C21.8742 22.6523 21.464 22.793 19.6828 23.8477C17.8664 24.9258 17.5851 25.2773 17.5148 26.4844C17.4562 27.457 17.3508 27.2344 20.3976 32.2852C22.2492 35.3555 22.6711 35.9648 23.1047 36.2695L23.6086 36.6211L25.7883 36.5859C26.9836 36.5742 28.1672 36.5039 28.4133 36.4336C29.4094 36.1758 29.468 36.0586 33.1594 28.5937C35.0578 24.7617 36.6633 21.3984 36.7336 21.1289C36.8156 20.7656 36.8156 20.4727 36.7101 20.0391C36.4875 19.125 35.9719 18.668 34.214 17.8008C32.468 16.9453 31.7297 16.8164 30.9094 17.2031ZM33.3703 19.5352C34.1203 19.8984 34.7883 20.3086 34.8586 20.4375C34.964 20.625 34.425 21.7852 31.6008 27.4687C29.7492 31.2187 28.132 34.3594 28.0265 34.4648C27.8625 34.6172 27.4406 34.6758 26.1398 34.7344C25.214 34.7812 24.3703 34.7812 24.2531 34.7461C23.9719 34.6289 19.3664 26.9297 19.3664 26.5547C19.3664 26.3086 19.5656 26.1445 20.7609 25.4297C21.9445 24.7148 22.1906 24.6094 22.4015 24.7148C22.5305 24.7852 23.1515 25.6992 23.7726 26.7539C24.3937 27.7969 25.0148 28.7695 25.1437 28.9102C25.4133 29.2148 25.7531 29.2852 26.2101 29.1328C26.5148 29.0391 26.7844 28.5469 28.9523 24.1523C30.2648 21.4687 31.425 19.1836 31.5305 19.0664C31.6242 18.9609 31.7765 18.8672 31.8586 18.8672C31.9406 18.8672 32.6203 19.1719 33.3703 19.5352Z" fill="#1362A2"/>
</svg>
