<svg width="60" height="60" viewBox="0 0 60 60" fill="none" xmlns="http://www.w3.org/2000/svg">
<path d="M25.5821 3.51568C23.2266 3.86724 20.8125 5.22662 19.336 7.06646C18.586 7.99224 17.7657 9.63287 17.4493 10.8399C17.2266 11.6485 17.1914 12.211 17.1446 14.8477L17.086 17.9297H13.6055C9.30473 17.9415 8.07426 18.0352 6.66801 18.5157C5.10941 19.0313 4.08988 19.6758 2.85941 20.9063C1.62895 22.1368 1.00785 23.1329 0.445352 24.7383L0.0586333 25.8399L0.0234771 31.9571C-0.0116792 37.9805 -0.0116792 38.0743 0.234415 38.3204C0.539102 38.6251 1.20707 38.6368 1.51176 38.3321C1.7227 38.1211 1.73441 37.8165 1.79301 32.379C1.83988 25.9805 1.83988 26.0508 2.71879 24.2579C3.4102 22.8516 4.81645 21.4336 6.21098 20.7657C7.95707 19.9102 8.0977 19.8868 12.8438 19.8399L17.086 19.7813L17.1446 23.0508C17.1914 25.8985 17.2266 26.4258 17.4493 27.2461C18.4805 31.1016 21.4922 33.879 25.3594 34.5586C25.793 34.6407 28.4063 34.6876 32.1211 34.6876H38.1914L39.6211 36.293L41.0391 37.9102L40.9688 39.2579C40.8985 40.8868 40.6993 41.7071 40.0547 43.0079C39.668 43.8165 39.375 44.2032 38.5664 45.0001C37.4297 46.1368 36.4688 46.711 35.0391 47.0977C34.2071 47.3321 33.8672 47.3438 27.7149 47.3438C22.7579 47.3438 21.1993 47.379 20.9766 47.4961C20.8125 47.5782 19.3594 49.1485 17.7539 50.9766C15.961 53.0274 14.6602 54.3985 14.4141 54.5274C13.6524 54.9258 12.7852 54.6329 12.2227 53.7891C11.9649 53.4141 11.9532 53.3086 11.9532 50.7305C11.9532 47.2618 12.0821 47.461 9.77348 47.3438C7.20707 47.2032 5.80082 46.6055 4.1602 44.9532C3.09379 43.8751 2.49613 42.8672 2.12113 41.4844C1.81645 40.3711 1.39457 40.0313 0.668008 40.3008C-0.0233979 40.5704 -0.0233979 41.379 0.65629 43.0782C1.12504 44.2618 1.65238 45.0938 2.53129 46.043C4.30082 47.9532 6.52738 49.043 8.92973 49.1836L10.0664 49.254L10.1016 51.6094C10.1368 54.2579 10.2305 54.5977 11.0977 55.4883C12.4102 56.8477 14.8125 56.9063 16.1602 55.629C16.3711 55.418 17.7305 53.8946 19.1836 52.2305L21.8204 49.2188H28.0547C34.793 49.2188 35.0625 49.1954 36.6329 48.5626C37.875 48.0704 38.7422 47.5079 39.75 46.5469C40.7461 45.5977 41.5196 44.5313 42.0118 43.418C42.375 42.5977 42.7735 41.0274 42.7735 40.4063V39.961L43.5704 40.7579C44.1446 41.3555 44.5079 41.6133 44.9297 41.754C45.6563 42.0001 46.9102 42.0118 47.6133 41.7657C48.3164 41.5313 49.1485 40.7813 49.5469 40.0313C49.8516 39.4454 49.8633 39.3751 49.8985 37.0547L49.9336 34.6876H50.5664C52.0547 34.6876 54.1875 34.0313 55.5235 33.1524C57.4922 31.8633 58.875 30.0469 59.6602 27.7149L59.9414 26.8946L59.9766 19.4297C60.0118 12.2813 60 11.918 59.7774 10.9688C58.9688 7.5938 56.461 4.89849 53.1563 3.87896C51.75 3.44537 51.1875 3.58599 51.0235 4.41802C50.918 4.95708 51.3164 5.29693 52.5 5.67193C54.75 6.38677 56.4375 7.86333 57.4219 9.99615C58.1602 11.5665 58.1602 11.5665 58.2188 18.1172C58.2422 21.9141 58.2188 24.5743 58.1368 25.3711C57.9141 27.5626 57.2696 28.9688 55.7813 30.4805C54.2579 32.0157 52.2891 32.8008 49.9571 32.8126C48.7618 32.8126 48.375 32.9297 48.1758 33.3633C48.0938 33.5391 48.0469 34.5938 48.0469 36.2579C48.0469 38.7774 48.0352 38.8829 47.7774 39.2579C47.2852 40.0079 46.3829 40.2891 45.586 39.961C45.3516 39.8672 44.25 38.6954 42.3985 36.5743C40.8516 34.793 39.4805 33.2344 39.3516 33.1055C39.1407 32.8829 38.9414 32.8711 32.3086 32.8126L25.4883 32.754L24.4805 32.3907C22.4883 31.6758 20.836 30.2461 19.9336 28.4415C19.043 26.6602 19.0664 26.836 19.0079 19.6876C18.9844 15.6915 19.0196 12.961 19.0899 12.3985C19.5235 9.19927 21.586 6.70318 24.668 5.64849L25.6055 5.33208L37.2188 5.29693C48.6563 5.26177 48.8321 5.26177 49.0782 5.0274C49.4649 4.67583 49.4297 3.96099 49.0313 3.64458C48.7149 3.39849 48.6797 3.39849 37.4532 3.41021C31.2657 3.42193 25.9219 3.4688 25.5821 3.51568Z" fill="#1362A2"/>
<path d="M37.2303 10.6757C35.9881 10.9687 34.6053 11.9765 33.867 13.1249C33.0818 14.3437 32.7654 16.3476 33.281 16.8163C33.6092 17.121 34.2771 17.1093 34.5818 16.7929C34.7459 16.6288 34.8513 16.3124 34.9217 15.7968C35.3787 12.0937 40.0896 11.1679 41.8943 14.4257C42.2107 14.9999 42.2459 15.164 42.2459 16.1132C42.2459 17.0273 42.199 17.2499 41.9295 17.7538C41.5662 18.4569 40.7459 19.2538 40.1131 19.5116C39.867 19.6171 39.3279 19.7577 38.906 19.8163C37.7576 19.9804 37.6873 20.0976 37.6404 21.7499C37.5935 23.3319 37.6638 23.8359 37.9803 24.1523C38.2849 24.4569 38.9529 24.4452 39.2576 24.1405C39.4568 23.9413 39.492 23.7538 39.492 22.8046V21.6913L40.1717 21.5038C41.1912 21.2109 41.906 20.7655 42.656 19.9687C43.7224 18.8202 44.1678 17.6835 44.1795 16.1132C44.1795 13.5702 42.4803 11.3671 40.0193 10.7109C39.3631 10.5351 37.9099 10.5116 37.2303 10.6757Z" fill="#1362A2"/>
<path d="M38.0039 26.1911C37.5469 26.5075 37.6055 27.5154 38.086 27.7732C38.4375 27.9607 38.9649 27.9021 39.2344 27.656C39.5742 27.3396 39.586 26.5779 39.2578 26.2497C38.9766 25.9685 38.3672 25.945 38.0039 26.1911Z" fill="#1362A2"/>
<path d="M16.6992 37.0664C16.4531 37.2656 16.3828 37.4414 16.3828 37.7812C16.3828 38.3672 16.7227 38.7188 17.2734 38.7188C17.8594 38.7188 18.1641 38.4023 18.1641 37.7812C18.1641 36.9141 17.3438 36.5156 16.6992 37.0664Z" fill="#1362A2"/>
<path d="M20.9294 37.0428C20.5544 37.3357 20.5075 38.0271 20.8356 38.4373C21.1052 38.7654 21.8083 38.8006 22.1364 38.5076C22.6286 38.0623 22.5349 37.1951 21.9606 36.9256C21.5388 36.7381 21.281 36.7615 20.9294 37.0428Z" fill="#1362A2"/>
<path d="M24.9138 37.0428C24.5388 37.3357 24.4919 38.0271 24.82 38.4373C25.0895 38.7654 25.7927 38.8006 26.1208 38.5076C26.613 38.0623 26.5192 37.1951 25.945 36.9256C25.5231 36.7381 25.2653 36.7615 24.9138 37.0428Z" fill="#1362A2"/>
</svg>
