<svg width="60" height="60" viewBox="0 0 60 60" fill="none" xmlns="http://www.w3.org/2000/svg">
<g clip-path="url(#clip0_1015_9660)">
<path d="M10.0198 9.83203C8.91828 10.1133 7.92219 10.8984 7.40656 11.8945L7.09016 12.4805L7.055 17.25L7.01985 22.0312H3.76203C0.656564 22.0312 0.50422 22.043 0.258127 22.2656C-0.128592 22.6289 -0.0934359 23.3438 0.305002 23.6602C0.609689 23.9062 0.726877 23.9062 6.15266 23.9062C11.5784 23.9062 11.6956 23.9062 12.0003 23.6602C12.4105 23.3438 12.4222 22.6523 12.0355 22.2891C11.7894 22.0547 11.637 22.0312 10.2777 22.0312H8.78938L8.8011 17.8945C8.81281 15.6328 8.84797 13.6289 8.89485 13.4414C8.96516 13.1367 9.42219 13.5703 17.4027 21.5625L25.8402 30L17.4027 38.4375C9.42219 46.4297 8.96516 46.8633 8.89485 46.5586C8.84797 46.3711 8.81281 44.8594 8.8011 43.1719C8.78938 40.1367 8.78938 40.1133 8.51985 39.8672C8.16828 39.5391 7.62922 39.5391 7.27766 39.8555L7.01985 40.1016L7.055 43.8047L7.09016 47.5195L7.40656 48.1055C7.78156 48.832 8.60188 49.6055 9.35188 49.957L9.90266 50.2148H33.5159H57.1292L57.7855 49.8867C58.5238 49.5352 59.2503 48.8086 59.6722 48.0234L59.9417 47.5195V30V12.4805L59.6253 11.8945C59.2503 11.168 58.4183 10.3828 57.68 10.043L57.1292 9.78516L33.7503 9.76172C20.8948 9.76172 10.2191 9.78516 10.0198 9.83203ZM56.5316 11.6953C56.5667 11.7539 52.0433 16.3359 46.4886 21.8789C35.4495 32.8945 36.012 32.4023 34.3011 32.6953C33.7034 32.8008 33.3284 32.8008 32.7308 32.6953C31.0198 32.4023 31.5823 32.8945 20.5433 21.8789C14.9886 16.3359 10.4652 11.7539 10.5003 11.6953C10.5823 11.5664 56.4495 11.5664 56.5316 11.6953ZM58.2191 30C58.2191 38.9297 58.1839 46.3711 58.137 46.5586C58.0667 46.8633 57.6097 46.4297 49.6292 38.4375L41.1917 30L49.6292 21.5625C57.6097 13.5703 58.0667 13.1367 58.137 13.4414C58.1839 13.6289 58.2191 21.0703 58.2191 30ZM29.8011 33.6094C32.0159 34.957 34.9573 34.9688 37.1253 33.668C37.5238 33.4219 38.2972 32.8125 38.8363 32.3203L39.8089 31.4297L48.2113 39.832C52.8284 44.4492 56.5784 48.2695 56.5316 48.3164C56.4144 48.4219 10.6175 48.4219 10.5003 48.3164C10.4534 48.2695 14.2034 44.4492 18.8206 39.832L27.223 31.4297L28.1956 32.3203C28.7347 32.8242 29.4495 33.3984 29.8011 33.6094Z" fill="#1362A2"/>
<path d="M7.28938 25.7812C7.055 26.0039 7.03156 26.1328 7.03156 27.5391V29.0625H3.77375C0.656564 29.0625 0.50422 29.0742 0.258127 29.2969C-0.128592 29.6602 -0.0934359 30.375 0.305002 30.6914C0.609689 30.9375 0.715158 30.9375 7.91047 30.9375C15.1058 30.9375 15.2113 30.9375 15.5159 30.6914C15.9261 30.375 15.9378 29.6836 15.5511 29.3203C15.2816 29.0625 15.1995 29.0625 12.0355 29.0625H8.78938V27.5625C8.78938 26.1445 8.77766 26.0391 8.51985 25.8047C8.18 25.4766 7.62922 25.4766 7.28938 25.7812Z" fill="#1362A2"/>
<path d="M7.28938 32.8125C7.055 33.0352 7.03156 33.1641 7.03156 34.5703V36.0938H3.77375C0.656564 36.0938 0.50422 36.1055 0.258127 36.3281C-0.128592 36.6914 -0.0934359 37.4062 0.305002 37.7227C0.609689 37.9688 0.726877 37.9688 6.15266 37.9688C11.5784 37.9688 11.6956 37.9688 12.0003 37.7227C12.4105 37.4062 12.4222 36.7148 12.0355 36.3516C11.7894 36.1172 11.637 36.0938 10.2777 36.0938H8.78938V34.5938C8.78938 33.1758 8.77766 33.0703 8.51985 32.8359C8.18 32.5078 7.62922 32.5078 7.28938 32.8125Z" fill="#1362A2"/>
</g>
<defs>
<clipPath id="clip0_1015_9660">
<rect width="60" height="60" fill="white"/>
</clipPath>
</defs>
</svg>
