<svg width="60" height="60" viewBox="0 0 60 60" fill="none" xmlns="http://www.w3.org/2000/svg">
<g clip-path="url(#clip0_1015_9668)">
<path d="M16.4648 4.91016C15.6562 5.12109 15.1289 5.51953 14.1211 6.70312C13.5469 7.37109 13.0312 7.98047 12.9609 8.05078C12.8555 8.16797 12.7266 8.15625 12.3633 7.96875C11.4961 7.54688 10.6875 7.47656 6.57422 7.52344C2.75391 7.55859 2.61328 7.57031 2.05078 7.82812C1.35938 8.14453 0.667969 8.78906 0.316406 9.43359C0.0703125 9.89062 0.0585938 10.043 0.0234375 14.5078L-0.0117188 19.1133L0.269531 19.7344C0.621094 20.4961 1.26562 21.1641 1.98047 21.4922C2.49609 21.7266 2.68359 21.7383 7.08984 21.7383H11.6602L12.2344 21.4453C12.9609 21.0703 13.7578 20.1914 13.9922 19.4883C14.1211 19.1016 14.1797 18.5156 14.1797 17.4961V16.0547L16.8281 12.9727C18.2812 11.2852 19.6055 9.67969 19.7695 9.41016C20.1328 8.78906 20.25 7.73438 20.0391 6.97266C19.8633 6.33984 19.1367 5.47266 18.5156 5.15625C18 4.89844 16.9805 4.76953 16.4648 4.91016ZM17.5078 6.84375C18.3164 7.18359 18.5039 7.95703 17.9531 8.68359C17.7773 8.90625 15.9727 11.0273 13.9453 13.3945C11.1211 16.6992 10.1719 17.7305 9.90234 17.8008C9.22266 17.9883 8.94141 17.7422 7.23047 15.5391C5.91797 13.8398 5.625 13.3828 5.625 13.0664C5.625 12.6211 5.98828 12.1055 6.42188 11.9414C6.98438 11.7305 7.41797 12 8.30859 13.125C9.19922 14.2617 9.59766 14.4844 10.125 14.1328C10.2773 14.0391 11.7539 12.375 13.418 10.4414C16.043 7.38281 16.5703 6.83203 17.0859 6.69141C17.0977 6.67969 17.2969 6.75 17.5078 6.84375ZM11.3789 9.57422C11.4844 9.67969 11.332 9.9375 10.6641 10.7227C10.1953 11.2734 9.78516 11.7188 9.72656 11.7188C9.67969 11.7188 9.43359 11.4609 9.16406 11.1445C8.32031 10.1484 7.13672 9.78516 5.89453 10.1367C5.35547 10.2891 5.08594 10.4648 4.62891 10.9336C4.26562 11.3086 3.98438 11.7305 3.89062 12.0234C3.69141 12.7266 3.71484 13.6875 3.97266 14.2383C4.18359 14.7188 6.76172 18.1406 7.41797 18.832C8.55469 20.0391 10.7578 19.9922 11.8945 18.7383C12.1875 18.4102 12.3047 18.3398 12.3047 18.4805C12.3047 18.8203 11.8711 19.4414 11.4609 19.6875C11.0977 19.9102 10.8633 19.9219 7.08984 19.9219C2.625 19.9219 2.53125 19.9102 2.05078 19.0898C1.82812 18.7148 1.81641 18.4453 1.78125 15.1758C1.75781 13.2422 1.76953 11.3789 1.81641 11.0391C1.91016 10.3125 2.37891 9.67969 2.97656 9.49219C3.52734 9.32812 11.2031 9.39844 11.3789 9.57422Z" fill="#1362A2"/>
<path d="M24.4805 7.61719C23.3672 7.80469 22.3359 8.58984 21.8672 9.59766C21.6328 10.1133 21.6211 10.3008 21.6211 14.6484C21.6211 19.1367 21.6211 19.1602 21.9023 19.7695C22.2539 20.5547 22.9805 21.2344 23.8359 21.5508L24.5039 21.7969L40.9922 21.7734L57.4805 21.7383L58.0195 21.4922C58.7344 21.1641 59.3789 20.4961 59.7305 19.7344L60.0117 19.1133L59.9766 14.5078C59.9414 10.043 59.9297 9.89062 59.6836 9.43359C59.332 8.78906 58.6523 8.14453 57.9492 7.82812L57.3633 7.55859L50.2734 7.52344C46.3711 7.5 43.0078 7.52344 42.7969 7.55859C41.9883 7.71094 41.6602 8.58984 42.2227 9.11719C42.4922 9.36328 42.5039 9.36328 49.7695 9.39844C56.918 9.43359 57.0586 9.43359 57.375 9.67969C57.5508 9.80859 57.8086 10.0664 57.9375 10.2422C58.1719 10.5586 58.1836 10.7109 58.1836 14.625C58.1836 18.4805 58.1719 18.7148 57.9492 19.0898C57.8203 19.3008 57.5273 19.582 57.3047 19.6992C56.918 19.9102 56.2734 19.9219 40.7695 19.9219H24.6445L24.2461 19.6523C23.4492 19.125 23.4375 19.0312 23.4375 14.6484C23.4375 10.2539 23.4492 10.1484 24.2695 9.66797C24.6562 9.44531 24.9141 9.43359 31.9453 9.39844C39.082 9.36328 39.2344 9.36328 39.4453 9.12891C39.7383 8.80078 39.7148 8.14453 39.3984 7.81641L39.1289 7.55859L32.0742 7.54688C28.1953 7.53516 24.7734 7.57031 24.4805 7.61719Z" fill="#1362A2"/>
<path d="M27.2228 13.8288C26.672 14.0515 26.5431 14.9069 26.9884 15.3288L27.2579 15.5866H40.7931C55.5587 15.5866 54.7149 15.6218 54.8907 14.9304C54.9962 14.5085 54.7853 14.0046 54.422 13.8405C54.0587 13.6765 27.6212 13.6647 27.2228 13.8288Z" fill="#1362A2"/>
<path d="M15.9375 21.7617C15.3633 22.0078 15 22.3477 13.8633 23.6719C13.3125 24.3164 12.8438 24.8437 12.8086 24.8437C12.7852 24.8437 12.5391 24.7266 12.2695 24.5742C11.7891 24.3164 11.6953 24.3164 7.19531 24.2812L2.61328 24.2461L1.875 24.6328C1.04297 25.0664 0.363281 25.8281 0.128906 26.6016C0.046875 26.8945 0 28.4883 0 31.3711C0 36.2344 0.0234375 36.3867 0.808594 37.2891C1.05469 37.5703 1.51172 37.9219 1.82812 38.0859L2.40234 38.3789L6.94922 38.4141L11.5078 38.4492L12.1289 38.1562C12.9492 37.7812 13.6406 37.0547 13.9453 36.2578C14.1328 35.7422 14.1797 35.3437 14.1797 34.1836V32.7422L16.8867 29.5898C18.4922 27.7148 19.7109 26.1914 19.875 25.8398C20.6016 24.3047 19.9219 22.5 18.3398 21.7852C17.7656 21.5156 16.5234 21.5039 15.9375 21.7617ZM17.9414 23.7773C18.3398 24.1758 18.3984 24.75 18.082 25.1953C17.9648 25.3594 16.1602 27.5039 14.0508 29.9531C10.6172 33.9609 10.1719 34.4297 9.79688 34.5C9.5625 34.5469 9.28125 34.5234 9.15234 34.4648C8.85938 34.3008 8.16797 33.4805 6.76172 31.6055C5.8125 30.3633 5.625 30.0469 5.625 29.6953C5.625 28.8633 6.59766 28.3242 7.33594 28.7461C7.47656 28.8281 7.89844 29.2852 8.27344 29.7656C9.10547 30.8437 9.22266 30.9258 9.69141 30.9375C10.1719 30.9375 10.1836 30.9258 13.5352 26.9883C15.0234 25.2422 16.3594 23.7305 16.5234 23.625C16.9922 23.332 17.543 23.3906 17.9414 23.7773ZM11.3555 26.2383C11.5547 26.3672 11.5781 26.332 10.5 27.5977C10.1133 28.043 9.77344 28.4414 9.75 28.4766C9.72656 28.5 9.57422 28.3477 9.39844 28.125C8.58984 27.082 7.92188 26.7187 6.79688 26.7187C5.44922 26.7187 4.38281 27.4336 3.92578 28.6406C3.67969 29.2852 3.72656 30.4453 4.01953 31.0547C4.24219 31.5 6.80859 34.8516 7.41797 35.4844C8.05078 36.1523 8.61328 36.3867 9.60938 36.3867C10.6289 36.3867 11.0391 36.2109 11.8125 35.4727C12.082 35.2031 12.3047 35.0508 12.3047 35.1328C12.3047 35.4961 11.9297 36.1055 11.5781 36.3281C11.2148 36.5508 10.9922 36.5625 7.11328 36.5625C2.625 36.5625 2.61328 36.5625 2.08594 35.8359L1.81641 35.4492V31.4062C1.81641 26.9062 1.82812 26.8359 2.61328 26.3672C2.96484 26.1445 3.22266 26.1328 7.08984 26.1328C9.35156 26.1328 11.2617 26.1797 11.3555 26.2383Z" fill="#1362A2"/>
<path d="M23.8239 24.457C23.1091 24.7031 22.2302 25.5352 21.902 26.2734C21.6208 26.8828 21.6208 26.9648 21.5856 30.9961C21.5505 33.8789 21.5856 35.2852 21.6794 35.7422C21.9138 36.7734 22.5349 37.6055 23.4958 38.1211L23.9645 38.3789H40.781H57.5974L58.1716 38.0859C58.488 37.9219 58.945 37.5703 59.1911 37.2891C59.9763 36.3867 59.9997 36.2344 59.9997 31.3711C59.9997 28.4883 59.9528 26.8945 59.8708 26.6016C59.6364 25.8398 58.9567 25.0664 58.1364 24.6445L57.3981 24.2578L40.863 24.2695C26.4841 24.2695 24.2458 24.3047 23.8239 24.457ZM57.3864 26.3672C58.1716 26.8359 58.1833 26.9062 58.1833 31.4062V35.4492L57.9138 35.8359C57.3513 36.6211 58.6052 36.5625 40.781 36.5625C22.6989 36.5625 24.1872 36.6328 23.6833 35.7422C23.4489 35.3203 23.4372 35.1445 23.4372 31.3945C23.4372 27.0234 23.4489 26.9297 24.2458 26.4023L24.6442 26.1328H40.8278C56.6716 26.1328 57.0231 26.1328 57.3864 26.3672Z" fill="#1362A2"/>
<path d="M26.9527 30.7271C26.648 31.0552 26.648 31.688 26.9409 31.981C27.0698 32.1099 27.3511 32.2505 27.562 32.2856C27.773 32.3208 33.9019 32.3325 41.1675 32.3208L54.398 32.2856L54.6792 31.9575C55.0191 31.5591 55.0425 31.1841 54.7144 30.7739L54.48 30.4692H40.8394H27.1988L26.9527 30.7271Z" fill="#1362A2"/>
<path d="M1.47696 41.0631C0.89102 41.2858 0.258208 41.8951 0.105864 42.4225C0.0355513 42.6803 0.000395056 44.7897 0.0238326 48.3053L0.0589888 53.7662L0.42227 54.2233C1.19571 55.1842 0.89102 55.1373 7.03165 55.1373C12.4691 55.1373 12.4809 55.1373 12.9731 54.8678C13.2543 54.7272 13.6176 54.3873 13.7934 54.1178L14.1215 53.6256L14.1566 48.1764L14.1801 42.7155L13.9223 42.1881C13.7582 41.8834 13.4418 41.5201 13.1488 41.3092L12.6332 40.9576L7.28946 40.9342C2.9418 40.9108 1.85196 40.9342 1.47696 41.0631ZM12.0824 42.8912C12.2934 43.0084 12.3051 43.1959 12.3051 48.0475C12.3051 52.899 12.2934 53.0865 12.0824 53.2037C11.9301 53.274 10.1371 53.3209 7.0668 53.3209C3.10586 53.3209 2.22696 53.2975 2.03946 53.1569C1.82852 52.9928 1.8168 52.7819 1.78165 48.1647C1.75821 43.9459 1.76993 43.2897 1.93399 43.0553L2.10977 42.774H6.98477C10.1137 42.774 11.9301 42.8209 12.0824 42.8912Z" fill="#1362A2"/>
<path d="M24.1058 41.0628C22.9104 41.391 21.9378 42.4339 21.68 43.6527C21.5979 44.0746 21.5628 45.6683 21.5862 48.4222C21.6214 52.3714 21.6331 52.5824 21.8675 53.098C22.1956 53.8011 22.9573 54.5628 23.6604 54.891C24.1878 55.1371 24.3167 55.1371 31.4065 55.1722C36.2698 55.1956 38.7542 55.1722 39.0354 55.0902C39.5276 54.9378 39.7854 54.4808 39.6565 53.9769C39.4925 53.2972 39.7269 53.3206 31.9339 53.3206C25.1956 53.3206 24.762 53.3089 24.3753 53.098C24.1526 52.9808 23.8597 52.7464 23.7308 52.5706C23.5081 52.266 23.4964 52.0902 23.4964 48.0472C23.4964 43.9808 23.5081 43.8402 23.7425 43.5121C23.8714 43.3363 24.1644 43.0902 24.387 42.9847C24.762 42.7855 25.7815 42.7738 40.8284 42.7738H56.8597L57.305 43.0199C58.1839 43.5121 58.1839 43.5003 58.1839 48.0472C58.1839 51.8675 58.1722 52.1136 57.9495 52.4769C57.8206 52.6878 57.5042 52.9574 57.2464 53.0863C56.7776 53.3089 56.4964 53.3206 49.6175 53.3206H42.4573L42.2112 53.5902C41.719 54.1175 41.9769 54.9613 42.68 55.1371C42.8323 55.1722 46.1956 55.1956 50.1565 55.1722L57.3636 55.1371L57.9495 54.8675C58.7112 54.516 59.3792 53.8714 59.719 53.1449C60.0003 52.5589 60.0003 52.5472 60.0003 48.0472C60.0003 43.5472 60.0003 43.5355 59.719 42.9378C59.3909 42.223 58.7581 41.5902 58.0198 41.2269L57.4808 40.9574L41.0745 40.9339C27.8792 40.9222 24.5628 40.9456 24.1058 41.0628Z" fill="#1362A2"/>
<path d="M27.0235 47.3555C26.6133 47.6836 26.6016 48.293 27.0118 48.6914L27.293 48.9844H40.711C50.4376 48.9844 54.211 48.9492 54.4219 48.8555C54.7852 48.6914 54.9962 48.1875 54.8907 47.7656C54.7149 47.0742 55.5587 47.1094 40.8282 47.1094C27.3516 47.1094 27.3399 47.1094 27.0235 47.3555Z" fill="#1362A2"/>
</g>
<defs>
<clipPath id="clip0_1015_9668">
<rect width="60" height="60" fill="white"/>
</clipPath>
</defs>
</svg>
