<svg width="80" height="80" viewBox="0 0 80 80" fill="none" xmlns="http://www.w3.org/2000/svg">
<path d="M2.57812 8.68715C1.64062 9.01528 0.796875 9.79653 0.375 10.6872L0 11.484V31.2809C0 50.8903 0 51.0934 0.3125 51.4059C0.5 51.5934 0.828125 51.7184 1.17188 51.7184C1.51562 51.7184 1.84375 51.5934 2.03125 51.4059C2.34375 51.0934 2.34375 50.8903 2.34375 38.0465V24.9997H26.2344H50.1094L50.2031 26.9059C50.3594 30.6247 51.75 33.7965 54.3594 36.359C55.5938 37.5778 59.7812 40.7965 60.4375 41.0309C61.1719 41.2965 62.1094 41.2965 62.8281 41.0309C63.5156 40.7809 67.8594 37.4528 69.0781 36.234C71.5938 33.7184 72.9219 30.5778 73.2188 26.359L73.3125 24.9997H75.4844H77.6562V46.1247C77.6562 60.484 77.6094 67.4528 77.4844 67.859C77.375 68.2653 77.1562 68.5465 76.8281 68.7497C76.3438 69.0622 75.7031 69.0622 40 69.0622C4.29688 69.0622 3.65625 69.0622 3.17188 68.7497C2.84375 68.5465 2.625 68.2653 2.51562 67.859C2.40625 67.484 2.34375 65.0153 2.34375 61.3122C2.34375 55.5153 2.32812 55.359 2.03125 55.0778C1.84375 54.9059 1.46875 54.7809 1.17188 54.7809C0.875 54.7809 0.5 54.9059 0.3125 55.0778C0 55.359 0 55.4997 0 61.9372V68.5153L0.375 69.3122C0.578125 69.7497 1.01562 70.3278 1.34375 70.5934C2.60938 71.6403 -0.4375 71.5622 40 71.5622C80.4375 71.5622 77.3906 71.6403 78.6562 70.5934C78.9844 70.3278 79.4219 69.7497 79.625 69.3122L80 68.5153V39.9997V11.484L79.625 10.6872C79.4219 10.2497 78.9844 9.67153 78.6562 9.4059C77.625 8.56215 77 8.43715 73.6719 8.43715C70.875 8.43715 70.6406 8.45278 70.25 8.76528C69.6719 9.2184 69.6719 10.1559 70.25 10.609C70.6406 10.9215 70.875 10.9372 73.5 10.9372C76.0312 10.9372 76.375 10.9684 76.8281 11.2497C77.1562 11.4528 77.375 11.734 77.4844 12.1403C77.5938 12.4997 77.6562 14.6715 77.6562 17.609V22.4997H75.4844H73.3281L73.25 20.8122C73.125 18.3903 72.5938 17.359 71.0156 16.4997C70.3906 16.1715 70.2969 16.1715 61.6406 16.1715C52.9688 16.1715 52.8906 16.1715 52.2656 16.5153C51.9219 16.7028 51.4219 17.0778 51.1406 17.3747C50.3438 18.2028 50.1562 18.8278 50.1562 20.7809V22.4997H26.25H2.34375V17.609C2.34375 14.6715 2.40625 12.4997 2.51562 12.1403C2.625 11.734 2.84375 11.4528 3.17188 11.2497C3.65625 10.9372 4.25 10.9372 34.8906 10.9372H66.1094L66.4844 10.5465C67 10.0465 67 9.32778 66.4844 8.82778L66.1094 8.43715L34.6562 8.45278C7.76562 8.45278 3.10938 8.49965 2.57812 8.68715ZM70.1875 19.0465L70.7031 19.4997L70.6875 23.5465C70.6719 27.7965 70.5938 28.5153 69.8438 30.5153C69.375 31.7497 68.1875 33.5153 67.0938 34.5622C65.7344 35.8903 62 38.7497 61.6406 38.7497C61.2031 38.7497 56.9844 35.4059 55.7656 34.0934C54.5312 32.7809 53.8594 31.6559 53.2188 29.8903L52.7344 28.5153L52.6875 23.9684L52.6406 19.4215L53.125 18.9997L53.625 18.5934H61.6562H69.6875L70.1875 19.0465Z" fill="#1362A2"/>
<path d="M64.25 24.1713C64.0938 24.3275 63.4062 25.2025 62.7344 26.14C61.9844 27.1869 61.4688 27.765 61.3594 27.7025C61.25 27.64 60.625 27.1557 59.9531 26.6088C58.9375 25.7807 58.6406 25.6244 58.1406 25.6244C57.4062 25.6244 56.9688 26.0619 56.9688 26.7963C56.9688 27.4682 57.0156 27.515 59.3281 29.3744C61.2812 30.9525 61.6875 31.14 62.3438 30.7807C62.5 30.6869 63.4688 29.4838 64.4688 28.0932C66.4375 25.4057 66.6406 24.9057 66.0156 24.2182C65.6562 23.8275 64.6875 23.7963 64.25 24.1713Z" fill="#1362A2"/>
<path d="M8.01563 13.2967C6.76563 13.9061 6.09375 15.0311 6.09375 16.4842C6.09375 20.2967 11.0938 21.4842 12.8438 18.078C13.5156 16.7655 13.1719 14.9061 12.0781 13.8749C11.0938 12.9374 9.26563 12.6717 8.01563 13.2967ZM10.3906 15.7811C10.7969 16.2342 10.7344 16.8749 10.25 17.2967C9.73438 17.7342 9.53125 17.7499 9 17.328C8.21875 16.7186 8.65625 15.4686 9.65625 15.4686C9.90625 15.4686 10.2344 15.6092 10.3906 15.7811Z" fill="#1362A2"/>
<path d="M17.8908 13.265C17.0626 13.64 16.1564 14.6713 15.922 15.4994C15.0626 18.7338 18.6095 21.3275 21.3751 19.4681C22.9689 18.4056 23.4376 16.2338 22.4064 14.5931C21.5158 13.1556 19.4533 12.5463 17.8908 13.265ZM20.1564 15.8119C20.9689 16.6869 19.9845 17.9838 18.922 17.4213C18.2033 17.0619 18.0939 16.5306 18.6095 15.8744C19.0158 15.3588 19.7033 15.3275 20.1564 15.8119Z" fill="#1362A2"/>
<path d="M27.5469 13.2967C26.2969 13.9061 25.625 15.0311 25.625 16.4842C25.625 20.2967 30.625 21.4842 32.375 18.078C33.0469 16.7655 32.7031 14.9061 31.6094 13.8749C30.625 12.9374 28.7969 12.6717 27.5469 13.2967ZM29.9219 15.7811C30.3281 16.2342 30.2656 16.8749 29.7813 17.2967C29.2656 17.7342 29.0625 17.7499 28.5313 17.328C27.75 16.7186 28.1875 15.4686 29.1875 15.4686C29.4375 15.4686 29.7656 15.6092 29.9219 15.7811Z" fill="#1362A2"/>
<path d="M25.3124 28.6562C24.9218 28.7656 24.3593 28.9844 24.0468 29.1562C22.9062 29.75 6.31241 41.3125 6.01554 41.7031C5.81241 41.9688 5.68741 42.4219 5.65616 43.0469C5.60929 43.8281 5.65616 44.0781 5.96866 44.5156C6.67179 45.5625 7.01554 45.7031 8.99991 45.75L10.7812 45.8125V51.875V57.9375L8.99991 58C7.06241 58.0469 6.73429 58.1719 6.03116 59.125C5.73429 59.5156 5.70304 59.7656 5.70304 62.0312C5.70304 64.75 5.76554 64.9375 6.78116 65.6875C7.20304 66.0156 7.26554 66.0156 26.7968 66.0156C46.328 66.0156 46.3905 66.0156 46.8124 65.6875C47.828 64.9375 47.8905 64.75 47.8905 62.0312C47.8905 59.7656 47.8593 59.5156 47.5624 59.125C46.8593 58.1719 46.5312 58.0469 44.5937 58L42.8124 57.9375V51.8594V45.7812H44.4062C45.6874 45.7812 46.1249 45.7188 46.6562 45.4531C47.5624 45.0156 48.0155 44.2656 48.0155 43.2031C48.0155 42.2188 47.6718 41.5781 46.7968 40.9688C45.3749 39.9531 30.4999 29.7031 29.9062 29.3281C28.578 28.5 26.8124 28.2344 25.3124 28.6562ZM27.7968 31.1094C28.2499 31.2656 44.7655 42.5469 45.3124 43.0625C45.4999 43.25 42.9062 43.2812 26.828 43.2812C16.5468 43.2812 8.12491 43.25 8.12491 43.2188C8.12491 43.0469 25.2812 31.3281 25.7812 31.1406C26.4687 30.9062 27.1562 30.8906 27.7968 31.1094ZM16.4062 51.875V57.9688H14.8437H13.2812V51.875V45.7812H14.8437H16.4062V51.875ZM22.8124 51.875V57.9688H20.8593H18.9062V51.875V45.7812H20.8593H22.8124V51.875ZM28.4374 51.875V57.9688H26.8749H25.3124V51.875V45.7812H26.8749H28.4374V51.875ZM34.6874 51.875V57.9688H32.8124H30.9374V51.875V45.7812H32.8124H34.6874V51.875ZM40.3124 51.875V57.9688H38.7499H37.1874V51.875V45.7812H38.7499H40.3124V51.875ZM45.4687 62.0312V63.5938H26.7968H8.12491V62.0312V60.4688H26.7968H45.4687V62.0312Z" fill="#1362A2"/>
<path d="M25.6558 33.7656C24.9683 34.0312 19.8433 37.6719 19.5777 38.0625C19.2496 38.5781 19.2652 39.7031 19.6246 40.2188C20.1871 41.0781 20.2496 41.0938 26.8277 41.0938C32.6402 41.0938 32.9058 41.0781 33.4058 40.7812C34.0621 40.375 34.4371 39.5312 34.2964 38.7656C34.1558 38 33.5152 37.4375 30.4214 35.3438C27.8277 33.6094 27.8121 33.5938 26.9058 33.6094C26.4214 33.6094 25.8433 33.6719 25.6558 33.7656ZM28.7808 37.2969L30.5152 38.5156L28.7027 38.5625C27.7027 38.5781 26.0308 38.5781 24.9839 38.5625L23.0933 38.5156L24.8589 37.2969C25.8277 36.6406 26.7183 36.0938 26.8277 36.0938C26.9371 36.0938 27.8121 36.6406 28.7808 37.2969Z" fill="#1362A2"/>
<path d="M51.4062 46.9844C51.1094 47.1406 50.7031 47.5 50.5156 47.7969C50.1562 48.3125 50.1562 48.4219 50.1562 52.625C50.1562 57.5156 50.1875 57.6562 51.4688 58.2656C52.1094 58.5938 52.3438 58.5938 61.6406 58.5938C70.9375 58.5938 71.1719 58.5938 71.8125 58.2656C72.2188 58.0781 72.6406 57.7031 72.8438 57.375C73.1875 56.8125 73.2031 56.7031 73.2031 52.6562C73.2031 48.7969 73.1875 48.4844 72.8906 47.9844C72.7188 47.6875 72.375 47.3125 72.1406 47.125C71.7031 46.7969 71.5781 46.7969 61.8281 46.75C52.6562 46.7188 51.9062 46.7344 51.4062 46.9844ZM70.7812 52.6562V56.0938H61.7188H52.6562V52.6562V49.2188H61.7188H70.7812V52.6562Z" fill="#1362A2"/>
</svg>
