<svg width="80" height="80" viewBox="0 0 80 80" fill="none" xmlns="http://www.w3.org/2000/svg">
<path d="M15.7188 6.79688C13.8906 7.45312 12.9688 9.01562 12.9688 11.4844V12.5H8.17188C5.34375 12.5 3.125 12.5625 2.78125 12.6562C1.85938 12.9219 0.90625 13.7344 0.421875 14.6719C0.046875 15.4375 0 15.6875 0 17.125C0 18.6719 0.015625 18.7344 0.40625 19.0469C0.953125 19.4688 1.4375 19.4688 1.96875 19.0156C2.32812 18.7031 2.39062 18.5156 2.45312 17.4844C2.54688 15.8281 2.60938 15.6562 3.17188 15.3125C3.64062 15.0156 3.96875 15 8.32812 15H12.9688V19.4531V23.9062H12.4531C11.7344 23.9062 10.4062 24.6094 9.84375 25.2812C8.85938 26.4688 8.90625 25.5469 8.90625 44.4375C8.90625 55.9688 8.84375 61.8281 8.73438 62.2344C8.53125 63.0156 7.8125 63.8125 6.9375 64.2344C5.46875 64.9375 3.65625 64.3125 2.85938 62.8281L2.5 62.1406V42.9844C2.5 30.2188 2.4375 23.6406 2.34375 23.25C2.25 22.9219 2.04688 22.5938 1.875 22.5C1.39062 22.25 0.65625 22.3125 0.3125 22.6562C0 22.9688 0 23.1094 0.03125 43.0156L0.078125 63.0469L0.515625 63.875C1.10938 65 2.17188 66.0312 3.25 66.5312L4.14062 66.9531L26.0938 67L48.0469 67.0312L49.5312 68.5156C51.6719 70.6406 52.2969 70.7344 53.9219 69.125L54.8125 68.2344L56.125 68.7812C56.8281 69.0938 57.5469 69.375 57.7031 69.4219C57.9219 69.5 57.9688 69.7188 57.9688 70.7031C57.9688 71.375 58.0625 72.1094 58.1875 72.4219C58.5625 73.3281 59.0156 73.4375 62.0312 73.4375C65.7188 73.4375 65.9219 73.3125 65.9375 70.9688C65.9375 69.7344 65.9844 69.5156 66.2188 69.4375C66.3594 69.3906 67.1094 69.0938 67.8594 68.7969L69.25 68.2344L70.1406 69.125C71.7656 70.7344 72.3281 70.6562 74.5 68.5312C76.4688 66.5938 76.875 66.0312 76.875 65.25C76.875 64.7344 76.75 64.5156 75.8438 63.5938L74.8281 62.5312L75.2031 61.7656C75.4219 61.3438 75.7188 60.6406 75.8594 60.1875L76.125 59.375H77.3594C78.7188 59.375 79.1875 59.25 79.6719 58.7344C79.9844 58.4062 80 58.2031 80 55.4219C80 53.7031 79.9375 52.3594 79.8438 52.1719C79.5469 51.625 78.8438 51.4062 77.4531 51.4062C76.1406 51.4062 76.125 51.4062 76.0156 50.9844C75.9688 50.75 75.6719 50.0312 75.375 49.3906L74.8281 48.2188L75.7656 47.2812C76.75 46.2812 77 45.7031 76.7969 44.8906C76.6719 44.4062 73.4531 41.0469 72.75 40.6719C72.1562 40.3594 71.375 40.5 70.6875 41.0156L70.1562 41.4219V38.8438C70.1562 36.4531 70.125 36.2188 69.8438 35.9375C69.3594 35.4531 68.3906 35.5156 67.9844 36.0312C67.6875 36.4219 67.6562 36.6562 67.6562 39.0781C67.6562 40.5312 67.5938 41.7188 67.5312 41.7188C67.4531 41.7188 67.0781 41.6094 66.6719 41.4688L65.9375 41.2188V39.7344C65.9375 38.3125 65.9219 38.2344 65.4844 37.7969L65.0312 37.3438H62.0781C58.2344 37.3438 58.125 37.4062 57.9688 39.8906L57.8906 41.2812L57.1094 41.5469C56.6875 41.7031 55.9844 41.9844 55.5781 42.1875L54.8125 42.5469L53.8438 41.5781C52.75 40.5 52.0938 40.2656 51.3125 40.6719C51.0625 40.7969 50.0312 41.75 49.0312 42.7812C47.2031 44.625 47.1875 44.6406 47.1875 45.375C47.1875 46.0781 47.25 46.1875 48.1875 47.1562L49.1719 48.2031L48.6562 49.2969C48.375 49.8906 48.0938 50.625 48.0312 50.8906L47.9375 51.4062H46.5C44.0938 51.4062 43.9062 51.7031 43.9062 55.3906C43.9062 59.0469 44.125 59.375 46.6406 59.375C47.5156 59.375 47.9688 59.4375 47.9688 59.5469C47.9688 59.6406 48.2188 60.3594 48.5312 61.125L49.0781 62.5156L48.1719 63.5156L47.2656 64.5156H28.875L10.4844 64.5312L10.9062 63.625L11.3281 62.7344L11.4062 45.0781C11.4844 26.4688 11.4688 26.9531 12.1875 26.5625C12.375 26.4531 21.4219 26.4062 39.6094 26.4062H66.75L67.2031 26.8594L67.6562 27.3125V29.5C67.6562 31.4688 67.6875 31.7188 67.9844 32.0938C68.4062 32.625 69.3594 32.6719 69.8594 32.1719C70.1719 31.8594 70.1719 31.7188 70.125 29.25C70.0781 26.9375 70.0312 26.5625 69.7344 26.0156C69.1094 24.8438 67.7188 23.9219 66.6094 23.9062H66.0938V17.0625C66.0938 9.375 66.0625 9.07812 65.0469 7.95312C64.7344 7.60938 64.1875 7.17188 63.8438 6.98438L63.2031 6.64062L39.7656 6.60938C19.9219 6.57812 16.2344 6.60938 15.7188 6.79688ZM63.0781 9.57812L63.5156 10L63.5625 16.9531L63.6094 23.9062H39.5312H15.4688V17.2188C15.4688 11.1719 15.5 10.5 15.75 10C15.8906 9.70312 16.1875 9.375 16.4062 9.26562C16.7188 9.10938 21.5938 9.07812 39.7188 9.10938L62.6562 9.14062L63.0781 9.57812ZM63.4375 40.9375C63.4375 42.1719 63.7188 43.0156 64.2031 43.2656C64.375 43.375 65 43.5938 65.5781 43.7656C66.1719 43.9531 67.1875 44.375 67.8438 44.7188C69.4062 45.5312 69.7969 45.4844 71.0938 44.2656L72.0469 43.3906L73.0469 44.375L74.0469 45.375L73.125 46.3438C72.2188 47.2812 72.0781 47.5938 72.1719 48.4375C72.1875 48.5625 72.4375 49.125 72.7344 49.6875C73.0156 50.25 73.4375 51.2812 73.6719 52C74.2188 53.6875 74.5312 53.9062 76.375 53.9062H77.6562V55.3906V56.875H76.2656C74.4688 56.875 74.2344 57.0469 73.6719 58.7969C73.4375 59.5 73.0156 60.5156 72.7344 61.0312C71.8594 62.6562 71.9219 63.1719 73.0781 64.3906L73.9688 65.3281L72.9688 66.3281L71.9688 67.3438L71.1719 66.5781C69.8125 65.25 69.4375 65.2031 67.7656 66.0469C67.1562 66.3594 66.0781 66.7969 65.4062 67.0156C63.7656 67.5625 63.5312 67.8594 63.4531 69.625L63.4062 70.9375H61.9375H60.4688V69.5469C60.4688 67.8438 60.2656 67.5469 58.6562 67.0469C58.0625 66.8594 57.0156 66.4219 56.3281 66.0625C54.6406 65.2188 54.2031 65.2656 52.9531 66.5L52.0312 67.4062L51.0156 66.4062L50 65.4062L50.6875 64.6875C52.1094 63.2031 52.1719 62.7656 51.2656 60.9688C50.9219 60.2969 50.5 59.2344 50.3125 58.6094C49.8438 57.1094 49.5 56.875 47.7031 56.875H46.4062V55.3906V53.9062H47.5938C48.8594 53.9062 49.7344 53.625 49.9219 53.1562C49.9844 53.0156 50.2344 52.2969 50.5 51.5625C50.75 50.8281 51.1719 49.875 51.4219 49.4375C51.8906 48.5938 52 47.8594 51.7031 47.2969C51.6094 47.1094 51.1875 46.5938 50.7656 46.1719L50 45.375L51.0156 44.375L52.0156 43.375L52.9375 44.25C54.2031 45.4688 54.5938 45.5156 56.1875 44.7188C56.8594 44.3906 57.9219 43.9531 58.5156 43.7656C59.2188 43.5312 59.7656 43.25 60.0469 42.9531C60.4375 42.5312 60.4688 42.4062 60.4688 41.1719V39.8438H61.9531H63.4375V40.9375Z" fill="#1362A2"/>
<path d="M28.1717 11.8438C24.7811 13.0625 23.7499 17.3438 26.2499 19.8438C27.1874 20.7812 28.4217 21.3125 29.6874 21.3125C30.9999 21.3125 31.7655 21.0469 32.6092 20.2656C33.1717 19.75 33.2811 19.5469 33.2811 19.0469C33.2811 17.9375 32.0311 17.4375 31.1249 18.2031C30.453 18.7656 29.9061 18.9375 29.2811 18.7656C28.453 18.5312 27.8592 18.0156 27.578 17.2656C27.2499 16.4062 27.3592 15.6562 27.9217 14.9844C28.703 14.0625 29.8592 13.8281 30.9374 14.375C31.6717 14.75 31.9999 14.7656 32.4686 14.4375C32.9686 14.0938 33.1405 13.5469 32.9374 12.9688C32.5467 11.8438 29.9061 11.2188 28.1717 11.8438Z" fill="#1362A2"/>
<path d="M37.1094 11.9062C36.75 12.2344 36.6563 12.625 35.9844 16.2969L35.25 20.3125L35.5781 20.75C35.7969 21.0469 36.0469 21.1875 36.4844 21.2187C37.375 21.2969 37.7344 20.875 37.9688 19.4062C38.0781 18.75 38.2188 18.1406 38.2813 18.0781C38.3281 18.0156 38.5469 18.5625 38.7656 19.2969C38.9688 20.0625 39.2813 20.7656 39.4531 20.9375C40.2656 21.7031 41.5156 21.3281 41.8281 20.2187C41.9375 19.875 42.1406 19.1875 42.2813 18.6719L42.5625 17.7344L42.8438 19.2187C43.1563 20.875 43.4219 21.25 44.3125 21.25C45.0313 21.25 45.4688 20.7969 45.4688 20.0312C45.4688 19.7187 45.1563 17.8281 44.7656 15.8594C44.1406 12.6406 44.0313 12.2344 43.6719 11.9062C43.4219 11.6875 43.0625 11.5625 42.7188 11.5625C41.8594 11.5625 41.5469 12.0156 40.9531 14.1094L40.4219 15.9531L39.8281 14.0312C39.4375 12.75 39.125 12.0156 38.9063 11.8437C38.4219 11.4531 37.6094 11.4844 37.1094 11.9062Z" fill="#1362A2"/>
<path d="M49.1401 11.8434C47.5933 12.5622 46.9839 14.2966 47.7339 15.7809C48.062 16.4216 48.4683 16.6872 49.937 17.2809C51.4214 17.8747 51.8276 18.1403 51.6401 18.4372C51.2964 18.9997 50.1558 18.9059 49.2183 18.2028C47.7495 17.1247 46.2651 18.5934 47.4214 19.9841C48.7964 21.5934 52.0933 21.7341 53.4214 20.2184C54.4214 19.0934 54.4526 17.5466 53.5151 16.4528C53.0933 15.9684 52.6089 15.6716 51.4058 15.1559C50.1245 14.6091 49.8745 14.4528 50.0151 14.2809C50.2808 13.9528 50.8901 14.0153 51.8276 14.4684C52.7026 14.8747 53.1089 14.8591 53.6401 14.4059C54.0151 14.0778 53.9995 13.0622 53.5933 12.6559C52.6245 11.6872 50.3589 11.2653 49.1401 11.8434Z" fill="#1362A2"/>
<path d="M60.875 48.4689C59.6562 48.6252 58.2344 49.3127 57.2656 50.1877C54.3437 52.8439 54.2344 57.5002 57.0312 60.3283C60.3281 63.6564 66.2812 62.7189 68.2656 58.547C70.7812 53.297 66.6562 47.672 60.875 48.4689ZM64.1094 51.4064C65.625 52.172 66.4687 53.5939 66.4687 55.3908C66.4687 56.6564 66.1094 57.5158 65.1719 58.4845C64.3437 59.3752 63.5469 59.7189 62.2187 59.8127C61.1875 59.8752 61 59.8439 60.0781 59.3908C58.9062 58.8127 58.1406 57.922 57.7187 56.6877C57.0156 54.5627 58.2656 51.9533 60.375 51.1877C61.3594 50.8283 63.1719 50.922 64.1094 51.4064Z" fill="#1362A2"/>
<path d="M15.0313 29.5312C14.3282 29.8125 14.1719 30.9062 14.7657 31.4844L15.1407 31.875H19.7188C23.5157 31.875 24.3594 31.8281 24.6407 31.6406C25.3282 31.1562 25.2188 29.9062 24.4376 29.5469C23.9688 29.3281 15.5626 29.3281 15.0313 29.5312Z" fill="#1362A2"/>
<path d="M15.0313 35C14.3282 35.2812 14.1719 36.375 14.7657 36.9531L15.1407 37.3438H21.8438H28.5469L28.8751 36.9844C29.3438 36.4844 29.3282 35.7188 28.8282 35.2344L28.4532 34.8438L21.9219 34.8594C18.3282 34.8594 15.2344 34.9219 15.0313 35Z" fill="#1362A2"/>
<path d="M16.0156 52.0156C14.6094 52.6562 14.375 53.3281 14.375 56.6719C14.375 58.8906 14.4219 59.3906 14.6719 59.9219C15 60.6406 15.5156 61.1562 16.1406 61.3906C16.75 61.625 31.6875 61.625 32.2969 61.3906C32.8906 61.1719 33.5938 60.5 33.8438 59.8906C34 59.5312 34.0625 58.625 34.0625 56.6406C34.0625 54.6562 34 53.75 33.8438 53.3906C33.5938 52.7812 32.8906 52.1094 32.2969 51.8906C32 51.7812 29.25 51.7187 24.25 51.7187C17.2031 51.7187 16.5938 51.75 16.0156 52.0156ZM31.4844 56.6406V58.9844H24.2188H16.9531L16.9062 56.7969C16.8906 55.6094 16.9062 54.5312 16.9375 54.4219C17 54.25 18.4062 54.2187 24.25 54.25L31.4844 54.2969V56.6406Z" fill="#1362A2"/>
</svg>
