<svg width="80" height="80" viewBox="0 0 80 80" fill="none" xmlns="http://www.w3.org/2000/svg">
<g clip-path="url(#clip0_846_5207)">
<path d="M2.65653 3.60938C1.71903 4.03125 0.8284 4.90625 0.375275 5.85938L0.00027524 6.64062V34.7812C0.00027524 65.9219 -0.0778498 63.6875 1.00028 64.9531C1.29715 65.2812 1.90653 65.7656 2.35965 66.0156L3.2034 66.4844L15.7659 66.5312L28.3284 66.5625L28.7034 66.2188C29.219 65.7344 29.2034 64.8281 28.6565 64.3906C28.2503 64.0625 28.1409 64.0625 16.219 64.0625C2.8909 64.0625 3.46903 64.1094 2.81278 63.0469C2.50028 62.5469 2.50028 62.3281 2.50028 39.4688V16.4062H10.8597C17.719 16.4062 19.219 16.4375 19.1097 16.6094C19.0472 16.7188 18.6409 17.2812 18.2347 17.8594C17.1409 19.3594 16.0315 21.4062 15.3753 23.0781L14.8128 24.5156L11.4222 24.5625C8.03153 24.6094 8.0159 24.6094 7.3909 25.0312C7.0159 25.2812 6.62528 25.7188 6.42215 26.125C6.10965 26.7969 6.09403 27.0312 6.09403 32.25C6.09403 37.375 6.10965 37.7031 6.40653 38.2812C6.5784 38.625 7.0159 39.0938 7.37528 39.3281L8.0159 39.7656L11.3284 39.8125L14.6253 39.8594L14.9847 40.9062C17.719 48.6719 24.4847 54.875 32.4065 56.875C34.969 57.5156 36.8128 57.7031 39.8128 57.625C43.5628 57.5156 46.6878 56.75 49.8597 55.1875L51.0472 54.6094L53.1097 57.3281L55.1878 60.0312L54.9222 60.8906C54.719 61.5156 54.6722 62.0781 54.719 62.9062L54.7972 64.0625H43.9534C37.3128 64.0625 33.0003 64.125 32.8284 64.2188C32.344 64.4688 32.1097 65.2344 32.344 65.7812C32.4534 66.0469 32.6722 66.3281 32.8284 66.4062C33.0003 66.5 37.6097 66.5625 44.7972 66.5625H56.4847L59.7659 70.875C61.5628 73.25 63.3128 75.4219 63.6409 75.7031C64.4534 76.4062 65.4378 76.7188 66.7972 76.7188C67.719 76.7188 68.0784 76.6406 68.7659 76.2812C69.8597 75.7344 73.4222 72.9844 74.1409 72.1562C75.2815 70.7969 75.469 68.8438 74.6253 66.8594C74.5315 66.6406 74.6878 66.5938 75.6722 66.5312C77.0315 66.4375 78.1722 65.9062 79.0003 64.9531C80.0784 63.6875 80.0003 65.9219 80.0003 34.7812C80.0003 6.82812 79.9847 6.64062 79.6722 5.9375C79.2503 5 78.3753 4.10938 77.4222 3.65625L76.6409 3.28125H40.0003C3.50028 3.28125 3.35965 3.29688 2.65653 3.60938ZM76.5159 6.09375C77.4378 6.64062 77.5003 6.96875 77.5003 10.625V13.9062H66.719H55.9378L54.7503 12.9062C51.4534 10.1406 46.6722 8.09375 42.0784 7.48438C39.844 7.1875 35.2972 7.39062 33.2815 7.85938C29.2034 8.82812 25.4065 10.7188 22.5315 13.1875L21.6878 13.9062H12.094H2.50028V10.625C2.50028 6.96875 2.56278 6.64062 3.48465 6.09375C3.96903 5.78125 4.54715 5.78125 40.0003 5.78125C75.4534 5.78125 76.0315 5.78125 76.5159 6.09375ZM43.6097 10.2969C46.719 11.0156 49.9847 12.5 52.3597 14.2812C54.3909 15.8281 57.594 19.3281 58.0628 20.5312C58.1565 20.75 57.3284 20.7812 50.0315 20.7812C44.3128 20.7812 41.7815 20.8281 41.5003 20.9531C41.0159 21.1719 40.7347 21.8438 40.8753 22.4062C41.094 23.3125 40.8284 23.2812 50.5784 23.2812H59.5159L59.7503 23.7031C60.1409 24.4844 60.9378 27.1719 61.2034 28.6406C61.5628 30.5938 61.5472 34.4375 61.1878 36.3281C60.8909 37.9062 60.2972 39.9375 59.844 41.0156L59.5472 41.7188H38.7815H18.0315L17.4534 40.1719C15.6565 35.2812 15.6722 29.7188 17.5003 24.6406L18.0003 23.2812H27.5159C36.8284 23.2812 37.0315 23.2812 37.344 22.9688C37.7815 22.5312 37.7659 21.5625 37.3284 21.1562C37.0159 20.875 36.5784 20.8594 28.1722 20.7812L19.344 20.7031L20.2972 19.375C23.7659 14.4844 29.1253 11.125 35.1565 10.0625C36.9222 9.75 41.8597 9.89062 43.6097 10.2969ZM77.5003 39.4688C77.5003 62.3281 77.5003 62.5469 77.1878 63.0469C76.6878 63.8438 76.0628 64.0625 74.1722 64.0625H72.5472L69.9065 60.5781C68.469 58.6719 66.969 56.7812 66.594 56.3906C65.6722 55.375 64.6253 54.9375 63.1253 54.9375L61.9378 54.9219L59.8128 52.125L57.6722 49.3281L58.5003 48.2969C60.1565 46.25 61.5159 43.8438 62.5003 41.2188L63.0159 39.8594L67.5003 39.8125L71.9847 39.7656L72.6097 39.3438C72.9847 39.0938 73.3753 38.6562 73.5784 38.25C73.8909 37.5781 73.9065 37.3438 73.9065 32.1875C73.9065 27.0312 73.8909 26.7969 73.5784 26.125C73.3753 25.7188 72.9847 25.2812 72.6097 25.0312L71.9847 24.6094L67.3909 24.5312L62.7972 24.4531L62.2815 23.2031C61.3128 20.8438 60.0315 18.5781 58.7972 17.0625L58.2659 16.4062H67.8753H77.5003V39.4688ZM14.0628 27.4688C13.5784 29.1719 13.469 34.6719 13.8909 36.6719L14.0159 37.3438H11.5003C9.73465 37.3438 8.90653 37.2812 8.78153 37.1562C8.5159 36.8906 8.5159 27.4844 8.78153 27.2188C8.90653 27.0938 9.7659 27.0312 11.5784 27.0312H14.2034L14.0628 27.4688ZM71.219 27.2188C71.4847 27.4844 71.4847 36.8906 71.219 37.1562C71.0784 37.2969 70.0003 37.3438 67.2972 37.3438H63.5628L63.6409 36.9844C64.1878 34.75 64.1097 29.4062 63.5003 27.2969C63.4222 27.0469 63.6722 27.0312 67.219 27.0312C69.9847 27.0312 71.0784 27.0781 71.219 27.2188ZM58.0628 44.4688C57.8128 45.1406 56.3128 46.9844 54.7659 48.5312C51.5784 51.7344 47.7972 53.7812 43.2815 54.7656C41.4534 55.1719 37.469 55.25 35.4222 54.9375C32.1565 54.4219 28.9534 53.1719 26.094 51.2812C24.4534 50.2031 21.3284 47.1094 20.1878 45.4219L19.3597 44.2188H38.7503C56.2659 44.2188 58.1565 44.25 58.0628 44.4688ZM57.6097 53.4688C58.5315 54.6875 59.3909 55.8125 59.5003 55.9531C59.6722 56.1875 59.5315 56.3438 58.3753 57.25L57.0472 58.2656L55.1409 55.75L53.2347 53.2344L53.6722 52.9219C53.9065 52.7344 54.469 52.2969 54.9065 51.9375C55.344 51.5625 55.7503 51.2656 55.8128 51.2656C55.8597 51.25 56.6722 52.25 57.6097 53.4688ZM64.3753 57.7969C65.0784 58.2969 72.4847 68.1562 72.594 68.7188C72.7347 69.4375 72.4378 70.3125 71.9222 70.7969C71.6722 71.0156 70.6253 71.8594 69.5628 72.6562C67.8753 73.9219 67.5315 74.125 66.8909 74.1875C66.3909 74.2344 65.9847 74.1719 65.6565 74C65.3284 73.8281 63.9222 72.1094 61.5159 68.9375C59.5003 66.2969 57.7034 63.8906 57.5159 63.5938C57.1253 62.9375 57.1097 62.1406 57.469 61.4531C57.7503 60.9375 61.5159 57.9531 62.3753 57.5781C62.9847 57.2969 63.8128 57.3906 64.3753 57.7969Z" fill="#1362A2"/>
<path d="M6.5 9.23481C6.1875 9.48481 6.09375 9.68794 6.09375 10.1567C6.09375 11.2817 7.40625 11.8129 8.20312 11.0161C9.34375 9.89106 7.76562 8.23481 6.5 9.23481Z" fill="#1362A2"/>
<path d="M11.5163 9.09375C11.1101 9.40625 10.9226 10.0938 11.1101 10.5781C11.3132 11.125 11.6882 11.3906 12.282 11.4062C12.9538 11.4062 13.4226 10.9844 13.532 10.2812C13.6101 9.8125 13.5632 9.64062 13.2351 9.3125C12.782 8.85938 11.9695 8.76562 11.5163 9.09375Z" fill="#1362A2"/>
<path d="M16.5938 9.0627C15.8907 9.34395 15.7344 10.4377 16.3282 11.0158C17.0001 11.7033 18.1094 11.4846 18.4219 10.6252C18.8126 9.5002 17.7501 8.60958 16.5938 9.0627Z" fill="#1362A2"/>
<path d="M46.0938 28.4688C45.9219 28.6562 45.7812 29 45.7812 29.25C45.7812 29.8594 48.0781 35.9375 48.4688 36.3594C48.7188 36.625 48.9844 36.7188 49.4688 36.7188C50.375 36.7188 50.7344 36.25 51.4062 34.1719L51.9375 32.4844L52.5469 34.25C53.2656 36.3594 53.5469 36.7188 54.4531 36.7188C54.9219 36.7188 55.1875 36.625 55.4375 36.3594C55.8281 35.9375 58.125 29.8594 58.125 29.25C58.125 28.5938 57.6094 28.125 56.875 28.125C56.4844 28.125 56.1406 28.2344 55.9688 28.4062C55.8281 28.5469 55.4219 29.6094 55.0781 30.75L54.4531 32.8438L53.8125 30.875C52.9688 28.3125 52.8438 28.125 51.9531 28.125C51.0625 28.125 50.9375 28.2969 50.125 30.8281L49.4844 32.8281L48.8125 30.6719C48.4219 29.4375 48.0312 28.4375 47.875 28.3281C47.4219 28 46.4688 28.0781 46.0938 28.4688Z" fill="#1362A2"/>
<path d="M19.375 28.5933C19.1875 28.7808 19.0625 29.1089 19.0625 29.437C19.0625 30.1401 21.2812 36.0151 21.7344 36.4995C22 36.7808 22.25 36.8745 22.75 36.8745C23.625 36.8745 23.8906 36.5151 24.5469 34.562C24.8125 33.7339 25.0938 32.9839 25.1562 32.9214C25.2031 32.8589 25.3438 33.1089 25.4531 33.4683C25.9062 34.9683 26.6094 36.5776 26.875 36.7183C27.4062 36.9995 28.2656 36.9058 28.6562 36.5151C29 36.1714 31.4062 29.9526 31.4062 29.3901C31.4062 29.2339 31.2656 28.9214 31.0781 28.687C30.8125 28.3589 30.625 28.2808 30.0781 28.2808C29.1875 28.2808 29.0781 28.4526 28.2969 30.9526C27.5938 33.1558 27.7188 33.2026 26.875 30.4995C26.6094 29.6558 26.25 28.7964 26.0781 28.6245C25.6719 28.1714 24.6875 28.1558 24.3125 28.5776C24.1562 28.7495 23.7344 29.812 23.375 30.937L22.7188 32.9839L22.0625 30.8901C21.7031 29.7339 21.2812 28.6714 21.125 28.5308C20.7188 28.1714 19.7656 28.2026 19.375 28.5933Z" fill="#1362A2"/>
<path d="M32.6562 28.5938C32.4688 28.7813 32.3438 29.1094 32.3438 29.4063C32.3438 30.0938 34.6094 36.0625 35.0312 36.5156C35.5 37.0156 36.5312 37.0156 36.9844 36.5156C37.1562 36.3281 37.5625 35.3594 37.8906 34.375L38.4844 32.5938L39.1406 34.5313C39.5156 35.625 39.9375 36.5469 40.0938 36.6719C40.5781 37.0312 41.7031 36.875 42.0625 36.4063C42.4219 35.9063 44.6875 29.9375 44.6875 29.4531C44.6875 29.2656 44.5469 28.9219 44.3594 28.6875C43.9688 28.1875 42.9844 28.1094 42.5312 28.5625C42.375 28.7188 41.9844 29.7344 41.6406 30.8281C41.3125 31.9219 40.9844 32.7656 40.9219 32.7031C40.875 32.625 40.5625 31.75 40.25 30.7344C39.9375 29.7188 39.5312 28.75 39.375 28.5938C38.9844 28.2031 38.0312 28.1875 37.625 28.5313C37.4688 28.6719 37.0469 29.75 36.6875 30.9063L36.0312 33.0156L35.375 30.9531C35.0156 29.8125 34.5938 28.75 34.4375 28.5781C34.0625 28.1719 33.0781 28.1719 32.6562 28.5938Z" fill="#1362A2"/>
</g>
<defs>
<clipPath id="clip0_846_5207">
<rect width="80" height="80" fill="white"/>
</clipPath>
</defs>
</svg>
