<svg width="80" height="80" viewBox="0 0 80 80" fill="none" xmlns="http://www.w3.org/2000/svg">
<g clip-path="url(#clip0_846_5217)">
<path d="M4.01596 0.312504C2.82846 0.765629 1.95346 1.59375 1.37534 2.78125L0.859715 3.82813V7.42188C0.859715 11 0.859715 11.0156 1.28159 11.875C1.50034 12.3438 1.85971 12.9375 2.07846 13.1875L2.45346 13.6563L1.85971 14.4375C0.906589 15.7031 0.75034 16.5625 0.81284 20.3125C0.859715 23.4063 0.87534 23.5469 1.26596 24.375C1.50034 24.8438 1.87534 25.4375 2.10971 25.6719L2.53159 26.125L2.14096 26.5313C1.92221 26.7656 1.54721 27.3438 1.29721 27.8125L0.859715 28.6719V32.3438C0.859715 35.7813 0.87534 36.0625 1.20346 36.75C1.67221 37.7813 2.82846 38.9531 3.79721 39.3906C4.57846 39.75 4.75034 39.7656 9.32846 39.8125L14.0628 39.8594L14.4535 39.4688C14.9691 38.9531 14.9691 38.2344 14.4535 37.7344L14.0785 37.3438H9.76596C5.07846 37.3438 4.81284 37.2969 4.03159 36.4688C3.35971 35.75 3.28159 35.3125 3.28159 32.375C3.28159 28.8594 3.51596 28.2188 5.04721 27.5781C5.54721 27.375 7.59409 27.3438 21.8753 27.3438C39.5003 27.3438 38.7347 27.3125 39.6566 28.1719C40.4066 28.875 40.4691 29.1719 40.4691 32.3594C40.4691 35.2813 40.4535 35.375 40.0785 36.0313C39.8285 36.4688 39.4691 36.7969 39.016 37.0156C38.3441 37.3438 38.1722 37.3438 28.4535 37.3438H18.5785L18.2035 37.7344C17.6878 38.2344 17.6878 38.9531 18.2035 39.4688L18.5941 39.8594L28.9378 39.8125L39.2972 39.7656L40.3128 39.2031C41.516 38.5469 42.391 37.5 42.7503 36.2969C42.9378 35.625 42.9847 34.7813 42.9378 32C42.891 28.5781 42.891 28.5 42.4691 27.7344C42.2503 27.2969 41.891 26.7813 41.6722 26.5781L41.266 26.2188L41.8753 25.4531C42.9066 24.1563 43.0003 23.6406 42.9378 19.5781L42.891 16.0156L42.4378 15.2031C42.1878 14.75 41.8285 14.2344 41.6253 14.0469L41.266 13.7031L41.7972 13.0781C42.8285 11.875 42.9691 11.2031 42.9691 7.42188C42.9691 4.4375 42.9378 3.98438 42.6566 3.21875C42.2503 2.14063 41.3597 1.125 40.2972 0.546879L39.4535 0.0781288L22.1097 0.0468788C5.43784 0.0156288 4.73471 0.0156288 4.01596 0.312504ZM38.3441 2.5C39.0472 2.65625 39.6097 3.03125 40.0628 3.65625C40.3753 4.0625 40.391 4.29688 40.391 7.40625V10.7344L39.9691 11.2813C39.1097 12.4219 40.3441 12.3438 21.8597 12.3438H5.26596L4.59409 11.9531C3.45346 11.2813 3.28159 10.7188 3.28159 7.42188C3.28159 4.90625 3.31284 4.5625 3.60971 3.95313C3.98471 3.17188 4.56284 2.71875 5.40659 2.51563C6.20346 2.32813 37.5472 2.3125 38.3441 2.5ZM38.4691 15C39.2191 15.2188 39.9847 15.8594 40.2503 16.5156C40.4066 16.875 40.4691 17.8281 40.4691 19.9531C40.4691 22.7031 40.4378 22.9219 40.1097 23.5156C39.9066 23.8594 39.4847 24.2813 39.141 24.4844L38.516 24.8438H21.9066C3.82846 24.8438 4.92221 24.8906 4.03159 23.9531C3.35971 23.25 3.28159 22.8125 3.28159 19.875C3.28159 17.5156 3.32846 17.0156 3.57846 16.4688C3.87534 15.7969 4.56284 15.2188 5.28159 15C5.92221 14.7969 37.766 14.8125 38.4691 15Z" fill="#1362A2"/>
<path d="M7.85938 6.20313C7.06251 6.35938 6.75001 7.6875 7.34376 8.28125C7.62501 8.5625 7.85938 8.59375 9.50001 8.59375C11.2344 8.59375 11.375 8.57813 11.6875 8.23438C12.3125 7.57813 12.0625 6.59375 11.1875 6.25C10.7813 6.09375 8.57813 6.0625 7.85938 6.20313Z" fill="#1362A2"/>
<path d="M24.5937 6.25C24.1562 6.42187 23.75 7 23.75 7.4375C23.75 7.625 23.8906 7.95312 24.0781 8.1875C24.3437 8.53125 24.5156 8.59375 25.1562 8.59375C25.7969 8.59375 25.9687 8.53125 26.2344 8.1875C26.6562 7.65625 26.6562 7.14062 26.2187 6.65625C25.8281 6.20312 25.0937 6.03125 24.5937 6.25Z" fill="#1362A2"/>
<path d="M29.6719 6.26562C29.25 6.42188 28.9062 6.98438 28.9062 7.48438C28.9062 7.64062 29.0469 7.95312 29.2344 8.1875C29.5 8.53125 29.6719 8.59375 30.3125 8.59375C30.9531 8.59375 31.125 8.53125 31.3906 8.1875C31.8125 7.65625 31.8125 7.14062 31.375 6.65625C30.9687 6.1875 30.2656 6.03125 29.6719 6.26562Z" fill="#1362A2"/>
<path d="M34.75 6.3125C34.2188 6.54688 34.0625 6.82813 34.0625 7.48438C34.0625 8.14063 34.6406 8.59375 35.5 8.59375C36.3594 8.59375 36.7812 8.20313 36.7812 7.40625C36.7812 6.4375 35.7344 5.875 34.75 6.3125Z" fill="#1362A2"/>
<path d="M7.70307 18.75C6.99995 19.0312 6.79682 20.2344 7.3437 20.7812C7.62495 21.0625 7.85932 21.0938 9.51557 21.0938C11.3437 21.0938 11.3906 21.0781 11.7031 20.6875C12.2499 19.9844 12.1093 19.2031 11.3906 18.8281C10.9062 18.5625 8.29682 18.5156 7.70307 18.75Z" fill="#1362A2"/>
<path d="M24.4375 18.7813C24.0781 18.9531 23.75 19.5313 23.75 19.9844C23.75 20.1406 23.8906 20.4531 24.0781 20.6875C24.3438 21.0313 24.5156 21.0938 25.1563 21.0938C25.7969 21.0938 25.9688 21.0313 26.2344 20.6875C27.1563 19.5156 25.8125 18.1094 24.4375 18.7813Z" fill="#1362A2"/>
<path d="M29.6099 18.7812C28.8443 19.1875 28.688 19.9844 29.2349 20.6875C29.4849 21.0156 29.688 21.0938 30.2349 21.0938C31.0474 21.0938 31.5318 20.7344 31.6568 20.0469C31.7349 19.625 31.6724 19.4688 31.2818 19.0625C30.7818 18.5625 30.188 18.4688 29.6099 18.7812Z" fill="#1362A2"/>
<path d="M34.7348 18.75C34.0317 19.0312 33.8598 20 34.3911 20.6875C34.6411 21.0156 34.8442 21.0938 35.3911 21.0938C36.313 21.0938 36.7817 20.6875 36.7817 19.9219C36.7817 18.9062 35.7661 18.3281 34.7348 18.75Z" fill="#1362A2"/>
<path d="M47.4219 0.311989C47.0469 0.733864 47.0469 1.60886 47.4219 2.03074C47.7031 2.34324 47.8281 2.34324 56.875 2.34324C61.9219 2.34324 66.2656 2.39011 66.5469 2.43699C66.8125 2.49949 67.2031 2.71824 67.4219 2.93699L67.8125 3.32761V10.6401V17.9682H67C65.9062 17.9682 65.1094 18.2026 64.5312 18.7026C63.5625 19.5151 63.5156 19.7182 63.5156 23.5932C63.5156 27.6089 63.6094 27.9682 64.7344 28.7182C65.25 29.062 65.5781 29.1557 66.5938 29.2026L67.8125 29.2495V35.6714V42.0932L66.6875 40.9839C65.3594 39.687 64.9844 39.4682 64.3594 39.6089C63.7969 39.7339 63.4375 40.2182 63.4375 40.8589C63.4375 41.2651 63.8125 41.7026 66.0938 43.9682C68.6562 46.5151 68.75 46.5932 69.25 46.4995C69.6406 46.4214 70.3438 45.8276 72.2188 43.9526C73.5625 42.6089 74.7188 41.3276 74.7656 41.1245C74.9688 40.312 74.2969 39.5307 73.4062 39.5307C73.2188 39.5307 72.5469 40.062 71.7031 40.8901L70.3125 42.2495V35.7339V29.2182H71.4062C72.0156 29.2182 72.7344 29.1245 73.0156 28.9995C73.6875 28.7339 74.5 27.7807 74.6094 27.1557C74.6562 26.8745 74.6875 25.0932 74.6562 23.187L74.6094 19.7339L74.1719 19.1714C73.5625 18.3589 72.9219 18.0776 71.5312 17.9995L70.3281 17.9214L70.2812 10.2339L70.2344 2.54636L69.7656 1.78074C69.4688 1.31199 69 0.843239 68.5312 0.546364L67.7656 0.0776138L57.7344 0.0307388C47.7656 -0.000511169 47.7031 -0.000511169 47.4219 0.311989ZM72.1094 23.5932V26.6401L69.1562 26.687C66.8906 26.7182 66.1719 26.6714 66.0625 26.5307C65.8594 26.187 65.9062 20.8745 66.125 20.6557C66.2656 20.5151 67.0938 20.4682 69.2188 20.4995L72.1094 20.5464V23.5932Z" fill="#1362A2"/>
<path d="M50.0633 6.54688C48.9227 7.0625 48.3289 8.25 48.4852 9.75C48.5945 11 49.5945 11.5 50.5164 10.7813C50.8445 10.5156 50.9383 10.2969 50.9695 9.64063L51.0164 8.82813H54.8445H58.6727V12.6563V16.4844H54.8445H51.0164L50.9695 15.5938C50.9383 14.8438 50.8602 14.6406 50.5164 14.375C50.0164 13.9844 49.3602 13.9688 48.907 14.3438C48.2195 14.9063 48.3289 17.0781 49.0945 18.0469C49.8289 18.9688 50.282 19.0625 54.8914 19.0625C59.4383 19.0625 59.7195 19.0156 60.5008 18.1875C60.7352 17.9375 61.0008 17.5313 61.0789 17.2969C61.3602 16.5781 61.3133 8.375 61.032 7.84375C60.7352 7.28125 60.0164 6.625 59.4852 6.42188C59.2039 6.3125 57.4539 6.25 54.8758 6.25C51.157 6.25 50.6414 6.28125 50.0633 6.54688Z" fill="#1362A2"/>
<path d="M7.43784 31.4219C6.89097 31.8438 6.87534 32.7656 7.39097 33.25C7.71909 33.5625 7.92222 33.5938 9.51597 33.5938C11.1722 33.5938 11.2816 33.5781 11.641 33.2031C11.891 32.9688 12.0316 32.6406 12.0316 32.3438C12.0316 32.0469 11.891 31.7188 11.641 31.4844C11.2816 31.1094 11.1566 31.0938 9.56284 31.0938C8.07847 31.0938 7.79722 31.1406 7.43784 31.4219Z" fill="#1362A2"/>
<path d="M24.4063 31.25C24.0469 31.4062 23.75 31.9688 23.75 32.5156C23.75 33.0625 24.4375 33.5938 25.1563 33.5938C26.0625 33.5938 26.6406 33.0156 26.5156 32.2188C26.4531 31.9219 26.3125 31.5625 26.2031 31.4375C25.9219 31.1719 24.875 31.0469 24.4063 31.25Z" fill="#1362A2"/>
<path d="M29.5787 31.2496C28.8443 31.5465 28.6881 32.609 29.2974 33.2028C30.0006 33.9215 31.4068 33.6246 31.6256 32.7184C31.9068 31.5934 30.7662 30.7809 29.5787 31.2496Z" fill="#1362A2"/>
<path d="M34.4537 31.4844C33.6568 32.2656 34.188 33.5938 35.313 33.5938C36.1255 33.5938 36.3755 33.4688 36.6568 32.9531C37.313 31.6563 35.4849 30.4375 34.4537 31.4844Z" fill="#1362A2"/>
<path d="M4.10938 46.9215C1.78125 49.2496 1.5625 49.5152 1.5625 50.0152C1.5625 50.734 2.09375 51.2496 2.82812 51.2496C3.29688 51.2496 3.53125 51.0777 4.60938 49.9996L5.85938 48.7496L5.9375 62.9215L6.01562 77.109L6.4375 77.9215C6.67188 78.359 7.10938 78.9059 7.39062 79.1246C8.59375 80.0465 7.5625 79.9996 25.7031 79.9996C42.1406 79.9996 42.3438 79.9996 42.6562 79.6871C43.0781 79.2652 43.0781 78.3902 42.6562 77.9684C42.3438 77.6559 42.1406 77.6559 26.2969 77.6559C15.6094 77.6559 10.0312 77.5934 9.64062 77.484C8.4375 77.1559 8.51562 78.1715 8.46875 62.5934L8.4375 48.6871L9.75 49.9684C10.9531 51.1402 11.1094 51.2496 11.6875 51.2496C12.1875 51.2496 12.3906 51.1559 12.6406 50.8434C13.2812 50.0152 13.1719 49.8277 10.3438 46.9996C7.98438 44.6246 7.67188 44.3746 7.1875 44.3746C6.71875 44.3746 6.40625 44.6246 4.10938 46.9215Z" fill="#1362A2"/>
<path d="M20.75 47.9688C20.0312 48.1875 19.4219 48.7188 19.0781 49.4219C18.7656 50.0625 18.75 50.3438 18.75 55.7188C18.75 60.8281 18.7812 61.3906 19.0469 61.9531C19.7187 63.4063 20.2969 63.5938 24.2031 63.5938H27.3281L27.375 67L27.4219 70.4219L27.8437 70.9688C28.6562 72.0312 28.6719 72.0312 35.1875 72.0312C40.9375 72.0312 41.0156 72.0156 41.6406 71.6719C41.9844 71.4688 42.4062 71.0469 42.6094 70.7031C42.9531 70.0781 42.9687 70.0156 42.9687 64.2188C42.9687 58.4219 42.9531 58.3594 42.6094 57.7344C42.4062 57.3906 41.9844 56.9688 41.6406 56.7656C41.0469 56.4375 40.8437 56.4063 37.7812 56.4063H34.5469L34.5 53.0781C34.4531 49.9375 34.4375 49.7344 34.0937 49.1875C33.8906 48.875 33.4687 48.4531 33.1562 48.25C32.5781 47.8906 32.5312 47.8906 26.875 47.8594C23.7344 47.8438 20.9844 47.8906 20.75 47.9688ZM31.8594 50.5313C31.9844 50.6719 32.0312 52.2188 32 55.875L31.9531 61.0156H26.6406H21.3281L21.2812 55.8594C21.2656 53.0313 21.2812 50.6094 21.3281 50.5156C21.4375 50.2031 31.6094 50.2188 31.8594 50.5313ZM40.4687 64.2188V69.5313H35.1562H29.8437V66.5625V63.5938H31.0469C32.5469 63.5938 33.4219 63.2031 34.0312 62.3125C34.375 61.7813 34.4531 61.4688 34.5 60.2969L34.5625 58.9063H37.5156H40.4687V64.2188Z" fill="#1362A2"/>
<path d="M51.0156 50.4521C49.875 50.749 48.9531 51.5146 48.5312 52.5303C48.3125 53.0146 48.2812 53.999 48.2812 58.6553V64.2021L48.6875 64.5146C48.9219 64.7021 49.2656 64.8428 49.4688 64.8428C50.5625 64.8428 50.7812 64.3271 50.7812 61.6396V59.5303H62.9375C74.1875 59.5303 75.125 59.5459 75.625 59.8115C76.7344 60.3584 76.7188 60.2803 76.7188 68.5615C76.7188 76.7646 76.7188 76.7646 75.7188 77.3115C75.2812 77.5459 74.2656 77.5771 64.375 77.624C58.4062 77.6553 53.125 77.624 52.6719 77.5771C51.9844 77.4834 51.7031 77.3584 51.2969 76.9521L50.7812 76.4365V72.6709C50.7812 69.6553 50.7344 68.7959 50.5469 68.4521C50.1719 67.7334 49.3906 67.5928 48.6875 68.1396L48.2812 68.4521V72.624C48.2812 76.3428 48.3125 76.8584 48.5781 77.4365C49 78.374 49.8281 79.2178 50.7031 79.624L51.4844 79.999L63.6719 79.9834C73.3281 79.9834 75.9844 79.9365 76.4375 79.7803C77.3125 79.4678 78.1719 78.7021 78.6875 77.7803L79.1406 76.9521V68.5928C79.1406 60.2803 79.1406 60.2334 78.7969 59.5928C78.2344 58.5459 77.7031 58.0146 76.75 57.5459C75.875 57.1084 75.8125 57.1084 72.2812 57.0303L68.7031 56.9521L66.7188 54.5303C63.3281 50.3584 63.4844 50.4209 56.6406 50.374C53.8125 50.3428 51.2812 50.3896 51.0156 50.4521ZM61.9844 53.2334C62.375 53.4521 63.0781 54.124 63.7656 54.9521C64.3906 55.7178 65.0312 56.4834 65.2031 56.6709L65.5156 57.0303H58.1562H50.7812V55.2646C50.7812 53.4209 50.8594 53.1865 51.5625 52.9209C51.6875 52.874 53.9375 52.8428 56.5625 52.8584C61.1719 52.8896 61.3438 52.9053 61.9844 53.2334Z" fill="#1362A2"/>
</g>
<defs>
<clipPath id="clip0_846_5217">
<rect width="80" height="80" fill="white"/>
</clipPath>
</defs>
</svg>
