<svg width="80" height="80" viewBox="0 0 80 80" fill="none" xmlns="http://www.w3.org/2000/svg">
<path d="M1.34375 4.90625C1.01562 5.10938 0.578125 5.54688 0.375 5.875L0 6.48438V39.9844V73.4844L0.375 74.125C0.578125 74.4844 1.03125 74.9219 1.375 75.125L2 75.4688H33.5C64.7969 75.4688 65 75.4688 65.3125 75.1562C65.7031 74.7656 65.7188 73.9062 65.3594 73.4531L65.0781 73.125L33.875 73.0781C16.7188 73.0625 2.625 72.9844 2.54688 72.9219C2.48438 72.8438 2.40625 59.9219 2.375 44.2031L2.34375 15.625H40H77.6562L77.625 44.2031C77.5938 59.9219 77.5156 72.8438 77.4531 72.9219C77.375 72.9844 75.3281 73.0625 72.8906 73.0938C68.7031 73.1406 68.4531 73.1562 68.1875 73.4531C67.8281 73.8594 67.8281 74.7344 68.2031 75.1562C68.4688 75.4531 68.6406 75.4688 73.25 75.4688C78 75.4688 78.0156 75.4688 78.6562 75.0938C79.0156 74.8906 79.4531 74.4375 79.6562 74.0938L80 73.4688V40V6.51562L79.625 5.875C79.4219 5.51562 78.9688 5.07812 78.625 4.875L78 4.53125H47.2188H16.4219L16.1094 4.9375C15.6875 5.46875 15.6875 5.9375 16.1094 6.46875L16.4219 6.875L46.875 6.90625C63.625 6.9375 77.375 7.01562 77.4531 7.07812C77.5156 7.15625 77.5938 8.54688 77.625 10.1719L77.6719 13.125H40H2.32812L2.375 10.1719C2.40625 8.54688 2.48438 7.15625 2.54688 7.07812C2.625 7.01562 5.03125 6.92188 7.92188 6.875C12.875 6.79688 13.1562 6.78125 13.375 6.5C13.7031 6.04688 13.6562 5.21875 13.2812 4.84375C12.9844 4.54688 12.7656 4.53125 7.46875 4.53125C1.95312 4.53125 1.95312 4.53125 1.34375 4.90625Z" fill="#1362A2"/>
<path d="M5.67224 8.9375C5.23474 9.15625 4.95349 9.84375 5.09411 10.375C5.31286 11.2344 5.35974 11.25 11.3754 11.25H16.891L17.266 10.8594C17.7347 10.4062 17.766 9.70312 17.3597 9.20312L17.0629 8.82812L11.5316 8.79688C7.85974 8.78125 5.90661 8.82812 5.67224 8.9375Z" fill="#1362A2"/>
<path d="M10.7031 24.2031C9.54687 24.7188 8.75 25.9688 8.75 27.25C8.75 29.1406 10.4687 30.7344 12.3437 30.6094C12.9062 30.5625 13.0312 30.6406 14.2031 31.7656L15.4687 32.9688H19.0625H22.6562V35.625V38.2812H19.2969H15.9531L15.7187 37.8281C14.8906 36.25 12.4219 35.7344 10.9062 36.8281C9.14062 38.0938 9.04687 40.7812 10.7031 42.1406C12.25 43.4219 14.7969 43.0312 15.7031 41.3594L16.0156 40.7812H19.3281H22.6562V43.5156V46.25H19.0156H15.375L14.2187 47.4219L13.0625 48.5938H12.1406C9.46875 48.5938 7.92188 51.3281 9.28125 53.6562C10.4844 55.7188 13.5 55.7812 14.9062 53.7969C15.4687 52.9688 15.6406 51.6406 15.2656 50.75L15.0312 50.1875L15.8437 49.3906L16.6562 48.5938H19.6406H22.6094L22.7187 49.5C22.7812 49.9844 22.9531 50.5938 23.1094 50.8281C23.2656 51.0625 26.9219 53.8281 31.2344 56.9531L39.0937 62.6562H40H40.9062L48.7656 56.9688C53.0781 53.8281 56.7344 51.0625 56.8906 50.8281C57.0469 50.5938 57.2187 49.9844 57.2812 49.5L57.3906 48.5938H60.3594H63.3437L64.1562 49.3906L64.9687 50.1875L64.7344 50.75C64.3594 51.6406 64.5312 52.9688 65.0937 53.7969C66.5 55.7812 69.5156 55.7188 70.7187 53.6562C72.0781 51.3281 70.5312 48.5938 67.8594 48.5938H66.9375L65.7812 47.4219L64.625 46.25H60.9844H57.3437V43.5156V40.7812H60.6719H63.9844L64.2969 41.3594C64.9219 42.5312 66.6562 43.2031 68.0469 42.8125C70.7812 42.0469 71.3594 38.3438 68.9687 36.7344C68.2969 36.2812 66.8906 36.125 66.0312 36.4062C65.3281 36.6406 64.5937 37.2344 64.2812 37.8281L64.0469 38.2812H60.7031H57.3437V35.625V32.9688H60.9375H64.5312L65.7812 31.7812C67.0156 30.5938 67.0156 30.5938 67.9219 30.5781C69.5 30.5312 70.7187 29.5938 71.1094 28.125C71.9687 24.875 68.0156 22.5156 65.5625 24.8125C64.6562 25.6719 64.2812 27.2188 64.7031 28.4219C64.875 28.9062 64.8594 28.9688 64.125 29.7031L63.375 30.4688H60.375H57.3906L57.3125 28.9688C57.2187 27.3281 57.0469 26.9375 56.0937 26.2812L55.5781 25.9375H48.4531C40.6875 25.9375 40.7812 25.9219 40.5625 26.8125C40.4219 27.375 40.7031 28.0469 41.1875 28.2656C41.4531 28.3906 43.6094 28.4375 48.2187 28.4375H54.8437L54.8125 38.9375L54.7656 49.4375L47.3906 54.8125L40.0156 60.1719L32.625 54.8125L25.2344 49.4531L25.1875 38.9375L25.1562 28.4375H31.3281H37.5156L37.8906 28.0469C38.4062 27.5469 38.4219 26.75 37.9219 26.2812C37.5625 25.9375 37.5156 25.9375 30.9844 25.9375C24.4375 25.9375 24.4219 25.9375 23.9062 26.2812C22.9531 26.9375 22.7812 27.3281 22.6875 28.9688L22.6094 30.4688H19.625H16.625L15.875 29.7031C15.1406 28.9688 15.125 28.9062 15.2969 28.4219C15.7187 27.2188 15.3437 25.6719 14.4375 24.8125C13.4687 23.9062 11.9062 23.6562 10.7031 24.2031ZM12.6875 26.6719C13.0937 27.0312 13.0469 27.5938 12.5781 27.9062C11.7812 28.4219 10.9531 27.5781 11.4687 26.7969C11.7656 26.3438 12.2656 26.2969 12.6875 26.6719ZM68.5312 26.7969C69.0469 27.5781 68.2187 28.4219 67.4219 27.9062C66.9687 27.6094 66.9219 27.1094 67.2969 26.6875C67.6562 26.2812 68.2187 26.3281 68.5312 26.7969ZM13.5312 39.1406C13.8437 39.6094 13.7031 40.1094 13.2031 40.3438C12.3906 40.7031 11.6562 39.625 12.2812 39C12.6406 38.625 13.2344 38.6875 13.5312 39.1406ZM67.7187 39C68.3437 39.625 67.6094 40.7031 66.7969 40.3438C66.2969 40.1094 66.1562 39.6094 66.4687 39.1406C66.7656 38.6875 67.3594 38.625 67.7187 39ZM12.7344 51.4062C13.3125 52.0469 12.5156 53.0781 11.7344 52.6719C11 52.2656 11.2656 51.0938 12.1094 51.0938C12.2969 51.0938 12.5781 51.2344 12.7344 51.4062ZM68.4687 51.3594C68.625 51.5 68.75 51.7344 68.75 51.9062C68.75 52.25 68.2187 52.8125 67.8906 52.8125C67.5625 52.8125 67.0312 52.25 67.0312 51.8906C67.0312 51.1875 67.9219 50.8594 68.4687 51.3594Z" fill="#1362A2"/>
<path d="M38.0312 31.625C37.0781 32.0625 36.2344 32.9062 35.75 33.8906C35.4375 34.5156 35.3906 34.9062 35.3438 36.8281L35.2812 39.0625H34.3594C33.5156 39.0625 33.375 39.1094 32.8438 39.5938L32.2656 40.125V45.4688V50.8125L32.8438 51.3438L33.4375 51.875H40H46.5625L47.1562 51.3438L47.7344 50.8125V45.4688V40.125L47.1562 39.5938C46.625 39.1094 46.4844 39.0625 45.6406 39.0625H44.7188L44.6562 36.8281C44.6094 34.9062 44.5625 34.5156 44.25 33.8906C43.4062 32.1719 41.9219 31.25 40 31.25C39.0938 31.25 38.6406 31.3438 38.0312 31.625ZM41.25 34.1562C42.0625 34.8438 42.1875 35.2656 42.1875 37.2656V39.0625H40H37.8125V37.2656C37.8125 35.2656 37.9375 34.8438 38.75 34.1562C39.1406 33.8438 39.4062 33.75 40 33.75C40.5938 33.75 40.8594 33.8438 41.25 34.1562ZM45.3125 45.4688V49.375H40H34.6875V45.4688V41.5625H40H45.3125V45.4688Z" fill="#1362A2"/>
</svg>
