<svg width="80" height="80" viewBox="0 0 80 80" fill="none" xmlns="http://www.w3.org/2000/svg">
<g clip-path="url(#clip0_846_5284)">
<path d="M3.82812 6.70312C2.48437 7.03125 1.23437 8 0.546875 9.23438L0.078125 10.0781V40V69.9219L0.53125 70.75C1.07812 71.7188 1.71875 72.3281 2.85937 72.9375L3.67187 73.3594H40H76.3281L77.3125 72.8281C78.4531 72.2031 79.2656 71.2969 79.7031 70.1562C79.9844 69.4062 80 68.7812 80 52.9062V36.4219L79.5937 36.1094C79.0625 35.6875 78.5937 35.6875 78.0625 36.1094L77.6562 36.4219V52.2344C77.6562 62.3594 77.5937 68.2969 77.4844 68.7344C77.2812 69.6719 76.7969 70.2969 76.0312 70.6406C75.4062 70.9219 74.1719 70.9375 40 70.9375C5.82812 70.9375 4.59375 70.9219 3.96875 70.6406C3.20312 70.2969 2.71875 69.6719 2.51562 68.7344C2.40625 68.2812 2.34375 60.2812 2.34375 45.8125V23.5938H40H77.6562V27.875V32.1719L78.0625 32.4844C78.5937 32.9062 79.0625 32.9062 79.5937 32.4844L80.0156 32.1562L79.9687 21.125L79.9219 10.0781L79.4687 9.25C78.9219 8.28125 78.2812 7.67188 77.1406 7.0625L76.3281 6.64062L48 6.59375L19.6719 6.5625L19.2969 6.9375C18.7812 7.45312 18.7812 8.17188 19.2969 8.67188L19.6719 9.0625H47.5312C74.3594 9.0625 75.4219 9.07812 76.0312 9.35938C76.7969 9.70312 77.2812 10.3281 77.4844 11.2656C77.5781 11.6406 77.6562 14.0312 77.6562 16.5938V21.25H40H2.34375V16.5938C2.34375 14.0312 2.42187 11.6406 2.51562 11.2656C2.71875 10.3281 3.20312 9.70312 3.96875 9.35938C4.54687 9.09375 5.07812 9.0625 9.89062 9.0625H15.1719L15.5469 8.67188C15.7969 8.4375 15.9375 8.10938 15.9375 7.8125C15.9375 7.51562 15.7969 7.1875 15.5469 6.95312L15.1719 6.5625L9.73437 6.57812C6.75 6.59375 4.09375 6.64062 3.82812 6.70312Z" fill="#1362A2"/>
<path d="M8.84375 11.9534C7.51562 12.4221 6.5625 13.8284 6.5625 15.3128C6.5625 17.9221 9.21875 19.6409 11.5625 18.5784C13 17.9378 13.6562 16.9065 13.6562 15.3128C13.6562 13.719 13 12.6878 11.5625 12.0471C10.75 11.6721 9.71875 11.6409 8.84375 11.9534ZM10.7969 14.5003C11.5156 15.094 11.0469 16.4065 10.1094 16.4065C9.65625 16.4065 9.0625 15.7971 9.0625 15.3284C9.0625 14.844 9.64062 14.219 10.0937 14.219C10.2812 14.219 10.5937 14.344 10.7969 14.5003Z" fill="#1362A2"/>
<path d="M18.2187 11.9534C16.8906 12.4221 15.9375 13.8284 15.9375 15.3128C15.9375 17.9221 18.5937 19.6409 20.9375 18.5784C22.375 17.9378 23.0312 16.9065 23.0312 15.3128C23.0312 13.719 22.375 12.6878 20.9375 12.0471C20.125 11.6721 19.0937 11.6409 18.2187 11.9534ZM20.1719 14.5003C20.8906 15.094 20.4219 16.4065 19.4844 16.4065C19.0312 16.4065 18.4375 15.7971 18.4375 15.3284C18.4375 14.844 19.0156 14.219 19.4687 14.219C19.6562 14.219 19.9687 14.344 20.1719 14.5003Z" fill="#1362A2"/>
<path d="M27.5937 11.9534C26.2656 12.4221 25.3125 13.8284 25.3125 15.3128C25.3125 17.9221 27.9687 19.6409 30.3125 18.5784C31.75 17.9378 32.4062 16.9065 32.4062 15.3128C32.4062 13.719 31.75 12.6878 30.3125 12.0471C29.5 11.6721 28.4687 11.6409 27.5937 11.9534ZM29.5469 14.5003C30.2656 15.094 29.7969 16.4065 28.8594 16.4065C28.4062 16.4065 27.8125 15.7971 27.8125 15.3284C27.8125 14.844 28.3906 14.219 28.8437 14.219C29.0312 14.219 29.3437 14.344 29.5469 14.5003Z" fill="#1362A2"/>
<path d="M39.5156 12.1562C38.9844 12.4219 38.5 12.8438 38.2031 13.2656C37.7656 13.8906 37.7344 14.0312 37.7344 15.3125C37.7344 16.5938 37.7656 16.7344 38.2031 17.3594C38.5 17.7812 38.9844 18.2031 39.5156 18.4688L40.3438 18.9062H55.625H70.9062L71.7344 18.4688C72.2656 18.2031 72.75 17.7812 73.0469 17.3594C73.4844 16.7344 73.5156 16.5938 73.5156 15.3125C73.5156 14.0312 73.4844 13.8906 73.0469 13.2656C72.75 12.8438 72.2656 12.4219 71.7344 12.1562L70.9062 11.7188H55.625H40.3438L39.5156 12.1562ZM70.7812 14.5312C70.9531 14.7031 71.0938 15.0469 71.0938 15.3125C71.0938 15.5781 70.9531 15.9219 70.7812 16.0938C70.4688 16.4062 70.2656 16.4062 55.625 16.4062C40.9844 16.4062 40.7812 16.4062 40.4688 16.0938C40.2969 15.9219 40.1562 15.5781 40.1562 15.3125C40.1562 15.0469 40.2969 14.7031 40.4688 14.5312C40.7812 14.2188 40.9844 14.2188 55.625 14.2188C70.2656 14.2188 70.4688 14.2188 70.7812 14.5312Z" fill="#1362A2"/>
<path d="M49.1406 26.7969C47.9219 27.4531 47.5156 28.2969 47.5 30.125V31.4375L46.8438 30.8594C45.0938 29.375 42.3906 28.7188 40.0156 29.2344C39.0312 29.4375 38.4375 30.0781 38.4375 30.875C38.4375 31.6406 38.625 31.9531 39.8594 33.2031C41.1719 34.5469 41.3125 34.9688 40.6562 35.625C39.875 36.3906 39.5156 36.2656 37.8438 34.625C36.7344 33.5469 36.6875 33.5156 35.9219 33.5156C35.2344 33.5156 35.0781 33.5781 34.6875 34.0156C34.1562 34.6094 33.9844 35.625 34.0938 37.5469C34.1875 39.1094 34.6094 40.2813 35.5625 41.5625L36.25 42.5H35.2656C33.4688 42.5156 32.625 42.8594 31.9219 43.9063C31.5781 44.4063 31.5625 44.5625 31.5625 47.625C31.5625 50.625 31.5781 50.8594 31.9062 51.4375C32.4531 52.4063 33.1094 52.7188 34.8281 52.8125L36.2969 52.8906L36.8125 54.1406C37.1094 54.8281 37.3438 55.4531 37.3438 55.5469C37.3438 55.6406 37 56.0625 36.5625 56.4844C35.5938 57.4375 35.3125 58.0313 35.3125 59.0938C35.3125 60.2344 35.7656 60.9063 38 63.0625C39.5781 64.5781 39.8906 64.8281 40.5781 64.9844C41.7812 65.2813 42.5 65.0156 43.6875 63.875C44.375 63.2188 44.7656 62.9531 44.9531 63.0156C45.1094 63.0625 45.7344 63.3125 46.3281 63.5625L47.4219 64.0156L47.5156 65.5313C47.5781 66.7813 47.6562 67.125 47.9688 67.5469C48.8438 68.7344 49.3438 68.875 52.6562 68.875C55.6875 68.875 56.1406 68.7969 56.9531 67.9844C57.6094 67.3438 57.8125 66.6875 57.8125 65.1875V64.0313L58.4062 64.5C60.0312 65.7656 61.5469 66.3125 63.5156 66.3125C65.8906 66.3281 66.875 65.7344 66.875 64.2813C66.875 63.7813 66.7344 63.5625 65.7188 62.5156C64.2812 61.0313 64.125 60.75 64.3906 60.1406C64.6094 59.6094 64.9531 59.375 65.5625 59.375C65.8906 59.375 66.2969 59.6719 67.2812 60.625C68.5469 61.8594 68.5625 61.875 69.3594 61.875C70.7656 61.875 71.25 61.0313 71.25 58.5781C71.25 56.625 70.7188 55.0313 69.5938 53.6406C69.2969 53.2813 69.0625 52.9531 69.0625 52.9063C69.0625 52.8594 69.6406 52.8125 70.3438 52.8125C71.9688 52.8125 72.7969 52.4531 73.3594 51.5C73.7344 50.8438 73.75 50.75 73.75 47.7656C73.75 44.5938 73.6719 44.1094 73.0781 43.4688C72.4844 42.8281 71.8594 42.6094 70.3906 42.5313L68.9688 42.4688L68.4688 41.1875C68.1875 40.5 67.9688 39.8438 67.9688 39.7656C67.9688 39.6719 68.3281 39.25 68.7656 38.8281C69.2031 38.3906 69.6562 37.8594 69.7812 37.625C70.0625 37.0938 70.0625 35.7656 69.7812 35.1094C69.5156 34.4844 65.6875 30.7031 65.1094 30.4844C64.4688 30.2344 63.3438 30.2813 62.7656 30.5625C62.4844 30.7031 61.875 31.1875 61.4062 31.6406L60.5469 32.4688L59.1875 31.9063L57.8125 31.3438V30.0938C57.8125 28.5625 57.4844 27.7344 56.625 27.0938L56.0469 26.6406L52.8281 26.5938C50.125 26.5625 49.5312 26.5938 49.1406 26.7969ZM55.3125 30.625C55.4375 32.9219 55.5781 33.0781 58.6406 34.4375C60.5625 35.2813 61.4375 35.1406 62.8906 33.7344C63.4219 33.2344 63.9219 32.8125 64 32.8125C64.2031 32.8125 67.5 36.125 67.5 36.3281C67.5 36.4219 67.25 36.75 66.9375 37.0469C65.0469 38.8281 65.0156 40.0781 66.75 43.5625C67.2656 44.5938 68.0781 45 69.6562 45C71.4219 45 71.4062 44.9844 71.4062 47.5938C71.4062 48.7656 71.3281 49.8438 71.25 50.0156C71.1094 50.2656 70.9062 50.3125 69.9062 50.3125C68.6719 50.3125 67.8281 50.5625 67.2344 51.125C66.9062 51.4375 66.875 51.4375 66.1406 51.1875C65.7344 51.0313 64.9375 50.875 64.3594 50.8281L63.3438 50.7344L63.5469 49.7813C63.8125 48.5156 63.7969 46.5781 63.5156 45.2344C63.1875 43.6719 62.0781 41.5156 60.9844 40.3281C60.1719 39.4375 60.0156 39.3438 59.4531 39.3438C58.7031 39.3438 58.2812 39.7813 58.2812 40.5469C58.2812 40.9531 58.4688 41.2813 59.0625 41.9844C60.625 43.7813 61.375 46.0156 61.2031 48.25C61.0156 50.5156 61.5312 50.8281 55.6094 44.9063C52.6875 41.9844 50.3125 39.5625 50.3125 39.5156C50.3125 39.2656 52.4531 39.0469 53.8281 39.1563C55.2656 39.25 55.2656 39.25 55.5938 38.8281C56.1875 38.0781 55.9688 37.2188 55.1094 36.8906C54.0938 36.5 51.2031 36.5469 49.8125 36.9688C49.5625 37.0469 49.5312 36.9375 49.5312 36.2813C49.5312 35.8438 49.3906 35.0469 49.2188 34.4688L48.8906 33.4531L49.2344 33.1094C49.7812 32.5625 50 31.8125 50 30.5C50 29.8281 50.0469 29.2188 50.1094 29.1563C50.1719 29.1094 51.3438 29.0781 52.7188 29.0938L55.2344 29.1406L55.3125 30.625ZM44.1562 32.1875C45.3594 32.7813 46.2656 33.7656 46.7344 34.9844C47 35.7188 47.0469 36.0625 46.9688 37.1094C46.9219 37.7969 46.8281 38.625 46.7812 38.9688L46.6875 39.5625L53.6875 46.5938L60.7031 53.625L61.5625 53.5C63.2344 53.2656 64.8594 53.3438 65.6562 53.7031C67.2031 54.4063 68.5312 56.1719 68.7188 57.7813L68.7969 58.5156L68.0938 57.875C67.2188 57.0625 66.5 56.8281 65.1562 56.9063C63.4062 57 62.2188 58.0469 61.8438 59.8594C61.6094 61.0156 61.9531 62.1875 62.8281 63.1719C63.1719 63.5781 63.4062 63.9063 63.3281 63.9063C63.25 63.9063 62.7656 63.7969 62.2656 63.6719C60.3594 63.1719 58.875 61.6875 58.3438 59.7188C58.1094 58.8594 58.0938 58.5781 58.25 57.6406C58.5781 55.7188 58.7188 55.9688 55.8125 53.0781C53.5625 50.8438 53.1094 50.4688 52.7031 50.4688C51.9531 50.4688 51.4844 50.9375 51.4844 51.7031C51.4844 52.3125 51.5781 52.4375 53.2656 54.125L55.0312 55.8906L54.2812 56.0156C53.0781 56.1875 51.4219 56.125 50.4844 55.8438C47.4375 54.9688 44.9531 52.2969 44.3594 49.25C44.1875 48.2969 44.2344 45.7188 44.4375 45.5156C44.5 45.4531 45.375 46.2344 46.3906 47.2344C47.9688 48.8125 48.2969 49.0625 48.7344 49.0625C49.0156 49.0625 49.375 49 49.5312 48.9063C49.875 48.7188 50.1719 47.9063 50.0469 47.5313C49.9219 47.1406 44.8281 42.0313 44.4062 41.8594C44.1562 41.7656 43.7188 41.7969 43.0156 41.9844C41.8438 42.2813 40.6406 42.1406 39.4531 41.5625C38.0312 40.875 36.8281 39.2344 36.6094 37.7031L36.5156 36.9688L37.1875 37.5469C37.8594 38.1094 39.0469 38.5938 39.7969 38.5938C40.5938 38.5938 41.5781 38.2188 42.1875 37.7031C43.1094 36.9063 43.5 36.0781 43.5 34.8438C43.5 33.6875 43.2344 33.0469 42.3594 32.125L41.7969 31.5156L42.4844 31.6094C42.8594 31.6563 43.6094 31.9063 44.1562 32.1875ZM39.2344 44.2031C39.7188 44.3594 40.5312 44.5469 41.0781 44.6094C41.8906 44.7031 42.0312 44.7656 41.9531 44.9844C41.7031 45.5781 41.6875 48.8281 41.9375 49.9844C42.5938 53.0625 44.7344 55.8906 47.5 57.3281C49.4531 58.3438 50.7969 58.6406 53.1094 58.5625C54.1875 58.5156 55.1875 58.4375 55.3281 58.375C55.5469 58.2813 55.5938 58.4219 55.6875 59.25C55.75 59.7969 55.9375 60.6094 56.0938 61.0781L56.3906 61.9063L55.8906 62.5313C55.4219 63.1094 55.3906 63.25 55.3438 64.5938C55.3125 65.375 55.2031 66.1094 55.125 66.2188C54.9062 66.4844 50.4531 66.4844 50.1875 66.2188C50.0781 66.1094 50 65.5469 50 64.8125C50 62.8906 49.4531 62.0625 47.7656 61.4219C47.3125 61.2656 46.6406 60.9688 46.25 60.7969C45.4219 60.4219 44.4219 60.375 43.6562 60.7031C43.3594 60.8281 42.6875 61.3281 42.1875 61.8125L41.25 62.7031L39.5312 61.0156C38.5938 60.0781 37.8125 59.2188 37.8125 59.0781C37.8125 58.9531 38.2344 58.4219 38.7344 57.8906C39.7344 56.8438 39.9375 56.3281 39.7969 55.125C39.7188 54.3594 38.7812 52.0469 38.2812 51.375C37.75 50.6563 36.8438 50.3125 35.4375 50.3125C34.4062 50.3125 34.2031 50.2656 34.0625 50.0156C33.9844 49.8438 33.9062 48.7656 33.9062 47.5938C33.9062 44.9844 33.8906 45 35.6562 45C36.7344 45 37.0312 44.9375 37.6094 44.6094C37.9688 44.3906 38.2812 44.1406 38.2812 44.0625C38.2812 43.8594 38.25 43.8594 39.2344 44.2031Z" fill="#1362A2"/>
<path d="M6.96908 39.7031C6.45346 40.1094 6.39096 41.0781 6.87533 41.5625C7.18783 41.875 7.39096 41.875 17.1097 41.875C26.8285 41.875 27.0316 41.875 27.3441 41.5625C27.8285 41.0781 27.766 40.1094 27.2503 39.7031C26.8441 39.375 26.7035 39.375 17.1097 39.375C7.51596 39.375 7.37533 39.375 6.96908 39.7031Z" fill="#1362A2"/>
<path d="M6.98417 44.375C6.45292 44.7969 6.39042 45.7656 6.87479 46.25C7.17167 46.5469 7.39042 46.5625 10.6717 46.5625C14.1248 46.5625 14.1717 46.5625 14.4998 46.2031C14.9217 45.75 14.9373 45 14.5467 44.5156C14.2498 44.1406 14.2029 44.1406 10.8279 44.0938C7.53104 44.0469 7.39042 44.0625 6.98417 44.375Z" fill="#1362A2"/>
<path d="M17.7188 44.25C17.3594 44.4219 17.0312 45 17.0312 45.4531C17.0312 45.6094 17.1719 45.9219 17.3594 46.1563L17.6719 46.5625H22.3594C26.8281 46.5625 27.0469 46.5469 27.3438 46.25C27.8281 45.7656 27.7656 44.7969 27.25 44.3906C26.8438 44.0781 26.6563 44.0625 22.4375 44.0781C19.75 44.0781 17.9219 44.1406 17.7188 44.25Z" fill="#1362A2"/>
<path d="M6.96908 49.0781C6.45346 49.4844 6.39096 50.4531 6.87533 50.9375C7.18783 51.25 7.39096 51.25 17.1097 51.25C26.8285 51.25 27.0316 51.25 27.3441 50.9375C27.8285 50.4531 27.766 49.4844 27.2503 49.0781C26.8441 48.75 26.7035 48.75 17.1097 48.75C7.51596 48.75 7.37533 48.75 6.96908 49.0781Z" fill="#1362A2"/>
<path d="M6.98417 53.75C6.45292 54.1719 6.39042 55.1406 6.87479 55.625C7.15604 55.9062 7.39042 55.9375 9.21854 55.9375C11.0467 55.9375 11.281 55.9062 11.5623 55.625C11.9685 55.2188 11.9685 54.375 11.5779 53.8906C11.2967 53.5312 11.156 53.5156 9.34354 53.4688C7.56229 53.4219 7.39042 53.4375 6.98417 53.75Z" fill="#1362A2"/>
<path d="M14.5001 53.9062C14.1094 54.3125 14.0469 54.4687 14.1251 54.8906C14.3282 55.9531 14.2032 55.9375 20.9532 55.9375C26.8282 55.9375 27.0469 55.9219 27.3438 55.625C27.8282 55.1406 27.7657 54.1719 27.2501 53.7656C26.8438 53.4531 26.6719 53.4375 20.9063 53.4375H14.9688L14.5001 53.9062Z" fill="#1362A2"/>
</g>
<defs>
<clipPath id="clip0_846_5284">
<rect width="80" height="80" fill="white"/>
</clipPath>
</defs>
</svg>
