<svg width="80" height="80" viewBox="0 0 80 80" fill="none" xmlns="http://www.w3.org/2000/svg">
<g clip-path="url(#clip0_846_5245)">
<path d="M42.4219 0.297295C41.0312 0.93792 40.4688 2.00042 40.4688 3.95354V5.26604L39.0781 5.76604C38.3125 6.04729 37.1094 6.54729 36.3906 6.89104L35.1094 7.51604L34.2344 6.67229C33.75 6.20354 33.1094 5.68792 32.8125 5.53167C32.0312 5.12542 30.4219 5.15667 29.6094 5.59417C28.7188 6.04729 22.5781 12.266 22.2656 13.0004C21.9688 13.7504 21.9688 15.1567 22.2656 15.9067C22.4062 16.2192 22.9062 16.891 23.3906 17.3754L24.2656 18.266L23.5625 19.7973C23.1719 20.641 22.6875 21.8442 22.4844 22.4535L22.125 23.5942H20.9531C19.3906 23.5942 18.7031 23.7973 17.9375 24.5004C16.75 25.5785 16.7188 25.6879 16.7188 31.1879V36.0317L17.1562 36.891C17.4375 37.4379 17.8125 37.891 18.25 38.2035C18.875 38.6254 19.0781 38.6723 20.5 38.7504L22.0625 38.8285L22.6406 40.391C22.9531 41.2504 23.4531 42.4223 23.75 43.0004L24.2812 44.0473L23.375 44.9848C22.3125 46.1098 22.0312 46.7192 22.0312 47.9223C22.0469 49.2192 22.4375 49.9379 24.0625 51.6254L25.5 53.1098L24.8125 53.2817C24.4531 53.3754 21.7344 54.1879 18.7812 55.0785C15.8438 55.9848 13.375 56.7192 13.2969 56.7192C13.2188 56.7192 12.8906 56.4379 12.5469 56.1098C12.2031 55.766 11.6719 55.4223 11.3281 55.3285C10.5312 55.1098 3.5625 55.0942 2.78125 55.3129C2 55.5317 1.26562 56.1723 0.921875 56.9535C0.65625 57.5317 0.625 58.1723 0.625 66.4848C0.625 74.8285 0.65625 75.4379 0.921875 76.016C1.26562 76.7504 1.92188 77.4067 2.54688 77.641C2.8125 77.7504 4.5625 77.8129 7.0625 77.8129C10.9062 77.8129 11.1875 77.7973 11.8438 77.4848C12.25 77.2817 12.6875 76.891 12.9375 76.5317C13.2656 76.016 13.4062 75.9223 13.7344 75.9848C13.9531 76.0317 15.6719 76.3285 17.5469 76.6567L20.9375 77.2504L21.375 76.9223C21.6875 76.6879 21.8125 76.4535 21.8438 76.0004C21.9219 74.9067 21.6875 74.8129 17.4219 74.0785C15.3438 73.7348 13.6094 73.4379 13.5469 73.4379C13.4844 73.4379 13.4531 70.266 13.4688 66.391L13.5156 59.3285L18.9844 57.6567C28.2344 54.8285 28.9688 54.6879 34.7188 54.5785L39.0469 54.5004L39.8281 54.9223C40.2656 55.1723 40.7969 55.6254 41.0469 55.9848C41.4219 56.516 41.4844 56.766 41.4844 57.641C41.4844 58.8754 41.125 59.5004 40.1094 60.0317C39.5312 60.3442 39.125 60.391 36.6406 60.4692C33.7344 60.5629 33.4219 60.6254 32.5625 61.3598C30.625 63.016 30.9844 66.1879 33.25 67.391C33.9375 67.766 34.8125 67.9535 38.5625 68.5942C41.0312 69.0004 43.8438 69.4223 44.7969 69.5317C48.0156 69.891 48.7344 69.7817 57.7344 67.6567C62.2031 66.6098 66.1719 65.7348 66.5625 65.7348C68.7344 65.7035 69.2969 68.4848 67.3125 69.4223C66.7344 69.6879 43.8906 76.5317 41.5625 77.1254C39.6719 77.6254 37.7344 77.641 35.3906 77.2035C29.5625 76.1254 26.2656 75.6254 25.8906 75.766C25.1094 76.0629 24.8906 77.2035 25.5 77.766C25.7969 78.0317 26.8594 78.266 31.3438 79.0473C37.1719 80.0629 39.1094 80.2192 41.1719 79.8285C42.625 79.5629 67.6562 72.0629 68.5469 71.6254C71.7812 70.0629 71.8906 65.3129 68.7188 63.7035C67.1562 62.891 66.7344 62.9535 57.0312 65.2348L48.5156 67.2192L46.5625 67.141C44.5781 67.0473 35.5156 65.641 34.6406 65.2973C34.1406 65.0942 33.75 64.5942 33.75 64.1723C33.75 64.016 33.9531 63.6723 34.2031 63.4223L34.6562 62.9692H36.9062C39.2969 62.9692 40.5781 62.7504 41.5 62.1879C41.9688 61.891 42 61.891 42.5156 62.1567C42.9844 62.391 43.6406 62.4223 47.6875 62.4692C50.5625 62.5004 52.5625 62.4535 52.9375 62.3442C53.7812 62.1254 54.5156 61.5942 55.0625 60.8129C55.5 60.2035 55.5469 60.016 55.5938 58.6254L55.6562 57.0942L56.7031 56.7348C57.2656 56.5473 58.4531 56.0629 59.3438 55.6723L60.9531 54.9692L61.7969 55.766C62.8125 56.7192 63.7344 57.1723 64.6719 57.1879C66.2031 57.1879 66.4062 57.0473 69.9688 53.5317C71.7969 51.7192 73.4531 50.0004 73.625 49.7192C73.8125 49.4067 73.9688 48.8129 74.0156 48.2192C74.125 46.9692 73.7656 46.1098 72.6406 44.9223L71.8438 44.0785L72.625 42.3129C73.0469 41.3442 73.5312 40.141 73.6875 39.641L73.9688 38.7504H75.3438C76.875 38.7504 77.5312 38.516 78.3438 37.7192C79.2969 36.766 79.2969 36.7504 79.3438 31.5629C79.4062 26.016 79.3594 25.7504 78.2969 24.6879C77.4375 23.8442 76.7344 23.5942 75.1094 23.5942H73.9219L73.75 22.9692C73.5312 22.1567 72.2812 19.1723 71.9688 18.7192C71.7344 18.4067 71.7812 18.3442 72.7031 17.3442C73.75 16.2504 74.0625 15.5473 74.0625 14.3598C74.0625 13.0317 73.5625 12.3442 70.0625 8.87542C66.9688 5.82854 66.75 5.64104 65.8906 5.39104C64.3438 4.93792 63.2969 5.26604 61.8594 6.65667L61 7.51604L59.5938 6.85979C58.8281 6.50042 57.6406 6.00042 56.9531 5.78167L55.7031 5.34417L55.625 3.89104C55.5625 2.64104 55.4844 2.31292 55.1094 1.67229C54.875 1.26604 54.375 0.734795 54.0312 0.50042L53.3906 0.0785446L48.2188 0.0472946C43.4375 0.000419617 43 0.0160446 42.4219 0.297295ZM52.3281 2.51604C52.5938 2.60979 52.8906 2.81292 52.9688 2.96917C53.0625 3.12542 53.125 4.03167 53.125 4.98479C53.125 7.18792 53.1719 7.25042 55.6406 8.03167C56.6406 8.32854 58.2188 8.98479 59.1406 9.45354C60.0781 9.92229 61.0469 10.3129 61.2969 10.3129C61.6406 10.3129 62.0469 10.0317 63.125 8.98479C63.8906 8.25042 64.5781 7.65667 64.6875 7.65667C65.1406 7.65667 65.9219 8.32854 68.6406 11.0473C71.0156 13.4535 71.5625 14.0785 71.5625 14.4379C71.5625 14.766 71.25 15.1879 70.2344 16.2504C69.375 17.141 68.9062 17.7504 68.9062 17.9848C68.9062 18.1723 69.2969 19.0942 69.7656 20.0317C70.25 20.9692 70.9219 22.5942 71.2656 23.641C71.6406 24.7504 72.0312 25.6567 72.2188 25.8129C72.4844 26.0473 72.8438 26.0942 74.3281 26.0942C76.0156 26.0942 76.125 26.1098 76.4844 26.4848L76.875 26.8598V31.141C76.875 36.5473 77.0469 36.1879 74.375 36.266C72.7656 36.3285 72.4688 36.3754 72.2031 36.641C72.0312 36.8129 71.6406 37.7192 71.3281 38.6723C71.0312 39.6098 70.3594 41.2192 69.8438 42.2348C69.3281 43.2504 68.9062 44.2348 68.9062 44.391C68.9062 44.5629 69.5 45.3285 70.2344 46.1098C71.2344 47.1567 71.5625 47.6098 71.5625 47.9223C71.5625 48.266 70.9531 48.9535 68.3906 51.516C65.7812 54.141 65.1562 54.6879 64.7812 54.6879C64.4531 54.6879 64.0312 54.3754 62.9688 53.3598C62.1406 52.5629 61.4531 52.0317 61.2656 52.0317C61.0938 52.0317 60.1094 52.4535 59.1094 52.9535C58.0938 53.4535 56.5625 54.0942 55.7031 54.3754C53.5156 55.0629 53.4531 55.1098 53.2812 55.5629C53.1875 55.7817 53.125 56.6879 53.125 57.5942C53.125 59.1254 53.0938 59.266 52.7344 59.6098L52.3594 60.0004H48.0469H43.7188L43.8594 59.5004C43.9219 59.2192 43.9844 58.3129 43.9844 57.5004C43.9688 56.1879 43.9219 55.9223 43.5469 55.1879C42.9688 54.0785 41.9844 53.1254 40.8438 52.5629L39.9219 52.1098L35.8594 52.0629C33.1562 52.0317 31.2656 52.0942 30.2031 52.2348L28.6094 52.4379L26.5625 50.391C24.9062 48.7348 24.5312 48.266 24.5312 47.9067C24.5312 47.5629 24.8125 47.1723 25.7969 46.1723C26.75 45.1879 27.0469 44.766 27.0625 44.4379C27.0781 44.1723 26.6719 43.1567 26.1406 42.0785C25.6094 41.016 24.9688 39.4379 24.6875 38.5629C24.4062 37.6723 24.0469 36.8129 23.8906 36.641C23.6406 36.391 23.3125 36.3285 21.625 36.2504C19.9219 36.1879 19.625 36.1254 19.4375 35.8754C19.2656 35.6254 19.2188 34.7192 19.2188 31.1567V26.7348L19.625 26.4223C19.9844 26.141 20.2656 26.0942 21.7812 26.0942C23.2812 26.0942 23.5781 26.0473 23.8438 25.7973C24.0156 25.641 24.3906 24.7817 24.6719 23.891C24.9531 23.0004 25.6406 21.3442 26.1875 20.2035C27.1719 18.1879 27.2031 18.141 26.9844 17.6254C26.8594 17.3442 26.25 16.6254 25.6406 16.016C23.9844 14.391 23.9062 14.6098 27.6406 10.8754C30.3438 8.17229 30.8281 7.76604 31.2344 7.76604C31.625 7.76604 31.9688 8.00042 33.0312 9.03167C34.0625 10.0317 34.4375 10.3129 34.7812 10.3129C35.0312 10.3129 36.0469 9.89104 37.0469 9.39104C38.0469 8.89104 39.6719 8.21917 40.6719 7.90667C41.6719 7.57854 42.5469 7.23479 42.6094 7.14104C42.6875 7.03167 42.7656 6.09417 42.8125 5.04729C42.9062 3.01604 43.0625 2.59417 43.8125 2.45354C44.5938 2.29729 51.8594 2.35979 52.3281 2.51604ZM10.75 57.8442C11.0156 58.1098 11.0156 74.8598 10.75 75.1254C10.4844 75.391 3.57812 75.391 3.3125 75.1254C3.04688 74.8598 3.04688 58.1098 3.3125 57.8442C3.57812 57.5785 10.4844 57.5785 10.75 57.8442Z" fill="#1362A2"/>
<path d="M44.9847 10.7974C43.0004 11.0786 39.4535 12.2036 38.9379 12.7192C38.8285 12.8286 38.7035 13.1724 38.641 13.4692C38.5785 13.938 38.6254 14.1099 38.9535 14.438C39.4847 14.9692 39.9691 14.9536 41.3441 14.3911C45.1879 12.8286 49.9691 12.7036 53.891 14.0942C58.5629 15.7505 62.141 18.9224 64.2972 23.3442C66.5941 28.063 66.766 33.1255 64.7972 38.0474C62.9535 42.6411 58.3129 46.9849 53.7972 48.3599L53.4379 48.4536V45.1255V41.7974L54.5785 41.1724C56.0316 40.3599 58.1722 38.2661 59.0316 36.7974C59.391 36.188 59.9066 35.0317 60.1722 34.2192C60.6566 32.8286 60.6879 32.5942 60.6879 30.5474C60.7035 28.9067 60.6254 28.1099 60.4222 27.3442C59.2972 23.313 55.641 19.3755 53.0004 19.3755C52.2972 19.3755 52.0941 19.438 51.7191 19.813C51.016 20.5161 50.9379 21.1255 50.9379 25.8755V30.2505L50.5316 31.0786C50.016 32.0942 49.2035 32.6724 48.1566 32.7661C47.2191 32.8442 46.3754 32.3755 45.7035 31.438L45.2347 30.7505L45.1566 25.8911C45.0941 21.5317 45.0472 20.9536 44.7816 20.4224C43.9847 18.813 42.0472 19.0317 39.6722 21.0005C37.7191 22.5942 36.2347 25.0161 35.6254 27.5005C34.3597 32.8442 36.7191 38.3755 41.4847 41.1567L42.5004 41.7661V45.1099V48.4536L42.1566 48.3599C41.9535 48.2974 41.2035 47.9692 40.4847 47.6411C36.7035 45.8755 33.6879 42.9692 31.7972 39.2192C28.266 32.2192 29.7035 23.8286 35.3754 18.2817C36.3129 17.3599 36.4066 17.2192 36.4066 16.6255C36.4066 15.813 36.0472 15.4692 35.2035 15.4692C34.6254 15.4692 34.4847 15.563 33.1722 16.9067C30.3754 19.813 28.641 23.0942 27.7816 27.0786C27.3754 28.9849 27.3129 32.813 27.641 34.688C29.1566 43.2505 35.891 49.9849 44.4379 51.5161C46.4847 51.8755 49.9535 51.8442 51.9691 51.438C56.2035 50.5942 59.516 48.813 62.5941 45.7192C66.6566 41.6724 68.6254 36.938 68.6254 31.2505C68.6254 26.8599 67.5785 23.3599 65.2347 19.8286C62.0472 15.0474 56.9847 11.7661 51.3754 10.8599C49.8285 10.6099 46.4535 10.5786 44.9847 10.7974ZM43.2504 32.2192C43.8129 33.3755 44.7347 34.2817 45.9066 34.8599C46.9847 35.3911 49.1566 35.3911 50.1566 34.8599C51.2504 34.2817 51.7972 33.7974 52.4066 32.9224C53.3129 31.5786 53.4379 30.7974 53.4379 26.1255V22.0161L53.9222 22.2974C54.8441 22.8286 56.641 24.9067 57.2504 26.1411C59.641 30.9849 57.641 36.7505 52.6879 39.2817C51.6566 39.813 51.1879 40.1411 51.0785 40.4067C51.0004 40.6255 50.9379 42.6567 50.9379 44.9224V49.0474L50.3597 49.1724C49.5941 49.313 46.3441 49.313 45.5941 49.1724L45.0004 49.0474V44.7661C45.0004 42.4224 44.9535 40.3755 44.9066 40.2505C44.8597 40.1099 44.2035 39.7036 43.4535 39.3442C42.3754 38.813 41.8441 38.4224 40.766 37.3442C38.7347 35.3286 37.8129 33.2036 37.8129 30.5161C37.8129 28.8286 38.0316 27.8442 38.7504 26.3286C39.4691 24.7817 40.4066 23.5942 41.641 22.688L42.5785 22.0005L42.6566 26.5942L42.7347 31.188L43.2504 32.2192Z" fill="#1362A2"/>
</g>
<defs>
<clipPath id="clip0_846_5245">
<rect width="80" height="80" fill="white"/>
</clipPath>
</defs>
</svg>
