<svg width="80" height="80" viewBox="0 0 80 80" fill="none" xmlns="http://www.w3.org/2000/svg">
<g clip-path="url(#clip0_846_5253)">
<path d="M50.1559 0.312048C49.859 0.608923 49.8434 0.827671 49.8434 8.74955C49.8434 18.3902 49.6246 17.4995 51.9527 17.4995H53.4371V19.4214C53.4371 21.5464 53.5621 21.937 54.359 22.1089C54.9684 22.2339 55.0777 22.187 58.4684 19.6714L61.3902 17.4995H70.4371C78.9996 17.4995 79.4996 17.4839 79.734 17.2183C79.9684 16.9527 79.9996 16.1402 79.9996 8.7183C79.9996 0.968296 79.984 0.499548 79.7184 0.265173C79.4527 0.015173 78.2027 -0.000452042 64.9527 -0.000452042C50.6715 -0.000452042 50.4684 -0.000452042 50.1559 0.312048ZM77.4996 8.74955V15.1558H68.8746H60.2652L58.1871 16.7183C57.0309 17.5777 56.0621 18.2808 56.0152 18.2808C55.9684 18.2808 55.9371 17.7652 55.9371 17.1245C55.9371 16.2027 55.8746 15.9058 55.609 15.562C55.3121 15.1714 55.2184 15.1558 53.8121 15.1558H52.3434V8.74955V2.3433H64.9215H77.4996V8.74955Z" fill="#1362A2"/>
<path d="M55.2341 5.39062C54.7653 5.84375 54.7341 6.54688 55.1403 7.04688L55.4372 7.42188L64.8278 7.46875L74.2185 7.5L74.6091 7.125C75.1247 6.60938 75.1403 5.8125 74.6403 5.34375L74.281 5H64.9372H55.6091L55.2341 5.39062Z" fill="#1362A2"/>
<path d="M55.2344 10.3906C54.9844 10.625 54.8438 10.9531 54.8438 11.25C54.8438 11.5469 54.9844 11.875 55.2344 12.1094L55.6094 12.5H61.75C68.4375 12.5 68.4375 12.5 68.6562 11.625C68.7969 11.0625 68.5156 10.3906 68.0312 10.1719C67.7656 10.0625 65.7656 10 61.625 10H55.6094L55.2344 10.3906Z" fill="#1362A2"/>
<path d="M23.8281 5.6875C23.5781 5.8125 22.4688 6.8125 21.375 7.90625C19.7656 9.5625 19.375 10.0469 19.2188 10.6094C18.9531 11.625 19.2344 12.5781 20.1094 13.5781L20.8125 14.375L20.75 17.3125C20.7031 19.7031 20.6406 20.3594 20.3906 20.9375C20.2344 21.3281 17.5469 26.4219 14.4062 32.2656L8.70312 42.8906L5.6875 45.9375C3.10938 48.5469 2.65625 49.0781 2.5 49.6719C2.40625 50.0469 2.35938 50.5781 2.40625 50.8438C2.5 51.2969 2.40625 51.4375 1.46875 52.3438C0.90625 52.9062 0.34375 53.5781 0.21875 53.8594C-0.0625 54.5156 -0.0625 55.8438 0.21875 56.375C0.5625 57.0312 10.1719 66.5312 10.6719 66.7188C11.8906 67.1719 12.9688 66.7812 14.4062 65.3594C15.4375 64.3438 15.4688 64.3125 16.2031 64.3594C17.2188 64.4062 17.75 64.1875 18.6094 63.3438L19.3125 62.6562L20.2344 63.9375C21.5469 65.8125 21.8438 66.0938 22.4531 66.0938C22.8125 66.0938 23.1094 65.9688 23.3906 65.6875C23.9844 65.0938 23.8125 64.5312 22.4375 62.6094C21.7812 61.7031 21.25 60.9062 21.25 60.8281C21.25 60.5938 23.8125 58.1875 24.4375 57.8281C24.9375 57.5469 25.0781 57.5156 25.25 57.6875C25.5469 58 33.125 69.0625 33.125 69.1875C33.125 69.4531 29.6875 72.7188 29.5625 72.5781C29.4844 72.4844 28.875 71.6406 28.2031 70.7031C26.5312 68.3438 26.3125 68.125 25.6094 68.125C25.1562 68.125 24.9531 68.2188 24.7031 68.5312C24.0938 69.3125 24.1406 69.4375 26.4219 72.5938C27.8594 74.5781 27.875 74.625 27.8438 75.4219C27.8125 75.875 27.875 76.4062 27.9844 76.5938C28.2344 77.0938 30.625 79.5156 31.125 79.7812C31.3594 79.9062 31.9219 80 32.3594 80H33.1875L36.4531 76.7656C38.25 74.9688 39.8125 73.3281 39.9375 73.0938C40.0625 72.8594 40.1562 72.3594 40.1562 71.9844C40.1562 71.1562 39.75 70.5469 38.1719 69.0312C37.0156 67.9219 36.5469 67.6562 35.7344 67.6562C35.2656 67.6562 35.125 67.5 33.4844 65.0938C32.5156 63.6719 31.7188 62.4688 31.7188 62.3906C31.7188 62.3125 32.3594 61.625 33.125 60.8594C34.9531 59.0469 34.9531 59.125 33.1875 56.1562C32.4531 54.9062 31.875 53.8594 31.9062 53.8281C32.2031 53.5312 45.6094 46.4844 46.25 46.2812C46.9375 46.0781 47.6719 46.0156 49.7969 46.0312L52.4844 46.0469L53.125 46.625C53.9219 47.3438 54.625 47.6562 55.4688 47.6562C56.3281 47.6562 57.0938 47.2344 58.1094 46.1875L58.9531 45.3281L59.8906 45.9688C61.9688 47.375 64.375 48.125 66.8906 48.125C68.1406 48.125 68.4688 48.0781 68.7656 47.8281C69.2969 47.4062 69.2656 46.4844 68.6875 46C68.3125 45.6719 68.1094 45.625 66.9844 45.625C63.0781 45.6094 59.5469 43.3594 57.8125 39.7656C55.7812 35.5469 56.7188 30.75 60.2031 27.5625C64.5312 23.5938 71.2812 24.0781 75.1094 28.6094C78.8438 33.0469 78.1406 39.8281 73.5938 43.3906C73.125 43.75 72.5469 44.2031 72.3125 44.3906C71.4062 45.0625 71.9688 46.5625 73.125 46.5625C73.3594 46.5625 73.9375 46.2812 74.4688 45.9219C76.875 44.25 78.6094 41.875 79.5312 38.9844C80 37.5 80.1406 34.1875 79.7812 32.5312C78.6875 27.3438 74.3906 23.3125 69.0625 22.4844C67.6562 22.2656 65.1406 22.3906 63.8281 22.75C61.5312 23.3594 59.3125 24.7344 57.6406 26.5312C56.0625 28.2344 55.1406 30 54.5625 32.3438L54.2969 33.4375L52.7344 31.875L51.1875 30.3281L51.875 28.9844C52.5 27.7656 52.5625 27.5312 52.5781 26.5156C52.5781 24.5938 52.375 24.3125 47.3125 19.2812C44.5312 16.5312 42.6562 14.7812 42.2656 14.6094C41.875 14.4219 41.1875 14.2812 40.4688 14.25C39.3438 14.2031 39.2344 14.2344 37.8906 14.8906L36.4844 15.5938L34.9062 14.0469C33.4844 12.6562 33.2656 12.5 32.75 12.5C32 12.5 31.5625 12.9375 31.5625 13.7031C31.5625 14.2656 31.9375 14.6719 42.9531 25.7031L54.3438 37.1094L54.5938 38.2969C54.8906 39.625 55.8281 41.7031 56.6406 42.8125L57.1719 43.5469L56.3438 44.3594C55.6406 45.0469 55.4531 45.1562 55.2188 45.0312C55.0469 44.9375 47.4062 37.3281 38.2031 28.1406L21.4844 11.4062L23.2031 9.6875C24.1406 8.75 24.9844 7.96875 25.0625 7.96875C25.1562 7.96875 25.9375 8.67188 26.7969 9.53125C28.1406 10.8594 28.4688 11.0938 28.8906 11.0938C29.5625 11.0938 30.1562 10.5 30.1562 9.82812C30.1562 9.40625 29.9062 9.07812 28.4844 7.60938C27.5469 6.67188 26.5781 5.79688 26.2969 5.6875C25.6562 5.40625 24.4375 5.42188 23.8281 5.6875ZM41.2188 16.9375C41.4531 17.0625 43.5156 19.0469 45.7969 21.3594C48.9844 24.5625 49.9844 25.6719 50.0781 26.0469C50.1562 26.4219 50.0781 26.7969 49.75 27.5L49.3281 28.4531L43.875 23.0156C40.8906 20.0312 38.4375 17.5469 38.4375 17.5C38.4375 17.4375 38.7344 17.25 39.1094 17.0781C39.8906 16.6719 40.625 16.625 41.2188 16.9375ZM48.1719 43.4531C46.9844 43.5312 46.125 43.6875 45.2656 43.9688C44.5156 44.2188 40.1094 46.5 33.75 49.9219C28.0938 52.9688 23.3906 55.4688 23.3281 55.4688C23.2656 55.4688 20.5156 52.7812 17.2188 49.4844L11.2344 43.5L16.9219 32.9375C20.0469 27.125 22.7344 21.9688 22.875 21.4688C23.0469 20.9219 23.1875 19.7969 23.2344 18.6875L23.3281 16.8438L36.5781 30.0938L49.8438 43.3594L48.1719 43.4531ZM15.5 51.3594L21.25 57.1094L18.875 59.4844C17.5625 60.7969 16.4219 61.875 16.3281 61.875C16.2344 61.875 13.6094 59.3125 10.4688 56.1719L4.76562 50.4688L7.1875 48.0469C8.51562 46.7188 9.64062 45.625 9.6875 45.625C9.73438 45.625 12.3438 48.2031 15.5 51.3594ZM8.79688 58.0938L13.4375 62.7344L12.5781 63.5938L11.7188 64.4531L7.10938 59.8438C4.57812 57.3125 2.5 55.1719 2.5 55.0781C2.5 54.9219 3.90625 53.4375 4.0625 53.4375C4.10938 53.4375 6.23438 55.5312 8.79688 58.0938ZM30.6875 56.9062L31.7031 58.6719L30.9375 59.4531C30.5156 59.875 30.1406 60.1875 30.0938 60.1562C29.8594 59.8906 27.5 56.3906 27.5 56.2969C27.5 56.1562 29.2031 55.1875 29.4844 55.1719C29.5781 55.1562 30.125 55.9531 30.6875 56.9062ZM34.8906 74.7188L32.1875 77.4219L31.3281 76.5625L30.4688 75.7031L33.1562 73.0156L35.8594 70.3125L36.7188 71.1719L37.5781 72.0312L34.8906 74.7188Z" fill="#1362A2"/>
<path d="M62.9688 28.3906C62.8438 28.4375 62.6094 28.5781 62.4688 28.7188C62.2031 28.9375 62.1875 29.4531 62.1875 35.25C62.1875 41.5312 62.1875 41.5469 62.5312 41.875C62.7188 42.0469 63.0625 42.1875 63.3125 42.1875C63.7969 42.1875 73.9531 36.5781 74.4219 36.0625C74.7969 35.6094 74.7656 34.8125 74.3438 34.4219C73.8594 33.9844 64.0781 28.4844 63.5938 28.375C63.375 28.3281 63.0938 28.3438 62.9688 28.3906ZM68.1719 33.75C69.6094 34.5469 70.7344 35.2656 70.6719 35.3281C70.5156 35.4688 64.7031 38.75 64.6094 38.75C64.5625 38.75 64.5312 37.1562 64.5312 35.2188V31.6875L65.0469 31.9844C65.3125 32.1406 66.7188 32.9375 68.1719 33.75Z" fill="#1362A2"/>
</g>
<defs>
<clipPath id="clip0_846_5253">
<rect width="80" height="80" fill="white"/>
</clipPath>
</defs>
</svg>
