<svg width="145" height="29" viewBox="0 0 145 29" fill="none" xmlns="http://www.w3.org/2000/svg">
  <path d="M40.7641 24.7244C41.5086 25.0962 42.8116 25.468 43.7423 25.468C45.4175 25.468 46.162 24.5385 46.162 23.4231C46.162 22.1218 45.4175 21.3782 43.7423 20.4488C41.3225 18.9616 40.2057 16.9167 40.2057 15.2436C40.2057 12.2692 42.2532 9.85254 45.9759 9.85254C47.2789 9.85254 48.3957 10.2243 48.9541 10.5961L48.3957 13.7564C47.8373 13.3846 47.0927 13.1987 46.162 13.1987C44.6729 13.1987 43.9284 14.1282 43.9284 15.0577C43.9284 16.1731 44.4868 16.7308 46.3482 17.8462C48.7679 19.3334 49.6986 21.1923 49.6986 23.0513C49.6986 26.3975 47.2789 28.6283 43.5561 28.6283C42.067 28.6283 40.5779 28.2565 40.0195 27.8847L40.7641 24.7244Z" fill="white" />
  <path d="M55.2823 11.5263C55.2823 12.6417 54.5378 13.3853 53.4209 13.3853C52.4903 13.3853 51.5596 12.6417 51.5596 11.5263C51.5596 10.4109 52.4903 9.48145 53.4209 9.48145C54.5378 9.48145 55.2823 10.4109 55.2823 11.5263ZM51.7457 28.4431V15.0584H55.2823V28.4431H51.7457Z" fill="white" />
  <path d="M61.9833 11.5254V15.0575H64.5892V17.66H61.9833V23.7947C61.9833 25.2819 62.7278 25.6537 63.2863 25.6537C63.6585 25.6537 63.8447 25.6537 64.2169 25.6537V28.4422C63.6585 28.628 62.914 28.628 61.9833 28.628C60.8665 28.628 60.1219 28.4421 59.3774 27.6986C58.6329 26.955 58.2606 26.0255 58.2606 23.7947V17.4741H56.7715V15.0575H58.2606V12.6408L61.9833 11.5254Z" fill="white" />
  <path d="M69.243 23.0506C69.243 25.0955 70.546 25.8391 72.0351 25.8391C72.9658 25.8391 73.8964 25.6532 74.641 25.4673L75.0133 28.0699C74.0826 28.4417 72.7796 28.6276 71.4767 28.6276C67.7539 28.6276 65.8926 26.2109 65.8926 22.1211C65.8926 17.6596 68.3123 14.8711 71.2905 14.8711C74.0826 14.8711 75.7578 17.1019 75.7578 21.1916C75.7578 22.1211 75.7578 22.6788 75.5717 23.0506H69.243ZM72.4074 20.448C72.4074 18.775 72.0351 17.4737 70.9183 17.4737C69.8014 17.4737 69.243 19.1468 69.243 20.448H72.4074Z" fill="white" />
  <path d="M87.1122 28.4426V24.1669H80.9697V21.7502L86.74 10.7822H90.2765V21.3784H91.9518V24.1669H90.2765V28.4426H87.1122ZM87.1122 21.1925V17.6605C87.1122 16.731 87.2984 15.6156 87.2984 14.6861H87.1122C86.74 15.6156 86.3677 16.5451 85.8093 17.4746L83.9479 21.1925H87.1122Z" fill="white" />
  <path d="M98.0938 10.2243C99.2106 10.0384 100.7 9.85254 102.189 9.85254C103.864 9.85254 105.539 10.0384 106.842 11.1538C107.773 11.8974 108.145 13.1987 108.145 14.5C108.145 16.1731 107.214 17.6603 105.539 18.5898V18.7757C107.587 19.3334 108.704 21.1923 108.704 23.2372C108.704 24.7244 108.145 26.0257 107.401 26.7693C106.284 27.8847 104.422 28.6283 101.444 28.6283C100.141 28.6283 99.0244 28.6283 98.0938 28.4424V10.2243ZM101.816 17.4744H102.561C103.864 17.4744 104.795 16.359 104.795 14.8718C104.795 13.5705 104.236 12.4551 102.747 12.4551C102.375 12.4551 102.003 12.4551 101.816 12.641V17.4744ZM101.816 25.6539C102.003 25.6539 102.375 25.6539 102.561 25.6539C104.05 25.6539 105.167 24.7244 105.167 22.8654C105.167 21.0064 103.864 20.077 102.561 20.077H101.816V25.6539Z" fill="white" />
  <path d="M120.058 25.2821C120.058 26.3975 120.058 27.5129 120.244 28.2565H117.08L116.894 26.9552C116.149 27.8847 115.218 28.4424 113.915 28.4424C111.868 28.4424 110.379 26.7693 110.379 24.3526C110.379 20.8205 113.543 19.3334 116.521 19.3334V18.9616C116.521 17.8462 115.963 17.1026 114.66 17.1026C113.543 17.1026 112.799 17.4744 111.868 17.8462L111.123 15.4295C111.868 15.0577 113.357 14.5 115.218 14.5C119.313 14.5 119.872 17.2885 119.872 20.077V25.2821H120.058ZM116.521 21.9359C115.405 21.9359 113.729 22.3077 113.729 24.1667C113.729 25.468 114.474 26.0257 115.032 26.0257C115.591 26.0257 116.335 25.6539 116.521 24.9103C116.521 24.7244 116.521 24.5385 116.521 24.3526V21.9359Z" fill="white" />
  <path d="M122.477 18.9612C122.477 17.474 122.477 16.1727 122.291 14.8714H125.455L125.641 16.3586C126.386 15.2432 127.503 14.6855 128.806 14.6855C131.412 14.6855 132.342 16.7304 132.342 19.7048V28.2561H128.806V19.8907C128.806 18.7753 128.62 17.6599 127.503 17.6599C126.944 17.6599 126.386 18.0317 126.2 18.7753C126.014 18.9612 126.014 19.5189 126.014 20.0766V28.2561H122.477V18.9612Z" fill="white" />
  <path d="M138.485 20.8213C138.857 20.0777 139.043 19.52 139.229 18.9623L140.905 15.0584H144.813L141.649 20.6354L145 28.4431H141.091L139.229 23.052L138.671 24.1674V28.4431H134.948V9.48145H138.485V20.8213Z" fill="white" />
  <path d="M25.873 20.4482V24.1662H4.83955V20.6341L0 24.7239V28.9996H30.7125V24.3521L25.873 20.4482Z" fill="white" />
  <path d="M0.186137 11.7116L0 18.0322L15.4493 6.13465L30.8986 18.0322V11.8975L15.4493 0" fill="white" />
</svg>