<svg width="138" height="177" viewBox="0 0 138 177" fill="none" xmlns="http://www.w3.org/2000/svg">
<path fill-rule="evenodd" clip-rule="evenodd" d="M138 170.624V176.73H124.461C109.338 176.73 108.782 176.696 108.121 176.04C106.522 174.452 107.009 171.829 109.025 171C109.686 170.724 111.041 170.517 112.119 170.517C113.162 170.517 114.031 170.414 114.031 170.276C114.031 170.172 111.424 161.991 108.225 152.154L102.454 134.274H89H75.5805L69.7746 152.154C66.5762 161.991 63.9687 170.172 63.9687 170.276C63.9687 170.414 64.8379 170.517 65.8809 170.517C66.9586 170.517 68.3145 170.724 68.975 171C70.9914 171.829 71.4781 174.452 69.8789 176.04C69.2184 176.696 68.6621 176.73 53.5391 176.73H37.8598L37.0254 175.867C35.8781 174.763 35.8781 172.968 36.9906 171.656C37.7902 170.759 38.0336 170.69 40.9539 170.586L44.048 170.448L49.8191 152.603C53.0176 142.765 55.625 134.619 55.625 134.515C55.625 134.377 44.7781 134.274 31.5672 134.274C15.0535 134.274 7.02266 134.136 6.08398 133.894C3.82422 133.273 1.91211 131.719 0.903906 129.717L0 127.922V72.349C0 18.9157 0.0347656 16.672 0.660547 15.3604C1.46016 13.6345 3.19844 11.9776 5.04102 11.1492C6.36211 10.5624 8.65664 10.5279 43.1441 10.4243L79.8914 10.3208L79.9957 6.07511C80.1348 2.10558 80.2043 1.72588 80.9691 0.897459L81.8035 0H89H96.1965L97.0309 0.897459C97.7957 1.72588 97.8652 2.10558 98.0043 6.07511L98.1086 10.3208L134.856 10.4243C135.935 10.4276 136.983 10.4307 138 10.4339V16.9333C126.281 16.9165 110.415 16.9136 88.9305 16.9136C10.3949 16.9136 7.37031 16.9482 6.84883 17.535C6.36211 18.0527 6.25781 18.9157 6.25781 21.6771V25.1979H89H138V31.7562H89H6.25781V79.1835V126.645L7.16172 127.336L8.10039 128.06H89H138V134.277C123.284 134.294 122.325 134.386 122.445 134.86C122.549 135.206 125.156 143.352 128.285 152.982L133.952 170.448L137.046 170.586C137.402 170.599 137.718 170.611 138 170.624ZM138 76.284H119.626L118.653 77.1124L117.679 77.9408L117.575 96.5458C117.505 106.763 117.575 115.634 117.679 116.29C117.818 116.911 118.27 117.809 118.722 118.257L119.557 119.086H138V112.873H124.111V97.6849V82.4971H138V76.284ZM138 39.6951H119.557L118.722 40.5236C118.27 40.9723 117.818 41.8697 117.679 42.4911C117.575 43.1469 117.505 49.1184 117.575 55.8149L117.679 67.9306L118.514 68.828L119.348 69.7255H138V63.5123H124.111V54.7103V45.9083H138V39.6951ZM91.4336 10.3553V8.28424V6.21318H89H86.5664V8.28424V10.3553H89H91.4336ZM65.7778 143.815L65.7782 143.814C67.5921 138.224 68.8359 134.39 68.8359 134.343C68.8359 134.308 67.4105 134.274 65.707 134.274C62.7519 134.274 62.5434 134.308 62.2652 135.033C62.0914 135.482 59.484 143.421 56.4941 152.741C55.6047 155.471 54.7574 158.076 54.0017 160.399C52.1874 165.977 50.901 169.932 50.8273 170.103C50.723 170.448 51.3836 170.517 53.9215 170.448L57.1894 170.345L62.9953 152.395C63.9991 149.297 64.9481 146.372 65.7778 143.815ZM124.185 160.98L124.183 160.971C123.353 158.415 122.405 155.492 121.402 152.395L115.596 134.446L112.362 134.343C110.624 134.308 109.164 134.308 109.164 134.343C109.164 134.39 110.408 138.224 112.222 143.814L112.222 143.815C113.052 146.372 114.001 149.297 115.005 152.395L120.845 170.345L124.044 170.448C125.817 170.483 127.242 170.483 127.242 170.448C127.242 170.401 125.999 166.569 124.185 160.98ZM15.0543 52.1563C11.1606 47.1513 13.8027 39.8681 19.8867 38.6945C29.3082 36.865 34.2797 49.2223 26.075 54.0893C24.4063 55.0903 23.8848 55.2284 21.7293 55.2284C18.7047 55.1939 16.6535 54.2619 15.0543 52.1563ZM23.9891 46.9442C23.9891 46.5645 23.6762 45.9432 23.2938 45.5635C21.9031 44.1828 19.4695 45.1147 19.4695 47.0132C19.4695 47.9107 20.7211 49.0152 21.7293 49.0152C22.7723 49.0152 23.9891 47.9107 23.9891 46.9442ZM35.9109 40.5238C35.1461 41.1797 34.9375 41.6284 34.9375 42.802C34.9375 43.9756 35.1461 44.4243 35.9109 45.0802L36.8844 45.9086H47.3141H57.7785L58.7867 44.9076C60.1426 43.5269 60.1426 42.0771 58.7867 40.6964L57.7785 39.6954H47.3141H36.8844L35.9109 40.5238ZM66.7594 40.4256C66.8802 40.331 67.0153 40.2547 67.1664 40.1693L67.1678 40.1685C67.2015 40.1494 67.2361 40.1299 67.2715 40.1096C68.2797 39.5573 109.581 39.5228 110.659 40.1096C110.703 40.1322 110.745 40.1538 110.787 40.1748C110.956 40.2607 111.107 40.3368 111.239 40.4359C112.262 41.1987 112.265 43.3287 112.289 61.8466V61.8468L112.293 64.6171V87.6059L111.215 88.5033L110.137 89.4008H89H67.8625L66.7848 88.5033L65.707 87.6059V64.6171L65.7092 63.1076V63.1075V63.1073V63.1071V63.1069V63.1067C65.737 43.3201 65.7399 41.2237 66.7594 40.4256ZM106.035 83.1876V64.5481V45.9085H89H71.9648V64.5481V83.1876H89H106.035ZM35.8113 54.5381C34.2816 53.0193 34.6988 50.3614 36.6457 49.4985C37.4453 49.1533 39.2531 49.0498 43.9117 49.1188L50.1347 49.1878L50.9691 50.1543C52.0816 51.466 52.0816 53.2609 50.9343 54.3655C50.0999 55.2284 50.0652 55.2284 43.2859 55.2284C36.9933 55.2284 36.4718 55.1939 35.8113 54.5381ZM15.4378 63.9957C14.8468 64.2718 14.1862 64.8931 13.9776 65.4454C13.6647 66.2048 13.5604 72.8322 13.63 91.9204L13.7343 117.429L14.7077 118.257L15.6811 119.086H36.8882C51.4202 119.086 58.3386 118.982 58.8253 118.706C60.494 117.809 60.494 117.671 60.494 91.3682C60.494 73.8677 60.3897 66.4119 60.1116 65.5835L60.0921 65.5296C59.984 65.2315 59.8919 64.9774 59.7446 64.7608C58.8951 63.5119 56.2093 63.5119 38.0335 63.5124H38.0335H38.0334L36.9577 63.5124C20.6526 63.5469 16.3069 63.616 15.4378 63.9957ZM53.8886 91.2991V112.873H36.8534H19.8182V91.2991V69.7256H36.8534H53.8886V91.2991ZM66.5762 96.8219L65.707 97.6504V107.419L65.7071 107.43C65.7418 117.671 65.7424 117.843 67.341 118.672C68.4187 119.258 109.581 119.258 110.659 118.672C112.258 117.843 112.258 117.671 112.293 107.43L112.293 107.419V97.6504L111.424 96.8219L110.589 95.959H89H67.4105L66.5762 96.8219ZM106.035 107.522V112.873H89H71.9648V107.522V102.172H89H106.035V107.522Z" fill="white" fill-opacity="0.6"/>
</svg>
