<svg width="181" height="179" viewBox="0 0 181 179" fill="none" xmlns="http://www.w3.org/2000/svg">
<path fill-rule="evenodd" clip-rule="evenodd" d="M181 7.05964H98.566C12.0063 7.05964 10.3289 7.05964 8.96055 7.94245C8.03359 8.51628 7.41563 9.31081 7.10664 10.4585C6.79766 11.4737 6.62109 17.6093 6.62109 25.9077V39.7237H74.1562H141.691V34.8682C141.691 29.3507 142.221 27.585 144.472 25.2456C145.267 24.4069 146.679 23.3475 147.65 22.8178C149.416 21.8468 149.637 21.8468 174.135 21.8468C176.674 21.8468 178.953 21.8468 181 21.8478V28.6885H174.179H151.491L150.078 29.8362L148.71 31.028L148.842 43.8729L148.975 56.7178L150.343 60.6022C152.153 65.5901 154.051 68.7682 157.538 72.4761C160.981 76.1839 172.899 85.63 174.135 85.63C174.654 85.63 177.666 83.5176 181 80.9515V89.8498C179.32 91.0407 178.02 91.8817 177.489 92.0745C175.459 92.8249 172.811 92.8249 170.736 92.0745C168.882 91.4124 157.052 82.3194 153.565 78.8764C146.194 71.6374 142.265 62.6768 141.824 52.1714L141.559 46.7862H74.1121H6.62109V83.6436C6.62109 119.927 6.62109 120.501 5.73828 121.384C5.20859 121.914 4.28164 122.267 3.31055 122.267C2.33945 122.267 1.4125 121.914 0.882812 121.384C0 120.501 0 119.927 0 64.5307V8.60456L1.05938 6.35339C2.25117 3.83737 4.63477 1.63034 7.2832 0.703389C8.78398 0.173702 21.9379 0.0412797 97.9039 0.0412797L181 0V7.05964ZM181 171.237V178.307C169.484 178.332 154.559 178.33 135.173 178.327H135.172C128.349 178.326 120.974 178.325 113 178.325C105.026 178.325 97.6507 178.326 90.828 178.327H90.8266C10.5795 178.339 6.78019 178.34 4.70736 176.448C4.60434 176.354 4.50558 176.255 4.40192 176.152C4.22816 175.978 4.04062 175.791 3.79609 175.589C2.86914 174.838 1.6332 173.205 1.05938 171.969L0 169.718V151.135C0 132.949 0 132.551 0.882812 131.757C1.4125 131.271 2.47187 130.918 3.31055 130.918C4.14922 130.918 5.20859 131.271 5.73828 131.757C6.57695 132.551 6.62109 132.993 6.62109 149.369C6.62109 159.83 6.79766 166.805 7.10664 167.864C7.41563 169.012 8.03359 169.806 8.96055 170.38C10.3289 171.263 12.1387 171.263 113 171.263C144.142 171.263 165.841 171.263 181 171.237ZM181 108.261C179.109 108.251 177.053 108.241 174.816 108.231L174.664 108.23C148.754 108.142 146.635 108.186 145.223 108.892C144.384 109.333 143.236 110.349 142.707 111.187C141.691 112.644 141.691 112.953 141.691 124.827C141.691 138.643 141.78 139.04 145.399 140.761C147.209 141.688 147.871 141.688 174.135 141.688C176.65 141.688 178.931 141.688 181 141.688V134.626H174.355H148.754V124.915V115.204H174.355H181V108.261ZM181 45.0302V57.0695C178.608 60.3085 176.504 62.8886 176.122 63.118C174.268 64.1332 173.12 63.6035 167.603 59.1453C161.07 53.8926 160.938 53.7602 160.938 51.8621C160.938 49.7875 162.173 48.5516 164.248 48.5516C165.661 48.5516 166.499 48.993 169.368 51.3324C171.266 52.8774 173.032 54.2457 173.341 54.4223C173.65 54.5989 175.107 52.9656 177.225 50.0082C178.697 47.9546 180.195 46.0072 181 45.0302ZM17.2148 22.7296C17.2148 18.6245 19.1129 15.4464 22.6441 13.7249C26.1754 11.9593 31.3398 12.7097 34.1207 15.3581C37.2105 18.2714 38.1816 23.5241 36.2836 27.2319C31.3398 36.8546 17.2148 33.4999 17.2148 22.7296ZM28.9563 25.0249C30.3246 23.8331 30.5012 22.0233 29.3535 20.7432C28.9121 20.2577 27.9852 19.8604 27.2789 19.8604C24.4539 19.8604 23.218 23.3917 25.425 25.1132C26.9258 26.305 27.4996 26.2608 28.9563 25.0249ZM50.5411 13.6364C48.2017 14.6958 45.6415 17.6091 44.9794 19.9485C42.5517 29.0857 52.5716 36.413 60.3845 31.1603C64.8868 28.1587 66.2111 22.0232 63.2978 17.3884C60.7818 13.3275 54.9552 11.606 50.5411 13.6364ZM56.9415 20.8314C59.2368 23.3032 56.456 26.9669 53.4544 25.3778C51.4239 24.3626 51.115 22.8618 52.5716 21.0079C53.7193 19.5513 55.6614 19.463 56.9415 20.8314ZM72.3906 22.7296C72.3906 18.6245 74.2887 15.4464 77.8199 13.7249C81.3512 11.9593 86.5156 12.7097 89.2965 15.3581C92.3863 18.2714 93.3574 23.5241 91.4594 27.2319C86.5156 36.8546 72.3906 33.4999 72.3906 22.7296ZM84.132 25.0249C85.5004 23.8331 85.677 22.0233 84.5293 20.7432C84.0879 20.2577 83.1609 19.8604 82.4547 19.8604C79.6297 19.8604 78.3938 23.3917 80.6008 25.1132C82.1016 26.305 82.6754 26.2608 84.132 25.0249ZM71.5064 57.1149C70.4029 57.4239 68.8138 58.0419 67.931 58.5274C64.7087 60.2048 17.8314 92.8689 16.9927 93.9724C16.4189 94.7228 16.0658 96.0028 15.9775 97.7685C15.8451 99.9755 15.9775 100.682 16.8603 101.918C18.8466 104.875 19.8177 105.272 25.4236 105.405L30.4556 105.581V122.708V139.834L25.4236 140.011C19.9501 140.143 19.0232 140.497 17.0369 143.189C16.1982 144.293 16.1099 144.999 16.1099 151.399C16.1099 159.08 16.2865 159.609 19.1556 161.728C20.3474 162.655 20.524 162.655 75.6997 162.655C130.876 162.655 131.052 162.655 132.244 161.728C135.113 159.609 135.29 159.08 135.29 151.399C135.29 144.999 135.201 144.293 134.363 143.189C132.376 140.497 131.449 140.143 125.976 140.011L120.944 139.834V122.664V105.493H125.446C129.066 105.493 130.302 105.317 131.802 104.566C134.363 103.33 135.643 101.211 135.643 98.2099C135.643 95.429 134.672 93.6192 132.2 91.8978C128.183 89.0286 86.1611 60.0724 84.4837 59.013C80.7318 56.6735 75.7439 55.9231 71.5064 57.1149ZM78.5247 64.045C79.8048 64.4864 126.461 96.356 128.006 97.8126C128.536 98.3423 121.209 98.4306 75.788 98.4306C46.7435 98.4306 22.9517 98.3423 22.9517 98.254C22.9517 97.7685 71.4181 64.663 72.8306 64.1333C74.7728 63.4712 76.715 63.4271 78.5247 64.045ZM46.3462 122.708V139.923H41.9322H37.5181V122.708V105.493H41.9322H46.3462V122.708ZM64.4439 122.708V139.923H58.9263H53.4087V122.708V105.493H58.9263H64.4439V122.708ZM80.3345 122.708V139.923H75.9204H71.5064V122.708V105.493H75.9204H80.3345V122.708ZM97.9908 122.708V139.923H92.6939H87.397V122.708V105.493H92.6939H97.9908V122.708ZM113.881 122.708V139.923H109.467H105.053V122.708V105.493H109.467H113.881V122.708ZM128.448 151.399V155.813H75.6997H22.9517V151.399V146.985H75.6997H128.448V151.399ZM55.3081 83.6876C56.0585 82.5841 70.5367 72.2993 72.4788 71.5489C73.0085 71.2841 74.6417 71.1075 76.0101 71.1075C78.5491 71.0637 78.6135 71.1068 85.7617 75.8867L85.9417 76.0071C94.6816 81.922 96.4913 83.511 96.8886 85.6739C97.2859 87.8368 96.2265 90.2204 94.3726 91.3681C92.9601 92.2067 92.2097 92.2509 75.7894 92.2509C57.2062 92.2509 57.0296 92.2067 55.4406 89.779C54.4253 88.3224 54.3812 85.1442 55.3081 83.6876ZM86.2066 84.9677L81.307 81.5247C78.5703 79.6708 76.0984 78.1259 75.7894 78.1259C75.4804 78.1259 72.9644 79.6708 70.2277 81.5247L65.2398 84.9677L70.5808 85.1001C73.5382 85.1442 78.2613 85.1442 81.0863 85.1001L86.2066 84.9677Z" fill="white" fill-opacity="0.6"/>
</svg>
