<svg  viewBox="0 0 23 13" fill="none" xmlns="http://www.w3.org/2000/svg">
<path d="M19.3644 7.86864C20.1108 8.57685 20.8985 9.24313 21.5679 10.0228C21.8636 10.3692 22.1435 10.7267 22.3577 11.1288C22.6612 11.7003 22.3863 12.3293 21.859 12.3634L18.5812 12.3619C17.7357 12.4301 17.0613 12.0994 16.4943 11.5376C16.0404 11.0883 15.6201 10.6101 15.1838 10.1457C15.0049 9.95592 14.8176 9.7773 14.5939 9.6361C14.1465 9.35383 13.758 9.44024 13.5023 9.89382C13.2419 10.3552 13.1828 10.866 13.1572 11.3801C13.1221 12.1303 12.8888 12.3275 12.1135 12.3619C10.4565 12.4378 8.884 12.1942 7.42313 11.3818C6.13518 10.6656 5.13648 9.65456 4.26716 8.50997C2.5747 6.28123 1.27853 3.83216 0.113634 1.31449C-0.148587 0.747255 0.0431899 0.442775 0.687163 0.431969C1.75648 0.411767 2.82567 0.413219 3.89626 0.430517C4.33088 0.43671 4.61859 0.678961 4.78641 1.078C5.36495 2.46057 6.07287 3.77595 6.96144 4.99519C7.19808 5.31979 7.43939 5.64443 7.78295 5.87288C8.16308 6.12585 8.4525 6.04201 8.63131 5.63046C8.74478 5.3695 8.79448 5.08843 8.82006 4.80898C8.90478 3.84745 8.91595 2.88754 8.76737 1.92938C8.67614 1.3314 8.32958 0.944276 7.71563 0.831137C7.40234 0.773436 7.44897 0.660126 7.60067 0.486339C7.86412 0.1866 8.11192 0 8.60591 0H12.3104C12.8936 0.111858 13.0231 0.366495 13.103 0.936802L13.1061 4.93604C13.0997 5.15681 13.2196 5.81202 13.6288 5.95813C13.9562 6.06217 14.1721 5.80754 14.3686 5.60573C15.2556 4.69084 15.8886 3.60959 16.4541 2.48999C16.7051 1.99768 16.9209 1.48644 17.13 0.975582C17.285 0.59653 17.5281 0.410016 17.9675 0.418259L21.5328 0.421334C21.6386 0.421334 21.7455 0.422829 21.8479 0.439871C22.4487 0.539385 22.6134 0.790562 22.4278 1.36074C22.1354 2.2553 21.5665 3.00081 21.0103 3.74973C20.4157 4.5493 19.7798 5.32154 19.1902 6.12585C18.6484 6.86047 18.6915 7.23068 19.3644 7.86864Z" fill="#fff"/>
</svg>
