<svg width="29" height="20" viewBox="0 0 29 20" fill="none" xmlns="http://www.w3.org/2000/svg">
  <path d="M1.0196 0.782234C0.601231 0.974904 0.254425 1.35474 0.133318 1.75109C0.0782695 1.91073 0.0507452 2.07588 0.0672598 2.11441C0.0837743 2.15845 3.24907 4.26681 7.09696 6.80455L14.0936 11.4121L21.0903 6.80455C24.9382 4.26681 28.1035 2.15845 28.12 2.11441C28.1365 2.07588 28.109 1.91073 28.0539 1.75109C27.9328 1.35474 27.586 0.974904 27.1677 0.782234L26.8374 0.622594H14.0936H1.34989L1.0196 0.782234Z" fill="#3697E7" />
  <path d="M0 10.3166C0 13.7021 0.0110097 16.4766 0.0220194 16.4766C0.0605534 16.4766 9.38578 10.5754 9.46284 10.5038C9.5234 10.4432 9.48486 10.3992 9.24265 10.2396C9.07751 10.135 6.93061 8.72573 4.47545 7.1018L0 4.15119V10.3166Z" fill="#3697E7" />
  <path d="M23.4279 7.28421C20.8296 9.00172 18.6992 10.4275 18.6992 10.455C18.6992 10.5101 28.129 16.4938 28.1621 16.4608C28.1731 16.4498 28.1786 13.6808 28.1731 10.3064L28.1566 4.16846L23.4279 7.28421Z" fill="#3697E7" />
  <path d="M5.58859 14.9686C2.56092 16.8843 0.0782311 18.4917 0.0672214 18.5412C0.0286874 18.7064 0.232367 19.1688 0.447056 19.4165C0.573668 19.5541 0.810377 19.7358 1.00305 19.8293L1.33884 20H14.0936H26.8483L27.1841 19.8293C27.3768 19.7358 27.6135 19.5541 27.7401 19.4165C27.9438 19.1853 28.131 18.7779 28.131 18.5687C28.131 18.5027 27.4319 18.0293 26.0006 17.1265C24.8226 16.3833 22.3344 14.8089 20.4682 13.6254L17.0717 11.4785L15.7506 12.3483C15.0184 12.8272 14.3468 13.2345 14.2587 13.2566C14.1652 13.2786 14.0165 13.2786 13.9229 13.2566C13.8294 13.2345 13.2403 12.8767 12.6128 12.4639C11.9907 12.051 11.3907 11.6601 11.2861 11.5941L11.0934 11.484L5.58859 14.9686Z" fill="#3697E7" />
</svg>