<svg width="22" height="15" viewBox="0 0 22 15" fill="none" xmlns="http://www.w3.org/2000/svg">
  <path d="M0.796158 0.123492C0.469484 0.272637 0.198688 0.566667 0.104125 0.87348C0.0611414 0.997057 0.0396497 1.1249 0.0525447 1.15473C0.0654397 1.18882 2.53699 2.82089 5.54153 4.78535L11.0047 8.35205L16.4679 4.78535C19.4725 2.82089 21.944 1.18882 21.9569 1.15473C21.9698 1.1249 21.9483 0.997057 21.9053 0.87348C21.8108 0.566667 21.54 0.272637 21.2133 0.123492L20.9554 -8.4877e-05H11.0047H1.05406L0.796158 0.123492Z" fill="white" />
  <path d="M0 7.50407C0 10.1248 0.00859669 12.2725 0.0171934 12.2725C0.0472818 12.2725 7.32867 7.70435 7.38885 7.64896C7.43613 7.60208 7.40604 7.56799 7.21692 7.44442C7.08797 7.36345 5.41161 6.27256 3.49455 5.01548L0 2.73143V7.50407Z" fill="white" />
  <path d="M18.2929 5.15682C16.264 6.48634 14.6006 7.59001 14.6006 7.61132C14.6006 7.65393 21.9636 12.286 21.9894 12.2604C21.998 12.2519 22.0023 10.1084 21.998 7.49627L21.9851 2.74492L18.2929 5.15682Z" fill="white" />
  <path d="M4.36375 11.1052C1.99966 12.5881 0.0611114 13.8324 0.0525147 13.8708C0.0224263 13.9986 0.181465 14.3565 0.3491 14.5483C0.447962 14.6548 0.632791 14.7955 0.783233 14.8679L1.04543 15H11.0047H20.964L21.2262 14.8679C21.3766 14.7955 21.5614 14.6548 21.6603 14.5483C21.8193 14.3693 21.9655 14.054 21.9655 13.8921C21.9655 13.8409 21.4196 13.4745 20.302 12.7756C19.3822 12.2003 17.4393 10.9816 15.9822 10.0654L13.3301 8.40352L12.2985 9.0768C11.7268 9.44753 11.2024 9.76287 11.1336 9.77992C11.0606 9.79696 10.9445 9.79696 10.8714 9.77992C10.7984 9.76287 10.3385 9.48589 9.84844 9.16629C9.36273 8.84669 8.89421 8.54414 8.81254 8.493L8.6621 8.40778L4.36375 11.1052Z" fill="white" />
</svg>