<svg width="19" height="25" viewBox="0 0 19 25" fill="none" xmlns="http://www.w3.org/2000/svg">
  <path d="M8.09474 0.0669842C5.22483 0.521223 2.79036 2.15257 1.30593 4.60448C0.801219 5.44457 0.390526 6.49469 0.167861 7.53016C-0.0102712 8.35072 -0.0548042 9.88438 0.0738467 10.8124C0.534021 14.207 2.67161 18.1095 6.25899 22.1146C7.02594 22.9694 8.81716 24.7472 9.05467 24.8938C9.29218 25.0354 9.70782 25.0354 9.94533 24.8938C10.1828 24.7472 11.9741 22.9694 12.741 22.1146C16.3333 18.1046 18.466 14.207 18.9262 10.8124C19.0548 9.88438 19.0103 8.35072 18.8321 7.53016C18.2977 5.04895 16.8479 2.9194 14.745 1.53227C13.7851 0.892427 12.4936 0.36981 11.3061 0.13048C10.6034 -0.0111637 8.79242 -0.0453529 8.09474 0.0669842ZM10.5045 4.29189C11.5634 4.50191 12.365 4.92196 13.1418 5.67902C13.889 6.40189 14.3244 7.12965 14.5867 8.09185C14.7005 8.50702 14.7153 8.65354 14.7153 9.36665C14.7153 10.0798 14.7005 10.2263 14.5867 10.6414C14.3244 11.6036 13.889 12.3314 13.1418 13.0543C11.4199 14.7247 8.90623 15.0226 6.79833 13.7967C6.18477 13.445 5.36833 12.6391 5.01206 12.0335C4.00265 10.3435 4.00265 8.37514 5.00711 6.7096C5.30895 6.2114 5.89283 5.57157 6.37279 5.21501C7.54055 4.3505 9.07941 4.00371 10.5045 4.29189Z" fill="#3697E7" />
</svg>