<svg width="17" height="22" viewBox="0 0 17 22" fill="none" xmlns="http://www.w3.org/2000/svg">
  <path d="M6.85892 0.597374C4.42716 0.987293 2.36436 2.38765 1.10655 4.49238C0.678898 5.21352 0.330905 6.11495 0.142234 7.0038C-0.00870313 7.70817 -0.0464373 9.02468 0.0625726 9.82129C0.452493 12.7352 2.26373 16.0852 5.30343 19.5232C5.9533 20.2569 7.47105 21.783 7.6723 21.9088C7.87355 22.0304 8.22574 22.0304 8.42698 21.9088C8.62823 21.783 10.146 20.2569 10.7959 19.5232C13.8397 16.081 15.6468 12.7352 16.0367 9.82129C16.1457 9.02468 16.108 7.70817 15.9571 7.0038C15.5042 4.87391 14.2758 3.0459 12.4939 1.85518C11.6805 1.30594 10.5862 0.857321 9.57998 0.651878C8.98461 0.530291 7.45009 0.500942 6.85892 0.597374ZM8.90076 4.22405C9.79799 4.40434 10.4772 4.76491 11.1355 5.41477C11.7686 6.03529 12.1375 6.66 12.3597 7.48596C12.4562 7.84234 12.4687 7.96812 12.4687 8.58025C12.4687 9.19238 12.4562 9.31817 12.3597 9.67454C12.1375 10.5005 11.7686 11.1252 11.1355 11.7457C9.67641 13.1796 7.54652 13.4354 5.76044 12.383C5.24054 12.0811 4.54875 11.3894 4.24688 10.8695C3.39157 9.41879 3.39157 7.72914 4.24268 6.29943C4.49844 5.87177 4.99317 5.32253 5.39986 5.01647C6.38934 4.27436 7.69327 3.97668 8.90076 4.22405Z" fill="white" />
</svg>