<svg width="29" height="29" viewBox="0 0 29 29" fill="none" xmlns="http://www.w3.org/2000/svg">
  <path d="M0.473418 0.13183C0.357816 0.203392 0.20368 0.357529 0.132117 0.473131C0.0110097 0.676809 0 0.742868 0 1.5686C0 2.54846 0.110097 3.89715 0.269738 5.01464C1.44778 12.9857 6.06635 19.9603 12.9915 24.2321C16.999 26.7038 22.0855 28.1791 26.6105 28.1846C27.4362 28.1846 27.5023 28.1791 27.7114 28.0525C27.8381 27.9809 27.9922 27.8212 28.0638 27.7001L28.1849 27.4799V24.5459V21.6063L28.0527 21.2925C27.8876 20.8851 27.6454 20.5879 27.3041 20.3677C26.9573 20.142 26.6765 20.0594 26.0049 19.9823C24.1168 19.7676 22.4543 19.3438 20.6432 18.6116L19.7349 18.2483H19.1844C18.689 18.2483 18.6009 18.2648 18.3036 18.4079C17.7366 18.6887 17.5825 18.9034 16.7733 20.5108C16.3769 21.309 16.0301 21.9641 16.0081 21.9641C15.9366 21.9641 15.0172 21.4081 14.3401 20.9567C11.1308 18.8098 8.57106 16.1234 6.56179 12.7875C6.37462 12.4792 6.22049 12.204 6.22049 12.182C6.22049 12.1599 6.87556 11.8076 7.67377 11.4113C9.28119 10.6021 9.49587 10.4479 9.77662 9.88093C9.91975 9.58367 9.93626 9.49559 9.93626 9.00015V8.44967L9.57294 7.54136C8.82428 5.69173 8.48849 4.38708 8.20223 2.23468C8.08113 1.28785 7.94901 0.957558 7.55817 0.561209C7.42605 0.429092 7.17283 0.252935 7.00218 0.175869L6.6884 0.0272369L3.68825 0.0107231L0.688107 -0.000286102L0.473418 0.13183Z" fill="#3697E7" />
</svg>