<svg width="22" height="22" viewBox="0 0 22 22" fill="none" xmlns="http://www.w3.org/2000/svg">
  <path d="M0.369531 0.103125C0.279297 0.158983 0.158984 0.279297 0.103125 0.369532C0.00859375 0.528515 0 0.580078 0 1.22461C0 1.98945 0.0859375 3.04219 0.210547 3.91445C1.13008 10.1363 4.73516 15.5805 10.1406 18.9148C13.2688 20.8441 17.2391 21.9957 20.7711 22C21.4156 22 21.4672 21.9957 21.6305 21.8969C21.7293 21.841 21.8496 21.7164 21.9055 21.6219L22 21.45V19.1598V16.8652L21.8969 16.6203C21.768 16.3023 21.5789 16.0703 21.3125 15.8984C21.0418 15.7223 20.8227 15.6578 20.2984 15.5977C18.8246 15.4301 17.527 15.0992 16.1133 14.5277L15.4043 14.2441H14.9746C14.5879 14.2441 14.5191 14.257 14.2871 14.3687C13.8445 14.5879 13.7242 14.7555 13.0926 16.0102C12.7832 16.6332 12.5125 17.1445 12.4953 17.1445C12.4395 17.1445 11.7219 16.7105 11.1934 16.3582C8.68828 14.6824 6.69023 12.5855 5.12188 9.98164C4.97578 9.74102 4.85547 9.52617 4.85547 9.50898C4.85547 9.4918 5.3668 9.2168 5.98984 8.90742C7.24453 8.27578 7.41211 8.15547 7.63125 7.71289C7.74297 7.48086 7.75586 7.41211 7.75586 7.02539V6.5957L7.47227 5.88672C6.88789 4.44297 6.62578 3.42461 6.40234 1.74453C6.30781 1.00547 6.20469 0.747656 5.89961 0.43828C5.79648 0.335155 5.59883 0.197657 5.46563 0.137499L5.2207 0.0214844L2.87891 0.00859261L0.537109 0L0.369531 0.103125Z" fill="white" />
</svg>