<svg width="25" height="25" viewBox="0 0 25 25" fill="none" xmlns="http://www.w3.org/2000/svg">
  <path d="M5.63467 0.15288C5.09985 0.249294 4.20366 0.548179 3.72183 0.789214C1.915 1.70033 0.647804 3.27188 0.161163 5.20499C-0.00747488 5.86061 -0.0508389 7.1381 0.0647985 7.87567C0.161163 8.50718 0.382802 9.19172 0.671895 9.77021L0.90317 10.233L0.840533 10.5897C0.575531 12.1034 0.642986 13.916 1.00917 15.3574C1.81863 18.5246 4.02056 21.3014 6.93559 22.8247C8.2076 23.49 9.44107 23.8804 10.9347 24.0926C11.59 24.1841 13.4643 24.1697 14.1003 24.0685L14.5918 23.9913L14.9531 24.16C15.9312 24.6084 16.6491 24.7578 17.8585 24.7578C19.1353 24.7578 19.8822 24.5843 20.9566 24.0299C22.2335 23.3694 23.3127 22.2992 23.9584 21.0507C24.5077 19.9901 24.6667 19.3152 24.6667 18.0618C24.6667 16.9145 24.5414 16.283 24.1318 15.3526L23.9921 15.0296L24.0885 14.4559C24.3487 12.9519 24.286 11.2116 23.9198 9.76057C23.3995 7.70212 22.378 5.92328 20.841 4.38547C18.9522 2.49575 16.6877 1.37252 14.0136 1.01097C13.286 0.909732 11.6671 0.904912 10.9636 1.00615L10.4866 1.06882L9.9518 0.798856C9.41216 0.524075 8.87252 0.331246 8.2606 0.191446C7.76914 0.0757484 6.17913 0.0564656 5.63467 0.15288ZM13.5366 4.4626C15.9023 4.75666 17.5839 5.72081 18.2873 7.18148C18.8318 8.30953 18.4704 9.46168 17.4779 9.78467C17.1358 9.89555 16.5913 9.8859 16.2637 9.76057C15.8879 9.62077 15.6373 9.35563 15.2229 8.65662C14.5773 7.57678 14.0569 7.17184 13.0788 6.98865C12.5488 6.89224 11.4599 6.91634 11.007 7.03686C9.53262 7.43698 8.93034 8.47344 9.6868 9.3026C10.1638 9.82324 10.7709 10.045 13.2475 10.609C15.1362 11.0381 15.8638 11.2646 16.7455 11.6937C18.4897 12.5421 19.2799 13.728 19.2751 15.502C19.2751 16.9483 18.6632 18.1679 17.502 19.0404C16.2155 20.0094 14.5436 20.4818 12.4043 20.4818C9.99517 20.4818 8.24615 19.913 6.99341 18.7126C6.49713 18.2354 6.17431 17.8063 5.92858 17.2809C5.68285 16.7699 5.58649 16.3939 5.58649 15.96C5.58649 15.2562 5.8274 14.8175 6.37186 14.5427C6.78141 14.3306 7.32587 14.2824 7.7836 14.4174C8.20278 14.5379 8.56415 14.9236 8.90625 15.6226C9.46516 16.7602 9.86025 17.2279 10.5637 17.5749C11.113 17.8449 11.6575 17.9317 12.5488 17.8979C13.9943 17.8401 14.9676 17.3869 15.4205 16.553C15.5747 16.2734 15.5843 16.2203 15.5843 15.8154C15.5843 15.4394 15.565 15.3478 15.4542 15.1357C15.088 14.4367 14.2689 14.051 12.2115 13.6027C10.8191 13.299 9.88916 13.0628 9.32061 12.8651C7.83178 12.3541 6.7525 11.5201 6.25622 10.5126C5.96713 9.91965 5.89967 9.6063 5.90449 8.84945C5.90449 8.14081 5.96713 7.813 6.21286 7.2779C6.52604 6.58371 7.17168 5.88471 7.88478 5.46531C8.65088 5.01216 9.80244 4.63615 10.8624 4.49152C11.4503 4.40957 12.9776 4.39511 13.5366 4.4626Z" fill="#00AFF0" />
</svg>