<svg width="22" height="22" viewBox="0 0 22 22" fill="none" xmlns="http://www.w3.org/2000/svg">
  <path d="M5.02552 0.0550594C4.54851 0.14105 3.74921 0.407623 3.31947 0.622601C1.70797 1.43522 0.577771 2.83687 0.14374 4.561C-0.00666679 5.14573 -0.0453428 6.28512 0.0577933 6.94295C0.14374 7.50619 0.341418 8.11673 0.599258 8.63268L0.80553 9.04543L0.749665 9.3636C0.513311 10.7137 0.573474 12.3303 0.900071 13.6159C1.62202 16.4407 3.58591 18.9172 6.1858 20.2759C7.32029 20.8692 8.42041 21.2175 9.75259 21.4067C10.337 21.4884 12.0087 21.4755 12.5759 21.3852L13.0143 21.3164L13.3366 21.4669C14.2089 21.8667 14.8492 22 15.9279 22C17.0667 22 17.7327 21.8452 18.691 21.3508C19.8298 20.7617 20.7924 19.8072 21.3683 18.6936C21.8582 17.7477 22 17.1458 22 16.0279C22 15.0046 21.8883 14.4414 21.523 13.6116L21.3984 13.3235L21.4843 12.8118C21.7164 11.4704 21.6605 9.91824 21.3339 8.62408C20.8698 6.78817 19.9588 5.20163 18.5879 3.83007C16.9034 2.14464 14.8836 1.14285 12.4986 0.820381C11.8497 0.730089 10.4058 0.72579 9.77837 0.816082L9.35293 0.871975L8.87593 0.631201C8.39463 0.386126 7.91333 0.214144 7.36756 0.0894566C6.92924 -0.0137329 5.51111 -0.0309315 5.02552 0.0550594ZM12.0731 3.89886C14.1831 4.16114 15.6829 5.02105 16.3103 6.32381C16.7959 7.32991 16.4736 8.3575 15.5884 8.64557C15.2833 8.74446 14.7977 8.73587 14.5054 8.62408C14.1702 8.49939 13.9468 8.26291 13.5772 7.63948C13.0014 6.67638 12.5373 6.31522 11.6649 6.15183C11.1922 6.06584 10.221 6.08734 9.81705 6.19483C8.50206 6.55169 7.96489 7.4761 8.63958 8.21562C9.06501 8.67997 9.60648 8.87775 11.8153 9.3808C13.4999 9.76346 14.1488 9.96554 14.9352 10.3482C16.4908 11.1049 17.1956 12.1626 17.1913 13.7449C17.1913 15.0347 16.6455 16.1225 15.6099 16.9007C14.4625 17.7649 12.9713 18.1863 11.0633 18.1863C8.91461 18.1863 7.35467 17.6789 6.23736 16.6084C5.79474 16.1827 5.50682 15.8 5.28765 15.3314C5.06849 14.8756 4.98254 14.5403 4.98254 14.1533C4.98254 13.5256 5.19741 13.1343 5.68301 12.8892C6.04828 12.7001 6.53388 12.6571 6.94213 12.7774C7.316 12.8849 7.6383 13.2289 7.94341 13.8523C8.4419 14.867 8.79428 15.2841 9.42169 15.5937C9.91159 15.8344 10.3972 15.9118 11.1922 15.8817C12.4814 15.8301 13.3495 15.426 13.7534 14.6822C13.8909 14.4328 13.8995 14.3855 13.8995 14.0243C13.8995 13.689 13.8823 13.6073 13.7835 13.4181C13.4569 12.7946 12.7263 12.4507 10.8914 12.0508C9.64945 11.78 8.82006 11.5693 8.31298 11.393C6.9851 10.9372 6.0225 10.1934 5.57987 9.29481C5.32203 8.76596 5.26187 8.48649 5.26617 7.81146C5.26617 7.17943 5.32203 6.88706 5.5412 6.40981C5.82052 5.79067 6.39637 5.16723 7.03237 4.79317C7.71565 4.38901 8.74271 4.05365 9.68813 3.92466C10.2124 3.85157 11.5747 3.83867 12.0731 3.89886Z" fill="white" />
</svg>