<svg width="24" height="20" viewBox="0 0 24 20" fill="none" xmlns="http://www.w3.org/2000/svg">
  <path d="M22.3636 0.125164C22.2473 0.157709 20.4062 0.85977 18.2721 1.67806C16.138 2.49636 11.484 4.27707 7.92721 5.63934C4.37043 7.00161 1.28788 8.18256 1.06936 8.2709C0.334756 8.56846 0 8.87532 0 9.26587C0 9.51693 0.116235 9.67966 0.418445 9.84239C0.623018 9.95398 6.03026 11.6743 6.23018 11.6928C6.26738 11.6975 9.12675 9.93073 12.5859 7.76411C16.0404 5.60215 18.937 3.79818 19.0207 3.75169C19.2066 3.6587 19.4995 3.6401 19.5832 3.72379C19.6297 3.77029 19.6251 3.80283 19.5739 3.89117C19.5367 3.95161 17.212 6.05779 14.4131 8.56846L9.32203 13.1388L9.15465 15.4914C9.06166 16.7839 8.96867 18.0393 8.95473 18.2717L8.92218 18.7041H9.12675C9.4987 18.7041 9.71723 18.5321 11.2469 17.0675L12.6882 15.6867L15.4453 17.7045C17.2632 19.0389 18.2907 19.7595 18.4581 19.8293C18.6255 19.8944 18.8207 19.9316 19.016 19.9316C19.5042 19.9362 19.7925 19.7223 20.0342 19.1691C20.0807 19.0528 20.9548 15.0683 21.9684 10.312C23.7863 1.785 23.8142 1.65946 23.7956 1.21777C23.7816 0.817924 23.763 0.743534 23.6375 0.54361C23.3911 0.143763 22.8703 -0.028265 22.3636 0.125164Z" fill="white" />
</svg>