<svg width="25" height="21" viewBox="0 0 25 21" fill="none" xmlns="http://www.w3.org/2000/svg">
  <path d="M23.1796 0.389326C23.0591 0.422396 21.1508 1.13576 18.9389 1.96722C16.7269 2.79869 11.903 4.60807 8.21648 5.99227C4.52991 7.37647 1.33488 8.57643 1.10838 8.66619C0.346971 8.96854 0 9.28034 0 9.67718C0 9.93228 0.120476 10.0976 0.433714 10.263C0.645753 10.3764 6.25031 12.1243 6.45753 12.1432C6.49608 12.148 9.45979 10.3527 13.0452 8.15125C16.6257 5.95448 19.628 4.12147 19.7147 4.07423C19.9075 3.97975 20.2111 3.96085 20.2978 4.04589C20.346 4.09313 20.3412 4.1262 20.2882 4.21596C20.2496 4.27737 17.8401 6.41745 14.9391 8.96854L9.66219 13.6125L9.48871 16.0029C9.39233 17.3163 9.29594 18.5918 9.28149 18.828L9.24775 19.2674H9.45979C9.84532 19.2674 10.0718 19.0926 11.6573 17.6044L13.1512 16.2013L16.0089 18.2517C17.8931 19.6075 18.9581 20.3398 19.1316 20.4106C19.3051 20.4768 19.5075 20.5146 19.7099 20.5146C20.2159 20.5193 20.5147 20.302 20.7653 19.7398C20.8135 19.6217 21.7195 15.573 22.77 10.7401C24.6543 2.07588 24.6832 1.94833 24.6639 1.49952C24.6494 1.09324 24.6302 1.01765 24.5 0.814507C24.2446 0.408223 23.7049 0.233426 23.1796 0.389326Z" fill="#5FA2E8" />
</svg>