<svg width="28" height="28" viewBox="0 0 28 28" fill="none" xmlns="http://www.w3.org/2000/svg">
  <g clip-path="url(#clip0_846_6416)">
    <path d="M12.2227 0.0822906C9.69609 0.410416 7.3664 1.38385 5.35937 2.94791C4.70859 3.45104 3.62578 4.51745 3.10078 5.16823C1.58594 7.04401 0.590623 9.24792 0.16406 11.6542C0.0109353 12.5073 -0.049221 14.5581 0.0492165 15.4932C0.38281 18.6159 1.71719 21.4596 3.91015 23.7292C5.90078 25.7854 8.4 27.1745 11.1125 27.7323C12.9391 28.1042 15.1211 28.0987 16.9258 27.7214C22.2797 26.6003 26.5562 22.3346 27.7211 16.9479C28.0984 15.187 28.0984 12.8135 27.7211 11.0526C26.4633 5.22839 21.6398 0.815102 15.75 0.0822906C14.9187 -0.0161476 13.0102 -0.0161476 12.2227 0.0822906ZM14.4266 5.14635C14.5687 5.21745 14.7219 5.35416 14.8094 5.48541L14.957 5.70963L14.9734 9.63073L14.9898 13.5573L17.3633 15.4549C19.9117 17.4948 19.9609 17.544 19.9609 18.0253C19.9609 18.4464 19.5891 18.8729 19.157 18.9549C18.7633 19.0315 18.6266 18.9385 15.9469 16.7948C14.525 15.6573 13.3109 14.662 13.2453 14.5745C13.1797 14.4924 13.0977 14.3339 13.0648 14.2245C13.0266 14.0932 13.0156 12.6659 13.0266 9.86588L13.043 5.70963L13.1906 5.48541C13.3547 5.23385 13.7156 5.03151 13.9945 5.03151C14.0984 5.03151 14.2898 5.0862 14.4266 5.14635Z" fill="#3697E7" />
  </g>
  <defs>
    <clipPath id="clip0_846_6416">
      <rect width="28" height="28" fill="white" />
    </clipPath>
  </defs>
</svg>