<svg width="21" height="20" viewBox="0 0 21 20" fill="none" xmlns="http://www.w3.org/2000/svg">
  <path d="M9.57966 0.128344C7.76668 0.372921 6.12452 1.04065 4.68812 2.1199C4.19508 2.49259 3.39148 3.2729 2.98773 3.7737C2.12977 4.83742 1.50474 6.07583 1.17476 7.38024C0.957354 8.2382 0.895239 8.70406 0.875828 9.65519C0.833124 11.4293 1.1437 12.823 1.91625 14.3643C2.04048 14.6205 2.1453 14.8457 2.1453 14.8689C2.1453 14.8961 1.83861 16.0375 1.45815 17.4118C1.08158 18.7822 0.786538 19.9158 0.798185 19.9313C0.813714 19.9429 1.97448 19.6557 3.37983 19.2907C4.78906 18.9219 5.96535 18.623 5.99641 18.623C6.02747 18.623 6.25264 18.7162 6.49721 18.8326C7.94914 19.5198 9.42049 19.8265 11.0355 19.776C11.8701 19.7488 12.3515 19.6828 13.1318 19.4926C13.8811 19.3063 14.4207 19.1083 15.17 18.7395C16.1949 18.2348 17.049 17.6253 17.8293 16.8411C18.629 16.0414 19.1725 15.2727 19.6733 14.2556C20.1702 13.2462 20.4614 12.2795 20.6011 11.177C20.6827 10.552 20.6827 9.32132 20.605 8.68465C20.4187 7.16672 19.8752 5.71867 19.025 4.44532C18.7455 4.02604 18.2524 3.40878 17.9884 3.15256C17.8797 3.04774 17.7904 2.9468 17.7904 2.92739C17.7904 2.83033 16.8471 2.06166 16.2182 1.65015C14.9798 0.834898 13.5861 0.322453 12.072 0.12446C11.5052 0.0506992 10.1309 0.0506992 9.57966 0.128344ZM11.909 1.79768C14.9603 2.20919 17.5847 4.3832 18.563 7.31036C19.6461 10.552 18.5979 14.1003 15.9309 16.2277C14.774 17.1517 13.3764 17.7573 11.8895 17.9863C11.2956 18.0756 10.2047 18.0756 9.61848 17.9863C8.55476 17.8194 7.49881 17.4506 6.63697 16.9381C6.47004 16.8411 6.29922 16.7596 6.25652 16.7596C6.20217 16.7596 3.63217 17.4118 3.26725 17.5205C3.21678 17.5321 3.28666 17.2371 3.58947 16.1501C3.7991 15.3853 3.98157 14.7059 3.99321 14.6438C4.01262 14.5467 3.97768 14.4613 3.81075 14.1973C3.32936 13.4248 2.95279 12.4931 2.7548 11.5963C2.11036 8.69241 3.20125 5.56727 5.5422 3.60677C7.30082 2.13154 9.57966 1.48322 11.909 1.79768Z" fill="white" />
  <path d="M7.05627 5.34175C6.71464 5.43104 6.36524 5.78044 6.05467 6.355C5.81397 6.79756 5.73633 7.11979 5.73633 7.67494C5.74021 8.25726 5.81785 8.5756 6.10513 9.18122C6.41571 9.83342 6.73016 10.2876 7.54154 11.2465C8.77219 12.7101 9.80873 13.4943 11.284 14.0805C12.3438 14.5037 12.8058 14.624 13.3648 14.624C13.9898 14.624 14.3936 14.4998 14.9448 14.1349C15.4456 13.801 15.6281 13.5293 15.7484 12.9469C15.8183 12.6014 15.83 12.2831 15.7717 12.1744C15.7252 12.089 15.3602 11.8949 15.2942 11.9181C15.2671 11.9259 15.0031 11.8133 14.7041 11.6619C13.753 11.1883 13.392 11.0524 13.2173 11.1068C13.1746 11.1223 12.9766 11.3358 12.7786 11.5882C12.2584 12.2365 12.1225 12.3724 11.9827 12.3724C11.8352 12.3724 11.0665 12.0152 10.6279 11.7435C10.1931 11.4717 9.6185 10.9903 9.30404 10.6409C8.81489 10.0858 8.31797 9.35203 8.31797 9.17734C8.31797 9.11134 8.41114 8.9677 8.60913 8.73477C8.93912 8.34655 9.13323 8.01268 9.13323 7.83022C9.13323 7.76423 9.08276 7.58953 9.02064 7.44977C8.95853 7.30613 8.78383 6.88297 8.62855 6.51028C8.12386 5.29128 8.1588 5.3301 7.58812 5.31846C7.35908 5.31458 7.12226 5.32622 7.05627 5.34175Z" fill="white" />
</svg>