<svg width="22" height="23" viewBox="0 0 22 23" fill="none" xmlns="http://www.w3.org/2000/svg">
  <path d="M9.72567 0.15419C7.71784 0.425055 5.89918 1.16455 4.30839 2.35979C3.76237 2.77254 2.87239 3.63672 2.42525 4.19135C1.47507 5.36939 0.782865 6.74091 0.417413 8.18552C0.176646 9.13569 0.107855 9.65162 0.0863576 10.705C0.0390639 12.6698 0.383018 14.2133 1.2386 15.9202C1.37619 16.2039 1.49227 16.4533 1.49227 16.4791C1.49227 16.5092 1.15262 17.7732 0.731271 19.2952C0.314227 20.8129 -0.0125292 22.0684 0.000369081 22.0856C0.0175668 22.0985 1.30309 21.7803 2.85949 21.3762C4.42018 20.9677 5.7229 20.6367 5.7573 20.6367C5.7917 20.6367 6.04106 20.7398 6.31193 20.8688C7.91991 21.6298 9.54939 21.9695 11.338 21.9136C12.2623 21.8835 12.7955 21.8104 13.6596 21.5997C14.4894 21.3934 15.0871 21.1741 15.9168 20.7656C17.0519 20.2067 17.9978 19.5317 18.8619 18.6632C19.7476 17.7775 20.3496 16.9262 20.9042 15.7998C21.4545 14.6819 21.777 13.6114 21.9317 12.3904C22.022 11.6981 22.022 10.3352 21.936 9.63012C21.7297 7.94905 21.1277 6.34536 20.1862 4.93515C19.8766 4.47081 19.3306 3.7872 19.0382 3.50344C18.9178 3.38736 18.819 3.27557 18.819 3.25408C18.819 3.14659 17.7742 2.2953 17.0777 1.83957C15.7062 0.936686 14.1627 0.369162 12.4859 0.149891C11.8582 0.0682011 10.3362 0.0682011 9.72567 0.15419ZM12.3053 2.00294C15.6847 2.45868 18.5911 4.86636 19.6745 8.10813C20.8741 11.6981 19.7132 15.6278 16.7595 17.9839C15.4783 19.0072 13.9305 19.6779 12.2838 19.9315C11.626 20.0304 10.4179 20.0304 9.76866 19.9315C8.59062 19.7467 7.42118 19.3382 6.4667 18.7707C6.28183 18.6632 6.09265 18.5729 6.04536 18.5729C5.98517 18.5729 3.13895 19.2952 2.7348 19.4156C2.67891 19.4285 2.7563 19.1018 3.09166 17.8979C3.32382 17.0509 3.5259 16.2985 3.5388 16.2297C3.56029 16.1223 3.5216 16.0277 3.33672 15.7353C2.80359 14.8797 2.38655 13.8479 2.16728 12.8547C1.45357 9.63872 2.66171 6.17768 5.25427 4.00648C7.20191 2.37269 9.72567 1.65469 12.3053 2.00294Z" fill="#2ECC4A" />
  <path d="M6.93193 5.92906C6.55358 6.02794 6.16663 6.41489 5.82268 7.05121C5.55611 7.54134 5.47012 7.8982 5.47012 8.51301C5.47442 9.15793 5.56041 9.51048 5.87857 10.1812C6.22252 10.9035 6.57078 11.4065 7.46936 12.4685C8.83227 14.0894 9.98022 14.9579 11.614 15.6071C12.7877 16.0757 13.2994 16.209 13.9185 16.209C14.6107 16.209 15.0578 16.0714 15.6684 15.6673C16.223 15.2975 16.4251 14.9965 16.5583 14.3516C16.6357 13.969 16.6486 13.6164 16.5841 13.496C16.5325 13.4015 16.1284 13.1865 16.0553 13.2123C16.0252 13.2209 15.7329 13.0962 15.4018 12.9285C14.3484 12.404 13.9486 12.2535 13.7551 12.3137C13.7078 12.3309 13.4886 12.5674 13.2693 12.8468C12.6932 13.5648 12.5427 13.7153 12.3879 13.7153C12.2245 13.7153 11.3732 13.3198 10.8874 13.0188C10.4059 12.7179 9.76955 12.1847 9.4213 11.7978C8.87957 11.183 8.32924 10.3704 8.32924 10.1769C8.32924 10.1038 8.43243 9.94472 8.6517 9.68676C9.01715 9.25681 9.23212 8.88706 9.23212 8.68499C9.23212 8.6119 9.17623 8.41843 9.10744 8.26365C9.03865 8.10457 8.84517 7.63593 8.6732 7.22318C8.11427 5.87317 8.15296 5.91616 7.52095 5.90326C7.26728 5.89896 7.00502 5.91186 6.93193 5.92906Z" fill="#2ECC4A" />
</svg>